# Blender 4.1.1
# www.blender.org
mtllib Bones_4.mtl
o Bones_4
v -0.027865 0.000072 -0.075130
v -0.016075 0.016747 -0.087741
v -0.012195 -0.015519 -0.071077
v -0.023727 0.031571 -0.095154
v 0.009273 -0.015520 -0.067795
v -0.008696 0.047042 -0.096717
v 0.025508 0.000074 -0.067122
v 0.013595 0.047040 -0.093314
v 0.021648 0.016732 -0.070802
v 0.027416 0.031514 -0.087472
v 0.025509 0.033393 -0.067129
v 0.009273 0.048980 -0.067794
v 0.027442 0.001961 -0.087590
v -0.012196 0.048978 -0.071076
v 0.013613 -0.013582 -0.093441
v -0.027865 0.033392 -0.075137
v -0.008675 -0.013584 -0.096844
v -0.023078 0.016732 -0.077398
v -0.023713 0.001902 -0.095278
v -0.024499 0.016755 -0.066254
v -0.020930 0.028090 -0.063450
v -0.009395 0.035976 -0.058971
v 0.002984 0.035975 -0.057073
v 0.015236 0.027561 -0.057368
v 0.019334 0.016730 -0.059007
v 0.015236 0.005899 -0.057369
v 0.002984 -0.002515 -0.057073
v -0.009395 -0.002516 -0.058971
v -0.021002 0.005888 -0.062956
v -0.005746 0.016839 -0.097596
v -0.010133 0.016819 -0.092067
v 0.000450 0.021875 -0.100285
v 0.005999 0.021874 -0.099429
v 0.011236 0.016777 -0.094932
v 0.015635 0.016818 -0.086261
v 0.006012 0.011645 -0.099545
v 0.000472 0.011645 -0.100399
v -0.005730 0.016687 -0.097682
v 0.000393 0.031913 -0.024306
v 0.011148 0.001586 -0.023652
v -0.022854 0.003359 -0.027325
v -0.023429 0.000091 0.088995
v -0.008355 0.016746 0.097730
v -0.009633 -0.015509 0.080558
v -0.013509 0.031534 0.107063
v 0.009958 -0.015547 0.071201
v 0.001241 0.046991 0.104115
v 0.025311 0.000023 0.065819
v 0.021536 0.047016 0.094353
v 0.022697 0.016732 0.070459
v 0.033052 0.031513 0.084719
v 0.025316 0.033446 0.065828
v 0.009961 0.049004 0.071197
v 0.033104 0.001936 0.084891
v -0.009637 0.048965 0.080550
v 0.021743 -0.013562 0.095353
v -0.023431 0.033362 0.088999
v 0.002044 -0.013540 0.105786
v -0.018184 0.016733 0.089767
v -0.012998 0.001766 0.107858
v -0.021853 0.025178 -0.026932
v -0.011827 0.031880 -0.025285
v 0.011089 0.024371 -0.024032
v 0.015029 0.013022 -0.024297
v -0.000909 -0.005891 -0.024240
v -0.023039 0.016875 0.078203
v -0.020352 0.027704 0.075054
v -0.010368 0.036137 0.068553
v 0.001399 0.036375 0.063371
v 0.013365 0.027542 0.060048
v 0.017462 0.016637 0.060437
v 0.012944 0.005949 0.059535
v 0.001030 -0.002488 0.062516
v -0.010621 -0.002338 0.068027
v -0.020558 0.006314 0.074722
v 0.004674 0.016395 0.104965
v -0.001173 0.016709 0.100386
v 0.011299 0.021388 0.105748
v 0.016166 0.021497 0.103103
v 0.019703 0.016509 0.096974
v 0.021434 0.016822 0.087004
v 0.019715 0.016467 0.097078
v 0.016262 0.011275 0.103747
v 0.011505 0.011215 0.106334
v 0.004729 0.016181 0.105053
v -0.025939 0.024562 0.028136
v -0.016672 0.030940 0.028088
v -0.004596 0.031050 0.027856
v 0.005356 0.023868 0.027474
v 0.009106 0.012273 0.027064
v 0.005326 0.000589 0.026604
v -0.003561 -0.006445 0.026652
v -0.026435 0.000585 0.027811
vn -0.9918 0.0318 0.1236
vn -0.9840 0.0570 -0.1689
vn -0.9937 0.1100 0.0203
vn -0.9666 0.2523 -0.0453
vn -0.9475 -0.2413 0.2097
vn 0.9031 -0.3806 0.1989
vn 0.9464 0.2789 0.1629
vn 0.9351 -0.3265 0.1381
vn 0.8803 0.3802 0.2837
vn 0.9466 -0.2788 0.1620
vn 0.8781 -0.4008 0.2612
vn -0.9988 0.0423 -0.0262
vn -0.7804 -0.4786 -0.4025
vn -0.5545 -0.6257 -0.5486
vn -0.7032 -0.5056 -0.4999
vn -0.5559 0.6242 -0.5489
vn -0.7809 0.4792 -0.4007
vn -0.7059 0.5073 -0.4944
vn 0.8658 0.4798 -0.1418
vn 0.7129 0.5991 -0.3645
vn 0.8073 0.5381 -0.2424
vn 0.8066 -0.5398 -0.2411
vn 0.7135 -0.6015 -0.3592
vn 0.8653 -0.4806 -0.1427
vn -0.9231 0.0018 0.3845
vn -0.9957 0.0240 0.0895
vn -0.9635 -0.0204 0.2671
vn -0.9819 -0.1271 0.1403
vn 0.7844 0.2034 -0.5860
vn 0.8318 0.2840 -0.4769
vn 0.4131 -0.0981 -0.9054
vn 0.6981 -0.0824 -0.7113
vn 0.8638 0.2515 -0.4365
vn -0.9992 0.0397 0.0053
vn -0.6359 -0.4824 0.6025
vn -0.4149 -0.6376 0.6492
vn -0.4843 -0.6611 0.5731
vn -0.6217 0.4891 0.6118
vn -0.3727 0.6338 0.6778
vn -0.5395 0.5109 0.6693
vn 0.8704 0.4800 -0.1095
vn 0.8446 0.5353 0.0036
vn 0.7880 0.5957 0.1554
vn 0.8409 -0.5410 -0.0137
vn 0.8688 -0.4808 -0.1185
vn 0.7877 -0.6046 0.1178
vn -0.9278 -0.3720 0.0288
vn 0.8779 0.4002 0.2630
vn 0.9310 0.3246 0.1671
vn -0.3380 -0.9399 -0.0476
vn -0.5643 -0.8209 -0.0876
vn -0.3969 -0.9161 -0.0569
vn -0.5572 0.2197 -0.8008
vn -0.0380 0.0677 -0.9970
vn -0.4734 0.1380 -0.8700
vn -0.0365 -0.0572 -0.9977
vn 0.5454 0.0092 -0.8381
vn 0.5322 0.0040 -0.8466
vn 0.5457 -0.0001 -0.8380
vn -0.7570 0.2594 -0.5997
vn -0.5954 -0.6480 -0.4749
vn -0.5942 0.6445 -0.4811
vn -0.8930 -0.3714 0.2541
vn -0.8891 0.3693 0.2704
vn 0.5319 -0.3025 -0.7909
vn -0.4076 -0.9048 0.1236
vn -0.5795 -0.7971 0.1699
vn -0.3067 -0.9516 0.0201
vn -0.3157 0.1760 0.9324
vn -0.6018 0.1699 0.7803
vn -0.2194 0.1237 0.9678
vn 0.2648 -0.0314 0.9638
vn 0.2547 0.1029 0.9615
vn 0.8782 0.2573 0.4032
vn 0.7755 0.6123 0.1539
vn 0.8398 0.4280 0.3339
vn 0.7957 0.0214 0.6053
vn 0.7897 0.0253 0.6129
vn -0.5363 -0.5059 0.6756
vn -0.4328 0.6532 0.6213
vn -0.2044 -0.0072 -0.9789
vn -0.0197 -0.1053 -0.9942
vn 0.4843 0.0090 -0.8748
vn 0.6722 0.6992 -0.2435
vn -0.9978 0.0662 0.0038
vn -0.9963 0.0844 -0.0141
vn -0.6150 -0.6984 0.3661
vn 0.7875 -0.6145 0.0472
vn 0.5586 -0.8294 0.0033
vn 0.5472 -0.8365 -0.0310
vn 0.0312 -0.9974 0.0650
vn 0.4855 -0.0049 -0.8742
vn 0.7146 0.6985 0.0389
vn 0.1511 -0.0992 -0.9835
vn 0.1485 -0.1903 -0.9704
vn -0.5616 0.5948 -0.5751
vn -0.3235 0.6520 -0.6857
vn -0.5060 0.7889 -0.3488
vn -0.6136 0.4843 0.6237
vn -0.3627 0.6019 0.7115
vn -0.3760 0.5972 0.7085
vn 0.1670 -0.4881 -0.8566
vn 0.7975 0.5900 0.1261
vn 0.7895 0.6080 -0.0841
vn 0.9445 0.3210 -0.0703
vn 0.9387 0.3193 0.1299
vn 0.9442 -0.3264 -0.0448
vn 0.7818 -0.6235 -0.0007
vn 0.9427 -0.3215 0.0891
vn 0.5709 0.8172 -0.0793
vn 0.5510 0.8050 -0.2197
vn 0.7627 0.5950 -0.2537
vn 0.1472 0.4743 -0.8680
vn -0.3439 0.9384 -0.0343
vn -0.0440 0.9905 -0.1301
vn -0.0254 0.9980 -0.0577
vn -0.6125 0.6986 0.3699
vn -0.7277 0.6344 -0.2609
vn -0.7621 0.4926 -0.4201
vn 0.0113 0.9972 -0.0738
vn 0.0545 0.0197 0.9983
vn 0.2760 -0.0947 0.9565
vn -0.1912 -0.9794 0.0646
vn -0.2676 -0.9635 0.0067
vn 0.7325 0.0145 0.6807
vn 0.7488 0.0125 0.6627
vn 0.2650 0.1344 0.9549
vn 0.4523 0.1481 0.8795
vn 0.4307 0.2174 0.8759
vn 0.7147 -0.6983 0.0393
vn 0.4718 -0.0778 0.8783
vn 0.6717 -0.7005 -0.2411
vn -0.3657 -0.6023 0.7096
vn -0.3753 -0.5989 0.7074
vn -0.1131 -0.6640 0.7392
vn 0.5648 0.8121 0.1467
vn 0.5726 0.8126 0.1085
vn 0.8795 -0.4391 -0.1835
vn -0.3238 -0.6660 -0.6720
vn -0.5635 -0.6034 -0.5642
vn -0.5604 -0.6046 -0.5660
vn 0.4017 -0.4888 0.7744
vn 0.1485 0.1912 -0.9703
vn 0.1509 0.1100 -0.9824
vn -0.0198 0.1064 -0.9941
vn -0.7665 -0.4936 -0.4110
vn -0.6125 -0.4879 0.6219
vn -0.5835 0.8120 -0.0140
vn -0.1131 0.6639 0.7392
vn -0.2997 -0.9532 -0.0409
vn -0.3022 0.9524 0.0407
vn -0.0109 0.9976 0.0689
vn 0.4613 -0.1932 0.8660
vn -0.6934 0.6994 -0.1735
vn 0.4018 0.4888 0.7744
vn 0.9266 -0.3331 -0.1744
vn 0.8177 -0.5667 -0.1005
vn -0.0154 0.9926 0.1207
vn -0.3294 0.9400 0.0888
vn -0.2558 -0.9662 -0.0314
vn -0.2043 0.0085 -0.9789
vn 0.0673 0.0352 0.9971
vn 0.9105 0.3178 -0.2647
vn -0.6936 -0.6992 -0.1732
vn 0.5824 -0.8127 0.0195
vn 0.5970 -0.8022 0.0027
vn -0.5653 0.8248 0.0122
vn -0.5701 0.8197 0.0546
vn 0.0317 0.9971 0.0694
vn 0.0112 -0.9972 -0.0734
vt 0.513892 0.137020
vt 0.513902 0.136211
vt 0.513908 0.136213
vt 0.513924 0.135025
vt 0.513892 0.135439
vt 0.513725 0.135440
vt 0.513696 0.136211
vt 0.513706 0.136211
vt 0.513725 0.136982
vt 0.513678 0.137397
vt 0.513932 0.135261
vt 0.513905 0.137267
vt 0.513842 0.136217
vt 0.513869 0.136212
vt 0.513905 0.135155
vt 0.513669 0.135159
vt 0.513744 0.136212
vt 0.513723 0.136217
vt 0.513744 0.136214
vt 0.513669 0.137263
vt 0.513879 0.136211
vt 0.513889 0.136992
vt 0.513901 0.136221
vt 0.513890 0.135469
vt 0.513715 0.136204
vt 0.513679 0.135021
vt 0.513736 0.135443
vt 0.513734 0.136981
vt 0.513691 0.136211
vt 0.513917 0.135061
vt 0.513858 0.137265
vt 0.513801 0.136209
vt 0.513774 0.136187
vt 0.513855 0.135145
vt 0.513834 0.136212
vt 0.513643 0.135158
vt 0.513697 0.136217
vt 0.513705 0.136192
vt 0.513643 0.137263
vt 0.513705 0.136195
vt 0.513924 0.137397
vt 0.513678 0.135025
vt 0.513839 0.134841
vt 0.513822 0.136219
vt 0.513793 0.136577
vt 0.513822 0.136208
vt 0.513793 0.135849
vt 0.513768 0.136577
vt 0.513768 0.135849
vt 0.513903 0.137395
vt 0.513903 0.135026
vt 0.513679 0.137401
vt 0.513844 0.134853
vt 0.513774 0.136172
vt 0.513742 0.135818
vt 0.513743 0.136542
vt 0.513721 0.135823
vt 0.513721 0.136550
vt 0.513835 0.134053
vt 0.513733 0.138369
vt 0.513749 0.138509
vt 0.513696 0.138367
vt 0.513915 0.136768
vt 0.513911 0.136755
vt 0.513840 0.133916
vt 0.513786 0.134056
vt 0.513771 0.135156
vt 0.513827 0.134582
vt 0.513782 0.134841
vt 0.513695 0.134054
vt 0.513750 0.133913
vt 0.513733 0.134053
vt 0.513753 0.138507
vt 0.513840 0.138506
vt 0.513789 0.137609
vt 0.513843 0.137593
vt 0.513839 0.137581
vt 0.513852 0.138507
vt 0.513791 0.134843
vt 0.513771 0.136697
vt 0.513771 0.136719
vt 0.513753 0.135894
vt 0.513756 0.135971
vt 0.513771 0.135062
vt 0.513817 0.137230
vt 0.513872 0.137223
vt 0.513790 0.138365
vt 0.513835 0.138369
vt 0.513812 0.134561
vt 0.513753 0.133915
vt 0.513852 0.133915
vt 0.513782 0.137581
vt 0.513814 0.137238
vt 0.513872 0.137270
s 1
usemtl Graveyard
f 21/1/1 18/2/2 20/3/3
f 20/3/3 1/4/4 29/5/5
f 26/6/6 9/7/7 25/8/8
f 24/9/9 9/7/10 11/10/11
f 41/11/12 20/3/3 29/5/5
f 4/12/13 31/13/14 2/14/15
f 31/13/16 19/15/17 2/14/18
f 13/16/19 34/17/20 35/18/21
f 35/18/22 34/19/23 10/20/24
f 59/21/25 67/22/26 66/23/27
f 75/24/28 59/21/25 66/23/27
f 71/25/29 48/26/30 72/27/31
f 70/28/32 50/29/33 71/25/29
f 93/30/34 75/24/28 66/23/27
f 45/31/35 77/32/36 76/33/37
f 60/34/38 77/32/39 43/35/40
f 54/36/41 81/37/42 82/38/43
f 81/37/44 51/39/45 80/40/46
f 21/1/1 16/41/47 18/2/2
f 20/3/3 18/2/2 1/4/4
f 26/6/6 7/42/48 9/7/7
f 24/9/9 25/8/49 9/7/10
f 41/11/50 29/5/51 28/43/52
f 30/44/53 32/45/54 38/46/55
f 38/46/55 32/45/54 37/47/56
f 33/48/57 34/19/58 36/49/59
f 38/46/55 31/13/60 30/44/53
f 4/12/13 30/44/61 31/13/14
f 31/13/16 38/46/62 19/15/17
f 59/21/25 57/50/63 67/22/26
f 75/24/28 42/51/64 59/21/25
f 71/25/29 50/29/33 48/26/30
f 70/28/32 52/52/65 50/29/33
f 74/53/66 75/24/67 93/30/68
f 76/33/69 77/32/70 85/54/71
f 85/54/71 84/55/72 78/56/73
f 82/38/74 81/37/75 80/40/76
f 83/57/77 82/38/74 79/58/78
f 78/56/73 76/33/69 85/54/71
f 80/40/76 79/58/78 82/38/74
f 45/31/35 43/35/79 77/32/36
f 60/34/38 85/54/80 77/32/39
f 19/15/81 38/46/55 37/47/56 17/59/82
f 10/20/83 34/19/58 33/48/57 8/60/83
f 9/7/10 35/18/22 10/20/24 11/10/11
f 53/61/84 49/62/84 51/39/84 52/52/84
f 41/11/12 93/30/34 86/63/85 61/64/86
f 44/65/87 58/66/87 60/34/87 42/51/87
f 40/67/88 65/68/89 27/69/90 26/6/6
f 56/70/91 58/66/91 44/65/91 46/71/91
f 36/49/59 34/17/58 13/16/92 15/72/92
f 50/29/33 81/37/42 54/36/41 48/26/30
f 12/73/93 11/10/93 10/20/93 8/60/93
f 61/64/86 21/1/1 20/3/3 41/11/12
f 37/47/56 36/49/94 15/72/95 17/59/82
f 55/74/96 53/61/97 69/75/97 68/76/98
f 21/1/99 22/77/100 14/78/101 16/41/99
f 66/23/27 67/22/26 86/63/85 93/30/34
f 72/27/102 48/26/102 46/71/102 73/79/102
f 63/80/103 89/81/104 90/82/105 64/83/106
f 90/82/107 91/84/108 40/67/88 64/83/109
f 88/85/110 69/75/111 70/28/112 89/81/104
f 53/61/113 52/52/113 70/28/113 69/75/113
f 87/86/114 68/76/98 69/75/115 88/85/116
f 45/31/117 47/87/117 55/74/117 57/50/117
f 67/22/118 57/50/119 55/74/96 68/76/98
f 12/73/120 8/60/120 6/88/120 14/78/120
f 60/34/121 58/66/122 84/55/72 85/54/71
f 73/79/123 74/53/66 93/30/68 92/89/124
f 51/39/125 49/62/125 79/58/78 80/40/76
f 54/36/126 82/38/74 83/57/77 56/70/126
f 47/87/127 78/56/73 79/58/128 49/62/129
f 9/7/7 7/42/48 13/16/19 35/18/21
f 60/34/38 43/35/40 59/21/25 42/51/64
f 5/90/130 15/72/130 13/16/130 7/42/130
f 83/57/131 79/58/128 78/56/73 84/55/72
f 54/36/132 56/70/132 46/71/132 48/26/132
f 28/43/133 3/91/134 5/90/135 27/69/135
f 63/80/103 24/9/9 23/92/136 39/93/137
f 18/2/2 2/14/18 19/15/17 1/4/4
f 51/39/45 81/37/44 50/29/138 52/52/138
f 73/79/139 46/71/139 44/65/140 74/53/141
f 26/6/142 27/69/142 5/90/142 7/42/142
f 8/60/143 33/48/144 32/45/54 6/88/145
f 64/83/109 40/67/88 26/6/6 25/8/8
f 44/65/140 42/51/146 75/24/146 74/53/141
f 29/5/147 1/4/147 3/91/134 28/43/133
f 86/63/148 67/22/118 68/76/98 87/86/114
f 22/77/100 23/92/149 12/73/149 14/78/101
f 92/89/124 93/30/68 41/11/50 65/68/150
f 62/94/151 87/86/114 88/85/116 39/93/152
f 58/66/122 56/70/153 83/57/131 84/55/72
f 14/78/154 6/88/154 4/12/154 16/41/154
f 24/9/155 11/10/155 12/73/155 23/92/155
f 90/82/107 71/25/156 72/27/157 91/84/108
f 62/94/151 39/93/152 23/92/158 22/77/159
f 59/21/25 43/35/79 45/31/35 57/50/63
f 65/68/150 41/11/50 28/43/52 27/69/160
f 32/45/54 30/44/53 4/12/161 6/88/145
f 18/2/2 16/41/47 4/12/13 2/14/15
f 45/31/162 76/33/69 78/56/73 47/87/127
f 89/81/104 70/28/112 71/25/163 90/82/105
f 3/91/164 1/4/164 19/15/164 17/59/164
f 91/84/108 92/89/165 65/68/89 40/67/88
f 91/84/108 72/27/157 73/79/166 92/89/165
f 64/83/106 25/8/49 24/9/9 63/80/103
f 61/64/167 86/63/148 87/86/114 62/94/151
f 61/64/167 62/94/151 22/77/159 21/1/168
f 39/93/137 88/85/110 89/81/104 63/80/103
f 47/87/169 49/62/169 53/61/169 55/74/169
f 5/90/170 3/91/170 17/59/170 15/72/170
f 33/48/144 36/49/94 37/47/56 32/45/54
