# Blender 4.1.1
# www.blender.org
mtllib Bones_5.mtl
o Bones_5
v -0.023341 0.076696 -0.069505
v -0.001960 0.062293 -0.096309
v -0.048061 0.056515 -0.071933
v 0.022706 0.073911 -0.110519
v -0.053488 0.020080 -0.063208
v 0.044373 0.047749 -0.120065
v -0.034062 -0.001827 -0.072485
v 0.039378 0.011429 -0.121333
v -0.008936 0.001231 -0.077842
v 0.011335 -0.008461 -0.113521
v 0.014917 -0.008314 -0.074955
v 0.040282 0.011775 -0.072373
v -0.035754 -0.002142 -0.111238
v 0.044680 0.043663 -0.071276
v -0.058838 0.020442 -0.111763
v 0.025746 0.069880 -0.071989
v -0.052818 0.061080 -0.120328
v 0.000173 0.067267 -0.074970
v -0.024461 0.080380 -0.108230
v 0.001175 0.063388 -0.053821
v 0.015401 0.055968 -0.051881
v 0.024737 0.038315 -0.050402
v 0.022324 0.020755 -0.051020
v 0.008605 0.006443 -0.053600
v -0.007077 0.003291 -0.055894
v -0.020897 0.010455 -0.051905
v -0.033839 0.027222 -0.051466
v -0.031089 0.047279 -0.050765
v -0.014096 0.059942 -0.050188
v -0.003232 0.049441 -0.121103
v -0.003355 0.056334 -0.106115
v 0.002862 0.040177 -0.128198
v 0.001527 0.030460 -0.128566
v -0.006963 0.022589 -0.122026
v -0.009212 0.011906 -0.103751
v -0.010832 0.023109 -0.121933
v -0.017705 0.033071 -0.127510
v -0.016371 0.042775 -0.127160
v -0.007184 0.049985 -0.121017
v 0.016034 0.049585 -0.029161
v 0.022923 0.036179 -0.031333
v 0.020563 0.021102 -0.032005
v 0.009865 0.010290 -0.030907
v -0.004918 0.007915 -0.028489
v -0.018054 0.014736 -0.025704
v -0.024636 0.028025 -0.023602
v -0.022295 0.042766 -0.022952
v -0.011915 0.053488 -0.023993
v 0.002689 0.056143 -0.026354
v -0.016130 0.070752 0.075664
v 0.007878 0.054138 0.098970
v -0.041834 0.050706 0.077280
v 0.033963 0.064628 0.111539
v -0.045915 0.025152 0.066725
v 0.056402 0.037772 0.116596
v -0.026878 -0.008133 0.073075
v 0.051394 0.001374 0.115294
v -0.001216 -0.005422 0.076146
v 0.022571 -0.017971 0.108716
v 0.022290 -0.014631 0.070049
v 0.047469 0.005802 0.066615
v -0.024605 -0.011662 0.111713
v 0.051890 0.037834 0.067775
v -0.046238 0.021417 0.115482
v 0.033147 0.063933 0.072616
v -0.041612 0.051049 0.119163
v 0.007879 0.060957 0.077952
v -0.013292 0.071081 0.114551
v 0.007452 0.052569 0.000058
v 0.020161 0.046442 -0.000842
v 0.026827 0.034005 -0.001703
v 0.024904 0.020008 -0.002198
v 0.015127 0.009797 -0.002137
v 0.001229 0.007273 -0.001543
v -0.011480 0.013400 -0.000644
v -0.018146 0.025837 0.000218
v -0.016223 0.039834 0.000713
v -0.006445 0.050045 0.000652
v 0.006729 0.058884 0.056408
v 0.020725 0.051680 0.052401
v 0.029837 0.034166 0.048482
v 0.027411 0.016518 0.047855
v 0.013893 0.001909 0.050609
v -0.001570 -0.001509 0.054222
v -0.015762 0.005944 0.052236
v -0.025083 0.023617 0.050846
v -0.022658 0.041281 0.051473
v -0.008923 0.055677 0.054026
v 0.009046 0.039169 0.122529
v 0.007447 0.047334 0.108324
v 0.015788 0.029347 0.128110
v 0.014453 0.019617 0.127788
v 0.005306 0.012269 0.121554
v 0.001173 0.003102 0.102827
v 0.001442 0.012779 0.121897
v -0.004802 0.022228 0.128911
v -0.003466 0.031946 0.129249
v 0.005100 0.039703 0.122888
v 0.018616 0.047462 0.027445
v 0.025767 0.034119 0.026520
v 0.023704 0.019103 0.025990
v 0.013215 0.008149 0.026055
v -0.001695 0.005441 0.026692
v -0.015329 0.012014 0.027657
v -0.022480 0.025357 0.028581
v -0.020417 0.040373 0.029112
v -0.009927 0.051327 0.029046
v 0.004982 0.054035 0.028409
vn -0.2026 0.9274 0.3146
vn 0.1396 0.9734 0.1816
vn 0.4911 0.8490 0.1952
vn -0.4600 -0.7971 0.3912
vn -0.1082 -0.9370 0.3322
vn -0.2368 -0.9483 0.2111
vn -0.4084 0.9000 -0.1525
vn -0.5629 0.7449 -0.3581
vn -0.4136 0.8955 -0.1644
vn 0.6959 0.5727 -0.4334
vn 0.6141 0.7579 -0.2199
vn 0.6145 0.7553 -0.2276
vn 0.3880 -0.8811 -0.2702
vn 0.5121 -0.7101 -0.4832
vn 0.4217 -0.8467 -0.3246
vn -0.6653 -0.7005 -0.2582
vn -0.7332 -0.5439 -0.4082
vn -0.6334 -0.7469 -0.2024
vn -0.2363 0.9502 -0.2032
vn 0.1250 0.9860 -0.1106
vn 0.0007 0.9800 -0.1990
vn -0.1449 -0.9067 -0.3961
vn -0.4830 -0.8354 -0.2623
vn -0.2613 -0.9285 -0.2638
vn -0.3862 0.8822 0.2695
vn -0.5200 0.7086 0.4769
vn -0.5218 0.7129 0.4685
vn 0.6355 0.7397 0.2215
vn 0.7375 0.5364 0.4104
vn 0.6372 0.7358 0.2295
vn 0.4087 -0.8993 0.1560
vn 0.4483 -0.8688 0.2104
vn 0.5545 -0.7452 0.3704
vn -0.6384 -0.7222 0.2663
vn -0.6122 -0.7642 0.2029
vn -0.6897 -0.5786 0.4354
vn 0.0295 0.9595 0.2802
vn 0.1954 -0.8921 0.4074
vn -0.1090 -0.5921 -0.7985
vn -0.1265 -0.8495 -0.5122
vn -0.1442 -0.5765 -0.8043
vn 0.0847 0.6617 -0.7449
vn 0.1152 0.9028 -0.4143
vn 0.0633 0.6612 -0.7475
vn -0.5638 0.7486 -0.3489
vn 0.6986 0.5758 -0.4248
vn 0.4724 0.8648 -0.1704
vn 0.1498 -0.8545 -0.4973
vn 0.1408 0.5929 0.7929
vn 0.1603 0.8635 0.4783
vn 0.1005 0.5859 0.8041
vn -0.1008 -0.6248 0.7743
vn -0.0772 -0.8886 0.4521
vn -0.0299 -0.6547 0.7553
vn -0.3907 0.8762 0.2821
vn 0.7393 0.5402 0.4021
vn -0.1357 0.9853 -0.1039
vn 0.4370 0.8654 -0.2453
vn 0.5939 -0.7984 -0.0996
vn -0.9744 -0.1862 -0.1262
vn -0.8865 0.4506 -0.1048
vn -0.8937 0.4319 -0.1219
vn -0.9768 -0.1639 -0.1381
vn -0.1511 -0.9836 0.0982
vn -0.6740 -0.7158 0.1825
vn -0.9446 -0.1891 0.2682
vn -0.6827 -0.2868 0.6720
vn 0.5569 -0.3344 -0.7603
vn 0.4057 -0.5737 -0.7116
vn 0.5630 -0.3223 -0.7610
vn -0.0768 -0.3763 -0.9233
vn 0.0062 -0.1868 -0.9824
vn 0.0651 -0.1803 -0.9815
vn -0.2300 -0.8908 -0.3918
vn 0.1909 -0.9329 -0.3052
vn 0.7065 0.1476 0.6921
vn 0.6341 -0.3823 0.6721
vn 0.6280 -0.3942 0.6710
vn 0.7037 0.1614 0.6919
vn 0.1037 -0.2671 0.9581
vn -0.1367 -0.2367 0.9619
vn -0.8638 0.4891 0.1208
vn -0.8583 0.4987 0.1209
vn -0.9634 -0.2501 0.0969
vn -0.9512 -0.2937 0.0944
vn 0.4720 -0.6289 0.6178
vn 0.0150 -0.4499 0.8930
vn 0.1614 -0.2601 0.9520
vn -0.1876 -0.3552 0.9158
vn -0.2504 -0.1885 0.9496
vn 0.0996 0.4644 -0.8800
vn -0.0657 0.2203 -0.9732
vn -0.1105 0.1700 -0.9792
vn 0.6172 0.4306 0.6585
vn -0.9809 -0.1891 0.0460
vn -0.6739 -0.7388 0.0044
vn 0.1684 0.9852 0.0325
vn 0.1149 0.9869 -0.1132
vn 0.6831 0.7253 -0.0857
vn 0.7107 0.7035 -0.0060
vn -0.6130 0.7816 0.1154
vn -0.5774 0.3899 0.7173
vn -0.4870 0.5569 0.6728
vn -0.5764 0.3922 0.7169
vn -0.4472 0.8923 0.0619
vn -0.4877 0.8652 -0.1162
vn -0.4338 0.8659 0.2489
vn -0.6218 0.7332 0.2753
vn -0.8483 0.4406 0.2938
vn -0.7162 -0.6956 0.0574
vn 0.5974 -0.8015 -0.0261
vn 0.7922 0.6097 0.0263
vn 0.8999 -0.4317 -0.0611
vn 0.8930 -0.4492 -0.0266
vn 0.9855 0.1694 -0.0015
vn 0.9855 0.1649 -0.0409
vn -0.0561 0.1660 0.9845
vn 0.1628 0.1639 0.9730
vn -0.6000 -0.4358 -0.6709
vn -0.6758 -0.0167 -0.7369
vn -0.6688 -0.1221 -0.7334
vn -0.5685 -0.2006 0.7979
vn -0.4134 -0.5317 0.7392
vn 0.3262 -0.9440 0.0489
vn -0.5913 0.4637 -0.6598
vn -0.5990 0.4455 -0.6654
vn -0.8757 0.4828 0.0105
vn -0.8547 0.5190 0.0111
vn -0.5946 0.8039 0.0158
vn 0.9801 0.1851 -0.0718
vn 0.9632 0.2023 -0.1769
vn 0.8753 -0.4410 -0.1984
vn 0.8962 -0.4348 -0.0880
vn 0.4860 -0.8719 -0.0599
vn 0.4626 -0.8864 0.0150
vn -0.7036 -0.6928 -0.1582
vn -0.8942 0.4424 0.0686
vn -0.1538 -0.9742 -0.1653
vn 0.4658 -0.8756 -0.1277
vn -0.1107 -0.9932 -0.0360
vn 0.8866 -0.4545 0.0861
vn 0.9769 0.1845 0.1082
vn 0.9906 -0.1358 -0.0175
vn -0.1933 -0.9211 0.3379
vn 0.2158 -0.9533 0.2113
vn 0.7015 0.7082 0.0800
vn 0.4680 0.8393 0.2766
vn -0.5172 0.6086 -0.6018
vn 0.7884 0.6129 -0.0523
vn 0.6354 0.2086 -0.7435
vn 0.6327 0.2224 -0.7418
vn 0.0658 0.2475 -0.9666
vn -0.1208 0.9721 0.2008
vn -0.9415 0.1256 0.3127
vn -0.1741 -0.2069 -0.9627
vn -0.9823 -0.1871 -0.0101
vn -0.9781 -0.2079 -0.0110
vn -0.1571 0.1411 0.9775
vn 0.1263 0.3677 0.9213
vn 0.2160 0.1415 0.9661
vn 0.3162 -0.9352 -0.1595
vn 0.1202 0.2247 -0.9670
vn 0.5508 0.4878 -0.6772
vn 0.1445 0.9730 0.1801
vn -0.8520 -0.5230 -0.0245
vn 0.0354 0.4475 -0.8936
vn -0.1772 -0.3365 -0.9248
vn -0.2325 -0.2281 -0.9455
vn 0.0114 0.3541 0.9351
vn -0.5566 -0.8260 0.0883
vn -0.5665 -0.8180 -0.0997
vn 0.9869 -0.1327 -0.0915
vt 0.513656 0.137789
vt 0.513591 0.138311
vt 0.513699 0.138982
vt 0.513688 0.134266
vt 0.513633 0.133609
vt 0.513624 0.133756
vt 0.513487 0.138784
vt 0.513607 0.137532
vt 0.513600 0.137957
vt 0.513704 0.139244
vt 0.513756 0.133369
vt 0.513641 0.135167
vt 0.513634 0.134369
vt 0.513623 0.135130
vt 0.513539 0.132919
vt 0.513633 0.137486
vt 0.513555 0.137861
vt 0.513560 0.137714
vt 0.513597 0.133136
vt 0.513664 0.133945
vt 0.513599 0.133414
vt 0.513435 0.138123
vt 0.513557 0.136892
vt 0.513550 0.136310
vt 0.513653 0.138582
vt 0.513555 0.137376
vt 0.513705 0.132691
vt 0.513586 0.133742
vt 0.513585 0.134431
vt 0.513488 0.132242
vt 0.513567 0.134395
vt 0.513586 0.138034
vt 0.513748 0.133392
vt 0.513624 0.137080
vt 0.513606 0.137042
vt 0.513666 0.138559
vt 0.513715 0.132943
vt 0.513568 0.136348
vt 0.513439 0.138073
vt 0.513496 0.137201
vt 0.513373 0.133935
vt 0.513355 0.133619
vt 0.513489 0.132480
vt 0.513707 0.135203
vt 0.513696 0.136461
vt 0.513685 0.136396
vt 0.513695 0.135327
vt 0.513614 0.134085
vt 0.513675 0.134571
vt 0.513705 0.135517
vt 0.513747 0.135460
vt 0.513527 0.133658
vt 0.513465 0.134698
vt 0.513584 0.135690
vt 0.513410 0.134335
vt 0.513478 0.136249
vt 0.513489 0.134999
vt 0.513406 0.134360
vt 0.513386 0.136630
vt 0.513525 0.134918
vt 0.513614 0.135104
vt 0.513813 0.137545
vt 0.513835 0.137870
vt 0.513862 0.134977
vt 0.513838 0.134951
vt 0.513552 0.133980
vt 0.513523 0.132930
vt 0.513804 0.135046
vt 0.513667 0.136567
vt 0.513520 0.137506
vt 0.513473 0.138497
vt 0.513675 0.135361
vt 0.513644 0.134476
vt 0.513557 0.137264
vt 0.513568 0.137369
vt 0.513506 0.136901
vt 0.513499 0.136828
vt 0.513735 0.136888
vt 0.513621 0.137085
vt 0.513637 0.137176
vt 0.513646 0.137330
vt 0.513694 0.136566
vt 0.513387 0.136921
vt 0.513477 0.134946
vt 0.513497 0.135024
vt 0.513486 0.136097
vt 0.513468 0.135943
vt 0.513607 0.135796
vt 0.513519 0.135611
vt 0.513803 0.135312
vt 0.513784 0.137132
vt 0.513783 0.137156
vt 0.513473 0.135951
vt 0.513454 0.135954
vt 0.513482 0.134882
vt 0.513522 0.134219
vt 0.513546 0.134254
vt 0.513662 0.134377
vt 0.513666 0.136358
vt 0.513599 0.133909
vt 0.513531 0.134102
vt 0.513586 0.134039
vt 0.513518 0.137052
vt 0.513332 0.136211
vt 0.513353 0.136215
vt 0.513578 0.136382
vt 0.513673 0.135876
vt 0.513579 0.137519
s 1
usemtl Graveyard
f 29/1/1 18/2/2 1/3/3
f 26/4/4 9/5/5 25/6/6
f 4/7/7 31/8/8 2/9/9
f 31/8/10 19/10/11 2/9/12
f 13/11/13 36/12/14 35/13/15
f 35/13/16 34/14/17 10/15/18
f 88/16/19 67/17/20 79/18/21
f 58/19/22 85/20/23 84/21/24
f 53/22/25 90/23/26 89/24/27
f 68/25/28 90/23/29 51/26/30
f 62/27/31 94/28/32 95/29/33
f 94/28/34 59/30/35 93/31/36
f 29/1/1 20/32/37 18/2/2
f 26/4/4 7/33/38 9/5/5
f 34/14/39 35/13/40 36/12/41
f 39/34/42 31/8/43 30/35/44
f 4/7/7 30/35/45 31/8/8
f 31/8/10 39/34/46 19/10/11
f 88/16/19 50/36/47 67/17/20
f 58/19/22 56/37/48 85/20/23
f 89/24/49 90/23/50 98/38/51
f 95/29/52 94/28/53 93/31/54
f 53/22/25 51/26/55 90/23/26
f 68/25/28 98/38/56 90/23/29
f 79/18/21 67/17/20 65/39/57 80/40/58
f 61/41/59 57/42/59 59/30/59 60/43/59
f 86/44/60 87/45/61 106/46/62 105/47/63
f 44/48/64 45/49/65 26/4/4 25/6/6
f 45/49/65 46/50/66 27/51/67 26/4/4
f 61/41/68 60/43/69 83/52/69 82/53/70
f 10/15/71 34/14/39 33/54/72 8/55/73
f 60/43/74 58/19/22 84/21/24 83/52/75
f 22/56/76 23/57/77 12/58/78 14/59/79
f 92/60/80 96/61/81 95/29/52 93/31/54
f 3/62/82 17/63/83 15/64/84 5/65/85
f 24/66/86 11/67/86 12/58/78 23/57/77
f 1/3/3 18/2/2 2/9/12 19/10/11
f 59/30/87 57/42/88 92/60/80 93/31/54
f 62/27/89 95/29/52 96/61/81 64/68/90
f 19/10/91 39/34/42 38/69/92 17/63/93
f 21/70/94 22/56/76 14/59/79 16/71/94
f 76/72/95 46/50/66 45/49/65 75/73/96
f 69/74/97 108/75/98 99/76/99 70/77/100
f 108/75/98 79/18/21 80/40/58 99/76/99
f 3/62/82 1/3/101 19/10/101 17/63/83
f 28/78/102 29/1/103 1/3/103 3/62/104
f 78/79/105 107/80/106 108/75/98 69/74/97
f 48/81/107 29/1/1 28/78/108 47/82/109
f 7/33/110 5/65/85 15/64/84 13/11/110
f 12/58/111 11/67/111 10/15/111 8/55/111
f 14/59/112 6/83/112 4/7/112 16/71/112
f 72/84/113 42/85/114 41/86/115 71/87/116
f 98/38/51 97/88/117 91/89/118 89/24/49
f 56/37/119 54/90/120 86/44/121 85/20/119
f 27/51/67 5/65/122 7/33/123 26/4/4
f 58/19/124 94/28/32 62/27/31 56/37/124
f 54/90/120 52/91/125 87/45/126 86/44/121
f 51/26/55 53/22/25 65/39/57 67/17/20
f 50/36/47 68/25/28 51/26/30 67/17/20
f 27/51/67 28/78/102 3/62/104 5/65/122
f 52/91/127 66/92/128 68/25/129 50/36/129
f 100/93/130 81/94/131 82/53/132 101/95/133
f 73/96/134 43/97/135 42/85/114 72/84/113
f 104/98/136 105/47/63 76/72/95 75/73/96
f 77/99/137 78/79/105 48/81/107 47/82/109
f 70/77/100 99/76/99 100/93/130 71/87/116
f 103/100/138 84/21/24 85/20/23 104/98/136
f 102/101/139 103/100/138 74/102/140 73/96/134
f 41/86/115 42/85/114 23/57/141 22/56/142
f 14/59/143 12/58/143 8/55/143 6/83/143
f 25/6/6 9/5/5 11/67/144 24/66/145
f 40/103/146 41/86/115 22/56/142 21/70/147
f 70/77/100 71/87/116 41/86/115 40/103/146
f 87/45/126 52/91/125 50/36/148 88/16/148
f 53/22/149 55/104/149 63/105/149 65/39/149
f 81/94/150 63/105/151 61/41/68 82/53/70
f 39/34/42 30/35/44 32/106/152 38/69/92
f 16/71/153 4/7/7 2/9/9 18/2/2
f 46/50/66 47/82/109 28/78/154 27/51/154
f 33/54/72 34/14/39 36/12/41 37/107/155
f 64/68/156 66/92/128 52/91/127 54/90/157
f 64/68/90 96/61/81 97/88/117 66/92/158
f 53/22/159 89/24/49 91/89/118 55/104/160
f 9/5/161 7/33/161 13/11/13 35/13/15
f 20/32/37 21/70/147 16/71/153 18/2/2
f 8/55/73 33/54/72 32/106/152 6/83/162
f 80/40/163 65/39/163 63/105/151 81/94/150
f 101/95/133 102/101/139 73/96/134 72/84/113
f 83/52/75 84/21/24 103/100/138 102/101/139
f 49/108/164 40/103/146 21/70/147 20/32/37
f 43/97/135 24/66/145 23/57/141 42/85/114
f 87/45/61 88/16/19 107/80/106 106/46/62
f 77/99/137 106/46/62 107/80/106 78/79/105
f 103/100/138 104/98/136 75/73/96 74/102/140
f 56/37/165 62/27/165 64/68/156 54/90/157
f 44/48/64 25/6/6 24/66/145 43/97/135
f 49/108/164 20/32/37 29/1/1 48/81/107
f 71/87/116 100/93/130 101/95/133 72/84/113
f 32/106/152 30/35/44 4/7/166 6/83/162
f 37/107/155 36/12/41 13/11/167 15/64/168
f 68/25/169 66/92/158 97/88/117 98/38/51
f 59/30/35 94/28/34 58/19/170 60/43/170
f 57/42/88 55/104/160 91/89/118 92/60/80
f 17/63/93 38/69/92 37/107/155 15/64/168
f 9/5/171 35/13/16 10/15/18 11/67/171
f 99/76/99 80/40/58 81/94/131 100/93/130
f 69/74/97 70/77/100 40/103/146 49/108/164
f 75/73/96 45/49/65 44/48/64 74/102/140
f 88/16/19 79/18/21 108/75/98 107/80/106
f 77/99/137 47/82/109 46/50/66 76/72/95
f 74/102/140 44/48/64 43/97/135 73/96/134
f 82/53/132 83/52/75 102/101/139 101/95/133
f 104/98/136 85/20/23 86/44/60 105/47/63
f 78/79/105 69/74/97 49/108/164 48/81/107
f 63/105/172 55/104/172 57/42/172 61/41/172
f 105/47/63 106/46/62 77/99/137 76/72/95
f 33/54/72 37/107/155 38/69/92 32/106/152
f 97/88/117 96/61/81 92/60/80 91/89/118
