# Blender 4.1.1
# www.blender.org
mtllib Brick_1_3.mtl
o Brick_1_3
v 0.053560 0.000000 -0.117102
v 0.068735 0.000000 -0.103882
v 0.062100 0.048400 -0.090411
v 0.046743 0.047961 -0.103925
v 0.046769 0.061535 -0.087176
v 0.068735 0.000000 0.103882
v 0.053560 0.000000 0.117102
v 0.046769 0.061535 0.087176
v 0.046743 0.047961 0.103926
v 0.062100 0.048400 0.090411
v -0.068735 0.000000 -0.103882
v -0.053560 0.000000 -0.117102
v -0.046769 0.061535 -0.087176
v -0.046743 0.047961 -0.103925
v -0.062100 0.048400 -0.090411
v -0.053560 0.000000 0.117102
v -0.068735 0.000000 0.103882
v -0.046769 0.061535 0.087176
v -0.062100 0.048400 0.090411
v -0.046743 0.047961 0.103926
v 0.076847 0.000000 -0.031138
v 0.076847 0.000000 0.031139
v 0.068857 0.054604 0.031041
v 0.068857 0.054604 -0.031040
v 0.054600 0.067444 -0.031330
v 0.054600 0.067444 0.031331
v -0.077571 0.000000 0.031139
v -0.077571 0.000000 -0.031138
v -0.068612 0.053296 -0.031040
v -0.068612 0.053296 0.031041
v -0.054122 0.066409 0.031331
v -0.054122 0.066409 -0.031330
vn 0.3413 0.2937 -0.8929
vn 0.8397 0.2444 -0.4850
vn 0.7873 0.4729 -0.3955
vn 0.2788 0.5216 -0.8063
vn 0.2827 0.8884 -0.3617
vn 0.8397 0.2444 0.4850
vn 0.3413 0.2937 0.8929
vn 0.2827 0.8884 0.3617
vn 0.2788 0.5216 0.8063
vn 0.7873 0.4729 0.3955
vn -0.8379 0.2495 -0.4854
vn -0.3413 0.2937 -0.8929
vn -0.2873 0.8890 -0.3567
vn -0.2788 0.5216 -0.8063
vn -0.7860 0.4784 -0.3916
vn -0.3413 0.2937 0.8929
vn -0.8379 0.2495 0.4854
vn -0.2873 0.8890 0.3567
vn -0.7860 0.4784 0.3916
vn -0.2788 0.5216 0.8063
vn 0.9869 0.1500 -0.0587
vn 0.9869 0.1500 0.0587
vn 0.8734 0.4816 0.0727
vn 0.8734 0.4816 -0.0727
vn 0.3573 0.9314 -0.0689
vn 0.3573 0.9314 0.0689
vn -0.9843 0.1662 0.0597
vn -0.9843 0.1662 -0.0597
vn -0.8712 0.4862 -0.0681
vn -0.8712 0.4862 0.0681
vn -0.3654 0.9287 0.0636
vn -0.3654 0.9287 -0.0636
vt 0.377645 0.070775
vt 0.377620 0.070683
vt 0.377726 0.070683
vt 0.378149 0.070119
vt 0.378044 0.070119
vt 0.378068 0.070027
vt 0.377726 0.070119
vt 0.377620 0.070119
vt 0.377645 0.070027
vt 0.378149 0.070683
vt 0.378068 0.070775
vt 0.378044 0.070683
vt 0.376813 0.071460
vt 0.376799 0.071923
vt 0.376505 0.071842
vt 0.376483 0.071459
vt 0.376945 0.070752
vt 0.377240 0.070671
vt 0.377253 0.071135
vt 0.376923 0.071135
vt 0.376505 0.070752
vt 0.376799 0.070671
vt 0.376813 0.071135
vt 0.376483 0.071135
vt 0.377253 0.071460
vt 0.377240 0.071923
vt 0.376945 0.071842
vt 0.376923 0.071459
vt 0.377363 0.071215
vt 0.377428 0.070853
vt 0.377992 0.070853
vt 0.378058 0.071215
vt 0.377321 0.070078
vt 0.377321 0.070724
vt 0.377342 0.069987
vt 0.377342 0.070815
vt 0.377765 0.070815
vt 0.377744 0.070724
vt 0.377744 0.070078
vt 0.377271 0.071216
vt 0.377336 0.070833
vt 0.377271 0.071540
vt 0.377363 0.071542
vt 0.377428 0.071904
vt 0.377336 0.071923
vt 0.378149 0.071216
vt 0.378085 0.070833
vt 0.377765 0.069987
vt 0.377992 0.071904
vt 0.378058 0.071542
vt 0.378149 0.071540
vt 0.378085 0.071923
vt 0.376830 0.071134
vt 0.376830 0.071461
vt 0.376390 0.071461
vt 0.376390 0.071134
s 1
usemtl Graveyard
f 3/1/3 4/2/4 5/3/5
f 8/4/8 9/5/9 10/6/10
f 13/7/13 14/8/14 15/9/15
f 18/10/18 19/11/19 20/12/20
f 27/13/27 17/14/17 19/15/19 30/16/30
f 10/17/10 6/18/6 22/19/22 23/20/23
f 15/21/15 11/22/11 28/23/28 29/24/29
f 21/25/21 2/26/2 3/27/3 24/28/24
f 31/29/31 18/30/18 8/31/8 26/32/26
f 12/33/12 14/8/14 4/2/4 1/34/1
f 11/35/11 15/9/15 14/8/14 12/33/12
f 2/36/2 1/34/1 4/2/4 3/1/3
f 20/12/20 19/11/19 17/37/17 16/38/16
f 7/39/7 9/5/9 20/12/20 16/38/16
f 30/40/30 19/41/19 18/30/18 31/29/31
f 30/16/30 29/24/29 28/23/28 27/13/27
f 29/42/29 32/43/32 13/44/13 15/45/15
f 23/46/23 26/32/26 8/31/8 10/47/10
f 6/48/6 10/6/10 9/5/9 7/39/7
f 13/7/13 5/3/5 4/2/4 14/8/14
f 5/49/5 13/44/13 32/43/32 25/50/25
f 24/51/24 3/52/3 5/49/5 25/50/25
f 23/20/23 22/19/22 21/25/21 24/28/24
f 26/53/26 23/20/23 24/28/24 25/54/25
f 29/24/29 30/16/30 31/55/31 32/56/32
f 20/12/20 9/5/9 8/4/8 18/10/18
f 26/32/26 25/50/25 32/43/32 31/29/31
