# Blender 4.1.1
# www.blender.org
mtllib Brick_4_3.mtl
o Brick_4_3
v 0.137401 0.000000 -0.168696
v 0.160988 0.000000 -0.149488
v 0.150695 0.048400 -0.132071
v 0.126694 0.047961 -0.151499
v 0.126735 0.061535 -0.128903
v 0.166299 0.000000 0.217685
v 0.142738 0.000000 0.236799
v 0.132081 0.061535 0.196971
v 0.132040 0.047961 0.219567
v 0.156017 0.048400 0.200226
v -0.109373 0.000000 -0.151527
v -0.085806 0.000000 -0.170734
v -0.075147 0.061535 -0.130940
v -0.075106 0.047961 -0.153536
v -0.099089 0.048400 -0.134109
v -0.080469 0.000000 0.234761
v -0.104062 0.000000 0.215644
v -0.069801 0.061535 0.194933
v -0.093766 0.048400 0.198187
v -0.069761 0.047961 0.217529
v 0.209288 0.000000 -0.049736
v 0.220867 0.000000 0.142518
v 0.206189 0.053018 0.139175
v 0.192358 0.054604 -0.050737
v 0.158889 0.067444 -0.052348
v 0.175418 0.065933 0.139601
v -0.160053 0.000000 0.140375
v -0.181282 0.000000 -0.070405
v -0.162558 0.053296 -0.071876
v -0.143640 0.052044 0.137112
v -0.112415 0.065163 0.137561
v -0.128787 0.066409 -0.073789
v 0.057950 0.064734 0.148195
v 0.224654 0.054604 0.079432
v 0.191739 0.067444 0.080004
v 0.041991 0.066054 -0.070911
v -0.158667 0.053296 0.077379
v 0.034910 0.048713 -0.179710
v 0.034910 0.061707 -0.155477
v -0.125108 0.066409 0.077965
v -0.177290 0.000000 0.076795
v 0.046819 0.048440 0.213689
v 0.046819 0.061435 0.189456
v 0.240963 0.000000 0.078891
v 0.034910 0.000000 -0.198773
v 0.046819 0.000000 0.232752
v 0.059728 0.066054 0.083678
vn 0.1398 0.9319 0.3348
vn -0.0034 0.9988 0.0497
vn -0.0048 0.9585 0.2849
vn 0.3889 0.8601 -0.3301
vn 0.2298 0.8423 -0.4876
vn 0.2036 0.9352 -0.2897
vn 0.1277 0.8579 0.4977
vn 0.3808 0.8320 0.4035
vn -0.1730 0.9316 -0.3197
vn -0.2103 0.8460 -0.4899
vn -0.3788 0.8109 -0.4461
vn -0.1477 0.9334 0.3271
vn -0.3827 0.8355 0.3944
vn -0.1368 0.8569 0.4970
vn -0.2291 0.9581 -0.1716
vn -0.3661 0.9199 -0.1402
vn -0.0012 0.9995 -0.0326
vn -0.2223 0.9608 0.1655
vn 0.2149 0.9605 0.1770
vn 0.8999 0.2896 -0.3260
vn 0.7181 0.3506 -0.6012
vn 0.7449 0.3417 -0.5730
vn 0.8947 0.2904 -0.3394
vn 0.6754 0.3441 0.6523
vn 0.6626 0.3500 0.6622
vn 0.8498 0.2919 0.4388
vn 0.8446 0.2930 0.4481
vn -0.3818 0.9037 0.1939
vn 0.2125 0.9770 0.0185
vn 0.3797 0.8999 0.2146
vn 0.3691 0.9292 0.0186
vn -0.0144 0.3488 0.9371
vn 0.2999 0.3892 0.8710
vn 0.2630 0.3870 0.8838
vn -0.0142 0.3488 0.9371
vn -0.0046 0.9999 0.0112
vn -0.1979 0.9795 0.0374
vn -0.0095 0.8697 0.4934
vn 0.0140 0.8696 -0.4935
vn 0.0097 0.9489 -0.3154
vn 0.9574 0.2870 0.0319
vn 0.9575 0.2871 0.0279
vn -0.6329 0.3455 -0.6929
vn -0.6396 0.3403 -0.6893
vn -0.4020 0.3820 -0.8322
vn -0.4106 0.3825 -0.8277
vn 0.4342 0.3806 -0.8165
vn 0.4291 0.3803 -0.8193
vn 0.2012 0.9733 -0.1103
vn 0.3741 0.9150 -0.1512
vn -0.8517 0.3211 0.4141
vn -0.8447 0.3214 0.4281
vn -0.9363 0.3229 0.1382
vn -0.9371 0.3235 0.1310
vn -0.8883 0.3401 -0.3085
vn -0.8673 0.3376 -0.3657
vn -0.6596 0.3564 0.6617
vn -0.6716 0.3517 0.6521
vn -0.2785 0.3870 0.8790
vn -0.3114 0.3889 0.8671
vn 0.0265 0.3751 -0.9266
vn 0.0298 0.3751 -0.9265
vn -0.3686 0.9281 0.0532
vt 0.377992 0.070853
vt 0.377710 0.071122
vt 0.377710 0.070853
vt 0.377645 0.070775
vt 0.377620 0.070683
vt 0.377726 0.070683
vt 0.378149 0.070119
vt 0.378044 0.070119
vt 0.378068 0.070027
vt 0.377726 0.070119
vt 0.377620 0.070119
vt 0.377645 0.070027
vt 0.378149 0.070683
vt 0.378068 0.070775
vt 0.378044 0.070683
vt 0.377363 0.071542
vt 0.377336 0.071923
vt 0.377271 0.071540
vt 0.377710 0.071542
vt 0.377428 0.071904
vt 0.377428 0.070853
vt 0.377380 0.071122
vt 0.378041 0.071122
vt 0.377253 0.071460
vt 0.377240 0.071923
vt 0.376945 0.071842
vt 0.376923 0.071459
vt 0.376945 0.070752
vt 0.377240 0.070671
vt 0.377250 0.071016
vt 0.377408 0.071070
vt 0.377336 0.070833
vt 0.376801 0.071385
vt 0.376830 0.071210
vt 0.376923 0.071211
vt 0.377744 0.070401
vt 0.377744 0.070078
vt 0.378044 0.070401
vt 0.377710 0.071291
vt 0.377363 0.071291
vt 0.378149 0.070401
vt 0.377620 0.070401
vt 0.377726 0.070401
vt 0.377253 0.071210
vt 0.377342 0.069987
vt 0.377321 0.070078
vt 0.377765 0.069987
vt 0.377342 0.070815
vt 0.377321 0.070724
vt 0.378085 0.071923
vt 0.377992 0.071904
vt 0.378058 0.071542
vt 0.378149 0.071540
vt 0.378085 0.070833
vt 0.376809 0.071578
vt 0.376483 0.071384
vt 0.376813 0.071384
vt 0.376799 0.070671
vt 0.376813 0.071135
vt 0.376483 0.071135
vt 0.376505 0.070752
vt 0.377710 0.071904
vt 0.376830 0.071461
vt 0.376799 0.071923
vt 0.376505 0.071842
vt 0.377765 0.070815
vt 0.377744 0.070724
vt 0.378058 0.071291
vt 0.377321 0.070401
vt 0.376390 0.071384
vt 0.376390 0.071134
s 1
usemtl Graveyard
f 8/1/1 33/2/2 43/3/3
f 3/4/4 4/5/5 5/6/6
f 8/7/1 9/8/7 10/9/8
f 13/10/9 14/11/10 15/12/11
f 18/13/12 19/14/13 20/15/14
f 32/16/15 15/17/11 29/18/16
f 36/19/17 13/20/9 32/16/15
f 18/21/12 33/2/2 31/22/18
f 8/1/1 26/23/19 33/2/2
f 21/24/20 2/25/21 3/26/22 24/27/23
f 10/28/24 6/29/25 22/30/26 23/31/27
f 19/32/13 18/21/12 31/22/18 30/33/28
f 35/34/29 26/23/19 23/31/30 34/35/31
f 46/36/32 7/37/33 9/8/34 42/38/35
f 31/22/18 33/2/2 47/39/36 40/40/37
f 42/38/38 43/41/3 18/13/12 20/15/14
f 4/5/5 38/42/39 39/43/40 5/6/6
f 34/35/41 44/44/42 21/24/20 24/27/23
f 11/45/43 15/12/44 14/11/45 12/46/46
f 6/47/25 10/9/24 9/8/34 7/37/33
f 2/48/21 1/49/47 4/5/48 3/4/22
f 32/16/15 13/20/9 15/17/11
f 36/19/17 32/16/15 40/40/37 47/39/36
f 3/50/4 5/51/6 25/52/49 24/53/50
f 10/54/8 23/31/30 26/23/19 8/1/1
f 27/55/51 30/33/52 37/56/53 41/57/54
f 11/58/43 28/59/55 29/60/56 15/61/44
f 5/51/6 39/62/40 36/19/17 25/52/49
f 24/27/50 25/63/49 35/34/29 34/35/31
f 27/55/51 17/64/57 19/65/58 30/33/52
f 20/15/59 19/14/58 17/66/57 16/67/60
f 25/52/49 36/19/17 47/39/36 35/68/29
f 14/11/10 13/10/9 39/43/40 38/42/39
f 34/35/41 23/31/27 22/30/26 44/44/42
f 20/15/59 16/67/60 46/36/32 42/38/35
f 45/69/61 12/46/46 14/11/45 38/42/62
f 4/5/48 1/49/47 45/69/61 38/42/62
f 40/70/37 37/56/63 30/33/28 31/22/18
f 26/23/19 35/68/29 47/39/36 33/2/2
f 42/38/38 9/8/7 8/7/1 43/41/3
f 36/19/17 39/62/40 13/20/9
f 18/21/12 43/3/3 33/2/2
f 32/71/15 29/60/16 37/56/63 40/70/37
f 29/60/56 28/59/55 41/57/54 37/56/53
