# Blender 4.1.1
# www.blender.org
mtllib Bush_1_5.mtl
o Bush_1_5
v 0.310217 0.070707 0.517878
v 0.301847 0.014146 0.421365
v 0.364515 0.070707 0.416515
v 0.297438 0.657325 0.530412
v 0.351723 0.657325 0.428689
v 0.286593 0.713885 0.436199
v -0.288879 0.070707 0.570947
v -0.348288 0.070707 0.479677
v -0.283137 0.014146 0.473185
v -0.301673 0.657325 0.583481
v -0.298391 0.713885 0.488018
v -0.361080 0.657325 0.491851
v 0.281442 0.070707 -0.567190
v 0.340848 0.070707 -0.475561
v 0.278160 0.014146 -0.471727
v 0.268647 0.657325 -0.554656
v 0.262906 0.713885 -0.456894
v 0.328056 0.657325 -0.463387
v -0.306825 0.014146 -0.419908
v -0.371954 0.070707 -0.412398
v -0.317669 0.070707 -0.514122
v -0.322078 0.713885 -0.405075
v -0.330448 0.657325 -0.501588
v -0.384746 0.657325 -0.400224
v 0.332657 0.420577 0.565922
v 0.335155 0.307455 0.563572
v 0.389407 0.307455 0.461991
v 0.386936 0.420577 0.464342
v -0.321849 0.307455 0.621771
v -0.324282 0.420577 0.624115
v -0.383684 0.420577 0.532628
v -0.381213 0.307455 0.530277
v -0.352889 0.307455 -0.549631
v -0.407168 0.307455 -0.448052
v -0.409638 0.420577 -0.445700
v -0.355386 0.420577 -0.547281
v 0.304051 0.307455 -0.607824
v 0.301618 0.420577 -0.605480
v 0.360982 0.420577 -0.513986
v 0.363452 0.307455 -0.516337
v 0.093502 0.000000 0.486523
v 0.094796 0.058848 0.585290
v -0.055689 0.058848 0.595331
v -0.058146 0.000000 0.496625
v -0.072605 0.669184 0.608991
v 0.077788 0.669184 0.598955
v 0.073271 0.728031 0.502814
v -0.078377 0.728031 0.512917
v -0.093503 0.000000 -0.486524
v -0.098020 0.058848 -0.582664
v 0.052374 0.058848 -0.592700
v 0.058145 0.000000 -0.496626
v 0.035457 0.669184 -0.579040
v -0.115028 0.669184 -0.568999
v -0.113734 0.728031 -0.470232
v 0.037914 0.728031 -0.480334
v 0.040536 0.422863 -0.633228
v 0.043796 0.305168 -0.635912
v -0.106637 0.305168 -0.625874
v -0.109911 0.422863 -0.623189
v -0.064028 0.422863 0.652203
v -0.060767 0.305168 0.649518
v 0.089679 0.305168 0.639480
v 0.086406 0.422863 0.642165
vn 0.5429 -0.5098 0.6674
vn 0.3976 -0.8968 0.1939
vn 0.8791 -0.4408 0.1816
vn 0.5376 0.5068 0.6739
vn 0.8676 0.4628 0.1820
vn 0.3895 0.8998 0.1968
vn -0.4321 -0.5338 0.7268
vn -0.8475 -0.4739 0.2393
vn -0.3558 -0.9076 0.2228
vn -0.4448 0.5021 0.7416
vn -0.3679 0.9011 0.2295
vn -0.8634 0.4412 0.2448
vn 0.4448 -0.5021 -0.7416
vn 0.8634 -0.4412 -0.2448
vn 0.3679 -0.9011 -0.2295
vn 0.4321 0.5338 -0.7268
vn 0.3558 0.9076 -0.2228
vn 0.8475 0.4739 -0.2393
vn -0.3895 -0.8998 -0.1968
vn -0.8676 -0.4628 -0.1820
vn -0.5376 -0.5068 -0.6739
vn -0.3976 0.8968 -0.1939
vn -0.5429 0.5098 -0.6674
vn -0.8791 0.4408 -0.1816
vn 0.6334 0.0984 0.7676
vn 0.6340 -0.1026 0.7665
vn 0.9687 -0.0656 0.2396
vn 0.9662 0.0964 0.2390
vn -0.5191 -0.1343 0.8441
vn -0.5233 0.0778 0.8486
vn -0.9498 0.0577 0.3076
vn -0.9457 -0.1106 0.3058
vn -0.6334 -0.0984 -0.7676
vn -0.9662 -0.0964 -0.2390
vn -0.9687 0.0656 -0.2396
vn -0.6340 0.1026 -0.7665
vn 0.5233 -0.0778 -0.8486
vn 0.5191 0.1343 -0.8441
vn 0.9457 0.1106 -0.3058
vn 0.9498 -0.0577 -0.3076
vn 0.0843 -0.9574 0.2763
vn 0.1628 -0.5720 0.8040
vn -0.0283 -0.5814 0.8131
vn -0.0340 -0.9607 0.2755
vn -0.0316 0.5585 0.8289
vn 0.1625 0.5551 0.8157
vn 0.0834 0.9562 0.2805
vn -0.0366 0.9586 0.2823
vn -0.0834 -0.9562 -0.2805
vn -0.1625 -0.5551 -0.8158
vn 0.0316 -0.5585 -0.8289
vn 0.0366 -0.9586 -0.2823
vn 0.0283 0.5814 -0.8131
vn -0.1628 0.5720 -0.8040
vn -0.0843 0.9574 -0.2763
vn 0.0340 0.9607 -0.2755
vn 0.0207 0.1201 -0.9925
vn 0.0215 -0.0762 -0.9969
vn -0.1822 -0.0806 -0.9799
vn -0.1820 0.1140 -0.9767
vn -0.0215 0.0762 0.9969
vn -0.0207 -0.1201 0.9925
vn 0.1820 -0.1140 0.9767
vn 0.1822 0.0806 0.9799
vt 0.906180 0.533582
vt 0.906165 0.525739
vt 0.906272 0.533582
vt 0.906158 0.614923
vt 0.906250 0.614923
vt 0.906139 0.622766
vt 0.905161 0.533582
vt 0.905060 0.533582
vt 0.905171 0.525739
vt 0.905139 0.614923
vt 0.905145 0.622766
vt 0.905038 0.614923
vt 0.906131 0.533582
vt 0.906232 0.533582
vt 0.906125 0.525739
vt 0.906109 0.614923
vt 0.906099 0.622766
vt 0.906210 0.614923
vt 0.905131 0.525739
vt 0.905020 0.533582
vt 0.905112 0.533582
vt 0.905105 0.622766
vt 0.905090 0.614923
vt 0.904998 0.614923
vt 0.905471 0.566093
vt 0.905486 0.531938
vt 0.905052 0.566410
vt 0.905799 0.582412
vt 0.906218 0.582095
vt 0.905784 0.616567
vt 0.906165 0.582095
vt 0.905721 0.582412
vt 0.905712 0.616567
vt 0.905519 0.624727
vt 0.905459 0.624727
vt 0.905813 0.531938
vt 0.905811 0.523778
vt 0.905751 0.523778
vt 0.905741 0.531938
vt 0.905558 0.531938
vt 0.905549 0.566092
vt 0.905105 0.566410
vt 0.905529 0.616567
vt 0.906270 0.566410
vt 0.906314 0.566410
vt 0.905101 0.582095
vt 0.905544 0.582412
vt 0.905457 0.616567
vt 0.904956 0.582095
vt 0.905000 0.582095
vt 0.905465 0.582412
vt 0.905727 0.566093
vt 0.905493 0.523778
vt 0.905805 0.566092
vt 0.905777 0.624727
vt 0.905717 0.624727
vt 0.905004 0.566410
vt 0.904960 0.566410
vt 0.906266 0.582095
vt 0.906310 0.582095
vt 0.905553 0.523778
vt 0.905048 0.582095
vt 0.906222 0.566410
vt 0.906169 0.566410
s 1
usemtl Graveyard
f 1/1/1 2/2/2 3/3/3
f 4/4/4 5/5/5 6/6/6
f 7/7/7 8/8/8 9/9/9
f 10/10/10 11/11/11 12/12/12
f 13/13/13 14/14/14 15/15/15
f 16/16/16 17/17/17 18/18/18
f 19/19/19 20/20/20 21/21/21
f 22/22/22 23/23/23 24/24/24
f 59/25/59 50/26/50 21/21/21 33/27/33
f 64/28/64 25/29/25 4/4/4 46/30/46
f 16/16/16 38/31/38 57/32/57 53/33/53
f 48/34/48 55/35/55 22/22/22 11/11/11
f 1/1/1 42/36/42 41/37/41 2/2/2
f 13/13/13 15/15/15 52/38/52 51/39/51
f 7/7/7 43/40/43 62/41/62 29/42/29
f 10/10/10 45/43/45 48/34/48 11/11/11
f 2/2/2 41/37/41 52/38/52 15/15/15
f 3/3/3 14/14/14 40/44/40 27/45/27
f 10/10/10 30/46/30 61/47/61 45/43/45
f 23/23/23 22/22/22 55/35/55 54/48/54
f 24/24/24 35/49/35 31/50/31 12/12/12
f 59/25/59 60/51/60 57/32/57 58/52/58
f 52/38/52 49/53/49 50/26/50 51/39/51
f 64/28/64 61/47/61 62/41/62 63/54/63
f 48/34/48 45/43/45 46/30/46 47/55/47
f 16/16/16 53/33/53 56/56/56 17/17/17
f 32/57/32 31/50/31 35/49/35 34/58/34
f 27/45/27 40/44/40 39/59/39 28/60/28
f 7/7/7 9/9/9 44/61/44 43/40/43
f 33/27/33 36/62/36 60/51/60 59/25/59
f 63/54/63 26/63/26 25/29/25 64/28/64
f 6/6/6 17/17/17 56/56/56 47/55/47
f 63/54/63 42/36/42 1/1/1 26/63/26
f 10/10/10 12/12/12 31/50/31 30/46/30
f 35/49/35 24/24/24 23/23/23 36/62/36
f 34/58/34 33/27/33 21/21/21 20/20/20
f 63/54/63 62/41/62 43/40/43 42/36/42
f 60/51/60 36/62/36 23/23/23 54/48/54
f 34/58/34 20/20/20 8/8/8 32/57/32
f 5/5/5 18/18/18 17/17/17 6/6/6
f 16/16/16 18/18/18 39/59/39 38/31/38
f 60/51/60 54/48/54 53/33/53 57/32/57
f 4/4/4 25/29/25 28/60/28 5/5/5
f 4/4/4 6/6/6 47/55/47 46/30/46
f 7/7/7 29/42/29 32/57/32 8/8/8
f 21/21/21 50/26/50 49/53/49 19/19/19
f 1/1/1 3/3/3 27/45/27 26/63/26
f 50/26/50 59/25/59 58/52/58 51/39/51
f 36/62/36 33/27/33 34/58/34 35/49/35
f 46/30/46 45/43/45 61/47/61 64/28/64
f 28/60/28 25/29/25 26/63/26 27/45/27
f 20/20/20 19/19/19 9/9/9 8/8/8
f 28/60/28 39/59/39 18/18/18 5/5/5
f 13/13/13 37/64/37 40/44/40 14/14/14
f 44/61/44 9/9/9 19/19/19 49/53/49
f 49/53/49 52/38/52 41/37/41 44/61/44
f 55/35/55 48/34/48 47/55/47 56/56/56
f 56/56/56 53/33/53 54/48/54 55/35/55
f 29/42/29 62/41/62 61/47/61 30/46/30
f 24/24/24 12/12/12 11/11/11 22/22/22
f 3/3/3 2/2/2 15/15/15 14/14/14
f 44/61/44 41/37/41 42/36/42 43/40/43
f 58/52/58 57/32/57 38/31/38 37/64/37
f 13/13/13 51/39/51 58/52/58 37/64/37
f 31/50/31 32/57/32 29/42/29 30/46/30
f 40/44/40 37/64/37 38/31/38 39/59/39
