# Blender 4.1.1
# www.blender.org
mtllib Bush_1_1.mtl
o Bush_1_1
v 0.310217 0.070707 0.517878
v 0.301847 0.014146 0.421365
v 0.364515 0.070707 0.416515
v 0.297438 0.657325 0.530412
v 0.351723 0.657325 0.428689
v 0.286593 0.713885 0.436199
v -0.288879 0.070707 0.570947
v -0.348288 0.070707 0.479677
v -0.283137 0.014146 0.473185
v -0.301673 0.657325 0.583481
v -0.298391 0.713885 0.488018
v -0.361080 0.657325 0.491851
v 0.281442 0.070707 -0.567190
v 0.340848 0.070707 -0.475561
v 0.278160 0.014146 -0.471727
v 0.268647 0.657325 -0.554656
v 0.262906 0.713885 -0.456894
v 0.328056 0.657325 -0.463387
v -0.306825 0.014146 -0.419908
v -0.371954 0.070707 -0.412398
v -0.317669 0.070707 -0.514122
v -0.322078 0.713885 -0.405075
v -0.330448 0.657325 -0.501588
v -0.384746 0.657325 -0.400224
v 0.332657 0.420577 0.565922
v 0.335155 0.307455 0.563572
v 0.389407 0.307455 0.461991
v 0.386936 0.420577 0.464342
v -0.321849 0.307455 0.621771
v -0.324282 0.420577 0.624115
v -0.383684 0.420577 0.532628
v -0.381213 0.307455 0.530277
v -0.352889 0.307455 -0.549631
v -0.407168 0.307455 -0.448052
v -0.409638 0.420577 -0.445700
v -0.355386 0.420577 -0.547281
v 0.304051 0.307455 -0.607824
v 0.301618 0.420577 -0.605480
v 0.360982 0.420577 -0.513986
v 0.363452 0.307455 -0.516337
v 0.093502 0.000000 0.486523
v 0.094796 0.058848 0.585290
v -0.055689 0.058848 0.595331
v -0.058146 0.000000 0.496625
v -0.072605 0.669184 0.608991
v 0.077788 0.669184 0.598955
v 0.073271 0.728031 0.502814
v -0.078377 0.728031 0.512917
v -0.093503 0.000000 -0.486524
v -0.098020 0.058848 -0.582664
v 0.052374 0.058848 -0.592700
v 0.058145 0.000000 -0.496626
v 0.035457 0.669184 -0.579040
v -0.115028 0.669184 -0.568999
v -0.113734 0.728031 -0.470232
v 0.037914 0.728031 -0.480334
v 0.040536 0.422863 -0.633228
v 0.043796 0.305168 -0.635912
v -0.106637 0.305168 -0.625874
v -0.109911 0.422863 -0.623189
v -0.064028 0.422863 0.652203
v -0.060767 0.305168 0.649518
v 0.089679 0.305168 0.639480
v 0.086406 0.422863 0.642165
vn 0.5429 -0.5098 0.6674
vn 0.3976 -0.8968 0.1939
vn 0.8791 -0.4408 0.1816
vn 0.5376 0.5068 0.6739
vn 0.8676 0.4628 0.1820
vn 0.3895 0.8998 0.1968
vn -0.4321 -0.5338 0.7268
vn -0.8475 -0.4739 0.2393
vn -0.3558 -0.9076 0.2228
vn -0.4448 0.5021 0.7416
vn -0.3679 0.9011 0.2295
vn -0.8634 0.4412 0.2448
vn 0.4448 -0.5021 -0.7416
vn 0.8634 -0.4412 -0.2448
vn 0.3679 -0.9011 -0.2295
vn 0.4321 0.5338 -0.7268
vn 0.3558 0.9076 -0.2228
vn 0.8475 0.4739 -0.2393
vn -0.3895 -0.8998 -0.1968
vn -0.8676 -0.4628 -0.1820
vn -0.5376 -0.5068 -0.6739
vn -0.3976 0.8968 -0.1939
vn -0.5429 0.5098 -0.6674
vn -0.8791 0.4408 -0.1816
vn 0.6334 0.0984 0.7676
vn 0.6340 -0.1026 0.7665
vn 0.9687 -0.0656 0.2396
vn 0.9662 0.0964 0.2390
vn -0.5191 -0.1343 0.8441
vn -0.5233 0.0778 0.8486
vn -0.9498 0.0577 0.3076
vn -0.9457 -0.1106 0.3058
vn -0.6334 -0.0984 -0.7676
vn -0.9662 -0.0964 -0.2390
vn -0.9687 0.0656 -0.2396
vn -0.6340 0.1026 -0.7665
vn 0.5233 -0.0778 -0.8486
vn 0.5191 0.1343 -0.8441
vn 0.9457 0.1106 -0.3058
vn 0.9498 -0.0577 -0.3076
vn 0.0843 -0.9574 0.2763
vn 0.1628 -0.5720 0.8040
vn -0.0283 -0.5814 0.8131
vn -0.0340 -0.9607 0.2755
vn -0.0316 0.5585 0.8289
vn 0.1625 0.5551 0.8157
vn 0.0834 0.9562 0.2805
vn -0.0366 0.9586 0.2823
vn -0.0834 -0.9562 -0.2805
vn -0.1625 -0.5551 -0.8158
vn 0.0316 -0.5585 -0.8289
vn 0.0366 -0.9586 -0.2823
vn 0.0283 0.5814 -0.8131
vn -0.1628 0.5720 -0.8040
vn -0.0843 0.9574 -0.2763
vn 0.0340 0.9607 -0.2755
vn 0.0207 0.1201 -0.9925
vn 0.0215 -0.0762 -0.9969
vn -0.1822 -0.0806 -0.9799
vn -0.1820 0.1140 -0.9767
vn -0.0215 0.0762 0.9969
vn -0.0207 -0.1201 0.9925
vn 0.1820 -0.1140 0.9767
vn 0.1822 0.0806 0.9799
vt 0.707053 0.526795
vt 0.707074 0.519017
vt 0.706949 0.526875
vt 0.707078 0.617403
vt 0.706974 0.617454
vt 0.707104 0.625623
vt 0.708244 0.528075
vt 0.708367 0.528398
vt 0.708237 0.520267
vt 0.708269 0.618683
vt 0.708267 0.626873
vt 0.708392 0.618977
vt 0.707161 0.529065
vt 0.707038 0.528771
vt 0.707163 0.520875
vt 0.707186 0.619673
vt 0.707193 0.627481
vt 0.707063 0.619350
vt 0.708327 0.522125
vt 0.708456 0.530294
vt 0.708353 0.530345
vt 0.708356 0.628731
vt 0.708377 0.620953
vt 0.708481 0.620873
vt 0.707761 0.568554
vt 0.708308 0.569150
vt 0.707756 0.527538
vt 0.708424 0.571595
vt 0.707889 0.571029
vt 0.707874 0.529843
vt 0.707637 0.521411
vt 0.707650 0.529602
vt 0.707666 0.628016
vt 0.707567 0.626094
vt 0.707794 0.626337
vt 0.707781 0.618147
vt 0.707669 0.586784
vt 0.707674 0.620210
vt 0.707123 0.586189
vt 0.706995 0.569872
vt 0.707118 0.570192
vt 0.707893 0.628260
vt 0.707899 0.620452
vt 0.707665 0.570788
vt 0.707537 0.519488
vt 0.707531 0.527296
vt 0.706898 0.567793
vt 0.707006 0.583743
vt 0.707541 0.584309
vt 0.707536 0.568312
vt 0.707001 0.567746
vt 0.708533 0.587546
vt 0.708528 0.571519
vt 0.708430 0.569440
vt 0.708435 0.585467
vt 0.707894 0.587026
vt 0.707863 0.521655
vt 0.707000 0.585899
vt 0.706902 0.583820
vt 0.707766 0.584551
vt 0.707556 0.617905
vt 0.708429 0.587593
vt 0.707764 0.519732
vt 0.708312 0.585147
s 1
usemtl Graveyard
f 1/1/1 2/2/2 3/3/3
f 4/4/4 5/5/5 6/6/6
f 7/7/7 8/8/8 9/9/9
f 10/10/10 11/11/11 12/12/12
f 13/13/13 14/14/14 15/15/15
f 16/16/16 17/17/17 18/18/18
f 19/19/19 20/20/20 21/21/21
f 22/22/22 23/23/23 24/24/24
f 62/25/62 29/26/29 7/7/7 43/27/43
f 21/21/21 33/28/33 59/29/59 50/30/50
f 52/31/52 51/32/51 13/13/13 15/15/15
f 56/33/56 47/34/47 6/6/6 17/17/17
f 48/35/48 11/11/11 10/10/10 45/36/45
f 57/37/57 53/38/53 16/16/16 38/39/38
f 40/40/40 14/14/14 13/13/13 37/41/37
f 22/22/22 11/11/11 48/35/48 55/42/55
f 55/42/55 54/43/54 23/23/23 22/22/22
f 58/44/58 37/41/37 13/13/13 51/32/51
f 41/45/41 2/2/2 1/1/1 42/46/42
f 40/40/40 27/47/27 3/3/3 14/14/14
f 25/48/25 64/49/64 63/50/63 26/51/26
f 35/52/35 34/53/34 32/54/32 31/55/31
f 57/37/57 58/44/58 59/29/59 60/56/60
f 50/30/50 51/32/51 52/31/52 49/57/49
f 9/9/9 8/8/8 20/20/20 19/19/19
f 39/58/39 28/59/28 27/47/27 40/40/40
f 61/60/61 64/49/64 46/61/46 45/36/45
f 56/33/56 17/17/17 16/16/16 53/38/53
f 47/34/47 56/33/56 55/42/55 48/35/48
f 60/56/60 59/29/59 33/28/33 36/62/36
f 19/19/19 49/57/49 44/63/44 9/9/9
f 61/60/61 45/36/45 10/10/10 30/64/30
f 39/58/39 38/39/38 16/16/16 18/18/18
f 47/34/47 46/61/46 4/4/4 6/6/6
f 28/59/28 5/5/5 4/4/4 25/48/25
f 53/38/53 57/37/57 60/56/60 54/43/54
f 1/1/1 26/51/26 63/50/63 42/46/42
f 31/55/31 12/12/12 24/24/24 35/52/35
f 21/21/21 20/20/20 34/53/34 33/28/33
f 32/54/32 8/8/8 7/7/7 29/26/29
f 42/46/42 43/27/43 44/63/44 41/45/41
f 23/23/23 54/43/54 60/56/60 36/62/36
f 49/57/49 19/19/19 21/21/21 50/30/50
f 27/47/27 26/51/26 1/1/1 3/3/3
f 18/18/18 5/5/5 28/59/28 39/58/39
f 23/23/23 36/62/36 35/52/35 24/24/24
f 38/39/38 37/41/37 58/44/58 57/37/57
f 26/51/26 27/47/27 28/59/28 25/48/25
f 58/44/58 51/32/51 50/30/50 59/29/59
f 62/25/62 63/50/63 64/49/64 61/60/61
f 17/17/17 6/6/6 5/5/5 18/18/18
f 8/8/8 32/54/32 34/53/34 20/20/20
f 31/55/31 30/64/30 10/10/10 12/12/12
f 52/31/52 15/15/15 2/2/2 41/45/41
f 11/11/11 22/22/22 24/24/24 12/12/12
f 41/45/41 44/63/44 49/57/49 52/31/52
f 44/63/44 43/27/43 7/7/7 9/9/9
f 34/53/34 35/52/35 36/62/36 33/28/33
f 15/15/15 14/14/14 3/3/3 2/2/2
f 43/27/43 42/46/42 63/50/63 62/25/62
f 54/43/54 55/42/55 56/33/56 53/38/53
f 61/60/61 30/64/30 29/26/29 62/25/62
f 4/4/4 46/61/46 64/49/64 25/48/25
f 46/61/46 47/34/47 48/35/48 45/36/45
f 29/26/29 30/64/30 31/55/31 32/54/32
f 38/39/38 39/58/39 40/40/40 37/41/37
