# Blender 4.1.1
# www.blender.org
mtllib Candle_1.mtl
o Candle_1
v 0.000000 0.000000 0.034748
v 0.024571 0.000000 0.024571
v 0.034748 0.000000 -0.000000
v 0.024571 0.000000 -0.024571
v -0.000000 0.000000 -0.034748
v -0.024571 0.000000 -0.024571
v -0.034748 0.000000 0.000000
v -0.024571 0.000000 0.024571
v 0.020485 0.064857 0.020485
v 0.000000 0.064857 0.028970
v 0.028970 0.064857 -0.000000
v 0.020485 0.064857 -0.020485
v -0.000000 0.064857 -0.028970
v -0.020485 0.064857 -0.020485
v -0.028970 0.064857 0.000000
v -0.020485 0.064857 0.020485
v 0.020485 0.128827 0.020485
v 0.016953 0.135070 0.016953
v 0.000000 0.135070 0.023975
v 0.000000 0.128827 0.028970
v 0.028970 0.128827 -0.000000
v 0.023975 0.135070 -0.000000
v 0.020485 0.128827 -0.020485
v 0.016953 0.135070 -0.016953
v -0.000000 0.128827 -0.028970
v -0.000000 0.135070 -0.023975
v -0.020485 0.128827 -0.020485
v -0.016953 0.135070 -0.016953
v -0.028970 0.128827 0.000000
v -0.023975 0.135070 0.000000
v -0.020485 0.128827 0.020485
v -0.016953 0.135070 0.016953
v 0.002972 0.131140 0.002972
v 0.000000 0.131140 0.004203
v 0.004203 0.131140 0.000000
v 0.002972 0.131140 -0.002972
v 0.000000 0.131140 -0.004203
v -0.002972 0.131140 -0.002972
v -0.004203 0.131140 0.000000
v -0.002972 0.131140 0.002972
v -0.006651 0.172822 0.001900
v -0.007468 0.173531 0.001352
v -0.008835 0.173192 0.001918
v -0.008550 0.172350 0.002686
v -0.005864 0.173018 0.000000
v -0.006909 0.173670 0.000000
v -0.006651 0.172822 -0.001899
v -0.007468 0.173531 -0.001352
v -0.008550 0.172350 -0.002686
v -0.008835 0.173192 -0.001918
v -0.010449 0.171879 -0.001899
v -0.010201 0.172854 -0.001352
v -0.011236 0.171684 0.000000
v -0.010761 0.172715 0.000000
v -0.010449 0.171879 0.001900
v -0.010201 0.172854 0.001352
v 0.000553 0.145651 0.002649
v -0.003122 0.161287 0.002243
v -0.005380 0.160884 0.003170
v -0.002068 0.145173 0.003752
v 0.001637 0.145848 0.000000
v -0.002185 0.161454 0.000000
v 0.000553 0.145651 -0.002649
v -0.003122 0.161287 -0.002243
v -0.002068 0.145173 -0.003752
v -0.005380 0.160884 -0.003170
v -0.004697 0.144693 -0.002658
v -0.007634 0.160477 -0.002240
v -0.005788 0.144494 0.000000
v -0.008567 0.160306 0.000000
v -0.004697 0.144693 0.002658
v -0.007634 0.160477 0.002240
vn -0.0000 -1.0000 -0.0000
vn -0.7064 0.0449 0.7064
vn -0.9990 0.0449 -0.0000
vn -0.9961 0.0887 -0.0000
vn -0.7043 0.0887 0.7043
vn -0.0000 0.0887 0.9961
vn -0.0000 0.0449 0.9990
vn -0.6956 -0.0911 -0.7127
vn -0.6853 -0.0705 -0.7249
vn -0.9931 -0.1173 -0.0000
vn -0.9895 -0.1448 -0.0000
vn -0.0000 0.0449 -0.9990
vn 0.7064 0.0449 -0.7064
vn 0.7043 0.0887 -0.7043
vn -0.0000 0.0887 -0.9961
vn -0.7064 0.0449 -0.7064
vn -0.7043 0.0887 -0.7043
vn 0.7043 0.0887 0.7043
vn 0.7064 0.0449 0.7064
vn -0.6956 -0.0911 0.7127
vn -0.6853 -0.0705 0.7249
vn 0.9990 0.0449 -0.0000
vn 0.9961 0.0887 -0.0000
vn -0.6865 -0.1282 0.7157
vn -0.9797 -0.2006 -0.0000
vn -0.6865 -0.1282 -0.7157
vn -0.0000 0.3082 0.9513
vn -0.6727 0.3082 0.6727
vn 0.9513 0.3082 -0.0000
vn 0.6727 0.3082 0.6727
vn -0.0000 0.3082 -0.9513
vn 0.6727 0.3082 -0.6727
vn -0.9513 0.3082 -0.0000
vn -0.3157 0.8948 0.3157
vn -0.4464 0.8948 -0.0000
vn 0.3364 0.7872 0.5168
vn 0.5297 0.8482 -0.0000
vn 0.3236 0.7832 0.5309
vn -0.6727 0.3082 -0.6727
vn -0.3157 0.8948 -0.3157
vn -0.0000 0.8948 -0.4464
vn 0.4464 0.8948 -0.0000
vn 0.3157 0.8948 0.3157
vn 0.3364 0.7872 -0.5168
vn 0.3236 0.7832 -0.5309
vn 0.3157 0.8948 -0.3157
vn -0.0000 0.9808 0.1949
vn -0.1378 0.9808 0.1378
vn -0.1949 0.9808 -0.0000
vn -0.1378 0.9808 -0.1378
vn 0.1949 0.9808 -0.0000
vn 0.1378 0.9808 -0.1378
vn -0.0000 0.8948 0.4464
vn -0.0000 0.9808 -0.1949
vn 0.0034 0.0345 -0.9994
vn 0.0335 0.0363 -0.9988
vn 0.9528 0.3036 -0.0000
vn 0.6627 0.2241 0.7146
vn 0.6779 0.2026 0.7067
vn 0.9627 0.2704 -0.0000
vn 0.0034 0.0345 0.9994
vn -0.0004 0.0394 0.9992
vn -0.0004 0.0394 -0.9992
vn -0.0151 0.0376 -0.9992
vn -0.6884 -0.1488 -0.7099
vn 0.6779 0.2026 -0.7067
vn 0.6627 0.2241 -0.7146
vn -0.0151 0.0376 0.9992
vn -0.6884 -0.1488 0.7099
vn 0.9787 0.2054 -0.0000
vn 0.6935 0.1559 0.7034
vn 0.7145 0.1344 0.6866
vn 0.9850 0.1726 -0.0000
vn 0.0335 0.0363 0.9988
vn 0.6935 0.1559 -0.7034
vn 0.7145 0.1344 -0.6866
vn 0.1378 0.9808 0.1378
vn -0.2406 0.9706 -0.0000
vn -0.2405 0.9706 -0.0000
vn -0.6741 0.4847 0.5574
vn -0.1491 0.6386 0.7550
vn -0.1719 0.6317 0.7559
vn -0.6847 0.4816 0.5470
vn -0.1491 0.6386 -0.7550
vn -0.1719 0.6317 -0.7559
vn -0.6741 0.4847 -0.5574
vn -0.6847 0.4816 -0.5470
vn -0.9083 0.4183 -0.0000
vn -0.9736 -0.2281 -0.0000
vt 0.296344 0.812881
vt 0.296789 0.812881
vt 0.297862 0.812881
vt 0.298936 0.812881
vt 0.299381 0.812881
vt 0.298848 0.764301
vt 0.299257 0.764301
vt 0.297862 0.764301
vt 0.668285 0.029446
vt 0.668264 0.032031
vt 0.668279 0.032031
vt 0.668298 0.029484
vt 0.296877 0.764301
vt 0.296468 0.764301
vt 0.668321 0.026435
vt 0.668333 0.026468
vt 0.297862 0.716385
vt 0.298848 0.716385
vt 0.296468 0.716385
vt 0.296877 0.716385
vt 0.299257 0.716385
vt 0.298678 0.711709
vt 0.299016 0.711709
vt 0.209428 0.569943
vt 0.209466 0.570089
vt 0.209416 0.570577
vt 0.209389 0.570474
vt 0.297862 0.711709
vt 0.296709 0.711709
vt 0.297047 0.711709
vt 0.297862 0.714653
vt 0.297719 0.714653
vt 0.297660 0.714653
vt 0.298065 0.714653
vt 0.298005 0.714653
vt 0.668253 0.029354
vt 0.668228 0.032031
vt 0.209598 0.561302
vt 0.209643 0.561428
vt 0.668293 0.026357
vt 0.209337 0.569589
vt 0.209489 0.561001
vt 0.209381 0.560696
vt 0.209245 0.569236
vt 0.209643 0.561428
vt 0.209598 0.561302
vt 0.209489 0.561001
vt 0.209490 0.561001
vt 0.668207 0.029225
vt 0.668221 0.029263
vt 0.668191 0.032031
vt 0.668176 0.032031
vt 0.209257 0.569966
vt 0.209231 0.569862
vt 0.209323 0.570220
vt 0.209208 0.569090
vt 0.209336 0.560568
vt 0.209381 0.560696
vt 0.668266 0.026281
vt 0.668254 0.026249
s 1
usemtl Graveyard
f 3/1/1 2/2/1 1/3/1
f 1/3/1 8/4/1 7/5/1
f 7/5/1 6/4/1 5/3/1
f 5/3/1 4/2/1 3/1/1
f 5/3/1 3/1/1 1/3/1 7/5/1
f 16/6/2 15/7/3 7/5/4 8/4/5
f 8/4/5 1/3/6 10/8/7 16/6/2
f 67/9/8 38/10/9 39/11/10 69/12/11
f 13/8/12 12/13/13 4/2/14 5/3/15
f 14/6/16 6/4/17 7/5/4 15/7/3
f 1/3/6 2/2/18 9/13/19 10/8/7
f 71/9/20 69/12/11 39/11/10 40/10/21
f 12/13/13 11/14/22 3/1/23 4/2/14
f 69/12/11 71/9/20 72/15/24 70/16/25
f 69/12/11 70/16/25 68/15/26 67/9/8
f 16/6/2 10/8/7 20/17/27 31/18/28
f 9/13/19 11/14/22 21/19/29 17/20/30
f 12/13/13 13/8/12 25/17/31 23/20/32
f 11/14/22 12/13/13 23/20/32 21/19/29
f 15/7/3 16/6/2 31/18/28 29/21/33
f 31/18/28 32/22/34 30/23/35 29/21/33
f 41/24/36 45/25/37 46/26/37 42/27/38
f 25/17/31 27/18/39 28/22/40 26/28/41
f 22/29/42 18/30/43 17/20/30 21/19/29
f 47/24/44 48/27/45 46/26/37 45/25/37
f 26/28/41 24/30/46 23/20/32 25/17/31
f 24/30/46 22/29/42 21/19/29 23/20/32
f 30/23/35 28/22/40 27/18/39 29/21/33
f 13/8/12 14/6/16 27/18/39 25/17/31
f 37/31/47 36/32/48 24/30/46 26/28/41
f 35/33/49 33/32/50 18/30/43 22/29/42
f 39/34/51 30/23/35 32/22/34 40/35/52
f 19/28/53 18/30/43 33/32/50 34/31/54
f 36/32/48 35/33/49 22/29/42 24/30/46
f 40/35/52 32/22/34 19/28/53 34/31/54
f 65/36/55 37/37/56 38/10/9 67/9/8
f 45/25/57 41/24/58 58/38/59 62/39/60
f 71/9/20 60/36/61 59/40/62 72/15/24
f 67/9/8 68/15/26 66/40/63 65/36/55
f 49/41/64 66/42/63 68/43/26 51/44/65
f 45/25/57 62/45/60 64/46/66 47/24/67
f 41/24/58 44/41/68 59/47/62 58/46/59
f 47/24/67 64/46/66 66/42/63 49/41/64
f 44/41/68 55/44/69 72/43/24 59/48/62
f 61/49/70 57/50/71 33/51/72 35/52/73
f 57/50/71 60/36/61 34/37/74 33/51/72
f 63/50/75 36/51/76 37/37/56 65/36/55
f 61/49/70 35/52/73 36/51/76 63/50/75
f 19/28/53 32/22/34 31/18/28 20/17/27
f 38/35/77 28/22/40 30/23/35 39/34/51
f 42/27/78 46/26/79 48/27/78
f 38/35/77 37/31/47 26/28/41 28/22/40
f 52/53/79 54/54/79 56/53/79
f 55/44/80 44/41/81 43/55/82 56/53/83
f 44/41/81 41/24/36 42/27/38 43/55/82
f 49/41/84 50/55/85 48/27/45 47/24/44
f 51/44/86 52/53/87 50/55/85 49/41/84
f 53/56/88 54/54/88 52/53/87 51/44/86
f 56/53/79 43/55/78 50/55/78 52/53/79
f 50/55/78 43/55/78 42/27/78 48/27/78
f 53/56/88 55/44/80 56/53/83 54/54/88
f 18/30/43 19/28/53 20/17/27 17/20/30
f 13/8/12 5/3/15 6/4/17 14/6/16
f 55/44/69 53/56/89 70/57/25 72/58/24
f 51/44/65 68/43/26 70/57/25 53/56/89
f 11/14/22 9/13/19 2/2/18 3/1/23
f 60/36/61 57/50/71 58/59/59 59/40/62
f 57/50/71 61/49/70 62/60/60 58/59/59
f 63/50/75 64/59/66 62/60/60 61/49/70
f 65/36/55 66/40/63 64/59/66 63/50/75
f 60/36/61 71/9/20 40/10/21 34/37/74
f 14/6/16 15/7/3 29/21/33 27/18/39
f 20/17/27 10/8/7 9/13/19 17/20/30
