# Blender 4.1.1
# www.blender.org
mtllib Cofin_1_1.mtl
o Cofin_1_1
v 0.977277 0.000000 -0.175662
v 0.993504 0.016228 -0.170116
v 0.978350 0.016228 -0.192149
v 0.978350 0.227277 -0.192148
v 0.993504 0.227277 -0.170116
v 0.977627 0.243505 -0.175137
v 0.977277 0.000000 0.175662
v 0.978350 0.016228 0.192148
v 0.993504 0.016228 0.170115
v 0.993504 0.227277 0.170115
v 0.978350 0.227277 0.192148
v 0.977628 0.243505 0.175136
v -0.311672 0.000000 -0.176851
v -0.311875 0.016228 -0.193680
v -0.327900 0.016228 -0.174896
v -0.327900 0.227277 -0.174896
v -0.311875 0.227277 -0.193680
v -0.311321 0.243505 -0.177261
v -0.312747 0.016228 0.193680
v -0.312544 0.000000 0.176851
v -0.328772 0.016228 0.174897
v -0.312747 0.227277 0.193680
v -0.328772 0.227277 0.174897
v -0.312192 0.243505 0.177261
v 0.948960 0.025927 0.155588
v 0.964666 0.042044 0.149755
v 0.949472 0.042142 0.171703
v 0.948960 0.025927 -0.155589
v 0.949472 0.042142 -0.171703
v 0.964666 0.042044 -0.149756
v 0.943478 0.227286 -0.167386
v 0.974177 0.243505 -0.172701
v 0.958713 0.227285 -0.145554
v 0.974177 0.243505 0.172700
v 0.943478 0.227286 0.167385
v 0.958713 0.227285 0.145553
v -0.280027 0.227283 0.166183
v -0.312280 0.243505 0.177335
v -0.296083 0.227284 0.147559
v -0.285417 0.041657 0.170753
v -0.301464 0.041606 0.152058
v -0.285706 0.025436 0.154338
v -0.284834 0.025436 -0.154338
v -0.300592 0.041606 -0.152058
v -0.284546 0.041657 -0.170753
v -0.311408 0.243505 -0.177334
v -0.279155 0.227283 -0.166183
v -0.295211 0.227284 -0.147559
v 0.594211 0.016228 0.330608
v 0.625389 0.016228 0.327359
v 0.610237 0.000000 0.316285
v 0.594194 0.227277 0.330605
v 0.608844 0.243505 0.316417
v 0.625374 0.227277 0.327356
v 0.594210 0.016228 -0.330608
v 0.610237 0.000000 -0.316286
v 0.625389 0.016228 -0.327359
v 0.625373 0.227277 -0.327357
v 0.608844 0.243505 -0.316417
v 0.594194 0.227277 -0.330606
v 0.607567 0.044293 0.300085
v 0.607635 0.028083 0.284004
v 0.606794 0.227294 0.291377
v 0.608091 0.243505 0.307247
v 0.607567 0.044293 -0.300086
v 0.607635 0.028083 -0.284005
v 0.606794 0.227294 -0.291377
v 0.608091 0.243505 -0.307247
v 0.173067 0.000000 0.246568
v 0.164953 0.016228 0.262144
v 0.172547 0.243505 0.246839
v 0.164945 0.227277 0.262143
v 0.164952 0.016228 -0.262144
v 0.173067 0.000000 -0.246568
v 0.187604 0.227289 0.228780
v 0.172126 0.243505 0.242291
v 0.185296 0.042975 0.235419
v 0.185185 0.026759 0.219171
v 0.185295 0.042975 -0.235419
v 0.185185 0.026759 -0.219171
v 0.327276 0.243505 -0.271515
v 0.090165 0.243505 -0.233702
v 0.210093 0.227277 -0.269344
v 0.119796 0.227277 -0.254942
v 0.164946 0.184251 -0.262143
v 0.142097 0.227288 -0.221985
v 0.233111 0.227290 -0.235576
v 0.187066 0.184294 -0.230329
v 0.089645 0.243505 -0.230002
v 0.326867 0.243505 -0.265346
v 0.793757 0.000000 0.245973
v 0.801870 0.016228 0.259754
v 0.793236 0.243505 0.245777
v 0.801862 0.227277 0.259752
v 0.801870 0.016228 -0.259754
v 0.793757 0.000000 -0.245974
v 0.775136 0.227290 0.229381
v 0.791134 0.243505 0.239974
v 0.793236 0.223985 -0.245777
v 0.801862 0.207757 -0.259753
v 0.775136 0.207770 -0.229381
v 0.791134 0.223985 -0.239974
v 0.778298 0.027005 0.219796
v 0.778520 0.043218 0.235894
v 0.778519 0.043218 -0.235895
v 0.778298 0.027005 -0.219797
v 0.801867 0.081580 -0.259754
v 0.801866 0.106359 -0.259753
v 0.869788 0.122338 -0.233734
v 0.833840 0.135724 -0.247504
v 0.834040 0.105563 -0.247428
v 0.916515 0.086881 -0.215835
v 0.932820 0.154223 -0.209589
v 0.895290 0.152614 -0.223965
v 0.657440 0.121595 -0.315077
v 0.800275 0.091369 -0.253889
v 0.800274 0.107809 -0.253888
v 0.860979 0.118411 -0.230633
v 0.828851 0.127293 -0.242941
v 0.829029 0.107281 -0.242873
v 0.902742 0.094886 -0.214636
v 0.917314 0.139566 -0.209054
v 0.883771 0.138499 -0.221903
v 0.671194 0.117918 -0.303334
vn 0.3577 -0.0000 -0.9338
vn 0.0005 -1.0000 -0.0000
vn -0.0001 -1.0000 -0.0000
vn -0.1507 0.0011 -0.9886
vn -0.0764 -0.1814 -0.9804
vn -0.1575 -0.0000 -0.9875
vn -0.0000 1.0000 -0.0000
vn -0.0446 0.6924 0.7202
vn -0.0349 0.6921 0.7209
vn 0.1057 0.6942 0.7120
vn -0.1111 0.7090 -0.6964
vn 0.0931 0.6879 -0.7198
vn -0.0523 0.6837 -0.7279
vn 0.5878 -0.6974 -0.4101
vn 0.4250 -0.6587 -0.6208
vn 0.7253 -0.6672 -0.1700
vn 0.3720 0.6734 -0.6389
vn 0.5796 0.7042 -0.4101
vn 0.7303 0.6607 -0.1738
vn 0.5878 -0.6974 0.4101
vn 0.7253 -0.6672 0.1700
vn 0.4250 -0.6587 0.6208
vn 0.7303 0.6607 0.1738
vn 0.5919 0.6976 0.4037
vn 0.4195 0.6656 0.6172
vn -0.5126 -0.7385 -0.4381
vn -0.7035 -0.6779 -0.2135
vn -0.3097 -0.6855 -0.6589
vn -0.6990 0.6837 -0.2096
vn -0.5063 0.7392 -0.4441
vn -0.3130 0.6810 -0.6620
vn -0.3096 -0.6856 0.6589
vn -0.7038 -0.6782 0.2117
vn -0.5130 -0.7390 0.4367
vn -0.3142 0.6798 0.6627
vn -0.5077 0.7390 0.4428
vn -0.6993 0.6840 0.2078
vn -0.5966 0.6831 -0.4213
vn -0.4240 0.6443 -0.6365
vn -0.7359 0.6547 -0.1726
vn -0.5966 0.6831 0.4213
vn -0.7359 0.6547 0.1726
vn -0.4240 0.6443 0.6365
vn -0.3286 0.8073 0.4902
vn -0.6364 0.7655 0.0949
vn -0.4972 0.8162 0.2942
vn -0.4877 0.8037 -0.3409
vn -0.6364 0.7655 -0.0949
vn -0.3082 0.7674 -0.5622
vn 0.1845 0.7781 -0.6004
vn 0.6528 0.7445 -0.1398
vn 0.4296 0.8142 -0.3906
vn 0.3079 0.6731 -0.6725
vn 0.5209 0.7272 -0.4470
vn 0.7145 0.6659 -0.2145
vn 0.5203 0.7266 0.4487
vn 0.3079 0.6730 0.6724
vn 0.7142 0.6656 0.2167
vn 0.4144 0.8446 0.3389
vn 0.5549 0.8296 0.0621
vn 0.1830 0.7773 0.6019
vn -0.0541 -0.6902 0.7216
vn 0.0831 -0.6803 0.7282
vn 0.2004 -0.6730 0.7119
vn -0.0523 0.6836 0.7280
vn 0.2010 0.6801 0.7050
vn 0.0774 0.6807 0.7284
vn -0.0541 -0.6902 -0.7216
vn 0.2004 -0.6730 -0.7120
vn 0.0831 -0.6803 -0.7283
vn 0.2461 0.6938 -0.6769
vn -0.2504 0.6882 -0.6809
vn -0.2499 0.6903 -0.6790
vn 0.0049 0.1098 -0.9939
vn 0.0993 0.6913 -0.7157
vn -0.0974 0.7204 -0.6867
vn -0.2850 0.7231 -0.6292
vn 0.0126 0.8007 0.5990
vn 0.0963 0.6743 0.7322
vn -0.0347 0.0680 0.9971
vn 0.1426 -0.0382 0.9890
vn 0.1491 -0.0374 0.9881
vn 0.4258 0.8920 -0.1518
vn 0.0493 0.9985 0.0234
vn 0.3441 0.8546 -0.3890
vn -0.2926 0.7136 0.6365
vn 0.6457 0.4911 -0.5848
vn 0.5750 0.7039 -0.4169
vn -0.0816 0.9380 0.3370
vn 0.8039 -0.5613 0.1965
vn 0.8578 -0.4986 -0.1250
vn 0.5142 -0.6796 -0.5232
vn 0.3421 -0.3993 -0.8506
vn 0.3467 -0.3950 -0.8507
vn 0.3408 -0.3956 -0.8529
vn 0.5829 -0.5456 0.6021
vn 0.8125 -0.5520 0.1874
vn 0.6936 -0.6932 -0.1962
vn 0.4234 0.9046 0.0504
vn -0.0157 0.9421 -0.3351
vn 0.2934 0.6542 -0.6971
vn -0.4105 -0.9078 0.0860
vn 0.1328 -0.9493 0.2849
vn 0.1960 -0.8565 -0.4775
vn -0.0710 0.0920 -0.9932
vn 0.0438 0.1782 -0.9830
vn -0.1607 0.1732 -0.9717
vn 0.0999 0.7040 0.7031
vn 0.1006 0.7038 0.7032
vn -0.7608 -0.0000 0.6490
vn 0.0012 1.0000 -0.0000
vn 0.0063 1.0000 -0.0000
vn -0.0421 0.9987 -0.0284
vn -0.0428 0.9987 -0.0289
vn -0.0844 0.9948 -0.0569
vn 0.9996 -0.0294 0.0032
vn 0.9996 -0.0293 0.0031
vn 0.9996 -0.0290 0.0029
vn -0.3465 -0.0383 0.9373
vn -0.3488 -0.0420 0.9363
vn -0.3486 -0.0417 0.9364
vn 0.0998 0.7041 -0.7031
vn 0.1006 0.7038 -0.7032
vn 0.3011 0.6859 0.6625
vn 0.7576 -0.0379 -0.6516
vn -0.1859 0.6789 0.7103
vn 0.3577 -0.0000 0.9338
vn -0.0068 0.8198 -0.5726
vn -0.3506 -0.0452 0.9354
vn -1.0000 -0.0000 -0.0025
vn -0.2530 0.6836 -0.6846
vn -0.2531 0.6832 -0.6850
vn -0.1575 -0.0000 0.9875
vn -0.1497 -0.0000 0.9887
vn -0.1419 -0.0000 0.9899
vn -0.1414 0.0018 -0.9900
vn 0.0905 -0.2310 0.9687
vn 0.1496 -0.0422 0.9879
vn 0.8239 -0.0000 0.5667
vn 0.2566 -0.6969 0.6697
vn -0.3485 -0.0363 -0.9366
vn -0.3484 -0.0395 -0.9365
vn -0.3484 -0.0396 -0.9365
vn 0.1419 -0.0373 -0.9892
vn 0.1420 -0.0374 -0.9892
vn 0.1495 -0.0419 -0.9879
vn -0.3484 -0.0428 -0.9364
vn -0.0028 1.0000 -0.0000
vn -0.0030 1.0000 -0.0000
vn -0.8205 -0.0396 -0.5702
vn -0.8205 -0.0396 0.5702
vn 0.7576 -0.0379 0.6516
vn 0.7578 -0.0378 0.6514
vn 0.7394 0.5941 -0.3166
vn 0.5929 0.6947 -0.4072
vn 0.7156 0.6479 -0.2609
vn 0.0499 0.9987 0.0095
vn 0.0486 0.9988 0.0093
vn 0.0001 1.0000 0.0005
vn -0.0000 -1.0000 -0.0000
vn 0.1855 0.7060 -0.6835
vn -0.2530 0.6836 0.6846
vn -0.2531 0.6832 0.6850
vn -0.0830 0.7031 -0.7062
vn -0.0652 0.7041 -0.7071
vn -0.0830 0.7031 0.7062
vn -0.0652 0.7041 0.7071
vn -0.1054 -0.7161 -0.6900
vn -0.1038 -0.7160 -0.6903
vn 0.1339 -0.0345 0.9904
vn 0.1029 0.6923 -0.7143
vn 0.1042 -0.6055 -0.7890
vn 0.3150 0.7194 -0.6191
vn 0.1036 -0.0000 -0.9946
vn 0.1344 -0.0328 -0.9904
vn 0.0987 0.9949 0.0188
vn -0.1064 0.7087 0.6975
vn -0.1049 0.7086 0.6978
vn -0.5958 0.6909 0.4095
vn -0.7238 0.6376 0.2637
vn -0.7375 0.6006 0.3088
vn 0.2293 0.9676 -0.1060
vn 0.0084 0.9985 -0.0543
vn -0.1399 0.9870 0.0789
vn -0.1772 0.9469 0.2684
vn 0.2566 -0.6969 -0.6697
vn -0.3344 0.7209 0.6070
vn -0.0713 0.7022 -0.7084
vn -0.0746 0.7021 -0.7081
vn -0.1037 -0.7160 0.6903
vn -0.1053 -0.7161 0.6900
vn 0.2537 0.7051 0.6622
vn 0.1036 -0.0000 0.9946
vn -0.9995 -0.0321 -0.0000
vn 0.0855 0.4998 -0.8619
vn -0.0187 -0.9508 0.3093
vn 0.3349 -0.4007 -0.8528
vn 0.3735 -0.9100 0.1801
vn 0.4598 0.8044 -0.3762
vn -0.1173 0.6288 -0.7687
vn -0.1561 -0.9775 -0.1419
vn -0.1214 0.0703 -0.9901
vn 0.8239 -0.0000 -0.5667
vn 1.0000 -0.0000 -0.0000
vn -0.7608 -0.0000 -0.6490
vt 0.485223 0.656962
vt 0.485215 0.658433
vt 0.485049 0.618319
vt 0.485049 0.618316
vt 0.485208 0.618316
vt 0.485247 0.632164
vt 0.485243 0.630706
vt 0.485247 0.632164
vt 0.485018 0.632409
vt 0.485020 0.632396
vt 0.485260 0.646433
vt 0.485267 0.646475
vt 0.485248 0.637393
vt 0.485251 0.637406
vt 0.485271 0.646500
vt 0.485277 0.646026
vt 0.485208 0.658398
vt 0.485205 0.658922
vt 0.485207 0.658410
vt 0.485050 0.658398
vt 0.485053 0.658922
vt 0.485043 0.658433
vt 0.485050 0.658410
vt 0.485208 0.618308
vt 0.485207 0.617783
vt 0.485216 0.618301
vt 0.485208 0.618319
vt 0.485042 0.618301
vt 0.485050 0.617783
vt 0.485050 0.618308
vt 0.485059 0.657484
vt 0.485052 0.657500
vt 0.485062 0.657991
vt 0.485199 0.657484
vt 0.485196 0.657991
vt 0.485206 0.657500
vt 0.485204 0.657307
vt 0.485194 0.657799
vt 0.485206 0.658298
vt 0.485051 0.658298
vt 0.485064 0.657799
vt 0.485054 0.657307
vt 0.485054 0.619358
vt 0.485063 0.618839
vt 0.485052 0.619184
vt 0.485060 0.619174
vt 0.485061 0.618665
vt 0.485198 0.619174
vt 0.485206 0.619184
vt 0.485197 0.618665
vt 0.485195 0.618839
vt 0.485203 0.619358
vt 0.484981 0.646027
vt 0.484987 0.646545
vt 0.484982 0.647034
vt 0.484981 0.646026
vt 0.484982 0.647033
vt 0.484987 0.646500
vt 0.485277 0.646027
vt 0.485276 0.647034
vt 0.485271 0.646545
vt 0.485276 0.647033
vt 0.485026 0.651870
vt 0.485021 0.652387
vt 0.485250 0.633622
vt 0.485234 0.629749
vt 0.485243 0.630706
vt 0.485228 0.631426
vt 0.485232 0.629732
vt 0.485228 0.631426
vt 0.485234 0.632821
vt 0.485232 0.632878
vt 0.494958 0.549053
vt 0.494968 0.549056
vt 0.495028 0.548912
vt 0.485237 0.652387
vt 0.485270 0.648069
vt 0.485240 0.542444
vt 0.485234 0.543599
vt 0.485226 0.545108
vt 0.485245 0.541405
vt 0.485270 0.536741
vt 0.485245 0.541405
vt 0.485240 0.542438
vt 0.485229 0.544422
vt 0.485223 0.545634
vt 0.485247 0.632164
vt 0.485227 0.632817
vt 0.485245 0.652733
vt 0.485240 0.653766
vt 0.485245 0.652733
vt 0.485229 0.655750
vt 0.485234 0.654927
vt 0.485245 0.652733
vt 0.485240 0.653772
vt 0.485245 0.652733
vt 0.485226 0.656436
vt 0.485256 0.646460
vt 0.485001 0.646460
vt 0.485030 0.651972
vt 0.485227 0.651972
vt 0.485239 0.652454
vt 0.485232 0.651870
vt 0.485235 0.651979
vt 0.485031 0.632817
vt 0.485023 0.632821
vt 0.485235 0.634365
vt 0.485019 0.652454
vt 0.484991 0.646475
vt 0.485012 0.652733
vt 0.485012 0.652733
vt 0.485250 0.633622
vt 0.485264 0.646458
vt 0.485023 0.651979
vt 0.485011 0.632164
vt 0.485011 0.632164
vt 0.485018 0.652471
vt 0.485026 0.632896
vt 0.484998 0.646433
vt 0.484994 0.646458
vt 0.495025 0.548735
vt 0.494920 0.548772
vt 0.494920 0.548948
vt 0.485239 0.652471
vt 0.485240 0.632426
vt 0.485018 0.632426
vt 0.495028 0.548639
vt 0.495029 0.548820
vt 0.495138 0.548780
vt 0.495132 0.548600
vt 0.495028 0.549054
vt 0.495044 0.549056
s 1
usemtl Graveyard
f 113/1/1 4/2/1 3/2/1
f 24/3/2 38/4/2 46/5/3
f 73/6/4 84/7/5 85/8/6
f 71/9/7 76/10/7 38/4/7
f 67/11/8 68/12/9 90/13/10
f 81/14/11 59/15/12 60/16/13
f 1/17/14 3/2/15 2/18/16
f 4/2/17 6/19/18 5/18/19
f 7/20/20 9/21/21 8/22/22
f 10/21/23 12/23/24 11/22/25
f 13/24/26 15/25/27 14/26/28
f 16/25/29 18/27/30 17/26/31
f 19/28/32 21/29/33 20/30/34
f 22/28/35 24/3/36 23/29/37
f 25/31/38 27/32/39 26/33/40
f 28/34/41 30/35/42 29/36/43
f 31/37/44 33/38/45 32/39/46
f 34/40/47 36/41/48 35/42/49
f 37/43/50 39/44/51 38/4/52
f 40/45/53 42/46/54 41/47/55
f 43/48/56 45/49/57 44/50/58
f 46/5/59 48/51/60 47/52/61
f 49/53/62 51/54/63 50/55/64
f 52/56/65 54/57/66 53/58/67
f 55/59/68 57/60/69 56/61/70
f 58/62/71 60/16/13 59/15/12
f 34/40/47 32/39/46 33/38/45
f 46/5/59 38/4/52 39/44/51
f 35/42/49 97/63/72 98/64/73
f 83/65/74 60/16/6 55/59/6 73/6/4
f 37/43/50 38/4/52 76/10/75
f 82/66/76 84/67/77 17/26/31
f 47/52/61 86/68/78 89/69/79
f 86/70/80 79/71/81 88/72/82
f 18/27/7 46/5/7 89/69/7
f 82/73/83 89/74/84 86/75/85
f 31/37/44 32/39/46 102/76/86
f 58/62/1 115/77/1 57/60/1
f 120/78/1 118/79/1 121/80/1
f 107/81/87 115/82/88 124/82/89
f 108/83/90 110/84/91 119/84/92
f 117/83/1 116/81/1 124/82/1
f 114/85/93 113/86/94 122/86/95
f 109/79/96 114/85/97 123/85/98
f 111/78/99 120/78/100 121/80/101
f 108/83/102 117/83/103 124/82/104
f 112/80/105 121/80/106 122/86/107
f 85/87/6 83/65/74 73/6/4
f 80/88/108 79/71/109 45/49/57 43/48/56
f 100/89/1 110/90/1 108/91/1
f 110/90/1 114/92/1 109/93/1
f 100/89/1 114/92/1 110/90/1
f 107/94/1 111/95/1 95/96/1
f 95/96/1 112/97/1 3/2/1
f 112/97/1 95/96/1 111/95/1
f 100/89/1 4/2/1 114/92/1
f 114/92/1 4/2/1 113/1/1
f 113/1/1 3/2/1 112/97/1
f 24/3/2 46/5/3 18/27/3
f 19/28/110 22/28/110 23/29/110 21/29/110
f 66/98/111 62/99/111 103/100/112 106/101/112
f 71/9/7 38/4/7 24/3/7
f 32/39/113 6/19/114 99/102/115 102/76/115
f 44/50/116 48/51/117 39/44/118 41/47/118
f 95/96/1 57/60/1 115/77/1 107/94/1
f 29/36/119 31/37/119 101/103/120 105/104/121
f 20/30/34 21/29/33 15/25/27 13/24/26
f 78/105/122 42/46/54 40/45/53 77/106/123
f 67/11/8 90/13/10 87/107/124
f 40/45/125 41/47/125 39/44/125 37/43/125
f 93/108/7 98/64/7 64/109/7 53/58/7
f 68/12/9 67/11/8 101/103/126 102/76/126
f 94/110/127 54/57/127 50/55/127 92/111/127
f 81/14/11 60/16/13 83/112/128
f 101/103/120 67/11/129 65/113/129 105/104/121
f 15/25/130 21/29/130 23/29/130 16/25/130
f 27/32/39 25/31/38 103/100/131 104/114/132
f 11/22/127 94/110/127 92/111/127 8/22/127
f 64/109/7 76/10/7 71/9/7 53/58/7
f 52/56/133 72/115/134 70/116/134 49/53/133
f 72/115/134 22/28/135 19/28/135 70/116/134
f 14/26/136 17/26/136 84/7/5 73/6/4
f 87/107/137 79/71/81 65/113/138 67/11/138
f 11/22/139 8/22/139 9/21/139 10/21/139
f 50/55/64 51/54/63 91/117/140 92/111/140
f 35/42/141 27/32/141 104/114/142 97/63/143
f 34/40/47 33/38/45 36/41/48
f 77/106/144 75/118/145 63/119/146 61/120/146
f 104/114/142 61/120/147 63/119/147 97/63/143
f 43/48/148 42/46/148 78/105/149 80/88/149
f 46/5/59 39/44/51 48/51/60
f 36/41/150 26/33/150 27/32/150 35/42/150
f 33/38/151 31/37/151 29/36/151 30/35/151
f 48/51/152 44/50/152 45/49/153 47/52/152
f 86/75/154 88/121/155 85/122/155 84/123/156
f 68/12/157 59/15/158 81/14/7 90/13/159
f 34/40/7 98/64/7 93/108/7 12/23/7
f 10/21/23 5/18/19 6/19/18 12/23/24
f 51/54/160 56/61/160 96/124/160 91/117/160
f 4/2/17 100/89/161 99/102/161 6/19/18
f 106/101/112 103/100/112 25/31/112 28/34/112
f 35/42/49 98/64/73 34/40/47
f 106/101/162 28/34/41 29/36/43 105/104/163
f 12/23/7 6/19/114 32/39/113 34/40/7
f 91/117/160 96/124/160 1/17/160 7/20/160
f 13/24/160 74/125/160 69/126/160 20/30/160
f 79/71/81 87/107/137 88/72/82
f 30/35/42 28/34/41 25/31/38 26/33/40
f 62/99/164 78/105/122 77/106/123 61/120/165
f 66/98/166 65/113/167 79/71/109 80/88/108
f 66/98/166 106/101/162 105/104/163 65/113/167
f 74/125/168 73/6/169 55/59/68 56/61/70
f 45/49/170 79/71/81 86/70/80 47/52/170
f 24/3/36 18/27/30 16/25/29 23/29/37
f 37/43/50 76/10/75 75/118/171
f 118/79/172 119/84/172 110/84/172 109/79/172
f 56/61/160 51/54/160 69/126/160 74/125/160
f 58/62/71 59/15/12 99/102/173 100/89/173
f 82/66/76 17/26/31 18/27/30
f 58/62/174 57/60/174 55/59/174 60/16/174
f 13/24/26 14/26/28 73/6/169 74/125/168
f 47/52/61 89/69/79 46/5/59
f 37/43/175 75/118/145 77/106/144 40/45/175
f 99/102/176 59/15/158 68/12/157 102/76/176
f 104/114/132 103/100/131 62/99/164 61/120/165
f 78/105/149 62/99/111 66/98/111 80/88/149
f 120/78/1 116/81/1 117/83/1 119/84/1
f 18/27/7 89/69/7 82/66/7
f 52/56/65 53/58/67 71/9/177 72/115/178
f 88/127/179 87/128/180 83/129/181 85/130/179
f 82/73/83 86/75/85 84/123/182
f 87/128/183 90/131/184 81/132/184 83/129/185
f 96/124/186 56/61/70 57/60/69 95/96/186
f 100/89/1 108/91/1 115/77/1 58/62/1
f 31/37/44 102/76/86 101/103/187
f 1/17/14 2/18/16 9/21/21 7/20/20
f 64/109/188 63/119/189 75/118/171 76/10/75
f 70/116/190 19/28/32 20/30/34 69/126/191
f 64/109/188 98/64/73 97/63/72 63/119/189
f 11/22/25 12/23/24 93/108/192 94/110/192
f 96/124/186 95/96/186 3/2/15 1/17/14
f 54/57/193 52/56/193 49/53/193 50/55/193
f 44/50/58 41/47/55 42/46/54 43/48/56
f 36/41/194 33/38/194 30/35/194 26/33/194
f 72/115/178 71/9/177 24/3/36 22/28/35
f 49/53/62 70/116/190 69/126/191 51/54/63
f 8/22/22 92/111/140 91/117/140 7/20/20
f 54/57/66 94/110/192 93/108/192 53/58/67
f 121/80/1 123/85/1 122/86/1
f 118/79/1 120/78/1 119/84/1
f 121/80/1 118/79/1 123/85/1
f 107/81/87 124/82/89 116/81/195
f 108/83/90 119/84/92 117/83/196
f 114/85/93 122/86/95 123/85/197
f 109/79/96 123/85/98 118/79/198
f 111/78/99 121/80/101 112/80/199
f 116/81/200 120/78/200 111/78/200 107/81/200
f 108/83/102 124/82/104 115/82/201
f 112/80/105 122/86/107 113/86/202
f 4/2/203 5/18/203 2/18/203 3/2/203
f 9/21/204 2/18/204 5/18/204 10/21/204
f 15/25/205 16/25/205 17/26/205 14/26/205
