# Blender 4.1.1
# www.blender.org
mtllib FBlock_1_1.mtl
o FBlock_1_1
v 0.183277 0.000000 -0.487239
v 0.216339 0.000000 -0.464250
v 0.183277 0.259803 -0.487239
v 0.183277 0.293058 -0.464250
v 0.216339 0.259803 -0.464250
v 0.216339 0.000000 0.464250
v 0.183277 0.000000 0.487239
v 0.183277 0.293058 0.464250
v 0.183277 0.259803 0.487239
v 0.216339 0.259803 0.464250
v -0.216339 0.000000 -0.464250
v -0.183277 0.000000 -0.487239
v -0.183277 0.293058 -0.464250
v -0.183277 0.259803 -0.487239
v -0.216339 0.259803 -0.464250
v -0.183277 0.000000 0.487239
v -0.216339 0.000000 0.464250
v -0.183277 0.293058 0.464250
v -0.216339 0.259803 0.464250
v -0.183277 0.259803 0.487239
vn 0.2991 -0.0000 -0.9542
vn 0.8862 -0.0000 -0.4632
vn 0.2764 0.2751 -0.9208
vn 0.3326 0.8477 -0.4132
vn 0.8489 0.3304 -0.4125
vn 0.8862 -0.0000 0.4632
vn 0.2991 -0.0000 0.9542
vn 0.3326 0.8477 0.4132
vn 0.2764 0.2751 0.9208
vn 0.8489 0.3304 0.4125
vn -0.8862 -0.0000 -0.4632
vn -0.2991 -0.0000 -0.9542
vn -0.3326 0.8477 -0.4132
vn -0.2764 0.2751 -0.9208
vn -0.8489 0.3304 -0.4125
vn -0.2991 -0.0000 0.9542
vn -0.8862 -0.0000 0.4632
vn -0.3326 0.8477 0.4132
vn -0.8489 0.3304 0.4125
vn -0.2764 0.2751 0.9208
vt 0.782187 0.069032
vt 0.782187 0.057503
vt 0.782051 0.069032
vt 0.782187 0.069032
vt 0.782051 0.069032
vt 0.783697 0.057503
vt 0.783697 0.069032
vt 0.783833 0.069032
vt 0.783833 0.069032
vt 0.783697 0.069032
vt 0.783697 0.159105
vt 0.782187 0.159105
vt 0.782051 0.159105
vt 0.783833 0.159105
s 1
usemtl Graveyard
f 3/1/3 4/2/4 5/3/5
f 8/2/8 9/4/9 10/5/10
f 13/6/13 14/7/14 15/8/15
f 18/6/18 19/9/19 20/10/20
f 16/11/16 7/12/7 9/4/9 20/10/20
f 2/13/2 1/12/1 3/1/3 5/3/5
f 5/3/5 4/2/4 8/2/8 10/5/10
f 10/5/10 9/4/9 7/12/7 6/13/6
f 9/4/9 8/2/8 18/6/18 20/10/20
f 20/10/20 19/9/19 17/14/17 16/11/16
f 19/9/19 18/6/18 13/6/13 15/8/15
f 15/8/15 14/7/14 12/11/12 11/14/11
f 14/7/14 13/6/13 4/2/4 3/1/3
f 6/13/6 2/13/2 5/3/5 10/5/10
f 1/12/1 12/11/12 14/7/14 3/1/3
f 11/14/11 17/14/17 19/9/19 15/8/15
f 13/6/13 18/6/18 8/2/8 4/2/4
