# Blender 4.1.1
# www.blender.org
mtllib Fence_2_2.mtl
o Fence_2_2
v -0.025968 0.000000 0.037717
v -0.037716 0.000000 0.025968
v -0.025968 0.746453 0.030501
v -0.030830 0.767936 0.037079
v -0.044294 0.767936 0.023614
v -0.037716 0.746453 0.018752
v -0.037716 0.000000 -0.025968
v -0.025968 0.000000 -0.037716
v -0.044294 0.767936 -0.038046
v -0.030830 0.767936 -0.051511
v -0.025968 0.746453 -0.044932
v -0.037716 0.746453 -0.033184
v 0.037717 0.000000 0.025968
v 0.025969 0.000000 0.037716
v 0.044295 0.767936 0.023614
v 0.030831 0.767936 0.037079
v 0.025969 0.746453 0.030501
v 0.037717 0.746453 0.018752
v 0.025969 0.000000 -0.037717
v 0.037717 0.000000 -0.025968
v 0.030831 0.767936 -0.051511
v 0.044295 0.767936 -0.038046
v 0.037717 0.746453 -0.033184
v 0.025969 0.746453 -0.044932
v -0.067081 0.818889 0.047374
v -0.064748 0.798201 0.044068
v -0.051284 0.798201 0.057533
v -0.054589 0.818889 0.059866
v -0.067081 0.818889 -0.061805
v -0.054589 0.818889 -0.074297
v -0.051284 0.798201 -0.071965
v -0.064748 0.798201 -0.058500
v 0.054590 0.818889 -0.074298
v 0.067082 0.818889 -0.061806
v 0.064749 0.798201 -0.058500
v 0.051285 0.798201 -0.071965
v 0.067082 0.818889 0.047374
v 0.054590 0.818889 0.059866
v 0.051285 0.798201 0.057533
v 0.064749 0.798201 0.044068
v -0.015994 0.950700 -0.003714
v -0.003502 0.950700 0.008778
v 0.000000 0.961654 -0.007216
v -0.015994 0.950700 -0.010718
v -0.003502 0.950700 -0.023210
v 0.003503 0.950700 -0.023210
v 0.015995 0.950700 -0.010718
v 0.015995 0.950700 -0.003714
v 0.003503 0.950700 0.008778
v -0.025968 0.007839 -0.265960
v -0.037716 0.006545 -0.277637
v -0.025968 0.706720 -0.284488
v -0.030830 0.728796 -0.280316
v -0.044295 0.727313 -0.293698
v -0.037716 0.705426 -0.296165
v -0.037716 0.000825 -0.329257
v -0.025968 -0.000468 -0.340934
v -0.044295 0.720522 -0.354984
v -0.030830 0.719039 -0.368366
v -0.025968 0.698412 -0.359462
v -0.037716 0.699706 -0.347785
v 0.037717 0.006545 -0.277637
v 0.025968 0.007839 -0.265960
v 0.044295 0.727313 -0.293699
v 0.030830 0.728796 -0.280316
v 0.025968 0.706720 -0.284488
v 0.037717 0.705426 -0.296165
v 0.025968 -0.000468 -0.340934
v 0.037717 0.000825 -0.329257
v 0.030830 0.719039 -0.368367
v 0.044295 0.720522 -0.354984
v 0.037717 0.699706 -0.347785
v 0.025968 0.698412 -0.359462
v -0.067081 0.780573 -0.275695
v -0.064749 0.759647 -0.276702
v -0.051284 0.761130 -0.263319
v -0.054589 0.781949 -0.263279
v -0.067082 0.768549 -0.384210
v -0.054590 0.767173 -0.396626
v -0.051284 0.746868 -0.392029
v -0.064749 0.748351 -0.378646
v 0.054590 0.767173 -0.396626
v 0.067082 0.768549 -0.384210
v 0.064749 0.748350 -0.378647
v 0.051284 0.746868 -0.392029
v 0.067082 0.780573 -0.275695
v 0.054590 0.781949 -0.263279
v 0.051284 0.761130 -0.263319
v 0.064749 0.759647 -0.276702
v -0.015994 0.905956 -0.340989
v -0.003502 0.907332 -0.328573
v 0.000000 0.916458 -0.345676
v -0.015994 0.905185 -0.347950
v -0.003502 0.903809 -0.360366
v 0.003502 0.903809 -0.360366
v 0.015994 0.905185 -0.347950
v 0.015994 0.905956 -0.340989
v 0.003502 0.907332 -0.328573
v 0.025969 -0.001714 0.231786
v 0.037717 -0.003801 0.243347
v 0.025969 0.690269 0.291420
v 0.030831 0.712578 0.288761
v 0.044296 0.710187 0.302012
v 0.037717 0.688183 0.302982
v 0.037718 -0.013023 0.294458
v 0.025969 -0.015109 0.306020
v 0.044296 0.699238 0.362692
v 0.030831 0.696847 0.375943
v 0.025969 0.676875 0.365654
v 0.037718 0.678961 0.354093
v -0.037716 -0.003801 0.243348
v -0.025967 -0.001714 0.231786
v -0.044294 0.710187 0.302012
v -0.030829 0.712578 0.288761
v -0.025967 0.690269 0.291420
v -0.037716 0.688183 0.302982
v -0.025967 -0.015109 0.306020
v -0.037715 -0.013023 0.294458
v -0.030829 0.696847 0.375943
v -0.044294 0.699238 0.362692
v -0.037715 0.678961 0.354093
v -0.025967 0.676875 0.365654
v 0.067083 0.764550 0.287677
v 0.064750 0.743603 0.287257
v 0.051285 0.745994 0.274006
v 0.054590 0.766768 0.275384
v 0.067083 0.745163 0.395121
v 0.054591 0.742945 0.407415
v 0.051285 0.723000 0.401446
v 0.064750 0.725391 0.388195
v -0.054588 0.742945 0.407415
v -0.067080 0.745163 0.395122
v -0.064748 0.725390 0.388195
v -0.051283 0.723000 0.401446
v -0.067081 0.764550 0.287678
v -0.054589 0.766768 0.275384
v -0.051283 0.745994 0.274006
v -0.064748 0.743603 0.287257
v 0.015995 0.885195 0.361359
v 0.003503 0.887413 0.349065
v 0.000001 0.895353 0.366750
v 0.015995 0.883951 0.368252
v 0.003503 0.881733 0.380545
v -0.003501 0.881733 0.380545
v -0.015993 0.883951 0.368252
v -0.015993 0.885195 0.361359
v -0.003501 0.887413 0.349065
v 0.027422 0.334597 -0.487239
v 0.019998 0.327129 -0.487239
v 0.019998 0.327129 0.487239
v -0.027421 0.334597 -0.487239
v 0.027422 0.389713 0.487239
v -0.019997 0.397180 0.487239
v -0.027421 0.389713 -0.487239
v -0.019997 0.397180 -0.487239
v 0.027422 0.334597 0.487239
v -0.019997 0.327129 -0.487239
v -0.027421 0.334597 0.487239
v -0.019997 0.327129 0.487239
v 0.019998 0.397180 -0.487239
v 0.027422 0.389713 -0.487239
v 0.019998 0.397180 0.487239
v -0.027421 0.389713 0.487239
v -0.025968 0.254603 -0.257672
v -0.025968 0.458890 -0.263024
v -0.037716 0.457598 -0.274701
v -0.037716 0.253294 -0.269349
v -0.025968 0.450582 -0.337998
v -0.025968 0.246295 -0.332646
v -0.037716 0.247574 -0.320970
v -0.037716 0.451878 -0.326321
v 0.037717 0.451878 -0.326321
v 0.037717 0.247574 -0.320970
v 0.025968 0.246295 -0.332646
v 0.025968 0.450582 -0.337998
v 0.025968 0.458890 -0.263024
v 0.025968 0.254603 -0.257672
v 0.037717 0.253294 -0.269349
v 0.037717 0.457598 -0.274701
v 0.025969 0.275828 0.245405
v 0.025969 0.529991 0.269180
v 0.037717 0.527912 0.280743
v 0.037717 0.273738 0.256966
v 0.025969 0.516597 0.343414
v 0.025969 0.262433 0.319639
v 0.037718 0.264516 0.308077
v 0.037718 0.518690 0.331854
v -0.037715 0.518690 0.331854
v -0.037715 0.264516 0.308077
v -0.025967 0.262433 0.319639
v -0.025967 0.516597 0.343414
v -0.025967 0.529991 0.269180
v -0.025967 0.275828 0.245405
v -0.037716 0.273738 0.256966
v -0.037716 0.527912 0.280743
vn -0.5563 0.6173 0.5563
vn -0.4399 0.7829 0.4399
vn -0.5563 0.6173 -0.5563
vn -0.4399 0.7829 -0.4399
vn 0.5563 0.6173 -0.5563
vn 0.4399 0.7829 -0.4399
vn 0.5563 0.6173 0.5563
vn 0.4399 0.7829 0.4399
vn -0.5651 0.8250 -0.0000
vn -0.8134 0.5818 -0.0000
vn -0.0000 0.8250 -0.5651
vn -0.0000 0.5818 -0.8134
vn 0.5651 0.8250 -0.0000
vn 0.8134 0.5818 -0.0000
vn -0.0000 0.8250 0.5651
vn -0.0000 0.5818 0.8134
vn -0.5563 0.6749 0.4849
vn -0.5563 0.6748 0.4849
vn -0.4399 0.8266 0.3510
vn -0.5563 0.5523 -0.6209
vn -0.4399 0.7297 -0.5235
vn 0.5563 0.5523 -0.6209
vn 0.4399 0.7297 -0.5235
vn 0.5563 0.6749 0.4849
vn 0.4399 0.8266 0.3510
vn 0.5563 0.6748 0.4849
vn -0.5651 0.8200 -0.0909
vn -0.8134 0.5782 -0.0641
vn -0.0000 0.7578 -0.6525
vn -0.0000 0.4886 -0.8725
vn 0.5651 0.8200 -0.0909
vn 0.8134 0.5782 -0.0641
vn -0.0000 0.8823 0.4708
vn -0.0000 0.6678 0.7443
vn 0.5563 0.7063 -0.4378
vn 0.4399 0.8486 -0.2939
vn 0.5563 0.5088 0.6571
vn 0.4399 0.6924 0.5719
vn -0.5563 0.5088 0.6571
vn -0.4399 0.6924 0.5719
vn -0.5563 0.7063 -0.4378
vn -0.4399 0.8486 -0.2939
vn 0.5651 0.8119 0.1465
vn 0.8134 0.5725 0.1033
vn -0.0000 0.7116 0.7026
vn -0.0000 0.4281 0.9037
vn -0.5651 0.8119 0.1465
vn -0.8134 0.5725 0.1033
vn -0.0000 0.9123 -0.4096
vn -0.0000 0.7169 -0.6971
vn -0.0000 -0.0000 -1.0000
vn -0.0000 -0.0000 1.0000
vn -0.0000 -0.0037 1.0000
vn -0.0000 0.0563 0.9984
vn 0.2309 -0.6471 0.7266
vn 0.3201 -0.6694 0.6704
vn -0.3201 -0.6694 0.6704
vn -0.2309 -0.6471 0.7266
vn 0.7266 -0.6686 -0.1582
vn 0.6704 -0.7006 -0.2445
vn 0.6704 -0.6301 0.3919
vn 0.7266 -0.6177 0.3007
vn -0.7066 0.0403 0.7065
vn -0.7070 0.0610 0.7046
vn -0.7066 0.0393 0.7065
vn -0.9324 0.3614 -0.0000
vn 0.6201 0.4807 -0.6201
vn -0.7070 -0.0610 -0.7046
vn -0.7066 -0.0393 -0.7066
vn -0.7066 -0.0403 -0.7065
vn -0.0000 0.3614 0.9324
vn -0.0000 0.5212 -0.8534
vn -0.9324 0.3592 -0.0398
vn 0.3749 -0.1899 -0.9074
vn 0.8593 -0.2759 -0.4307
vn 0.8756 -0.2792 -0.3942
vn 0.3384 -0.1838 -0.9229
vn 0.3384 -0.3447 -0.8756
vn 0.3749 -0.3480 -0.8593
vn 0.8593 -0.3480 -0.3749
vn 0.8756 -0.3447 -0.3384
vn 0.8756 -0.3799 -0.2984
vn 0.3384 -0.4391 -0.8323
vn 0.3749 -0.4405 -0.8157
vn 0.8593 -0.3871 -0.3343
vn -0.3749 -0.4405 -0.8157
vn -0.3384 -0.4391 -0.8323
vn -0.8756 -0.3799 -0.2984
vn -0.8593 -0.3871 -0.3343
vn -0.3534 -0.1604 -0.9216
vn -0.9216 -0.1604 -0.3534
vn -0.9020 -0.1654 -0.3988
vn -0.3988 -0.1654 -0.9020
vn -0.9020 -0.2336 0.3631
vn -0.9216 -0.2206 0.3193
vn -0.3534 -0.3215 0.8785
vn -0.3988 -0.3230 0.8583
vn -0.3988 -0.2638 -0.8783
vn -0.3534 -0.2609 -0.8984
vn -0.9216 -0.1983 -0.3336
vn -0.9020 -0.2083 -0.3782
vn 0.9216 -0.1983 -0.3336
vn 0.3534 -0.2609 -0.8984
vn 0.3988 -0.2638 -0.8783
vn 0.9020 -0.2083 -0.3782
vn -1.0000 -0.0000 -0.0000
vn -0.3384 -0.1838 -0.9229
vn -0.3749 -0.1899 -0.9074
vn 1.0000 -0.0000 -0.0000
vn -0.3384 -0.3447 0.8756
vn 0.3384 -0.3447 0.8756
vn 0.3749 -0.3480 0.8593
vn -0.3749 -0.3480 0.8593
vn 0.7066 0.0403 0.7065
vn 0.7066 0.0393 0.7065
vn 0.7070 0.0610 0.7046
vn -0.3749 -0.2512 0.8924
vn -0.3384 -0.2462 0.9082
vn 0.3384 -0.2462 0.9082
vn 0.3749 -0.2512 0.8924
vn 0.7071 -0.0068 -0.7071
vn -0.9216 -0.1604 0.3534
vn -0.9020 -0.1654 0.3988
vn -0.3988 -0.0651 0.9147
vn -0.3534 -0.0579 0.9337
vn 0.3534 -0.0579 0.9337
vn 0.3988 -0.0651 0.9147
vn 0.3534 -0.3215 0.8785
vn 0.3988 -0.3230 0.8583
vn 0.6201 0.4807 0.6201
vn 0.3201 -0.5915 0.7400
vn 0.2309 -0.5631 0.7935
vn -0.6201 0.5831 -0.5249
vn 0.3201 -0.5397 -0.7786
vn 0.6704 -0.6019 -0.4339
vn 0.7266 -0.5958 -0.3421
vn 0.2309 -0.5078 -0.8300
vn -0.0000 -0.0711 0.9975
vn -0.0000 -0.1153 0.9933
vn -0.6704 -0.6694 0.3201
vn -0.7266 -0.6471 0.2309
vn 0.6704 -0.6694 -0.3201
vn 0.7266 -0.6471 -0.2309
vn 0.2309 -0.6471 -0.7266
vn 0.3201 -0.6694 -0.6704
vn -0.0000 0.0336 -0.9994
vn -0.0000 0.0037 -1.0000
vn 0.3988 -0.0026 -0.9170
vn 0.3534 0.0058 -0.9355
vn -0.3534 0.0058 -0.9355
vn -0.3988 -0.0026 -0.9170
vn -0.2309 -0.5078 -0.8300
vn -0.3201 -0.5397 -0.7786
vn -0.6704 -0.6694 -0.3201
vn -0.7266 -0.6471 -0.2309
vn -0.3201 -0.6694 -0.6704
vn -0.2309 -0.6471 -0.7266
vn -0.7266 -0.5958 -0.3421
vn -0.7266 -0.6778 0.1123
vn -0.6704 -0.7156 0.1962
vn -0.6704 -0.6019 -0.4339
vn 0.9324 0.3592 -0.0398
vn 0.7064 0.0821 -0.7030
vn 0.7068 0.0972 -0.7007
vn 0.7064 0.0812 -0.7031
vn 0.9324 0.3556 0.0642
vn -0.3201 -0.5915 0.7400
vn -0.2309 -0.5631 0.7935
vn -0.0000 0.3614 -0.9324
vn 0.8593 -0.4090 0.3071
vn 0.3749 -0.4950 0.7838
vn 0.3384 -0.4947 0.8005
vn 0.8756 -0.3993 0.2718
vn -0.8756 -0.2792 -0.3942
vn -0.8593 -0.2759 -0.4307
vn 0.7049 -0.0015 0.7093
vn 0.7047 -0.0037 0.7095
vn -0.8593 -0.3046 0.4109
vn -0.8756 -0.3054 0.3743
vn 0.9020 -0.1205 0.4146
vn 0.9216 -0.1205 0.3689
vn 0.9020 -0.0920 -0.4219
vn 0.9216 -0.0951 -0.3763
vn -0.9216 -0.1205 0.3689
vn -0.9020 -0.1205 0.4146
vn -0.9244 0.3813 -0.0000
vn -0.9244 -0.3813 -0.0000
vn 0.8593 -0.3046 0.4109
vn 0.8756 -0.3054 0.3743
vn -0.6201 0.4807 0.6201
vn -0.3749 -0.4950 0.7838
vn -0.3384 -0.4947 0.8005
vn 0.7068 -0.0972 0.7007
vn 0.7064 -0.0812 0.7032
vn 0.7064 -0.0821 0.7030
vn -0.0000 0.2565 -0.9665
vn -0.8756 -0.3447 0.3384
vn -0.8593 -0.3480 0.3749
vn -0.8593 -0.3480 -0.3749
vn -0.8756 -0.3447 -0.3384
vn -0.3384 -0.3447 -0.8756
vn -0.3749 -0.3480 -0.8593
vn 0.3988 -0.1654 -0.9020
vn 0.3534 -0.1604 -0.9216
vn 0.9020 -0.2336 0.3631
vn 0.9216 -0.2206 0.3193
vn 0.6201 0.3629 0.6956
vn -0.6201 0.5460 0.5634
vn -0.7266 -0.6686 -0.1582
vn -0.6704 -0.7006 -0.2445
vn -0.3201 -0.7392 -0.5926
vn -0.2309 -0.7232 -0.6509
vn -0.6201 0.3629 0.6956
vn 0.3201 -0.7778 0.5409
vn 0.2309 -0.7658 0.6002
vn 0.7266 -0.6778 0.1123
vn 0.6704 -0.7156 0.1962
vn 0.2309 -0.7232 -0.6509
vn 0.3201 -0.7392 -0.5926
vn -0.7071 0.0068 0.7071
vn -0.7071 -0.0068 -0.7071
vn -0.9020 -0.0920 -0.4219
vn -0.9216 -0.0951 -0.3762
vn -0.7266 -0.6177 0.3007
vn -0.6704 -0.6301 0.3919
vn -0.0000 -0.1374 0.9905
vn 0.7266 -0.6471 0.2309
vn 0.6704 -0.6694 0.3201
vn 0.9324 0.3614 -0.0000
vn -0.3534 -0.1604 0.9216
vn -0.3988 -0.1654 0.9020
vn 0.9216 -0.1604 -0.3534
vn 0.9020 -0.1654 -0.3988
vn -0.3201 -0.7778 0.5409
vn -0.2309 -0.7658 0.6002
vn -0.9324 0.3556 0.0642
vn -0.8593 -0.4090 0.3071
vn -0.8756 -0.3993 0.2718
vn 0.7049 0.0016 -0.7094
vn 0.7047 0.0037 -0.7095
vn 0.7066 -0.0393 -0.7066
vn 0.7066 -0.0403 -0.7065
vn -0.7049 0.0016 -0.7094
vn -0.7047 0.0037 -0.7095
vn 0.9216 -0.1604 0.3534
vn 0.9020 -0.1654 0.3988
vn 0.3988 -0.1654 0.9020
vn 0.3534 -0.1604 0.9216
vn 0.9244 0.3813 -0.0000
vn 0.9244 -0.3813 -0.0000
vn -0.0000 0.4619 0.8869
vn -0.0000 0.1153 -0.9933
vn -0.0000 0.1374 -0.9905
vn -0.0000 0.1901 0.9818
vn 0.8593 -0.3480 0.3749
vn 0.8756 -0.3447 0.3384
vn 0.6201 0.5831 -0.5249
vn -0.6201 0.4094 -0.6692
vn 0.6201 0.5460 0.5634
vn 0.6201 0.4094 -0.6692
vn 0.7071 0.0068 0.7071
vn -0.3840 0.9233 -0.0000
vn 0.3840 0.9233 -0.0000
vn -0.0000 -0.0563 -0.9984
vn -0.0000 -0.0097 -1.0000
vn -0.0000 0.0863 0.9963
vn -0.3840 -0.9233 -0.0000
vn -0.0000 -0.0490 0.9988
vn -0.0000 0.0097 1.0000
vn 0.3840 -0.9233 -0.0000
vn -0.7034 -0.0239 0.7104
vn -0.7049 -0.0015 0.7093
vn -0.7047 -0.0037 0.7095
vn -0.7064 0.0821 -0.7030
vn -0.7064 0.0812 -0.7031
vn -0.7068 0.0972 -0.7007
vn -0.7051 0.0512 -0.7073
vn -0.7050 0.0496 -0.7074
vn 0.7050 0.0496 -0.7074
vn 0.7051 0.0512 -0.7073
vn -0.7051 -0.0512 0.7073
vn -0.7050 -0.0497 0.7075
vn -0.7064 -0.0812 0.7032
vn -0.7064 -0.0821 0.7030
vn -0.7041 -0.0348 0.7092
vn -0.0000 -0.0863 -0.9963
vn 0.7070 -0.0610 -0.7046
vn 0.7034 -0.0239 0.7104
vn -0.6201 0.4807 -0.6201
vn -0.7034 0.0239 -0.7104
vn -0.7041 0.0348 -0.7092
vn 0.7034 0.0239 -0.7104
vn 0.7051 -0.0512 0.7073
vn 0.7050 -0.0497 0.7074
vn 0.7041 -0.0348 0.7092
vn 0.7041 0.0348 -0.7092
vn -0.7068 -0.0972 0.7007
vn -0.0000 0.0711 -0.9975
vn -0.0000 0.0490 -0.9988
vn -0.0000 -0.0336 0.9994
vt 0.565425 0.382165
vt 0.565424 0.382165
vt 0.565425 0.381313
vt 0.565425 0.382165
vt 0.565427 0.382165
vt 0.565458 0.385649
vt 0.565456 0.385542
vt 0.565458 0.384831
vt 0.565458 0.385709
vt 0.565459 0.385816
vt 0.565389 0.387265
vt 0.565390 0.387092
vt 0.565389 0.386474
vt 0.565388 0.387362
vt 0.565387 0.387534
vt 0.565472 0.425257
vt 0.565472 0.425838
vt 0.565377 0.425257
vt 0.565377 0.425838
vt 0.565472 0.430129
vt 0.565472 0.430710
vt 0.565377 0.430129
vt 0.565377 0.430710
vt 0.565447 0.436356
vt 0.565449 0.420453
vt 0.565447 0.436356
vt 0.565421 0.396394
vt 0.565419 0.394037
vt 0.565459 0.400085
vt 0.565461 0.397918
vt 0.565451 0.397039
vt 0.565453 0.399556
vt 0.565449 0.420453
vt 0.565452 0.401159
vt 0.565453 0.401260
vt 0.565451 0.420553
vt 0.565430 0.392427
vt 0.565420 0.392427
vt 0.565432 0.392427
vt 0.565459 0.401806
vt 0.565457 0.421099
vt 0.565456 0.420998
vt 0.565458 0.401705
vt 0.565419 0.392427
vt 0.565398 0.396484
vt 0.565462 0.396346
vt 0.565451 0.395410
vt 0.565396 0.400703
vt 0.565395 0.400889
vt 0.565395 0.402602
vt 0.565396 0.402440
vt 0.565429 0.398066
vt 0.565429 0.396394
vt 0.565428 0.396394
vt 0.565428 0.398066
vt 0.565460 0.400200
vt 0.565431 0.394037
vt 0.565430 0.394037
vt 0.565386 0.398166
vt 0.565386 0.399706
vt 0.565385 0.399892
vt 0.565385 0.398339
vt 0.565463 0.396453
vt 0.565463 0.398034
vt 0.565423 0.398066
vt 0.565427 0.456177
vt 0.565422 0.456177
vt 0.565421 0.398066
vt 0.565452 0.399441
vt 0.565428 0.456177
vt 0.565420 0.394037
vt 0.565450 0.395303
vt 0.565450 0.396923
vt 0.565396 0.396657
vt 0.565398 0.398102
vt 0.565396 0.398288
vt 0.565396 0.433714
vt 0.565396 0.433714
vt 0.565391 0.414297
vt 0.565422 0.396394
vt 0.565452 0.456213
vt 0.565454 0.437003
vt 0.565389 0.401742
vt 0.565451 0.420553
vt 0.565398 0.413299
vt 0.565398 0.413417
vt 0.565388 0.401928
vt 0.565389 0.403483
vt 0.565390 0.403320
vt 0.565448 0.436458
vt 0.565398 0.413417
vt 0.565393 0.414113
vt 0.565456 0.420998
vt 0.565386 0.399706
vt 0.565421 0.456177
vt 0.565453 0.436903
vt 0.565457 0.421099
vt 0.565453 0.436904
vt 0.565454 0.437003
vt 0.565398 0.413299
vt 0.565401 0.457353
vt 0.565446 0.455667
vt 0.565448 0.436458
vt 0.565451 0.456113
vt 0.565407 0.456473
vt 0.565402 0.432834
vt 0.565397 0.433526
vt 0.565402 0.457191
vt 0.565445 0.455567
vt 0.565448 0.436458
vt 0.565403 0.432725
vt 0.565402 0.432834
vt 0.565403 0.432725
vt 0.565396 0.433715
vt 0.565391 0.414297
vt 0.565448 0.436458
vt 0.565408 0.456310
vt 0.565408 0.456310
s 1
usemtl Metal_G
f 41/1/1 42/2/1 43/3/2
f 44/4/3 43/3/4 45/5/3
f 46/5/5 43/3/6 47/4/5
f 48/1/7 43/3/8 49/2/7
f 43/3/9 44/4/10 41/1/10
f 43/3/11 46/5/12 45/5/12
f 43/3/13 48/1/14 47/4/14
f 43/3/15 42/2/16 49/2/16
f 90/6/17 91/7/18 92/8/19
f 93/9/20 92/8/21 94/10/20
f 95/10/22 92/8/23 96/9/22
f 97/6/24 92/8/25 98/7/26
f 92/8/27 93/9/28 90/6/28
f 92/8/29 95/10/30 94/10/30
f 92/8/31 97/6/32 96/9/32
f 92/8/33 91/7/34 98/7/34
f 139/11/35 140/12/35 141/13/36
f 142/14/37 141/13/38 143/15/37
f 144/15/39 141/13/40 145/14/39
f 146/11/41 141/13/42 147/12/41
f 141/13/43 142/14/44 139/11/44
f 141/13/45 144/15/46 143/15/46
f 141/13/47 146/11/48 145/14/48
f 141/13/49 140/12/50 147/12/50
f 155/16/51 160/16/51 161/17/51
f 162/18/52 153/18/52 163/19/52
f 148/20/51 149/21/51 151/20/51
f 149/21/51 157/21/51 151/20/51
f 154/17/51 155/16/51 161/17/51
f 158/22/52 159/23/52 156/22/52
f 159/23/52 150/23/52 156/22/52
f 152/19/52 162/18/52 163/19/52
f 177/24/53 176/25/54 165/25/54 164/26/53
f 16/27/55 39/28/56 27/28/57 4/27/58
f 71/29/59 84/30/60 89/31/61 64/32/62
f 165/33/63 52/34/64 55/35/64 166/36/65
f 29/37/66 25/38/66 41/1/10 44/4/10
f 46/5/5 47/4/5 34/37/67 33/39/67
f 60/40/68 168/41/69 171/42/70 61/43/68
f 38/44/71 49/2/16 42/2/16 28/44/71
f 126/45/72 136/45/72 147/12/50 140/12/50
f 78/46/73 74/47/73 90/6/28 93/9/28
f 102/48/74 103/49/75 104/50/76 101/51/77
f 24/52/78 21/53/79 22/54/80 23/55/81
f 72/43/82 73/40/83 70/56/84 71/29/85
f 59/56/86 60/40/87 61/43/88 58/29/89
f 31/57/90 32/58/91 29/37/92 30/39/93
f 132/59/94 133/60/95 134/61/96 131/62/97
f 79/63/98 80/64/99 81/30/100 78/46/101
f 84/30/102 85/64/103 82/63/104 83/46/105
f 6/65/106 12/55/106 7/66/106 2/67/106
f 115/51/107 114/48/108 102/48/74 101/51/77
f 20/66/109 23/55/109 18/65/109 13/67/109
f 3/68/110 17/68/111 16/27/112 4/27/113
f 176/25/114 179/36/115 67/35/116 66/34/116
f 53/69/117 52/34/118 66/34/119 65/69/120
f 23/55/121 20/66/121 19/70/121 24/52/121
f 60/40/87 59/56/86 70/56/84 73/40/83
f 32/58/91 26/71/122 25/38/123 29/37/92
f 85/64/103 80/64/99 79/63/98 82/63/104
f 77/72/124 76/73/125 88/73/126 87/72/127
f 131/62/97 134/61/96 129/61/128 128/62/129
f 48/1/7 49/2/7 38/44/130 37/38/130
f 89/31/61 88/73/131 65/69/132 64/32/62
f 146/11/41 147/12/41 136/45/133 135/74/133
f 125/75/134 124/76/135 103/49/136 102/48/137
f 190/77/138 185/78/138 184/79/139 191/79/139
f 26/71/140 5/80/141 4/27/58 27/28/57
f 35/58/142 22/54/143 21/53/144 36/57/145
f 68/81/146 57/81/146 169/82/147 174/82/147
f 126/45/148 125/75/149 137/75/150 136/45/151
f 114/48/152 137/75/153 125/75/134 102/48/137
f 32/58/154 9/54/155 5/80/141 26/71/140
f 31/57/156 10/53/157 9/54/155 32/58/154
f 113/49/158 120/83/159 133/60/160 138/76/161
f 83/46/162 96/9/32 97/6/32 86/47/162
f 72/43/109 67/35/109 179/84/109 172/42/109
f 181/85/163 101/51/164 104/50/164 182/86/165
f 123/74/166 139/11/44 142/14/44 127/59/166
f 76/73/167 53/69/168 65/69/132 88/73/131
f 30/39/169 45/5/12 46/5/12 33/39/169
f 107/83/170 108/87/171 109/88/172 110/89/173
f 114/48/108 115/51/107 116/50/174 113/49/175
f 177/24/176 178/90/177 179/36/115 176/25/114
f 53/69/117 54/32/178 55/35/179 52/34/118
f 182/91/109 104/50/109 110/89/109 187/92/109
f 86/47/180 87/72/127 88/73/126 89/31/181
f 123/74/182 124/76/183 125/75/149 126/45/148
f 75/31/184 76/73/125 77/72/124 74/47/185
f 154/17/186 151/20/187 158/22/187 163/19/186
f 64/32/188 67/35/189 72/43/82 71/29/85
f 28/44/190 42/2/1 41/1/1 25/38/190
f 108/87/171 119/87/191 122/88/192 109/88/172
f 109/88/193 184/79/194 187/92/195 110/89/193
f 82/63/196 79/63/196 94/10/30 95/10/30
f 166/36/106 55/35/106 61/43/106 171/93/106
f 61/43/88 55/35/179 54/32/178 58/29/89
f 6/65/197 5/80/198 9/54/199 12/55/200
f 11/52/201 10/53/202 21/53/79 24/52/78
f 33/39/203 36/57/204 31/57/90 30/39/93
f 123/74/182 127/59/205 130/94/206 124/76/183
f 142/14/37 143/15/37 128/62/207 127/59/207
f 74/47/208 77/72/208 91/7/18 90/6/17
f 58/29/209 81/30/210 80/64/211 59/56/212
f 145/14/39 132/59/213 131/62/213 144/15/39
f 129/61/214 108/87/215 107/83/216 130/94/217
f 84/30/60 71/29/59 70/56/218 85/64/219
f 3/68/220 6/65/220 2/67/220 1/95/220
f 8/70/221 7/66/221 12/55/221 11/52/221
f 132/59/94 135/74/222 138/76/223 133/60/95
f 103/49/136 124/76/135 130/94/217 107/83/216
f 54/32/224 75/31/225 81/30/210 58/29/209
f 31/57/156 36/57/145 21/53/144 10/53/157
f 191/79/139 184/79/139 109/88/226 122/88/226
f 15/80/227 22/54/143 35/58/142 40/71/228
f 37/38/229 34/37/229 47/4/14 48/1/14
f 26/71/122 27/28/230 28/44/231 25/38/123
f 35/58/232 36/57/204 33/39/203 34/37/233
f 80/64/211 85/64/219 70/56/218 59/56/212
f 108/87/215 129/61/214 134/61/234 119/87/235
f 135/74/236 132/59/236 145/14/48 146/11/48
f 120/83/237 121/89/238 122/88/192 119/87/191
f 173/96/239 174/82/240 175/97/241 172/42/242
f 65/69/120 66/34/119 67/35/189 64/32/188
f 170/98/243 171/42/70 168/41/69 169/99/244
f 121/89/106 116/50/106 195/86/106 188/92/106
f 11/52/201 12/55/200 9/54/199 10/53/202
f 130/94/206 127/59/205 128/62/129 129/61/128
f 40/71/245 37/38/246 38/44/247 39/28/248
f 152/19/249 156/22/250 148/20/250 161/17/249
f 91/7/34 77/72/251 87/72/251 98/7/34
f 181/85/252 192/100/252 115/51/253 101/51/253
f 131/62/254 128/62/254 143/15/46 144/15/46
f 4/27/113 5/80/198 6/65/197 3/68/110
f 107/83/170 110/89/173 104/50/76 103/49/75
f 137/75/150 138/76/223 135/74/222 136/45/151
f 120/83/237 113/49/175 116/50/174 121/89/238
f 15/80/255 18/65/256 23/55/81 22/54/80
f 81/30/100 75/31/184 74/47/185 78/46/101
f 40/71/245 35/58/232 34/37/233 37/38/246
f 28/44/231 27/28/230 39/28/248 38/44/247
f 139/11/35 123/74/257 126/45/257 140/12/35
f 133/60/160 120/83/159 119/87/235 134/61/234
f 76/73/167 75/31/225 54/32/224 53/69/168
f 78/46/258 93/9/20 94/10/20 79/63/258
f 113/49/158 138/76/161 137/75/153 114/48/152
f 98/7/26 87/72/259 86/47/259 97/6/24
f 83/46/260 82/63/260 95/10/22 96/9/22
f 17/68/261 14/95/261 13/67/261 18/65/261
f 155/16/262 153/18/262 162/18/263 160/16/263
f 169/82/147 168/97/264 175/97/264 174/82/147
f 24/52/265 19/70/265 8/70/265 11/52/265
f 151/20/51 154/17/51 161/17/51 148/20/51
f 165/25/54 176/25/54 66/34/266 52/34/266
f 159/23/267 158/22/187 151/20/187 157/21/267
f 161/17/249 160/16/263 162/18/263 152/19/249
f 185/78/138 190/77/138 117/101/268 106/101/268
f 1/95/269 14/95/269 17/68/269 3/68/269
f 149/21/270 148/20/250 156/22/250 150/23/270
f 51/102/106 167/103/106 170/96/106 56/104/106
f 83/46/105 86/47/180 89/31/181 84/30/102
f 163/19/186 153/18/262 155/16/262 154/17/186
f 100/105/109 183/106/109 186/107/109 105/108/109
f 50/109/271 164/24/272 167/110/273 51/102/271
f 192/100/274 195/86/275 116/50/276 115/51/276
f 189/107/106 194/106/106 111/105/106 118/108/106
f 193/111/277 194/106/278 195/86/275 192/100/274
f 166/36/65 167/110/273 164/24/272 165/33/63
f 182/86/165 183/112/279 180/113/280 181/85/163
f 189/107/281 190/114/282 191/115/283 188/92/284
f 118/108/285 117/101/285 190/114/282 189/107/281
f 150/23/270 159/23/267 157/21/267 149/21/270
f 188/92/106 195/86/106 194/106/106 189/107/106
f 60/40/286 73/40/286 175/97/264 168/97/264
f 172/42/242 175/97/241 73/40/287 72/43/287
f 63/109/288 62/102/288 178/90/177 177/24/176
f 173/98/109 178/116/109 62/102/109 69/104/109
f 45/5/3 30/39/289 29/37/289 44/4/3
f 169/99/244 57/81/290 56/104/290 170/98/243
f 112/117/291 111/105/291 194/106/278 193/111/277
f 15/80/255 16/27/112 17/68/111 18/65/256
f 69/104/292 68/81/292 174/82/240 173/96/239
f 171/93/106 170/96/106 167/103/106 166/36/106
f 172/42/109 179/84/109 178/116/109 173/98/109
f 187/92/109 186/107/109 183/106/109 182/91/109
f 186/107/293 187/92/195 184/79/194 185/78/294
f 185/78/294 106/101/295 105/108/295 186/107/293
f 16/27/55 15/80/227 40/71/228 39/28/56
f 99/118/296 180/113/280 183/112/279 100/105/296
f 163/19/52 158/22/52 156/22/52 152/19/52
f 188/92/284 191/115/283 122/88/297 121/89/297
f 181/85/252 180/113/298 193/111/298 192/100/252
f 99/118/299 112/117/299 193/111/298 180/113/298
f 50/109/300 63/109/300 177/24/53 164/26/53
