# Blender 4.1.1
# www.blender.org
mtllib GF_1_2.mtl
o GF_1_2
v 1.000000 0.000000 -1.000000
v 1.000000 0.318729 -1.000000
v 1.000000 0.000000 1.000000
v 1.000000 0.318729 1.000000
v -1.000000 0.000000 -1.000000
v -1.000000 0.318729 -1.000000
v -1.000000 0.000000 1.000000
v -1.000000 0.318729 1.000000
vn 1.0000 -0.0000 -0.0000
vn -0.0000 -0.0000 1.0000
vn -1.0000 -0.0000 -0.0000
vn -0.0000 -0.0000 -1.0000
vn -0.0000 -1.0000 -0.0000
vn -0.0000 1.0000 -0.0000
vt 0.713120 0.650276
vt 0.713120 0.577209
vt 0.713054 0.650276
vt 0.713054 0.577209
vt 0.572883 0.582615
vt 0.572883 0.583638
vt 0.571860 0.583638
vt 0.571860 0.582615
s 0
usemtl Graveyard
f 3/1/1 1/1/1 2/2/1 4/2/1
f 7/3/2 3/1/2 4/2/2 8/4/2
f 5/3/3 7/3/3 8/4/3 6/4/3
f 1/1/4 5/3/4 6/4/4 2/2/4
f 1/1/5 3/1/5 7/3/5 5/3/5
f 6/5/6 8/6/6 4/7/6 2/8/6
