# Blender 4.1.1
# www.blender.org
mtllib GF_1_3.mtl
o GF_1_3
v 1.000000 0.000000 -1.000000
v 1.000000 0.318729 -1.000000
v 1.000000 0.000000 1.000000
v 1.000000 0.318729 1.000000
v -1.000000 0.000000 -1.000000
v -1.000000 0.318729 -1.000000
v -1.000000 0.000000 1.000000
v -1.000000 0.318729 1.000000
vn 1.0000 -0.0000 -0.0000
vn -0.0000 -0.0000 1.0000
vn -1.0000 -0.0000 -0.0000
vn -0.0000 -0.0000 -1.0000
vn -0.0000 -1.0000 -0.0000
vn -0.0000 1.0000 -0.0000
vt 0.792568 0.659964
vt 0.792568 0.586898
vt 0.792501 0.586898
vt 0.792501 0.659964
vt 0.829271 0.617643
vt 0.104288 0.826810
vt 0.242057 0.240104
vt 0.824349 0.175651
s 0
usemtl Grass_2
f 1/1/1 2/2/1 4/2/1 3/1/1
f 3/1/2 4/2/2 8/3/2 7/4/2
f 7/4/3 8/3/3 6/3/3 5/4/3
f 5/4/4 6/3/4 2/2/4 1/1/4
f 3/1/5 7/4/5 5/4/5 1/1/5
f 8/5/6 4/6/6 2/7/6 6/8/6
