# Blender 4.1.1
# www.blender.org
mtllib GF_1_1.mtl
o GF_1_1
v 1.000000 0.000000 -1.000000
v 1.000000 0.318729 -1.000000
v 1.000000 0.000000 1.000000
v 1.000000 0.318729 1.000000
v -1.000000 0.000000 -1.000000
v -1.000000 0.318729 -1.000000
v -1.000000 0.000000 1.000000
v -1.000000 0.318729 1.000000
vn 1.0000 -0.0000 -0.0000
vn -0.0000 -0.0000 1.0000
vn -1.0000 -0.0000 -0.0000
vn -0.0000 -0.0000 -1.0000
vn -0.0000 -1.0000 -0.0000
vn -0.0000 1.0000 -0.0000
vt 0.679791 0.657251
vt 0.679791 0.584185
vt 0.679724 0.657251
vt 0.679724 0.584185
vt 0.792899 0.657848
vt 0.792899 0.658871
vt 0.791875 0.658871
vt 0.791875 0.657848
s 0
usemtl Graveyard
f 3/1/1 1/1/1 2/2/1 4/2/1
f 7/3/2 3/1/2 4/2/2 8/4/2
f 5/3/3 7/3/3 8/4/3 6/4/3
f 1/1/4 5/3/4 6/4/4 2/2/4
f 1/1/5 3/1/5 7/3/5 5/3/5
f 6/5/6 8/6/6 4/7/6 2/8/6
