# Blender 4.1.1
# www.blender.org
mtllib GF_Corner_1_3.mtl
o GF_Corner_1_3
v 1.000000 0.000000 1.000000
v -1.000000 0.000000 -1.000000
v -1.000000 0.000000 1.000000
v -1.000000 0.318729 1.000000
v -0.360072 0.000000 -1.000000
v 1.000000 0.000000 0.360071
v -0.008060 0.000000 -0.953657
v 0.319964 0.000000 -0.817785
v 0.601644 0.000000 -0.601644
v 0.817785 0.000000 -0.319964
v 0.953657 0.000000 0.008059
v 1.000000 0.149026 1.000000
v 0.830298 0.318729 1.000000
v 0.987082 0.213968 1.000000
v 0.950296 0.269024 1.000000
v 0.895240 0.305811 1.000000
v -1.000000 0.318729 -0.830297
v -1.000000 0.149026 -1.000000
v -1.000000 0.305811 -0.895239
v -1.000000 0.269024 -0.950295
v -1.000000 0.213968 -0.987082
v 0.830297 0.318729 0.371194
v 1.000000 0.149026 0.360072
v 0.895240 0.305811 0.366938
v 0.950295 0.269024 0.363329
v 0.987082 0.213968 0.360918
v -0.371195 0.318729 -0.830297
v -0.360072 0.149026 -1.000000
v -0.366939 0.305811 -0.895240
v -0.363330 0.269024 -0.950295
v -0.360919 0.213968 -0.987082
v 0.788322 0.318729 0.052360
v 0.953657 0.149026 0.008059
v 0.851593 0.305811 0.035407
v 0.905231 0.269024 0.021035
v 0.941071 0.213968 0.011431
v 0.669550 0.318729 -0.234381
v 0.817785 0.149026 -0.319964
v 0.726277 0.305811 -0.267132
v 0.774368 0.269024 -0.294897
v 0.806501 0.213968 -0.313450
v 0.480611 0.318729 -0.480611
v 0.601644 0.149026 -0.601644
v 0.526928 0.305811 -0.526928
v 0.566194 0.269024 -0.566194
v 0.592431 0.213968 -0.592431
v 0.234380 0.318729 -0.669550
v 0.319964 0.149026 -0.817785
v 0.267132 0.305811 -0.726277
v 0.294897 0.269024 -0.774368
v 0.313449 0.213968 -0.806501
v -0.052361 0.318729 -0.788322
v -0.008060 0.149026 -0.953657
v -0.035408 0.305811 -0.851593
v -0.021035 0.269024 -0.905231
v -0.011432 0.213968 -0.941071
vn 0.9659 -0.0000 -0.2588
vn 0.9613 0.0980 -0.2576
vn 0.9931 0.0978 -0.0651
vn 0.9979 -0.0000 -0.0654
vn -0.0000 1.0000 -0.0000
vn 0.0980 0.9952 -0.0000
vn 0.1016 0.9948 -0.0067
vn 0.1016 0.9944 -0.0272
vn 0.0911 0.9944 -0.0526
vn 0.0744 0.9944 -0.0744
vn 0.0526 0.9944 -0.0911
vn 0.0272 0.9944 -0.1016
vn 0.0067 0.9948 -0.1016
vn -0.0000 0.9952 -0.0980
vn -0.0000 -0.0000 -1.0000
vn -0.0000 0.0980 -0.9952
vn 0.0651 0.0978 -0.9931
vn 0.0654 -0.0000 -0.9979
vn -1.0000 -0.0000 -0.0000
vn -0.0000 -0.0000 1.0000
vn 0.8660 -0.0000 -0.5000
vn 0.8619 0.0980 -0.4976
vn 0.2588 -0.0000 -0.9659
vn 0.2576 0.0980 -0.9613
vn 0.4976 0.0980 -0.8619
vn 0.5000 -0.0000 -0.8660
vn 0.7037 0.0980 -0.7037
vn 0.7071 -0.0000 -0.7071
vn 0.1019 0.9192 -0.3803
vn 0.0254 0.9213 -0.3881
vn 0.1844 0.7019 -0.6880
vn 0.0465 0.7038 -0.7089
vn 0.2394 0.3796 -0.8936
vn 0.0605 0.3805 -0.9228
vn 0.1969 0.9192 -0.3410
vn 0.3561 0.7019 -0.6169
vn 0.4626 0.3796 -0.8012
vn 0.2784 0.9192 -0.2784
vn 0.5037 0.7019 -0.5037
vn 0.6542 0.3796 -0.6542
vn 0.3410 0.9192 -0.1969
vn 0.6169 0.7019 -0.3561
vn 0.8012 0.3796 -0.4626
vn 0.3803 0.9192 -0.1019
vn 0.6880 0.7019 -0.1844
vn 0.8936 0.3796 -0.2394
vn 0.3881 0.9213 -0.0254
vn 0.7089 0.7038 -0.0465
vn 0.9228 0.3805 -0.0605
vn 0.3827 0.9239 -0.0000
vn 0.7071 0.7071 -0.0000
vn 0.9239 0.3827 -0.0000
vn 0.9952 0.0980 -0.0000
vn -0.0000 0.9239 -0.3827
vn -0.0000 0.7071 -0.7071
vn -0.0000 0.3827 -0.9239
vn 1.0000 -0.0000 -0.0000
vt 0.792363 0.659964
vt 0.792363 0.615677
vt 0.792365 0.615677
vt 0.792365 0.659964
vt 0.756483 0.756483
vt 0.243517 0.756483
vt 0.243517 0.580252
vt 0.255281 0.490894
vt 0.288569 0.410531
vt 0.341521 0.341521
vt 0.410531 0.288569
vt 0.490894 0.255281
vt 0.580252 0.243517
vt 0.756483 0.243517
vt 0.792298 0.659964
vt 0.792298 0.615677
vt 0.792319 0.615677
vt 0.792319 0.659964
vt 0.792298 0.586898
vt 0.792298 0.589088
vt 0.792298 0.595327
vt 0.792298 0.604664
vt 0.792364 0.604664
vt 0.792363 0.595327
vt 0.792361 0.589089
vt 0.792359 0.586898
vt 0.792359 0.659964
vt 0.792359 0.615677
vt 0.792331 0.659964
vt 0.792331 0.615677
vt 0.792342 0.615677
vt 0.792342 0.659964
vt 0.792351 0.615677
vt 0.792351 0.659964
vt 0.792319 0.586898
vt 0.792330 0.586898
vt 0.792330 0.589088
vt 0.792319 0.589088
vt 0.792331 0.595327
vt 0.792319 0.595327
vt 0.792331 0.604664
vt 0.792319 0.604664
vt 0.792339 0.586898
vt 0.792340 0.589089
vt 0.792341 0.595327
vt 0.792342 0.604664
vt 0.792347 0.586898
vt 0.792349 0.589089
vt 0.792350 0.595327
vt 0.792351 0.604664
vt 0.792354 0.586898
vt 0.792355 0.589089
vt 0.792357 0.595327
vt 0.792358 0.604664
vt 0.792358 0.586898
vt 0.792360 0.589089
vt 0.792361 0.595327
vt 0.792363 0.604664
s 1
usemtl Grass_2
f 11/1/1 33/2/2 23/3/3 6/4/4
f 4/5/5 13/6/6 22/7/7 32/8/8 37/9/9 42/10/10 47/11/11 52/12/12 27/13/13 17/14/14
f 2/15/15 18/16/16 28/17/17 5/18/18
f 3/15/19 4/19/19 17/19/19 19/20/19 20/21/19 21/22/19 18/16/19 2/15/19
f 1/4/20 12/3/20 14/23/20 15/24/20 16/25/20 13/26/20 4/19/20 3/15/20
f 10/27/21 38/28/22 33/2/2 11/1/1
f 7/29/23 53/30/24 48/31/25 8/32/26
f 8/32/26 48/31/25 43/33/27 9/34/28
f 9/34/28 43/33/27 38/28/22 10/27/21
f 5/18/18 28/17/17 53/30/24 7/29/23
f 27/35/13 52/36/12 54/37/29 29/38/30
f 29/38/30 54/37/29 55/39/31 30/40/32
f 30/40/32 55/39/31 56/41/33 31/42/34
f 31/42/34 56/41/33 53/30/24 28/17/17
f 52/36/12 47/43/11 49/44/35 54/37/29
f 54/37/29 49/44/35 50/45/36 55/39/31
f 55/39/31 50/45/36 51/46/37 56/41/33
f 56/41/33 51/46/37 48/31/25 53/30/24
f 47/43/11 42/47/10 44/48/38 49/44/35
f 49/44/35 44/48/38 45/49/39 50/45/36
f 50/45/36 45/49/39 46/50/40 51/46/37
f 51/46/37 46/50/40 43/33/27 48/31/25
f 42/47/10 37/51/9 39/52/41 44/48/38
f 44/48/38 39/52/41 40/53/42 45/49/39
f 45/49/39 40/53/42 41/54/43 46/50/40
f 46/50/40 41/54/43 38/28/22 43/33/27
f 37/51/9 32/55/8 34/56/44 39/52/41
f 39/52/41 34/56/44 35/57/45 40/53/42
f 40/53/42 35/57/45 36/58/46 41/54/43
f 41/54/43 36/58/46 33/2/2 38/28/22
f 32/55/8 22/26/7 24/25/47 34/56/44
f 34/56/44 24/25/47 25/24/48 35/57/45
f 35/57/45 25/24/48 26/23/49 36/58/46
f 36/58/46 26/23/49 23/3/3 33/2/2
f 22/26/7 13/26/6 16/25/50 24/25/47
f 24/25/47 16/25/50 15/24/51 25/24/48
f 25/24/48 15/24/51 14/23/52 26/23/49
f 26/23/49 14/23/52 12/3/53 23/3/3
f 17/19/14 27/35/13 29/38/30 19/20/54
f 19/20/54 29/38/30 30/40/32 20/21/55
f 20/21/55 30/40/32 31/42/34 21/22/56
f 21/22/56 31/42/34 28/17/17 18/16/16
f 6/4/4 23/3/3 12/3/53 1/4/57
