# Blender 4.1.1
# www.blender.org
mtllib GF_Corner_2_2.mtl
o GF_Corner_2_2
v 1.000000 0.000000 -1.000000
v 1.000000 0.000000 1.000000
v 1.000000 0.318729 1.000000
v -1.000000 0.000000 1.000000
v -1.000000 0.000000 -0.443508
v -0.443509 0.000000 -1.000000
v -0.981038 0.000000 -0.587539
v -0.925444 0.000000 -0.721754
v -0.837008 0.000000 -0.837007
v -0.721754 0.000000 -0.925444
v -0.587539 0.000000 -0.981038
v 1.000000 0.149026 -1.000000
v 1.000000 0.318729 -0.830298
v 1.000000 0.213968 -0.987082
v 1.000000 0.269024 -0.950296
v 1.000000 0.305811 -0.895240
v -0.830297 0.318729 1.000000
v -1.000000 0.149026 1.000000
v -0.895239 0.305811 1.000000
v -0.950295 0.269024 1.000000
v -0.987082 0.213968 1.000000
v -0.432386 0.318729 -0.830297
v -0.443509 0.149026 -1.000000
v -0.436642 0.305811 -0.895240
v -0.440251 0.269024 -0.950295
v -0.442662 0.213968 -0.987082
v -0.830297 0.318729 -0.432385
v -1.000000 0.149026 -0.443508
v -0.895240 0.305811 -0.436642
v -0.950295 0.269024 -0.440250
v -0.987082 0.213968 -0.442661
v -0.543238 0.318729 -0.815703
v -0.587539 0.149026 -0.981038
v -0.560191 0.305811 -0.878974
v -0.574564 0.269024 -0.932612
v -0.584167 0.213968 -0.968452
v -0.636171 0.318729 -0.777209
v -0.721754 0.149026 -0.925444
v -0.668922 0.305811 -0.833936
v -0.696688 0.269024 -0.882027
v -0.715240 0.213968 -0.914160
v -0.715974 0.318729 -0.715974
v -0.837008 0.149026 -0.837007
v -0.762292 0.305811 -0.762291
v -0.801558 0.269024 -0.801557
v -0.827794 0.213968 -0.827794
v -0.777209 0.318729 -0.636171
v -0.925444 0.149026 -0.721754
v -0.833936 0.305811 -0.668922
v -0.882027 0.269024 -0.696687
v -0.914161 0.213968 -0.715239
v -0.815703 0.318729 -0.543237
v -0.981038 0.149026 -0.587539
v -0.878974 0.305811 -0.560191
v -0.932613 0.269024 -0.574563
v -0.968453 0.213968 -0.584166
vn -0.1016 0.9948 -0.0067
vn -0.0000 1.0000 -0.0000
vn -0.0067 0.9948 -0.1016
vn 1.0000 -0.0000 -0.0000
vn -0.0000 -0.0000 1.0000
vn -0.0980 0.9952 -0.0000
vn -0.0000 0.9952 -0.0980
vn -0.0272 0.9944 -0.1016
vn -0.1016 0.9944 -0.0272
vn -0.0526 0.9944 -0.0911
vn -0.0911 0.9944 -0.0526
vn -0.0744 0.9944 -0.0744
vn -0.8619 0.0980 -0.4976
vn -0.7037 0.0980 -0.7037
vn -0.7071 -0.0000 -0.7071
vn -0.8660 -0.0000 -0.5000
vn -0.9979 -0.0000 -0.0654
vn -1.0000 -0.0000 -0.0000
vn -0.9952 0.0980 -0.0000
vn -0.9931 0.0978 -0.0651
vn -0.7089 0.7038 -0.0465
vn -0.9228 0.3805 -0.0605
vn -0.9239 0.3827 -0.0000
vn -0.7071 0.7071 -0.0000
vn -0.0465 0.7038 -0.7089
vn -0.0000 0.7071 -0.7071
vn -0.0000 0.3827 -0.9239
vn -0.0605 0.3805 -0.9228
vn -0.9613 0.0980 -0.2576
vn -0.9659 -0.0000 -0.2588
vn -0.0000 -0.0000 -1.0000
vn -0.0654 -0.0000 -0.9979
vn -0.0651 0.0978 -0.9931
vn -0.0000 0.0980 -0.9952
vn -0.3410 0.9192 -0.1969
vn -0.2784 0.9192 -0.2784
vn -0.5037 0.7019 -0.5037
vn -0.6169 0.7019 -0.3561
vn -0.3803 0.9192 -0.1019
vn -0.6880 0.7019 -0.1844
vn -0.3561 0.7019 -0.6169
vn -0.4626 0.3796 -0.8012
vn -0.6542 0.3796 -0.6542
vn -0.8012 0.3796 -0.4626
vn -0.1969 0.9192 -0.3410
vn -0.4976 0.0980 -0.8619
vn -0.1019 0.9192 -0.3803
vn -0.0254 0.9213 -0.3881
vn -0.1844 0.7019 -0.6880
vn -0.3881 0.9213 -0.0254
vn -0.3827 0.9239 -0.0000
vn -0.0000 0.9239 -0.3827
vn -0.2394 0.3796 -0.8936
vn -0.8936 0.3796 -0.2394
vn -0.2576 0.0980 -0.9613
vn -0.2588 -0.0000 -0.9659
vn -0.5000 -0.0000 -0.8660
vt 0.572796 0.583842
vt 0.571860 0.584575
vt 0.572593 0.583638
vt 0.713009 0.605989
vt 0.713009 0.585639
vt 0.713009 0.577209
vt 0.712943 0.594975
vt 0.712943 0.605989
vt 0.712946 0.579400
vt 0.572796 0.584575
vt 0.571860 0.583638
vt 0.572649 0.583645
vt 0.572789 0.583785
vt 0.572697 0.583665
vt 0.572769 0.583737
vt 0.572738 0.583697
vt 0.713009 0.650276
vt 0.713009 0.594975
vt 0.713009 0.579400
vt 0.712949 0.577209
vt 0.712943 0.650276
vt 0.712945 0.585639
vt 0.712945 0.605989
vt 0.712948 0.605989
vt 0.712948 0.650276
vt 0.712945 0.650276
vt 0.712962 0.585639
vt 0.712961 0.594975
vt 0.712944 0.605989
vt 0.712944 0.650276
vt 0.712961 0.650276
vt 0.712961 0.605989
vt 0.712948 0.579400
vt 0.712951 0.579400
vt 0.712950 0.585639
vt 0.712947 0.585639
vt 0.712947 0.579400
vt 0.712945 0.585639
vt 0.712953 0.585639
vt 0.712952 0.594975
vt 0.712949 0.594975
vt 0.712946 0.594975
vt 0.712950 0.577209
vt 0.712952 0.577209
vt 0.712954 0.579400
vt 0.712952 0.605989
vt 0.712958 0.579400
vt 0.712962 0.579400
vt 0.712957 0.585639
vt 0.712949 0.577209
vt 0.712958 0.577209
vt 0.712962 0.577209
vt 0.712955 0.577209
vt 0.712957 0.594975
vt 0.712944 0.594975
vt 0.712957 0.605989
vt 0.712957 0.650276
vt 0.712952 0.650276
s 1
usemtl Graveyard
f 27/1/1 3/2/2 22/3/3
f 12/4/4 15/5/4 13/6/4
f 21/7/5 18/8/5 19/9/5
f 27/1/1 17/10/6 3/2/2
f 3/2/2 13/11/7 22/3/3
f 22/3/3 32/12/8 52/13/9
f 32/12/8 37/14/10 47/15/11
f 37/14/10 42/16/12 47/15/11
f 47/15/11 52/13/9 32/12/8
f 52/13/9 27/1/1 22/3/3
f 1/17/4 12/4/4 13/6/4
f 12/4/4 14/18/4 15/5/4
f 15/5/4 16/19/4 13/6/4
f 17/20/5 19/9/5 18/8/5
f 4/21/5 17/20/5 18/8/5
f 19/9/5 20/22/5 21/7/5
f 48/23/13 43/24/14 9/25/15 8/26/16
f 5/21/17 4/21/18 18/8/19 28/8/20
f 30/22/21 31/7/22 21/7/23 20/22/24
f 31/7/22 28/8/20 18/8/19 21/7/23
f 25/27/25 15/5/26 14/18/27 26/28/28
f 28/8/20 53/29/29 7/30/30 5/21/17
f 1/17/31 6/31/32 23/32/33 12/4/34
f 49/33/35 44/34/36 45/35/37 50/36/38
f 54/37/39 49/33/35 50/36/38 55/38/40
f 40/39/41 41/40/42 46/41/43 45/35/37
f 51/42/44 46/41/43 43/24/14 48/23/13
f 49/33/35 47/43/11 42/44/12 44/34/36
f 39/45/45 40/39/41 45/35/37 44/34/36
f 45/35/37 46/41/43 51/42/44 50/36/38
f 43/24/14 46/41/43 41/40/42 38/46/46
f 17/20/5 4/21/5 2/17/5 3/6/5
f 34/47/47 24/48/48 25/27/25 35/49/49
f 29/9/50 30/22/21 20/22/24 19/9/51
f 2/17/4 1/17/4 13/6/4 3/6/4
f 47/43/11 49/33/35 54/37/39 52/50/9
f 32/51/8 22/52/3 24/48/48 34/47/47
f 24/48/48 16/19/52 15/5/26 25/27/25
f 42/44/12 37/53/10 39/45/45 44/34/36
f 37/53/10 32/51/8 34/47/47 39/45/45
f 54/37/39 55/38/40 30/22/21 29/9/50
f 22/52/3 13/6/7 16/19/52 24/48/48
f 34/47/47 35/49/49 40/39/41 39/45/45
f 52/50/9 54/37/39 29/9/50 27/20/1
f 35/49/49 25/27/25 26/28/28 36/54/53
f 56/55/54 51/42/44 48/23/13 53/29/29
f 41/40/42 40/39/41 35/49/49 36/54/53
f 27/20/1 29/9/50 19/9/51 17/20/6
f 56/55/54 53/29/29 28/8/20 31/7/22
f 26/28/28 14/18/27 12/4/34 23/32/33
f 50/36/38 51/42/44 56/55/54 55/38/40
f 55/38/40 56/55/54 31/7/22 30/22/21
f 36/54/53 26/28/28 23/32/33 33/56/55
f 38/46/46 41/40/42 36/54/53 33/56/55
f 38/46/46 33/56/55 11/57/56 10/58/57
f 43/24/14 38/46/46 10/58/57 9/25/15
f 53/29/29 48/23/13 8/26/16 7/30/30
f 33/56/55 23/32/33 6/31/32 11/57/56
