# Blender 4.1.1
# www.blender.org
mtllib GF_Corner_2_3.mtl
o GF_Corner_2_3
v 1.000000 0.000000 -1.000000
v 1.000000 0.000000 1.000000
v 1.000000 0.318729 1.000000
v -1.000000 0.000000 1.000000
v -1.000000 0.000000 -0.443508
v -0.443509 0.000000 -1.000000
v -0.981038 0.000000 -0.587539
v -0.925444 0.000000 -0.721754
v -0.837008 0.000000 -0.837007
v -0.721754 0.000000 -0.925444
v -0.587539 0.000000 -0.981038
v 1.000000 0.149026 -1.000000
v 1.000000 0.318729 -0.830298
v 1.000000 0.213968 -0.987082
v 1.000000 0.269024 -0.950296
v 1.000000 0.305811 -0.895240
v -0.830297 0.318729 1.000000
v -1.000000 0.149026 1.000000
v -0.895239 0.305811 1.000000
v -0.950295 0.269024 1.000000
v -0.987082 0.213968 1.000000
v -0.432386 0.318729 -0.830297
v -0.443509 0.149026 -1.000000
v -0.436642 0.305811 -0.895240
v -0.440251 0.269024 -0.950295
v -0.442662 0.213968 -0.987082
v -0.830297 0.318729 -0.432385
v -1.000000 0.149026 -0.443508
v -0.895240 0.305811 -0.436642
v -0.950295 0.269024 -0.440250
v -0.987082 0.213968 -0.442661
v -0.543238 0.318729 -0.815703
v -0.587539 0.149026 -0.981038
v -0.560191 0.305811 -0.878974
v -0.574564 0.269024 -0.932612
v -0.584167 0.213968 -0.968452
v -0.636171 0.318729 -0.777209
v -0.721754 0.149026 -0.925444
v -0.668922 0.305811 -0.833936
v -0.696688 0.269024 -0.882027
v -0.715240 0.213968 -0.914160
v -0.715974 0.318729 -0.715974
v -0.837008 0.149026 -0.837007
v -0.762292 0.305811 -0.762291
v -0.801558 0.269024 -0.801557
v -0.827794 0.213968 -0.827794
v -0.777209 0.318729 -0.636171
v -0.925444 0.149026 -0.721754
v -0.833936 0.305811 -0.668922
v -0.882027 0.269024 -0.696687
v -0.914161 0.213968 -0.715239
v -0.815703 0.318729 -0.543237
v -0.981038 0.149026 -0.587539
v -0.878974 0.305811 -0.560191
v -0.932613 0.269024 -0.574563
v -0.968453 0.213968 -0.584166
vn -0.0980 0.9952 -0.0000
vn -0.0000 1.0000 -0.0000
vn -0.0000 0.9952 -0.0980
vn -0.0067 0.9948 -0.1016
vn -0.0272 0.9944 -0.1016
vn -0.0526 0.9944 -0.0911
vn -0.0744 0.9944 -0.0744
vn -0.0911 0.9944 -0.0526
vn -0.1016 0.9944 -0.0272
vn -0.1016 0.9948 -0.0067
vn -1.0000 -0.0000 -0.0000
vn -0.9952 0.0980 -0.0000
vn -0.9931 0.0978 -0.0651
vn -0.9979 -0.0000 -0.0654
vn 1.0000 -0.0000 -0.0000
vn -0.0000 -0.0000 1.0000
vn -0.0651 0.0978 -0.9931
vn -0.0654 -0.0000 -0.9979
vn -0.2588 -0.0000 -0.9659
vn -0.2576 0.0980 -0.9613
vn -0.9613 0.0980 -0.2576
vn -0.9659 -0.0000 -0.2588
vn -0.4976 0.0980 -0.8619
vn -0.5000 -0.0000 -0.8660
vn -0.7071 -0.0000 -0.7071
vn -0.7037 0.0980 -0.7037
vn -0.8660 -0.0000 -0.5000
vn -0.8619 0.0980 -0.4976
vn -0.0254 0.9213 -0.3881
vn -0.1019 0.9192 -0.3803
vn -0.0465 0.7038 -0.7089
vn -0.1844 0.7019 -0.6880
vn -0.0605 0.3805 -0.9228
vn -0.2394 0.3796 -0.8936
vn -0.1969 0.9192 -0.3410
vn -0.3561 0.7019 -0.6169
vn -0.4626 0.3796 -0.8012
vn -0.2784 0.9192 -0.2784
vn -0.5037 0.7019 -0.5037
vn -0.6542 0.3796 -0.6542
vn -0.3410 0.9192 -0.1969
vn -0.6169 0.7019 -0.3561
vn -0.8012 0.3796 -0.4626
vn -0.3803 0.9192 -0.1019
vn -0.6880 0.7019 -0.1844
vn -0.8936 0.3796 -0.2394
vn -0.3881 0.9213 -0.0254
vn -0.7089 0.7038 -0.0465
vn -0.9228 0.3805 -0.0605
vn -0.3827 0.9239 -0.0000
vn -0.7071 0.7071 -0.0000
vn -0.9239 0.3827 -0.0000
vn -0.0000 0.9239 -0.3827
vn -0.0000 0.7071 -0.7071
vn -0.0000 0.3827 -0.9239
vn -0.0000 0.0980 -0.9952
vn -0.0000 -0.0000 -1.0000
vt 0.816878 0.816878
vt 0.183122 0.816878
vt 0.183122 0.183122
vt 0.679098 0.183122
vt 0.717481 0.188175
vt 0.749660 0.201504
vt 0.777293 0.222707
vt 0.798496 0.250340
vt 0.811825 0.282519
vt 0.816878 0.320902
vt 0.792390 0.659964
vt 0.792390 0.615677
vt 0.792457 0.659964
vt 0.792457 0.615677
vt 0.792457 0.604664
vt 0.792457 0.595327
vt 0.792457 0.589089
vt 0.792457 0.586898
vt 0.792396 0.586898
vt 0.792394 0.589089
vt 0.792392 0.595327
vt 0.792391 0.604664
vt 0.792409 0.615677
vt 0.792409 0.659964
vt 0.792404 0.659964
vt 0.792404 0.615677
vt 0.792391 0.615677
vt 0.792391 0.659964
vt 0.792400 0.615677
vt 0.792400 0.659964
vt 0.792396 0.659964
vt 0.792396 0.615677
vt 0.792393 0.659964
vt 0.792393 0.615677
vt 0.792406 0.586898
vt 0.792409 0.586898
vt 0.792409 0.589089
vt 0.792405 0.589089
vt 0.792409 0.595327
vt 0.792405 0.595327
vt 0.792409 0.604664
vt 0.792404 0.604664
vt 0.792403 0.586898
vt 0.792402 0.589089
vt 0.792400 0.595327
vt 0.792400 0.604664
vt 0.792400 0.586898
vt 0.792398 0.589089
vt 0.792397 0.595327
vt 0.792396 0.604664
vt 0.792398 0.586898
vt 0.792396 0.589089
vt 0.792394 0.595327
vt 0.792393 0.604664
vt 0.792397 0.586898
vt 0.792394 0.589089
vt 0.792393 0.595327
vt 0.792391 0.604664
s 1
usemtl Grass_2
f 17/1/1 3/2/2 13/3/3 22/4/4 32/5/5 37/6/6 42/7/7 47/8/8 52/9/9 27/10/10
f 4/11/11 18/12/12 28/12/13 5/11/14
f 1/13/15 12/14/15 14/15/15 15/16/15 16/17/15 13/18/15 3/18/15 2/13/15
f 2/13/16 3/18/16 17/19/16 19/20/16 20/21/16 21/22/16 18/12/16 4/11/16
f 23/23/17 6/24/18 11/25/19 33/26/20
f 53/27/21 7/28/22 5/11/14 28/12/13
f 38/29/23 10/30/24 9/31/25 43/32/26
f 43/32/26 9/31/25 8/33/27 48/34/28
f 48/34/28 8/33/27 7/28/22 53/27/21
f 33/26/20 11/25/19 10/30/24 38/29/23
f 32/35/5 22/36/4 24/37/29 34/38/30
f 34/38/30 24/37/29 25/39/31 35/40/32
f 35/40/32 25/39/31 26/41/33 36/42/34
f 36/42/34 26/41/33 23/23/17 33/26/20
f 37/43/6 32/35/5 34/38/30 39/44/35
f 39/44/35 34/38/30 35/40/32 40/45/36
f 40/45/36 35/40/32 36/42/34 41/46/37
f 41/46/37 36/42/34 33/26/20 38/29/23
f 42/47/7 37/43/6 39/44/35 44/48/38
f 44/48/38 39/44/35 40/45/36 45/49/39
f 45/49/39 40/45/36 41/46/37 46/50/40
f 46/50/40 41/46/37 38/29/23 43/32/26
f 47/51/8 42/47/7 44/48/38 49/52/41
f 49/52/41 44/48/38 45/49/39 50/53/42
f 50/53/42 45/49/39 46/50/40 51/54/43
f 51/54/43 46/50/40 43/32/26 48/34/28
f 52/55/9 47/51/8 49/52/41 54/56/44
f 54/56/44 49/52/41 50/53/42 55/57/45
f 55/57/45 50/53/42 51/54/43 56/58/46
f 56/58/46 51/54/43 48/34/28 53/27/21
f 27/19/10 52/55/9 54/56/44 29/20/47
f 29/20/47 54/56/44 55/57/45 30/21/48
f 30/21/48 55/57/45 56/58/46 31/22/49
f 31/22/49 56/58/46 53/27/21 28/12/13
f 17/19/1 27/19/10 29/20/47 19/20/50
f 19/20/50 29/20/47 30/21/48 20/21/51
f 20/21/51 30/21/48 31/22/49 21/22/52
f 21/22/52 31/22/49 28/12/13 18/12/12
f 22/36/4 13/18/3 16/17/53 24/37/29
f 24/37/29 16/17/53 15/16/54 25/39/31
f 25/39/31 15/16/54 14/15/55 26/41/33
f 26/41/33 14/15/55 12/14/56 23/23/17
f 6/24/18 23/23/17 12/14/56 1/13/57
