# Blender 4.1.1
# www.blender.org
mtllib GF_Edge_1_3.mtl
o GF_Edge_1_3
v 1.000000 0.000000 -1.000000
v 1.000000 0.000000 1.000000
v 1.000000 0.318729 1.000000
v -1.000000 0.000000 -1.000000
v -1.000000 0.000000 1.000000
v -1.000000 0.318729 1.000000
v 1.000000 0.149026 -1.000000
v 1.000000 0.318729 -0.830298
v 1.000000 0.213968 -0.987082
v 1.000000 0.269024 -0.950296
v 1.000000 0.305811 -0.895240
v -1.000000 0.318729 -0.830297
v -1.000000 0.149026 -1.000000
v -1.000000 0.305811 -0.895239
v -1.000000 0.269024 -0.950295
v -1.000000 0.213968 -0.987082
vn -0.0000 1.0000 -0.0000
vn -0.0000 0.9952 -0.0980
vn -0.0000 -0.0000 1.0000
vn 1.0000 -0.0000 -0.0000
vn -1.0000 -0.0000 -0.0000
vn -0.0000 0.9239 -0.3827
vn -0.0000 0.7071 -0.7071
vn -0.0000 0.3827 -0.9239
vn -0.0000 0.0980 -0.9952
vn -0.0000 -0.0000 -1.0000
vt 0.246733 0.730541
vt 0.246733 0.269460
vt 0.668691 0.269460
vt 0.668691 0.730541
vt 0.792457 0.659964
vt 0.792457 0.586898
vt 0.792390 0.586898
vt 0.792390 0.659964
vt 0.792457 0.615677
vt 0.792457 0.604664
vt 0.792457 0.595327
vt 0.792457 0.589088
vt 0.792390 0.589088
vt 0.792390 0.595327
vt 0.792390 0.604664
vt 0.792390 0.615677
s 1
usemtl Grass_2
f 6/1/1 3/2/1 8/3/2 12/4/2
f 2/5/3 3/6/3 6/7/3 5/8/3
f 1/5/4 7/9/4 9/10/4 10/11/4 11/12/4 8/6/4 3/6/4 2/5/4
f 5/8/5 6/7/5 12/7/5 14/13/5 15/14/5 16/15/5 13/16/5 4/8/5
f 12/7/2 8/6/2 11/12/6 14/13/6
f 14/13/6 11/12/6 10/11/7 15/14/7
f 15/14/7 10/11/7 9/10/8 16/15/8
f 16/15/8 9/10/8 7/9/9 13/16/9
f 4/8/10 13/16/9 7/9/9 1/5/10
