# Blender 4.1.1
# www.blender.org
mtllib GF_Hill_1.mtl
o GF_Hill_1
v 1.401903 0.000000 -2.846746
v 2.060241 0.000000 -2.570857
v 2.596709 0.000000 -2.092843
v 3.314209 0.000000 0.697231
v 3.061426 0.000000 1.425556
v 2.663468 0.000000 2.072486
v 0.750869 0.000000 3.180521
v -2.926551 0.000000 -1.455373
v -2.587947 0.000000 -2.113774
v -0.712888 0.000000 -3.166565
v 0.016435 0.000000 3.309201
v -0.726451 0.000000 3.222141
v -3.269520 0.000000 0.713211
v 3.116419 0.000000 -0.726994
v 1.857035 0.720306 -0.413284
v 2.902792 0.550752 -0.688168
v 2.451182 0.661945 -0.565968
v 2.102525 0.694063 -0.474473
v 1.710536 0.679733 -0.797643
v 2.992932 0.000000 -1.474433
v 1.930354 0.644232 -0.908766
v 2.236912 0.591625 -1.067482
v 2.634748 0.499169 -1.282421
v 1.485144 0.649978 -1.141248
v 1.670687 0.608738 -1.295230
v 1.927927 0.549918 -1.511056
v 2.261804 0.466661 -1.797468
v 1.193287 0.632173 -1.429502
v 1.338277 0.587164 -1.619412
v 1.538945 0.521806 -1.882301
v 1.798191 0.423028 -2.222911
v 0.848731 0.625634 -1.650012
v 0.948466 0.580131 -1.869747
v 1.087714 0.515010 -2.173613
v 1.254087 0.364922 -2.541490
v 0.466937 0.629692 -1.792006
v 0.711555 0.000000 -3.030821
v 0.514255 0.575559 -2.032961
v 0.575644 0.476780 -2.361967
v 0.645646 0.254028 -2.710414
v 1.913991 0.765381 -0.005338
v 3.285258 0.000000 -0.017208
v 2.169504 0.742348 -0.009369
v 2.516963 0.674533 -0.017273
v 2.930249 0.479112 -0.026141
v 0.457364 0.775323 1.773161
v 0.505525 0.748344 2.024503
v 0.569565 0.666794 2.378665
v 0.665453 0.253537 2.818036
v 0.856287 0.827065 1.648534
v 1.467483 0.000000 2.975633
v 0.962512 0.822594 1.889871
v 1.108645 0.749493 2.234987
v 1.319932 0.363460 2.671993
v 1.217699 0.862169 1.437551
v 2.092143 0.000000 2.566312
v 1.379954 0.882822 1.651846
v 1.605564 0.844089 1.954599
v 1.908560 0.405823 2.325973
v 1.520263 0.867573 1.148160
v 1.729991 0.884412 1.317398
v 2.018188 0.827967 1.548691
v 2.315591 0.424320 1.797987
v 1.745487 0.851469 0.797495
v 1.991308 0.867923 0.913018
v 2.333762 0.839247 1.072145
v 2.695977 0.514472 1.242283
v 1.878290 0.813987 0.405404
v 2.138722 0.813920 0.460671
v 2.488743 0.733107 0.534624
v 2.943127 0.541956 0.619829
v 0.020931 0.000000 -3.213639
v 0.059714 0.621504 -1.842249
v 0.027772 0.157831 -2.833798
v 0.034136 0.418369 -2.426743
v 0.048772 0.543732 -2.088504
v -0.348775 0.606017 -1.795095
v -0.414042 0.530444 -2.041632
v -0.505101 0.398697 -2.399256
v -0.597698 0.165184 -2.763299
v -0.732185 0.600837 -1.654407
v -1.444560 0.000000 -3.065495
v -0.846409 0.535291 -1.880205
v -1.004071 0.405669 -2.197541
v -1.198580 0.195244 -2.581179
v -1.072589 0.600301 -1.432168
v -2.082152 0.000000 -2.671695
v -1.231096 0.540808 -1.629183
v -1.452904 0.418474 -1.906912
v -1.741799 0.232090 -2.263006
v -1.355765 0.600373 -1.141422
v -1.552791 0.540133 -1.299986
v -1.829015 0.431769 -1.524825
v -2.193875 0.248617 -1.823252
v -1.575451 0.580487 -0.800070
v -1.801959 0.535775 -0.910845
v -2.118343 0.467437 -1.066519
v -2.511887 0.284594 -1.261077
v -1.717121 0.561792 -0.420579
v -3.247471 0.000000 -0.788326
v -1.966422 0.525950 -0.480250
v -2.320937 0.493170 -0.566259
v -2.798347 0.426175 -0.685665
v -1.769117 0.549467 -0.019512
v -3.338566 0.000000 -0.040074
v -2.026324 0.508858 -0.023689
v -2.392565 0.459790 -0.030058
v -2.895285 0.373071 -0.037559
v 0.041811 0.727868 1.809237
v 0.032551 0.693729 2.060009
v 0.018358 0.630714 2.409051
v 0.011793 0.313980 2.847272
v -1.728198 0.547947 0.383217
v -1.977366 0.498762 0.434975
v -2.326928 0.428818 0.507320
v -2.790646 0.314188 0.605039
v -1.598323 0.562229 0.767550
v -3.046242 0.000000 1.441704
v -1.828139 0.507813 0.872993
v -2.146889 0.422237 1.019329
v -2.559434 0.283971 1.209932
v -1.388127 0.588980 1.114088
v -2.644707 0.000000 2.083986
v -1.590942 0.536446 1.269693
v -1.872823 0.460073 1.487086
v -2.239065 0.343302 1.769575
v -1.104234 0.620452 1.404221
v -2.085283 0.000000 2.599527
v -1.272733 0.577233 1.604052
v -1.511307 0.528385 1.888993
v -1.829435 0.485989 2.277422
v -0.759257 0.652850 1.622292
v -1.439625 0.000000 2.987313
v -0.880456 0.603550 1.853109
v -1.051932 0.534680 2.184620
v -1.287713 0.447370 2.657264
v -0.370496 0.685210 1.758267
v -0.436263 0.635312 2.002421
v -0.525887 0.546343 2.339705
v -0.633682 0.331678 2.769910
v -1.414345 0.590134 0.315794
v 1.545528 0.732261 -0.341018
v 0.065572 0.663703 -1.524062
v 0.716309 0.657106 -1.366531
v 1.242494 0.677504 -0.945024
v 0.719103 0.810027 1.354099
v 1.261955 0.838793 0.941461
v 1.557423 0.801394 0.333209
v -1.132205 0.627089 0.917458
v -0.611252 0.684655 1.335330
v 0.049012 0.741182 1.491115
v -0.590337 0.646513 -1.368479
v -1.106852 0.642275 -0.942995
v -1.405011 0.598616 -0.347622
v 0.523684 0.779737 0.944025
v 1.103006 0.729957 -0.241707
v 0.067136 0.685262 -1.071469
v 0.523069 0.678388 -0.961656
v 0.892036 0.692938 -0.665884
v 0.902288 0.797610 0.654900
v 1.109324 0.774540 0.230210
v -0.971120 0.630657 0.218427
v -0.772701 0.657134 0.639469
v -0.407087 0.699489 0.931822
v 0.055091 0.736565 1.041282
v -0.392919 0.674978 -0.962672
v -0.755615 0.669847 -0.663956
v -0.964624 0.636071 -0.246426
vn 0.2119 0.7128 -0.6686
vn 0.3811 0.7026 -0.6009
vn 0.5386 0.6840 -0.4919
vn 0.7944 0.5944 0.1248
vn 0.6785 0.6363 0.3670
vn 0.5679 0.6684 0.4804
vn 0.1037 0.7877 0.6073
vn -0.4749 0.8272 -0.3003
vn -0.3617 0.8893 -0.2798
vn -0.0426 0.9297 -0.3659
vn 0.0202 0.8239 0.5664
vn -0.0850 0.7725 0.6292
vn -0.5294 0.8360 0.1445
vn 0.8496 0.4959 -0.1797
vn 0.0513 0.9915 -0.1195
vn 0.6115 0.7777 -0.1457
vn 0.1828 0.9784 -0.0963
vn 0.0910 0.9884 -0.1217
vn 0.0563 0.9904 -0.1262
vn 0.7213 0.5939 -0.3564
vn 0.0821 0.9853 -0.1496
vn 0.1134 0.9800 -0.1636
vn 0.4834 0.8279 -0.2845
vn 0.0641 0.9896 -0.1285
vn 0.0917 0.9834 -0.1567
vn 0.1018 0.9803 -0.1695
vn 0.3529 0.8642 -0.3585
vn 0.0659 0.9892 -0.1307
vn 0.0916 0.9821 -0.1648
vn 0.0972 0.9745 -0.2021
vn 0.2572 0.8590 -0.4427
vn 0.0597 0.9890 -0.1357
vn 0.0737 0.9788 -0.1911
vn 0.0679 0.9547 -0.2896
vn 0.1447 0.8312 -0.5368
vn 0.0279 0.9858 -0.1656
vn 0.0877 0.8017 -0.5912
vn 0.0131 0.9669 -0.2546
vn -0.0004 0.9172 -0.3984
vn 0.0463 0.8315 -0.5536
vn 0.0380 0.9924 -0.1171
vn 0.8426 0.5334 -0.0741
vn 0.1257 0.9861 -0.1082
vn 0.2824 0.9573 -0.0625
vn 0.6524 0.7556 -0.0588
vn -0.1090 0.9915 0.0707
vn -0.0935 0.9806 0.1724
vn -0.0139 0.8848 0.4657
vn 0.0766 0.7755 0.6266
vn -0.1116 0.9934 0.0251
vn 0.2538 0.7003 0.6672
vn -0.0886 0.9851 0.1471
vn 0.0508 0.8866 0.4598
vn 0.2044 0.7270 0.6555
vn -0.0848 0.9961 -0.0246
vn 0.4646 0.6549 0.5960
vn -0.0245 0.9971 0.0718
vn 0.2282 0.9019 0.3668
vn 0.4322 0.6977 0.5713
vn -0.0509 0.9968 -0.0609
vn 0.0329 0.9994 0.0124
vn 0.3444 0.8947 0.2845
vn 0.5496 0.6946 0.4641
vn -0.0274 0.9959 -0.0863
vn 0.0710 0.9962 -0.0505
vn 0.3586 0.9223 0.1443
vn 0.6109 0.7218 0.3254
vn 0.0121 0.9936 -0.1120
vn 0.1235 0.9860 -0.1120
vn 0.3457 0.9375 -0.0401
vn 0.6562 0.7510 0.0737
vn 0.0103 0.8995 -0.4369
vn -0.0335 0.9776 -0.2078
vn -0.0094 0.8736 -0.4865
vn -0.0449 0.8955 -0.4427
vn -0.0453 0.9514 -0.3046
vn -0.0680 0.9764 -0.2048
vn -0.0818 0.9496 -0.3027
vn -0.0901 0.8999 -0.4268
vn -0.0663 0.8996 -0.4317
vn -0.0923 0.9800 -0.1760
vn -0.1180 0.9317 -0.3436
vn -0.1271 0.9543 -0.2706
vn -0.1502 0.9181 -0.3669
vn -0.1336 0.9154 -0.3796
vn -0.1181 0.9825 -0.1439
vn -0.2368 0.9178 -0.3188
vn -0.1704 0.9597 -0.2235
vn -0.2029 0.9339 -0.2945
vn -0.2255 0.9195 -0.3219
vn -0.1471 0.9851 -0.0890
vn -0.1897 0.9688 -0.1598
vn -0.2376 0.9443 -0.2279
vn -0.3197 0.9080 -0.2709
vn -0.1525 0.9878 -0.0318
vn -0.1646 0.9826 -0.0856
vn -0.2017 0.9632 -0.1778
vn -0.3660 0.8899 -0.2723
vn -0.1389 0.9903 0.0010
vn -0.6022 0.7726 -0.2009
vn -0.1368 0.9905 -0.0110
vn -0.1513 0.9868 -0.0578
vn -0.4101 0.8988 -0.1549
vn -0.1443 0.9894 0.0184
vn -0.6268 0.7788 0.0236
vn -0.1487 0.9882 0.0357
vn -0.1592 0.9853 0.0625
vn -0.4351 0.8991 0.0474
vn -0.1112 0.9898 0.0888
vn -0.1165 0.9785 0.1699
vn -0.0735 0.9118 0.4041
vn -0.0051 0.8201 0.5722
vn -0.1612 0.9866 0.0243
vn -0.1834 0.9817 0.0506
vn -0.2003 0.9757 0.0890
vn -0.3887 0.9121 0.1303
vn -0.1733 0.9845 0.0279
vn -0.4655 0.8605 0.2073
vn -0.2102 0.9761 0.0557
vn -0.2373 0.9682 0.0796
vn -0.3703 0.9158 0.1553
vn -0.1689 0.9849 0.0394
vn -0.5006 0.8044 0.3199
vn -0.2061 0.9770 0.0541
vn -0.2372 0.9708 0.0358
vn -0.3962 0.8990 0.1865
vn -0.1490 0.9870 0.0608
vn -0.4770 0.6965 0.5361
vn -0.1611 0.9835 0.0826
vn -0.1511 0.9866 0.0622
vn -0.3337 0.8860 0.3220
vn -0.1258 0.9875 0.0951
vn -0.2616 0.6867 0.6782
vn -0.1218 0.9821 0.1435
vn -0.0590 0.9799 0.1906
vn -0.1628 0.8554 0.4918
vn -0.1165 0.9877 0.1044
vn -0.1313 0.9764 0.1717
vn -0.0902 0.9447 0.3151
vn -0.0682 0.8446 0.5311
vn -0.1145 0.9934 0.0046
vn -0.0033 0.9950 -0.0997
vn -0.0144 0.9960 -0.0883
vn 0.0265 0.9971 -0.0717
vn 0.0140 0.9962 -0.0856
vn -0.1000 0.9948 -0.0195
vn -0.0647 0.9959 -0.0627
vn -0.0263 0.9951 -0.0955
vn -0.1179 0.9930 0.0010
vn -0.1028 0.9945 0.0205
vn -0.0981 0.9951 0.0154
vn -0.0577 0.9947 -0.0855
vn -0.0935 0.9951 -0.0323
vn -0.1101 0.9939 0.0118
vn -0.0745 0.9968 -0.0297
vn -0.0378 0.9972 -0.0640
vn -0.0263 0.9988 -0.0407
vn -0.0155 0.9990 -0.0412
vn -0.0280 0.9983 -0.0507
vn -0.0585 0.9972 -0.0476
vn -0.0447 0.9969 -0.0648
vn -0.0751 0.9971 -0.0152
vn -0.0783 0.9967 -0.0231
vn -0.0740 0.9970 -0.0206
vn -0.0748 0.9970 -0.0211
vn -0.0464 0.9981 -0.0404
vn -0.0632 0.9978 -0.0183
vn -0.0751 0.9972 -0.0023
vt 0.794225 0.656675
vt 0.794205 0.656677
vt 0.794205 0.656661
vt 0.794295 0.656587
vt 0.794292 0.656567
vt 0.794304 0.656564
vt 0.794307 0.656586
vt 0.794322 0.656560
vt 0.794325 0.656586
vt 0.794346 0.656554
vt 0.794350 0.656586
vt 0.794368 0.656549
vt 0.794372 0.656586
vt 0.794184 0.656675
vt 0.794205 0.656689
vt 0.794182 0.656688
vt 0.794206 0.656707
vt 0.794179 0.656705
vt 0.794207 0.656728
vt 0.794174 0.656727
vt 0.794206 0.656751
vt 0.794170 0.656745
vt 0.794115 0.656567
vt 0.794112 0.656587
vt 0.794100 0.656587
vt 0.794103 0.656564
vt 0.794083 0.656587
vt 0.794086 0.656560
vt 0.794062 0.656586
vt 0.794064 0.656554
vt 0.794045 0.656587
vt 0.794053 0.656552
vt 0.794204 0.656496
vt 0.794184 0.656499
vt 0.794182 0.656487
vt 0.794205 0.656484
vt 0.794179 0.656471
vt 0.794205 0.656467
vt 0.794175 0.656453
vt 0.794206 0.656447
vt 0.794172 0.656438
vt 0.794206 0.656429
vt 0.794165 0.656506
vt 0.794160 0.656495
vt 0.794153 0.656480
vt 0.794145 0.656462
vt 0.794138 0.656447
vt 0.794148 0.656517
vt 0.794141 0.656507
vt 0.794131 0.656494
vt 0.794118 0.656478
vt 0.794105 0.656460
vt 0.794134 0.656531
vt 0.794124 0.656523
vt 0.794112 0.656513
vt 0.794095 0.656499
vt 0.794079 0.656484
vt 0.794122 0.656548
vt 0.794112 0.656543
vt 0.794096 0.656535
vt 0.794077 0.656524
vt 0.794059 0.656515
vt 0.794165 0.656669
vt 0.794159 0.656681
vt 0.794152 0.656698
vt 0.794142 0.656720
vt 0.794134 0.656735
vt 0.794147 0.656659
vt 0.794139 0.656669
vt 0.794128 0.656684
vt 0.794113 0.656703
vt 0.794104 0.656714
vt 0.794132 0.656644
vt 0.794122 0.656653
vt 0.794107 0.656664
vt 0.794093 0.656677
vt 0.794075 0.656690
vt 0.794121 0.656627
vt 0.794109 0.656633
vt 0.794092 0.656641
vt 0.794074 0.656649
vt 0.794056 0.656658
vt 0.794114 0.656608
vt 0.794101 0.656610
vt 0.794084 0.656614
vt 0.794061 0.656618
vt 0.794043 0.656622
vt 0.794293 0.656606
vt 0.794305 0.656609
vt 0.794322 0.656613
vt 0.794345 0.656618
vt 0.794369 0.656623
vt 0.794286 0.656626
vt 0.794298 0.656631
vt 0.794313 0.656638
vt 0.794334 0.656647
vt 0.794358 0.656659
vt 0.794276 0.656643
vt 0.794286 0.656650
vt 0.794300 0.656661
vt 0.794318 0.656675
vt 0.794338 0.656691
vt 0.794262 0.656657
vt 0.794270 0.656667
vt 0.794282 0.656681
vt 0.794298 0.656700
vt 0.794310 0.656716
vt 0.794245 0.656668
vt 0.794251 0.656679
vt 0.794259 0.656696
vt 0.794271 0.656719
vt 0.794278 0.656735
vt 0.794229 0.656687
vt 0.794233 0.656703
vt 0.794238 0.656725
vt 0.794243 0.656747
vt 0.794224 0.656499
vt 0.794228 0.656487
vt 0.794232 0.656469
vt 0.794237 0.656451
vt 0.794242 0.656431
vt 0.794243 0.656506
vt 0.794249 0.656495
vt 0.794257 0.656479
vt 0.794266 0.656460
vt 0.794279 0.656436
vt 0.794260 0.656517
vt 0.794268 0.656507
vt 0.794279 0.656493
vt 0.794293 0.656476
vt 0.794310 0.656455
vt 0.794274 0.656531
vt 0.794284 0.656523
vt 0.794298 0.656512
vt 0.794316 0.656497
vt 0.794335 0.656483
vt 0.794285 0.656548
vt 0.794296 0.656542
vt 0.794312 0.656535
vt 0.794331 0.656525
vt 0.794352 0.656516
vt 0.794131 0.656571
vt 0.794130 0.656604
vt 0.794172 0.656655
vt 0.794145 0.656634
vt 0.794277 0.656603
vt 0.794277 0.656570
vt 0.794262 0.656541
vt 0.794172 0.656520
vt 0.794237 0.656654
vt 0.794263 0.656633
vt 0.794146 0.656541
vt 0.794236 0.656520
vt 0.794204 0.656512
vt 0.794255 0.656598
vt 0.794245 0.656619
vt 0.794227 0.656634
vt 0.794204 0.656639
vt 0.794181 0.656634
vt 0.794162 0.656620
vt 0.794152 0.656599
vt 0.794152 0.656576
vt 0.794163 0.656555
vt 0.794181 0.656540
vt 0.794204 0.656535
vt 0.794227 0.656540
vt 0.794244 0.656555
vt 0.794255 0.656575
s 1
usemtl Graveyard
f 137/1/137 109/2/109 151/3/151
f 104/4/104 99/5/99 101/6/101 106/7/106
f 106/7/106 101/6/101 102/8/102 107/9/107
f 107/9/107 102/8/102 103/10/103 108/11/108
f 108/11/108 103/10/103 100/12/100 105/13/105
f 46/14/46 109/2/109 110/15/110 47/16/47
f 47/16/47 110/15/110 111/17/111 48/18/48
f 48/18/48 111/17/111 112/19/112 49/20/49
f 49/20/49 112/19/112 11/21/11 7/22/7
f 15/23/15 41/24/41 43/25/43 18/26/18
f 18/26/18 43/25/43 44/27/44 17/28/17
f 17/28/17 44/27/44 45/29/45 16/30/16
f 16/30/16 45/29/45 42/31/42 14/32/14
f 73/33/73 36/34/36 38/35/38 76/36/76
f 76/36/76 38/35/38 39/37/39 75/38/75
f 75/38/75 39/37/39 40/39/40 74/40/74
f 74/40/74 40/39/40 37/41/37 72/42/72
f 36/34/36 32/43/32 33/44/33 38/35/38
f 38/35/38 33/44/33 34/45/34 39/37/39
f 39/37/39 34/45/34 35/46/35 40/39/40
f 40/39/40 35/46/35 1/47/1 37/41/37
f 32/43/32 28/48/28 29/49/29 33/44/33
f 33/44/33 29/49/29 30/50/30 34/45/34
f 34/45/34 30/50/30 31/51/31 35/46/35
f 35/46/35 31/51/31 2/52/2 1/47/1
f 28/48/28 24/53/24 25/54/25 29/49/29
f 29/49/29 25/54/25 26/55/26 30/50/30
f 30/50/30 26/55/26 27/56/27 31/51/31
f 31/51/31 27/56/27 3/57/3 2/52/2
f 24/53/24 19/58/19 21/59/21 25/54/25
f 25/54/25 21/59/21 22/60/22 26/55/26
f 26/55/26 22/60/22 23/61/23 27/56/27
f 27/56/27 23/61/23 20/62/20 3/57/3
f 19/58/19 15/23/15 18/26/18 21/59/21
f 21/59/21 18/26/18 17/28/17 22/60/22
f 22/60/22 17/28/17 16/30/16 23/61/23
f 23/61/23 16/30/16 14/32/14 20/62/20
f 50/63/50 46/14/46 47/16/47 52/64/52
f 52/64/52 47/16/47 48/18/48 53/65/53
f 53/65/53 48/18/48 49/20/49 54/66/54
f 54/66/54 49/20/49 7/22/7 51/67/51
f 55/68/55 50/63/50 52/64/52 57/69/57
f 57/69/57 52/64/52 53/65/53 58/70/58
f 58/70/58 53/65/53 54/66/54 59/71/59
f 59/71/59 54/66/54 51/67/51 56/72/56
f 60/73/60 55/68/55 57/69/57 61/74/61
f 61/74/61 57/69/57 58/70/58 62/75/62
f 62/75/62 58/70/58 59/71/59 63/76/63
f 63/76/63 59/71/59 56/72/56 6/77/6
f 64/78/64 60/73/60 61/74/61 65/79/65
f 65/79/65 61/74/61 62/75/62 66/80/66
f 66/80/66 62/75/62 63/76/63 67/81/67
f 67/81/67 63/76/63 6/77/6 5/82/5
f 68/83/68 64/78/64 65/79/65 69/84/69
f 69/84/69 65/79/65 66/80/66 70/85/70
f 70/85/70 66/80/66 67/81/67 71/86/71
f 71/86/71 67/81/67 5/82/5 4/87/4
f 41/24/41 68/83/68 69/84/69 43/25/43
f 43/25/43 69/84/69 70/85/70 44/27/44
f 44/27/44 70/85/70 71/86/71 45/29/45
f 45/29/45 71/86/71 4/87/4 42/31/42
f 113/88/113 104/4/104 106/7/106 114/89/114
f 114/89/114 106/7/106 107/9/107 115/90/115
f 115/90/115 107/9/107 108/11/108 116/91/116
f 116/91/116 108/11/108 105/13/105 13/92/13
f 117/93/117 113/88/113 114/89/114 119/94/119
f 119/94/119 114/89/114 115/90/115 120/95/120
f 120/95/120 115/90/115 116/91/116 121/96/121
f 121/96/121 116/91/116 13/92/13 118/97/118
f 122/98/122 117/93/117 119/94/119 124/99/124
f 124/99/124 119/94/119 120/95/120 125/100/125
f 125/100/125 120/95/120 121/96/121 126/101/126
f 126/101/126 121/96/121 118/97/118 123/102/123
f 127/103/127 122/98/122 124/99/124 129/104/129
f 129/104/129 124/99/124 125/100/125 130/105/130
f 130/105/130 125/100/125 126/101/126 131/106/131
f 131/106/131 126/101/126 123/102/123 128/107/128
f 132/108/132 127/103/127 129/104/129 134/109/134
f 134/109/134 129/104/129 130/105/130 135/110/135
f 135/110/135 130/105/130 131/106/131 136/111/136
f 136/111/136 131/106/131 128/107/128 133/112/133
f 137/1/137 132/108/132 134/109/134 138/113/138
f 138/113/138 134/109/134 135/110/135 139/114/139
f 139/114/139 135/110/135 136/111/136 140/115/140
f 140/115/140 136/111/136 133/112/133 12/116/12
f 109/2/109 137/1/137 138/113/138 110/15/110
f 110/15/110 138/113/138 139/114/139 111/17/111
f 111/17/111 139/114/139 140/115/140 112/19/112
f 112/19/112 140/115/140 12/116/12 11/21/11
f 77/117/77 73/33/73 76/36/76 78/118/78
f 78/118/78 76/36/76 75/38/75 79/119/79
f 79/119/79 75/38/75 74/40/74 80/120/80
f 80/120/80 74/40/74 72/42/72 10/121/10
f 81/122/81 77/117/77 78/118/78 83/123/83
f 83/123/83 78/118/78 79/119/79 84/124/84
f 84/124/84 79/119/79 80/120/80 85/125/85
f 85/125/85 80/120/80 10/121/10 82/126/82
f 86/127/86 81/122/81 83/123/83 88/128/88
f 88/128/88 83/123/83 84/124/84 89/129/89
f 89/129/89 84/124/84 85/125/85 90/130/90
f 90/130/90 85/125/85 82/126/82 87/131/87
f 91/132/91 86/127/86 88/128/88 92/133/92
f 92/133/92 88/128/88 89/129/89 93/134/93
f 93/134/93 89/129/89 90/130/90 94/135/94
f 94/135/94 90/130/90 87/131/87 9/136/9
f 95/137/95 91/132/91 92/133/92 96/138/96
f 96/138/96 92/133/92 93/134/93 97/139/97
f 97/139/97 93/134/93 94/135/94 98/140/98
f 98/140/98 94/135/94 9/136/9 8/141/8
f 99/5/99 95/137/95 96/138/96 101/6/101
f 101/6/101 96/138/96 97/139/97 102/8/102
f 102/8/102 97/139/97 98/140/98 103/10/103
f 103/10/103 98/140/98 8/141/8 100/12/100
f 68/83/68 41/24/41 142/142/142 148/143/148
f 109/2/109 46/14/46 146/144/146 151/3/151
f 60/73/60 64/78/64 148/143/148 147/145/147
f 99/5/99 104/4/104 141/146/141 154/147/154
f 95/137/95 99/5/99 154/147/154
f 86/127/86 91/132/91 153/148/153
f 28/48/28 32/43/32 144/149/144
f 122/98/122 127/103/127 150/150/150 149/151/149
f 19/58/19 24/53/24 145/152/145
f 46/14/46 50/63/50 146/144/146
f 73/33/73 77/117/77 152/153/152 143/154/143
f 104/4/104 113/88/113 141/146/141
f 81/122/81 86/127/86 153/148/153 152/153/152
f 117/93/117 122/98/122 149/151/149
f 132/108/132 137/1/137 151/3/151 150/150/150
f 55/68/55 60/73/60 147/145/147
f 64/78/64 68/83/68 148/143/148
f 32/43/32 36/34/36 143/154/143 144/149/144
f 91/132/91 95/137/95 154/147/154 153/148/153
f 24/53/24 28/48/28 144/149/144 145/152/145
f 36/34/36 73/33/73 143/154/143
f 41/24/41 15/23/15 142/142/142
f 15/23/15 19/58/19 145/152/145 142/142/142
f 127/103/127 132/108/132 150/150/150
f 50/63/50 55/68/55 147/145/147 146/144/146
f 77/117/77 81/122/81 152/153/152
f 113/88/113 117/93/117 149/151/149 141/146/141
f 162/155/162 163/156/163 164/157/164 165/158/165 155/159/155 160/160/160 161/161/161 156/162/156 159/163/159 158/164/158 157/165/157 166/166/166 167/167/167 168/168/168
f 146/144/146 147/145/147 160/160/160 155/159/155
f 152/153/152 153/148/153 167/167/167 166/166/166
f 147/145/147 148/143/148 161/161/161 160/160/160
f 153/148/153 154/147/154 168/168/168 167/167/167
f 154/147/154 141/146/141 162/155/162 168/168/168
f 148/143/148 142/142/142 156/162/156 161/161/161
f 151/3/151 146/144/146 155/159/155 165/158/165
f 141/146/141 149/151/149 163/156/163 162/155/162
f 144/149/144 143/154/143 157/165/157 158/164/158
f 149/151/149 150/150/150 164/157/164 163/156/163
f 145/152/145 144/149/144 158/164/158 159/163/159
f 150/150/150 151/3/151 165/158/165 164/157/164
f 142/142/142 145/152/145 159/163/159 156/162/156
f 143/154/143 152/153/152 166/166/166 157/165/157
