# Blender 4.1.1
# www.blender.org
mtllib GF_ICorner_1_2.mtl
o GF_ICorner_1_2
v -1.999999 0.000000 4.000000
v -3.999999 0.000000 2.000001
v 0.000001 0.318729 4.000000
v 0.000001 0.000000 4.000000
v -3.360071 0.000000 2.000001
v -1.999999 0.000000 3.360072
v -3.008059 0.000000 2.046344
v -2.680035 0.000000 2.182216
v -2.398355 0.000000 2.398357
v -2.182214 0.000000 2.680037
v -2.046342 0.000000 3.008060
v 0.000000 0.318729 0.000000
v 0.000000 0.000000 0.000000
v -4.000000 0.318729 0.000001
v -4.000000 0.000000 0.000001
v -1.999999 0.149026 4.000000
v -1.830296 0.318729 4.000000
v -1.987081 0.213968 4.000000
v -1.950294 0.269024 4.000000
v -1.895238 0.305811 4.000000
v -3.999999 0.318729 1.830299
v -3.999999 0.149026 2.000001
v -3.999999 0.305811 1.895241
v -3.999999 0.269024 1.950297
v -3.999999 0.213968 1.987084
v -1.830296 0.318729 3.348950
v -1.999999 0.149026 3.360073
v -1.895239 0.305811 3.353206
v -1.950294 0.269024 3.356815
v -1.987081 0.213968 3.359226
v -3.348947 0.318729 1.830298
v -3.360071 0.149026 2.000001
v -3.353204 0.305811 1.895241
v -3.356813 0.269024 1.950297
v -3.359224 0.213968 1.987084
v -1.881008 0.318729 2.963759
v -2.046342 0.149026 3.008060
v -1.944278 0.305811 2.980712
v -1.997917 0.269024 2.995085
v -2.033757 0.213968 3.004688
v -2.033979 0.318729 2.594453
v -2.182214 0.149026 2.680037
v -2.090706 0.305811 2.627205
v -2.138797 0.269024 2.654970
v -2.170930 0.213968 2.673522
v -2.277322 0.318729 2.277323
v -2.398355 0.149026 2.398357
v -2.323639 0.305811 2.323641
v -2.362906 0.269024 2.362907
v -2.389142 0.213968 2.389143
v -2.594451 0.318729 2.033981
v -2.680035 0.149026 2.182216
v -2.627203 0.305811 2.090708
v -2.654968 0.269024 2.138799
v -2.673520 0.213968 2.170932
v -2.963758 0.318729 1.881009
v -3.008059 0.149026 2.046344
v -2.980711 0.305811 1.944280
v -2.995083 0.269024 1.997919
v -3.004686 0.213968 2.033759
vn -0.0000 1.0000 -0.0000
vn -0.0631 0.9960 0.0631
vn -0.0772 0.9960 0.0446
vn -0.0000 -0.0000 1.0000
vn -1.0000 -0.0000 -0.0000
vn -0.0980 0.9952 -0.0000
vn -0.0936 0.9956 0.0061
vn -0.0861 0.9960 0.0231
vn -0.0446 0.9960 0.0772
vn -0.0000 0.9952 0.0980
vn -0.0061 0.9956 0.0936
vn -0.0231 0.9960 0.0861
vn -0.5000 -0.0000 0.8660
vn -0.4975 0.0997 0.8617
vn -0.2575 0.0997 0.9611
vn -0.2588 -0.0000 0.9659
vn -0.0654 -0.0000 0.9979
vn -0.0651 0.0986 0.9930
vn -0.0000 0.0980 0.9952
vn -0.7071 -0.0000 0.7071
vn -0.7036 0.0997 0.7036
vn -0.9930 0.0986 0.0651
vn -0.9952 0.0980 -0.0000
vn -0.9239 0.3827 -0.0000
vn -0.9204 0.3862 0.0603
vn -0.0000 0.3827 0.9239
vn -0.0603 0.3862 0.9204
vn -0.0000 0.7071 0.7071
vn -0.0459 0.7119 0.7008
vn 1.0000 -0.0000 -0.0000
vn -0.9659 -0.0000 0.2588
vn -0.9611 0.0997 0.2575
vn -0.8617 0.0997 0.4975
vn -0.8660 -0.0000 0.5000
vn -0.3171 0.9306 0.1831
vn -0.6027 0.7181 0.3480
vn -0.6722 0.7181 0.1801
vn -0.3536 0.9306 0.0948
vn -0.3743 0.9270 0.0245
vn -0.2382 0.3912 0.8889
vn -0.4602 0.3912 0.7970
vn -0.3480 0.7181 0.6027
vn -0.1801 0.7181 0.6722
vn -0.0948 0.9306 0.3536
vn -0.1831 0.9306 0.3171
vn -0.0245 0.9270 0.3743
vn -0.3827 0.9239 -0.0000
vn -0.7008 0.7119 0.0459
vn -0.7071 0.7071 -0.0000
vn -0.2589 0.9306 0.2589
vn -0.0000 0.9239 0.3827
vn -0.6508 0.3912 0.6508
vn -0.4921 0.7181 0.4921
vn -0.7970 0.3912 0.4602
vn -0.8889 0.3912 0.2382
vn -0.9979 -0.0000 0.0654
vn -0.0000 -0.0000 -1.0000
vt 0.569813 0.584661
vt 0.570978 0.583496
vt 0.571140 0.583621
vt 0.712764 0.594975
vt 0.712764 0.605989
vt 0.712769 0.577209
vt 0.712697 0.605989
vt 0.712697 0.585638
vt 0.712697 0.577209
vt 0.571860 0.583725
vt 0.571860 0.584661
vt 0.571526 0.583725
vt 0.571329 0.583699
vt 0.569813 0.582615
vt 0.570853 0.583334
vt 0.570749 0.582615
vt 0.570749 0.582948
vt 0.570775 0.583145
vt 0.712764 0.650276
vt 0.712767 0.579400
vt 0.712765 0.585639
vt 0.712697 0.650276
vt 0.712697 0.594975
vt 0.712697 0.579400
vt 0.712741 0.650276
vt 0.712741 0.605989
vt 0.712730 0.605989
vt 0.712730 0.650276
vt 0.712718 0.650276
vt 0.712718 0.605989
vt 0.712750 0.650276
vt 0.712750 0.605989
vt 0.712718 0.594975
vt 0.712719 0.585638
vt 0.712830 0.577209
vt 0.712830 0.650276
vt 0.712762 0.650276
vt 0.712762 0.605989
vt 0.712758 0.605989
vt 0.712758 0.650276
vt 0.712761 0.579400
vt 0.712759 0.585639
vt 0.712764 0.585639
vt 0.712766 0.579400
vt 0.712768 0.577209
vt 0.712730 0.594975
vt 0.712741 0.594975
vt 0.712742 0.585638
vt 0.712731 0.585638
vt 0.712731 0.579400
vt 0.712743 0.579400
vt 0.712744 0.577209
vt 0.712732 0.577209
vt 0.712719 0.579400
vt 0.712719 0.577209
vt 0.712753 0.579400
vt 0.712754 0.577209
vt 0.712763 0.577209
vt 0.712751 0.594975
vt 0.712752 0.585638
vt 0.712758 0.594975
vt 0.712763 0.594975
s 1
usemtl Graveyard
f 12/1/1 46/2/2 41/3/3
f 18/4/4 16/5/4 17/6/4
f 22/7/5 24/8/5 21/9/5
f 17/10/6 3/11/1 26/12/7
f 3/11/1 12/1/1 41/3/3
f 26/12/7 3/11/1 36/13/8
f 12/1/1 14/14/1 51/15/9
f 14/14/1 21/16/10 31/17/11
f 14/14/1 31/17/11 56/18/12
f 36/13/8 3/11/1 41/3/3
f 14/14/1 56/18/12 51/15/9
f 12/1/1 51/15/9 46/2/2
f 16/5/4 1/19/4 17/6/4
f 17/6/4 20/20/4 19/21/4
f 19/21/4 18/4/4 17/6/4
f 2/22/5 22/7/5 21/9/5
f 22/7/5 25/23/5 24/8/5
f 24/8/5 23/24/5 21/9/5
f 8/25/13 52/26/14 57/27/15 7/28/16
f 5/29/17 32/30/18 22/7/19 2/22/4
f 9/31/20 47/32/21 52/26/14 8/25/13
f 27/5/22 16/5/23 18/4/24 30/4/25
f 7/28/16 57/27/15 32/30/18 5/29/17
f 25/23/26 22/7/19 32/30/18 35/33/27
f 24/8/28 25/23/26 35/33/27 34/34/29
f 3/35/30 4/36/30 13/36/30 12/35/30
f 11/37/31 37/38/32 42/39/33 10/40/34
f 17/6/4 1/19/4 4/36/4 3/35/4
f 43/41/35 44/42/36 39/43/37 38/44/38
f 38/44/38 28/20/39 26/6/7 36/45/8
f 60/46/40 55/47/41 54/48/42 59/49/43
f 60/46/40 57/27/15 52/26/14 55/47/41
f 58/50/44 53/51/45 51/52/9 56/53/12
f 33/54/46 34/34/29 59/49/43 58/50/44
f 28/20/39 20/20/47 17/6/6 26/6/7
f 15/22/5 2/22/5 21/9/5 14/9/5
f 58/50/44 59/49/43 54/48/42 53/51/45
f 31/55/11 33/54/46 58/50/44 56/53/12
f 29/21/48 19/21/49 20/20/47 28/20/39
f 53/51/45 48/56/50 46/57/2 51/52/9
f 39/43/37 29/21/48 28/20/39 38/44/38
f 23/24/51 24/8/28 34/34/29 33/54/46
f 48/56/50 43/41/35 41/58/3 46/57/2
f 41/58/3 43/41/35 38/44/38 36/45/8
f 55/47/41 50/59/52 49/60/53 54/48/42
f 47/32/21 42/39/33 45/61/54 50/59/52
f 44/42/36 43/41/35 48/56/50 49/60/53
f 53/51/45 54/48/42 49/60/53 48/56/50
f 49/60/53 50/59/52 45/61/54 44/42/36
f 37/38/32 40/62/55 45/61/54 42/39/33
f 40/62/55 30/4/25 29/21/48 39/43/37
f 21/9/10 23/24/51 33/54/46 31/55/11
f 35/33/27 32/30/18 57/27/15 60/46/40
f 30/4/25 18/4/24 19/21/49 29/21/48
f 44/42/36 45/61/54 40/62/55 39/43/37
f 34/34/29 35/33/27 60/46/40 59/49/43
f 52/26/14 47/32/21 50/59/52 55/47/41
f 37/38/32 27/5/22 30/4/25 40/62/55
f 10/40/34 42/39/33 47/32/21 9/31/20
f 6/19/56 27/5/22 37/38/32 11/37/31
f 1/19/5 16/5/23 27/5/22 6/19/56
f 12/35/57 13/36/57 15/22/57 14/9/57
