# Blender 4.1.1
# www.blender.org
mtllib GF_ICorner_2_2.mtl
o GF_ICorner_2_2
v -1.999999 0.000000 4.000000
v -3.999999 0.000000 2.000001
v 0.000001 0.318729 4.000000
v 0.000001 0.000000 4.000000
v 0.000000 0.318729 0.000000
v 0.000000 0.000000 0.000000
v -4.000000 0.318729 0.000001
v -4.000000 0.000000 0.000001
v -1.999999 0.149026 4.000000
v -1.830296 0.318729 4.000000
v -1.987081 0.213968 4.000000
v -1.950294 0.269024 4.000000
v -1.895238 0.305811 4.000000
v -3.999999 0.318729 1.830299
v -3.999999 0.149026 2.000001
v -3.999999 0.305811 1.895241
v -3.999999 0.269024 1.950297
v -3.999999 0.213968 1.987084
v -1.987081 0.213968 3.678560
v -3.678558 0.213968 1.987084
v -2.007906 0.213968 3.413954
v -2.069868 0.213968 3.155864
v -2.171441 0.213968 2.910645
v -2.310124 0.213968 2.684335
v -2.482503 0.213968 2.482505
v -2.684333 0.213968 2.310127
v -2.910643 0.213968 2.171443
v -3.155863 0.213968 2.069870
v -3.413953 0.213968 2.007909
v -3.673269 0.269024 1.950297
v -1.950294 0.269024 3.673271
v -3.403736 0.269024 1.971509
v -3.140840 0.269024 2.034625
v -2.891055 0.269024 2.138089
v -2.660530 0.269024 2.279355
v -2.454942 0.269024 2.454944
v -2.279353 0.269024 2.660532
v -2.138087 0.269024 2.891057
v -2.034622 0.269024 3.140842
v -1.971507 0.269024 3.403738
v -1.895239 0.305811 3.649881
v -3.649878 0.305811 1.895241
v -1.916841 0.305811 3.375395
v -1.981117 0.305811 3.107667
v -2.086483 0.305811 2.853291
v -2.230345 0.305811 2.618529
v -2.409161 0.305811 2.409163
v -2.618527 0.305811 2.230347
v -2.853289 0.305811 2.086485
v -3.107665 0.305811 1.981119
v -3.375392 0.305811 1.916844
v -3.672037 0.149026 2.000001
v -1.999999 0.149026 3.672039
v -3.410473 0.149026 2.020587
v -3.155349 0.149026 2.081836
v -2.912948 0.149026 2.182242
v -2.689238 0.149026 2.319332
v -2.489728 0.149026 2.489729
v -2.319330 0.149026 2.689240
v -2.182240 0.149026 2.912949
v -2.081834 0.149026 3.155350
v -2.020584 0.149026 3.410475
v -3.598402 0.318729 1.830298
v -1.830296 0.318729 3.598404
v -3.321809 0.318729 1.852067
v -3.052027 0.318729 1.916835
v -2.795698 0.318729 2.023010
v -2.559136 0.318729 2.167976
v -2.348162 0.318729 2.348164
v -2.167974 0.318729 2.559137
v -2.023008 0.318729 2.795701
v -1.916833 0.318729 3.052029
v -1.852064 0.318729 3.321811
v -1.999999 0.000000 3.665524
v -3.665522 0.000000 2.000001
v -2.020504 0.000000 3.404979
v -2.081516 0.000000 3.150849
v -2.181530 0.000000 2.909393
v -2.318086 0.000000 2.686554
v -2.487820 0.000000 2.487821
v -2.686553 0.000000 2.318088
v -2.909391 0.000000 2.181532
v -3.150847 0.000000 2.081518
v -3.404977 0.000000 2.020507
vn -0.0000 -0.0000 1.0000
vn -1.0000 -0.0000 -0.0000
vn -0.0000 1.0000 -0.0000
vn -0.0525 0.9972 0.0525
vn -0.0604 0.9972 0.0444
vn -0.0000 -1.0000 -0.0000
vn -0.0980 0.9952 -0.0000
vn -0.0938 0.9956 0.0051
vn -0.0683 0.9970 0.0359
vn -0.0856 0.9962 0.0157
vn -0.0359 0.9970 0.0683
vn -0.0000 0.9952 0.0980
vn -0.0051 0.9956 0.0939
vn -0.0157 0.9962 0.0855
vn -0.0766 0.9967 0.0264
vn -0.0264 0.9967 0.0765
vn -0.0443 0.9972 0.0602
vn -0.3930 -0.3927 -0.8315
vn -0.3927 0.3930 -0.8315
vn -0.0000 -0.0000 -1.0000
vn -0.1050 0.7243 0.6814
vn -0.0559 0.9356 0.3487
vn -0.0151 0.9278 0.3727
vn -0.0259 0.7125 0.7012
vn -0.8068 0.0704 0.5866
vn -0.8086 -0.0173 0.5881
vn -0.8905 -0.0151 0.4548
vn -0.8883 0.0741 0.4533
vn -0.1486 0.9452 0.2907
vn -0.1048 0.9414 0.3205
vn -0.6814 0.7243 0.1050
vn -0.6461 0.7344 0.2078
vn -0.8794 0.3828 0.2829
vn -0.9124 0.3844 0.1410
vn -0.9506 -0.0114 0.3103
vn -0.9477 0.0801 0.3089
vn -0.6539 0.3806 0.6539
vn -0.5427 0.3808 0.7486
vn -0.5866 0.0704 0.8068
vn -0.7054 0.0692 0.7054
vn -0.0403 -0.0018 0.9992
vn -0.1582 -0.0064 0.9874
vn -0.1570 0.0882 0.9837
vn -0.0398 0.0953 0.9946
vn -0.5986 0.7414 0.3035
vn -0.8244 0.3816 0.4180
vn -0.3205 0.9414 0.1048
vn -0.2907 0.9452 0.1486
vn -0.2590 0.9473 0.1885
vn -0.3487 0.9356 0.0559
vn -0.7012 0.7125 0.0259
vn -0.7071 0.7071 -0.0000
vn -0.3827 0.9239 -0.0000
vn -0.3727 0.9278 0.0151
vn -0.1410 0.3844 0.9124
vn -0.0343 0.3837 0.9228
vn -0.2251 0.9480 0.2251
vn -0.5397 0.7454 0.3913
vn -0.4703 0.7468 0.4703
vn -0.7486 0.3808 0.5427
vn -0.3103 -0.0114 0.9506
vn -0.4548 -0.0151 0.8905
vn -0.4533 0.0741 0.8883
vn -0.3089 0.0801 0.9477
vn -0.9874 -0.0064 0.1582
vn -0.9837 0.0882 0.1570
vn -0.2829 0.3828 0.8795
vn -0.2078 0.7344 0.6461
vn -0.3035 0.7414 0.5986
vn -0.3913 0.7454 0.5397
vn -0.0000 0.9239 0.3827
vn -0.0000 0.7071 0.7071
vn -0.1885 0.9473 0.2590
vn -0.9228 0.3838 0.0343
vn -0.9946 0.0953 0.0398
vn -0.0000 0.0980 0.9952
vn -0.0000 0.3827 0.9239
vn -0.4180 0.3816 0.8244
vn -0.9239 0.3827 -0.0000
vn -0.9992 -0.0018 0.0403
vn -0.9952 0.0980 -0.0000
vn -0.5881 -0.0173 0.8086
vn -0.7070 -0.0181 0.7070
vn 1.0000 -0.0000 -0.0000
vn 0.8315 0.3927 0.3930
vn 0.8315 -0.3930 0.3927
vt 0.712545 0.594975
vt 0.712545 0.605989
vt 0.712551 0.577209
vt 0.712478 0.605989
vt 0.712478 0.585638
vt 0.712478 0.577209
vt 0.571860 0.582615
vt 0.573061 0.581413
vt 0.573169 0.581505
vt 0.712522 0.650276
vt 0.712515 0.650276
vt 0.712611 0.650276
vt 0.712545 0.650276
vt 0.712548 0.579400
vt 0.712547 0.585639
vt 0.712478 0.650276
vt 0.712478 0.594975
vt 0.712478 0.579400
vt 0.573906 0.581678
vt 0.573906 0.582615
vt 0.573701 0.581678
vt 0.573290 0.581579
vt 0.573559 0.581667
vt 0.571860 0.580568
vt 0.572895 0.581184
vt 0.572796 0.580568
vt 0.572796 0.580773
vt 0.572807 0.580915
vt 0.573421 0.581634
vt 0.572841 0.581053
vt 0.572969 0.581305
vt 0.712544 0.650276
vt 0.712539 0.650276
vt 0.712529 0.650276
vt 0.712490 0.650276
vt 0.712498 0.650276
vt 0.712542 0.650276
vt 0.712507 0.650276
vt 0.712534 0.650276
vt 0.712611 0.577209
vt 0.712498 0.585638
vt 0.712499 0.579400
vt 0.712490 0.579400
vt 0.712489 0.585638
vt 0.712534 0.605989
vt 0.712539 0.605989
vt 0.712517 0.579400
vt 0.712518 0.577209
vt 0.712510 0.577209
vt 0.712508 0.579400
vt 0.712546 0.585639
vt 0.712544 0.585638
vt 0.712543 0.594975
vt 0.712545 0.594975
vt 0.712542 0.605989
vt 0.712529 0.594975
vt 0.712522 0.594975
vt 0.712522 0.605989
vt 0.712529 0.605989
vt 0.712498 0.605989
vt 0.712489 0.605989
vt 0.712501 0.577209
vt 0.712492 0.577209
vt 0.712540 0.585638
vt 0.712539 0.594975
vt 0.712546 0.579400
vt 0.712542 0.579400
vt 0.712544 0.577209
vt 0.712539 0.577209
vt 0.712537 0.579400
vt 0.712550 0.577209
vt 0.712548 0.577209
vt 0.712548 0.579400
vt 0.712498 0.594975
vt 0.712489 0.594975
vt 0.712533 0.577209
vt 0.712531 0.579400
vt 0.712536 0.585638
vt 0.712530 0.585638
vt 0.712535 0.594975
vt 0.712515 0.605989
vt 0.712507 0.605989
vt 0.712544 0.605989
vt 0.712506 0.594975
vt 0.712507 0.585638
vt 0.712515 0.585638
vt 0.712523 0.585638
vt 0.712524 0.579400
vt 0.712526 0.577209
vt 0.712515 0.594975
s 1
usemtl Graveyard
f 11/1/1 9/2/1 10/3/1
f 15/4/2 17/5/2 14/6/2
f 5/7/3 69/8/4 70/9/5
f 81/10/6 82/11/6 6/12/6
f 9/2/1 1/13/1 10/3/1
f 10/3/1 13/14/1 12/15/1
f 12/15/1 11/1/1 10/3/1
f 2/16/2 15/4/2 14/6/2
f 15/4/2 18/17/2 17/5/2
f 17/5/2 16/18/2 14/6/2
f 10/19/7 3/20/3 64/21/8
f 3/20/3 5/7/3 71/22/9
f 64/21/8 3/20/3 73/23/10
f 5/7/3 7/24/3 67/25/11
f 7/24/3 14/26/12 63/27/13
f 7/24/3 63/27/13 65/28/14
f 73/23/10 3/20/3 72/29/15
f 72/29/15 3/20/3 71/22/9
f 7/24/3 65/28/14 66/30/16
f 7/24/3 66/30/16 67/25/11
f 5/7/3 67/25/11 68/31/17
f 70/9/5 71/22/9 5/7/3
f 5/7/3 68/31/17 69/8/4
f 4/12/6 1/13/6 74/13/6
f 4/12/6 74/13/6 76/32/6
f 8/16/6 6/12/6 82/11/6
f 6/12/6 4/12/6 78/33/6
f 81/10/6 6/12/6 80/34/6
f 75/35/6 2/16/6 8/16/6
f 84/36/6 75/35/6 8/16/6
f 4/12/6 76/32/6 77/37/6
f 4/12/6 77/37/6 78/33/6
f 83/38/6 84/36/6 8/16/6
f 82/11/6 83/38/6 8/16/6
f 78/33/6 79/39/6 6/12/6
f 79/39/6 80/34/6 6/12/6
f 5/40/18 6/12/19 8/16/20 7/6/20
f 32/41/21 51/42/22 42/43/23 30/44/24
f 59/45/25 79/39/26 78/33/27 60/46/28
f 49/47/29 67/48/11 66/49/16 50/50/30
f 40/51/31 39/52/32 22/53/33 21/54/34
f 60/46/28 78/33/27 77/37/35 61/55/36
f 25/56/37 26/57/38 57/58/39 58/59/40
f 75/35/41 84/36/42 54/60/43 52/61/44
f 51/42/22 65/62/14 63/63/13 42/43/23
f 39/52/32 38/64/45 23/65/46 22/53/33
f 44/66/47 45/67/48 38/64/45 39/52/32
f 71/68/9 70/69/5 46/70/49 45/67/48
f 73/71/10 72/72/15 44/66/47 43/73/50
f 31/15/51 12/15/52 13/14/53 41/14/54
f 29/74/55 20/75/56 52/61/44 54/60/43
f 70/69/5 69/76/4 47/77/57 46/70/49
f 37/78/58 36/79/59 25/56/37 24/80/60
f 83/38/61 82/11/62 56/81/63 55/82/64
f 61/55/36 77/37/35 76/32/65 62/83/66
f 46/70/49 47/77/57 36/79/59 37/78/58
f 28/84/67 33/85/68 32/41/21 29/74/55
f 29/74/55 32/41/21 30/44/24 20/75/56
f 45/67/48 46/70/49 37/78/58 38/64/45
f 72/72/15 71/68/9 45/67/48 44/66/47
f 10/3/1 1/13/1 4/12/1 3/40/1
f 33/85/68 50/50/30 51/42/22 32/41/21
f 34/86/69 49/47/29 50/50/30 33/85/68
f 38/64/45 37/78/58 24/80/60 23/65/46
f 25/56/37 36/79/59 35/87/70 26/57/38
f 30/44/24 42/43/23 16/18/71 17/5/72
f 48/88/73 68/89/17 67/48/11 49/47/29
f 41/14/54 43/73/50 40/51/31 31/15/51
f 42/43/23 63/63/13 14/6/12 16/18/71
f 50/50/30 66/49/16 65/62/14 51/42/22
f 43/73/50 44/66/47 39/52/32 40/51/31
f 62/83/66 21/54/34 22/53/33 61/55/36
f 31/15/51 40/51/31 21/54/34 19/1/74
f 8/16/2 2/16/2 14/6/2 7/6/2
f 41/14/54 13/14/53 10/3/7 64/3/8
f 64/3/8 73/71/10 43/73/50 41/14/54
f 53/2/75 19/1/74 21/54/34 62/83/66
f 47/77/57 69/76/4 68/89/17 48/88/73
f 15/4/76 52/61/44 20/75/56 18/17/77
f 20/75/56 30/44/24 17/5/72 18/17/77
f 26/57/38 35/87/70 34/86/69 27/90/78
f 19/1/74 11/1/79 12/15/52 31/15/51
f 62/83/66 76/32/65 74/13/80 53/2/75
f 27/90/78 28/84/67 55/82/64 56/81/63
f 28/84/67 29/74/55 54/60/43 55/82/64
f 35/87/70 48/88/73 49/47/29 34/86/69
f 9/2/81 11/1/79 19/1/74 53/2/75
f 36/79/59 47/77/57 48/88/73 35/87/70
f 26/57/38 27/90/78 56/81/63 57/58/39
f 59/45/25 24/80/60 25/56/37 58/59/40
f 1/13/2 9/2/81 53/2/75 74/13/80
f 82/11/62 81/10/82 57/58/39 56/81/63
f 2/16/1 75/35/41 52/61/44 15/4/76
f 84/36/42 83/38/61 55/82/64 54/60/43
f 60/46/28 23/65/46 24/80/60 59/45/25
f 27/90/78 34/86/69 33/85/68 28/84/67
f 61/55/36 22/53/33 23/65/46 60/46/28
f 81/10/82 80/34/83 58/59/40 57/58/39
f 58/59/40 80/34/83 79/39/26 59/45/25
f 3/40/84 4/12/84 6/12/85 5/40/86
