# Blender 4.1.1
# www.blender.org
mtllib GF_ICorner_3_3.mtl
o GF_ICorner_3_3
v -1.999999 0.000000 4.000000
v -3.999999 0.000000 2.000001
v 0.000001 0.318729 4.000000
v 0.000001 0.000000 4.000000
v 0.000000 0.000000 0.000000
v 0.000000 0.318729 0.000000
v -4.000000 0.318729 0.000001
v -4.000000 0.000000 0.000001
v -1.999999 0.149026 4.000000
v -1.830296 0.318729 4.000000
v -1.987081 0.213968 4.000000
v -1.950294 0.269024 4.000000
v -1.895238 0.305811 4.000000
v -3.999999 0.318729 1.830299
v -3.999999 0.149026 2.000001
v -3.999999 0.305811 1.895241
v -3.999999 0.269024 1.950297
v -3.999999 0.213968 1.987084
v -1.987082 0.213968 2.349251
v -2.349250 0.213968 1.987083
v -2.004808 0.213968 2.237335
v -2.056250 0.213968 2.136374
v -2.136373 0.213968 2.056251
v -2.237334 0.213968 2.004809
v -2.319207 0.269024 1.950296
v -1.950295 0.269024 2.319208
v -2.205207 0.269024 1.968352
v -2.102365 0.269024 2.020752
v -2.020750 0.269024 2.102367
v -1.968350 0.269024 2.205208
v -1.895239 0.305811 2.270933
v -2.270931 0.305811 1.895241
v -1.913627 0.305811 2.154837
v -1.966990 0.305811 2.050107
v -2.050105 0.305811 1.966991
v -2.154836 0.305811 1.913628
v -2.358005 0.149026 2.000001
v -1.999999 0.149026 2.358007
v -2.247375 0.149026 2.017523
v -2.147574 0.149026 2.068374
v -2.068372 0.149026 2.147576
v -2.017521 0.149026 2.247377
v -2.208872 0.318729 1.830298
v -1.830297 0.318729 2.208873
v -2.091886 0.318729 1.848827
v -1.986351 0.318729 1.902599
v -1.902599 0.318729 1.986352
v -1.848826 0.318729 2.091887
v -1.999999 0.000000 2.356612
v -2.356610 0.000000 2.000001
v -2.017453 0.000000 2.246413
v -2.068106 0.000000 2.147001
v -2.147000 0.000000 2.068107
v -2.246412 0.000000 2.017454
vn 1.0000 -0.0000 -0.0000
vn -0.0000 -0.0000 1.0000
vn -0.0000 -0.0000 -1.0000
vn -1.0000 -0.0000 -0.0000
vn -0.0000 0.0980 0.9952
vn -0.0749 0.1026 0.9919
vn -0.0662 0.4008 0.9138
vn -0.0000 0.3827 0.9239
vn -0.0789 -0.0007 0.9969
vn -0.9952 0.0980 -0.0000
vn -0.9919 0.1026 0.0749
vn -0.9969 -0.0007 0.0789
vn -0.9138 0.4008 0.0662
vn -0.9239 0.3827 -0.0000
vn -0.7071 0.7071 -0.0000
vn -0.6813 0.7301 0.0524
vn -0.3525 0.9353 0.0309
vn -0.3827 0.9239 -0.0000
vn -0.0980 0.9952 -0.0000
vn -0.0889 0.9960 0.0098
vn -0.0000 1.0000 -0.0000
vn -0.0000 0.9952 0.0980
vn -0.0098 0.9960 0.0889
vn -0.0269 0.9970 0.0727
vn -0.0428 0.9974 0.0573
vn -0.0573 0.9974 0.0428
vn -0.0727 0.9970 0.0269
vn -0.0524 0.7301 0.6813
vn -0.0000 0.7071 0.7071
vn -0.0309 0.9353 0.3525
vn -0.0000 0.9239 0.3827
vn -0.8537 0.4461 0.2686
vn -0.9462 0.1144 0.3026
vn -0.7128 0.4766 0.5146
vn -0.8038 0.1229 0.5820
vn -0.5146 0.4766 0.7128
vn -0.5820 0.1229 0.8038
vn -0.2686 0.4461 0.8537
vn -0.3026 0.1144 0.9462
vn -0.2905 0.9519 0.0972
vn -0.5997 0.7768 0.1919
vn -0.2281 0.9592 0.1668
vn -0.4823 0.8032 0.3495
vn -0.1668 0.9592 0.2281
vn -0.3495 0.8032 0.4823
vn -0.0972 0.9519 0.2905
vn -0.1919 0.7768 0.5997
vn -0.3096 -0.0024 0.9509
vn -0.5879 -0.0037 0.8089
vn -0.8089 -0.0037 0.5879
vn -0.9509 -0.0024 0.3096
vt 0.792298 0.659965
vt 0.792298 0.659964
vt 0.792298 0.586898
vt 0.792231 0.659965
vt 0.792237 0.586898
vt 0.792235 0.589089
vt 0.792233 0.595327
vt 0.792232 0.604664
vt 0.792231 0.615677
vt 0.792165 0.659964
vt 0.792165 0.586898
vt 0.792165 0.615677
vt 0.792165 0.604664
vt 0.792165 0.595327
vt 0.792165 0.589089
vt 0.792220 0.615677
vt 0.792220 0.604664
vt 0.792220 0.659964
vt 0.792231 0.659964
vt -0.052897 -0.052897
vt 1.052897 -0.052897
vt 1.052897 0.453086
vt 0.557743 0.453086
vt 0.525402 0.458208
vt 0.496227 0.473074
vt 0.473074 0.496227
vt 0.458208 0.525402
vt 0.453086 0.557743
vt 0.453086 1.052897
vt -0.052897 1.052897
vt 0.792221 0.595327
vt 0.792222 0.589089
vt 0.792224 0.586898
vt 0.792231 0.604664
vt 0.792231 0.615677
vt 0.792230 0.604664
vt 0.792229 0.615677
vt 0.792227 0.604664
vt 0.792227 0.615677
vt 0.792224 0.604664
vt 0.792223 0.615677
vt 0.792234 0.589089
vt 0.792232 0.595327
vt 0.792233 0.589089
vt 0.792231 0.595327
vt 0.792230 0.589089
vt 0.792228 0.595327
vt 0.792226 0.589089
vt 0.792225 0.595327
vt 0.792236 0.586898
vt 0.792235 0.586898
vt 0.792232 0.586898
vt 0.792228 0.586898
vt 0.792223 0.659964
vt 0.792227 0.659964
vt 0.792229 0.659964
vt 0.792231 0.659964
s 1
usemtl Grass_2
f 4/1/1 5/2/1 6/3/1 3/3/1
f 1/4/2 4/1/2 3/3/2 10/5/2 13/6/2 12/7/2 11/8/2 9/9/2
f 5/2/3 8/10/3 7/11/3 6/3/3
f 2/10/4 15/12/4 18/13/4 17/14/4 16/15/4 14/11/4 7/11/4 8/10/4
f 15/12/5 37/16/6 20/17/7 18/13/8
f 2/10/2 50/18/9 37/16/6 15/12/5
f 1/4/4 9/9/10 38/9/11 49/19/12
f 19/8/13 11/8/14 12/7/15 26/7/16
f 31/6/17 13/6/18 10/5/19 44/5/20
f 6/20/21 7/21/21 14/22/22 43/23/23 45/24/24 46/25/25 47/26/26 48/27/27 44/28/20 10/29/19 3/30/21
f 18/13/8 20/17/7 25/31/28 17/14/29
f 26/7/16 12/7/15 13/6/18 31/6/17
f 17/14/29 25/31/28 32/32/30 16/15/31
f 16/15/31 32/32/30 43/33/23 14/11/22
f 38/9/11 19/8/13 21/34/32 42/35/33
f 42/35/33 21/34/32 22/36/34 41/37/35
f 41/37/35 22/36/34 23/38/36 40/39/37
f 40/39/37 23/38/36 24/40/38 39/41/39
f 39/41/39 24/40/38 20/17/7 37/16/6
f 26/7/16 31/6/17 33/42/40 30/43/41
f 30/43/41 33/42/40 34/44/42 29/45/43
f 29/45/43 34/44/42 35/46/44 28/47/45
f 28/47/45 35/46/44 36/48/46 27/49/47
f 27/49/47 36/48/46 32/32/30 25/31/28
f 31/6/17 44/5/20 48/50/27 33/42/40
f 33/42/40 48/50/27 47/51/26 34/44/42
f 34/44/42 47/51/26 46/52/25 35/46/44
f 35/46/44 46/52/25 45/53/24 36/48/46
f 36/48/46 45/53/24 43/33/23 32/32/30
f 19/8/13 26/7/16 30/43/41 21/34/32
f 21/34/32 30/43/41 29/45/43 22/36/34
f 22/36/34 29/45/43 28/47/45 23/38/36
f 23/38/36 28/47/45 27/49/47 24/40/38
f 24/40/38 27/49/47 25/31/28 20/17/7
f 37/16/6 50/18/9 54/54/48 39/41/39
f 39/41/39 54/54/48 53/55/49 40/39/37
f 40/39/37 53/55/49 52/56/50 41/37/35
f 41/37/35 52/56/50 51/57/51 42/35/33
f 42/35/33 51/57/51 49/19/12 38/9/11
f 38/9/11 9/9/10 11/8/14 19/8/13
