# Blender 4.1.1
# www.blender.org
mtllib GF_ICorner_3_1.mtl
o GF_ICorner_3_1
v -1.999999 0.000000 4.000000
v -3.999999 0.000000 2.000001
v 0.000001 0.318729 4.000000
v 0.000001 0.000000 4.000000
v 0.000000 0.000000 0.000000
v 0.000000 0.318729 0.000000
v -4.000000 0.318729 0.000001
v -4.000000 0.000000 0.000001
v -1.999999 0.149026 4.000000
v -1.830296 0.318729 4.000000
v -1.987081 0.213968 4.000000
v -1.950294 0.269024 4.000000
v -1.895238 0.305811 4.000000
v -3.999999 0.318729 1.830299
v -3.999999 0.149026 2.000001
v -3.999999 0.305811 1.895241
v -3.999999 0.269024 1.950297
v -3.999999 0.213968 1.987084
v -1.987082 0.213968 2.349251
v -2.349250 0.213968 1.987083
v -2.004808 0.213968 2.237335
v -2.056250 0.213968 2.136374
v -2.136373 0.213968 2.056251
v -2.237334 0.213968 2.004809
v -2.319207 0.269024 1.950296
v -1.950295 0.269024 2.319208
v -2.205207 0.269024 1.968352
v -2.102365 0.269024 2.020752
v -2.020750 0.269024 2.102367
v -1.968350 0.269024 2.205208
v -1.895239 0.305811 2.270933
v -2.270931 0.305811 1.895241
v -1.913627 0.305811 2.154837
v -1.966990 0.305811 2.050107
v -2.050105 0.305811 1.966991
v -2.154836 0.305811 1.913628
v -2.358005 0.149026 2.000001
v -1.999999 0.149026 2.358007
v -2.247375 0.149026 2.017523
v -2.147574 0.149026 2.068374
v -2.068372 0.149026 2.147576
v -2.017521 0.149026 2.247377
v -2.208872 0.318729 1.830298
v -1.830297 0.318729 2.208873
v -2.091886 0.318729 1.848827
v -1.986351 0.318729 1.902599
v -1.902599 0.318729 1.986352
v -1.848826 0.318729 2.091887
v -1.999999 0.000000 2.356612
v -2.356610 0.000000 2.000001
v -2.017453 0.000000 2.246413
v -2.068106 0.000000 2.147001
v -2.147000 0.000000 2.068107
v -2.246412 0.000000 2.017454
vn -0.0000 -0.0000 1.0000
vn -1.0000 -0.0000 -0.0000
vn -0.3574 0.9334 0.0316
vn -0.0980 0.9952 -0.0000
vn -0.1210 0.9925 0.0151
vn -0.0000 1.0000 -0.0000
vn -0.0515 0.9979 0.0385
vn -0.0655 0.9976 0.0242
vn -0.0316 0.9334 0.3574
vn -0.0000 0.9952 0.0980
vn -0.0000 0.9239 0.3827
vn -0.5691 0.8005 0.1879
vn -0.6813 0.7301 0.0524
vn -0.1879 0.8005 0.5691
vn -0.0524 0.7301 0.6813
vn -0.3827 0.9239 -0.0000
vn -0.0151 0.9925 0.1210
vn -0.0242 0.9976 0.0655
vn -0.0385 0.9979 0.0515
vn -0.2837 0.9541 0.0962
vn -0.0962 0.9541 0.2837
vn -0.8038 0.1229 0.5820
vn -0.8089 -0.0037 0.5879
vn -0.9509 -0.0024 0.3096
vn -0.9462 0.1144 0.3026
vn -0.2281 0.9592 0.1668
vn -0.4823 0.8032 0.3495
vn 1.0000 -0.0000 -0.0000
vn -0.1668 0.9592 0.2281
vn -0.9138 0.4008 0.0662
vn -0.8537 0.4461 0.2686
vn -0.9919 0.1026 0.0749
vn -0.0789 -0.0007 0.9969
vn -0.3096 -0.0024 0.9509
vn -0.3026 0.1144 0.9462
vn -0.0749 0.1026 0.9919
vn -0.9969 -0.0007 0.0789
vn -0.3495 0.8032 0.4823
vn -0.2686 0.4461 0.8537
vn -0.0662 0.4008 0.9138
vn -0.9239 0.3827 -0.0000
vn -0.7071 0.7071 -0.0000
vn -0.5820 0.1229 0.8038
vn -0.5146 0.4766 0.7128
vn -0.9952 0.0980 -0.0000
vn -0.0000 0.7071 0.7071
vn -0.7128 0.4766 0.5146
vn -0.0000 0.3827 0.9239
vn -0.0000 0.0980 0.9952
vn -0.5879 -0.0037 0.8089
vn -0.0000 -0.0000 -1.0000
vt 0.679455 0.601951
vt 0.679455 0.612964
vt 0.679460 0.584185
vt 0.679388 0.612964
vt 0.679388 0.592614
vt 0.679388 0.584185
vt 0.679458 0.586376
vt 0.789828 0.657848
vt 0.790845 0.656874
vt 0.790899 0.656902
vt 0.679446 0.586376
vt 0.679388 0.586376
vt 0.679456 0.592614
vt 0.679456 0.592614
vt 0.679448 0.592614
vt 0.679444 0.592614
vt 0.679455 0.657252
vt 0.679388 0.657251
vt 0.679388 0.601951
vt 0.789828 0.655801
vt 0.790765 0.656717
vt 0.790765 0.655801
vt 0.791875 0.656911
vt 0.791875 0.657848
vt 0.790959 0.656911
vt 0.790774 0.656777
vt 0.790802 0.656831
vt 0.679448 0.584185
vt 0.679460 0.584185
vt 0.679458 0.586376
vt 0.679450 0.586376
vt 0.679452 0.584185
vt 0.679452 0.612964
vt 0.679452 0.657251
vt 0.679454 0.657251
vt 0.679454 0.612964
vt 0.679456 0.586376
vt 0.679454 0.592614
vt 0.679521 0.584185
vt 0.679521 0.657252
vt 0.679521 0.657251
vt 0.679453 0.586376
vt 0.679455 0.584185
vt 0.679455 0.601951
vt 0.679443 0.657251
vt 0.679446 0.657251
vt 0.679446 0.612964
vt 0.679443 0.612964
vt 0.679455 0.657251
vt 0.679451 0.592614
vt 0.679447 0.601951
vt 0.679443 0.601951
vt 0.679450 0.612964
vt 0.679450 0.601951
vt 0.679453 0.601951
vt 0.679458 0.584185
vt 0.679450 0.657251
s 1
usemtl Graveyard
f 11/1/1 9/2/1 10/3/1
f 15/4/2 17/5/2 14/6/2
f 31/7/3 10/3/4 44/3/5
f 6/8/6 47/9/7 48/10/8
f 32/11/9 14/6/10 16/12/11
f 31/7/3 30/13/12 26/14/13
f 27/15/14 32/11/9 25/16/15
f 9/2/1 1/17/1 10/3/1
f 10/3/1 13/7/1 12/14/1
f 12/14/1 11/1/1 10/3/1
f 2/18/2 15/4/2 14/6/2
f 15/4/2 18/19/2 17/5/2
f 17/5/2 16/12/2 14/6/2
f 31/7/3 13/7/16 10/3/4
f 6/8/6 7/20/6 43/21/17
f 7/20/6 14/22/10 43/21/17
f 10/23/4 3/24/6 44/25/5
f 3/24/6 6/8/6 44/25/5
f 6/8/6 43/21/17 45/26/18
f 6/8/6 45/26/18 46/27/19
f 48/10/8 44/25/5 6/8/6
f 6/8/6 46/27/19 47/9/7
f 32/11/9 43/28/17 14/6/10
f 44/3/5 48/29/8 33/30/20
f 36/31/21 45/32/18 43/28/17
f 41/33/22 52/34/23 51/35/24 42/36/25
f 33/30/20 34/37/26 29/38/27 30/13/12
f 3/39/28 4/40/28 5/41/28 6/39/28
f 35/42/29 46/43/19 45/32/18 36/31/21
f 19/1/30 21/44/31 42/36/25 38/2/32
f 50/45/33 54/46/34 39/47/35 37/48/36
f 42/36/25 51/35/24 49/49/37 38/2/32
f 8/18/2 2/18/2 14/6/2 7/6/2
f 28/50/38 35/42/29 36/31/21 27/15/14
f 31/7/3 44/3/5 33/30/20 30/13/12
f 24/51/39 27/15/14 25/16/15 20/52/40
f 19/1/30 11/1/41 12/14/42 26/14/13
f 39/47/35 24/51/39 20/52/40 37/48/36
f 40/53/43 23/54/44 24/51/39 39/47/35
f 38/2/32 9/2/45 11/1/41 19/1/30
f 23/54/44 28/50/38 27/15/14 24/51/39
f 25/16/15 32/11/9 16/12/11 17/5/46
f 21/44/31 22/55/47 41/33/22 42/36/25
f 48/29/8 47/56/7 34/37/26 33/30/20
f 26/14/13 30/13/12 21/44/31 19/1/30
f 22/55/47 23/54/44 40/53/43 41/33/22
f 26/14/13 12/14/42 13/7/16 31/7/3
f 32/11/9 27/15/14 36/31/21 43/28/17
f 20/52/40 25/16/15 17/5/46 18/19/48
f 37/48/36 20/52/40 18/19/48 15/4/49
f 10/3/1 1/17/1 4/40/1 3/39/1
f 34/37/26 35/42/29 28/50/38 29/38/27
f 1/17/2 9/2/45 38/2/32 49/49/37
f 2/18/1 50/45/33 37/48/36 15/4/49
f 47/56/7 46/43/19 35/42/29 34/37/26
f 22/55/47 29/38/27 28/50/38 23/54/44
f 30/13/12 29/38/27 22/55/47 21/44/31
f 54/46/34 53/57/50 40/53/43 39/47/35
f 40/53/43 53/57/50 52/34/23 41/33/22
f 6/39/51 5/41/51 8/18/51 7/6/51
