# Blender 4.1.1
# www.blender.org
mtllib GF_ICorner_2_1.mtl
o GF_ICorner_2_1
v -1.999999 0.000000 4.000000
v -3.999999 0.000000 2.000001
v 0.000001 0.318729 4.000000
v 0.000001 0.000000 4.000000
v 0.000000 0.318729 0.000000
v 0.000000 0.000000 0.000000
v -4.000000 0.318729 0.000001
v -4.000000 0.000000 0.000001
v -1.999999 0.149026 4.000000
v -1.830296 0.318729 4.000000
v -1.987081 0.213968 4.000000
v -1.950294 0.269024 4.000000
v -1.895238 0.305811 4.000000
v -3.999999 0.318729 1.830299
v -3.999999 0.149026 2.000001
v -3.999999 0.305811 1.895241
v -3.999999 0.269024 1.950297
v -3.999999 0.213968 1.987084
v -1.987081 0.213968 3.678560
v -3.678558 0.213968 1.987084
v -2.007906 0.213968 3.413954
v -2.069868 0.213968 3.155864
v -2.171441 0.213968 2.910645
v -2.310124 0.213968 2.684335
v -2.482503 0.213968 2.482505
v -2.684333 0.213968 2.310127
v -2.910643 0.213968 2.171443
v -3.155863 0.213968 2.069870
v -3.413953 0.213968 2.007909
v -3.673269 0.269024 1.950297
v -1.950294 0.269024 3.673271
v -3.403736 0.269024 1.971509
v -3.140840 0.269024 2.034625
v -2.891055 0.269024 2.138089
v -2.660530 0.269024 2.279355
v -2.454942 0.269024 2.454944
v -2.279353 0.269024 2.660532
v -2.138087 0.269024 2.891057
v -2.034622 0.269024 3.140842
v -1.971507 0.269024 3.403738
v -1.895239 0.305811 3.649881
v -3.649878 0.305811 1.895241
v -1.916841 0.305811 3.375395
v -1.981117 0.305811 3.107667
v -2.086483 0.305811 2.853291
v -2.230345 0.305811 2.618529
v -2.409161 0.305811 2.409163
v -2.618527 0.305811 2.230347
v -2.853289 0.305811 2.086485
v -3.107665 0.305811 1.981119
v -3.375392 0.305811 1.916844
v -3.672037 0.149026 2.000001
v -1.999999 0.149026 3.672039
v -3.410473 0.149026 2.020587
v -3.155349 0.149026 2.081836
v -2.912948 0.149026 2.182242
v -2.689238 0.149026 2.319332
v -2.489728 0.149026 2.489729
v -2.319330 0.149026 2.689240
v -2.182240 0.149026 2.912949
v -2.081834 0.149026 3.155350
v -2.020584 0.149026 3.410475
v -3.598402 0.318729 1.830298
v -1.830296 0.318729 3.598404
v -3.321809 0.318729 1.852067
v -3.052027 0.318729 1.916835
v -2.795698 0.318729 2.023010
v -2.559136 0.318729 2.167976
v -2.348162 0.318729 2.348164
v -2.167974 0.318729 2.559137
v -2.023008 0.318729 2.795701
v -1.916833 0.318729 3.052029
v -1.852064 0.318729 3.321811
v -1.999999 0.000000 3.665524
v -3.665522 0.000000 2.000001
v -2.020504 0.000000 3.404979
v -2.081516 0.000000 3.150849
v -2.181530 0.000000 2.909393
v -2.318086 0.000000 2.686554
v -2.487820 0.000000 2.487821
v -2.686553 0.000000 2.318088
v -2.909391 0.000000 2.181532
v -3.150847 0.000000 2.081518
v -3.404977 0.000000 2.020507
vn -0.0000 -0.0000 1.0000
vn -1.0000 -0.0000 -0.0000
vn -0.0000 1.0000 -0.0000
vn -0.0525 0.9972 0.0525
vn -0.0604 0.9972 0.0444
vn -0.0000 -1.0000 -0.0000
vn -0.0980 0.9952 -0.0000
vn -0.0938 0.9956 0.0051
vn -0.0683 0.9970 0.0359
vn -0.0856 0.9962 0.0157
vn -0.0359 0.9970 0.0683
vn -0.0000 0.9952 0.0980
vn -0.0051 0.9956 0.0939
vn -0.0157 0.9962 0.0855
vn -0.0766 0.9967 0.0264
vn -0.0264 0.9967 0.0765
vn -0.0443 0.9972 0.0602
vn -0.3930 -0.3927 -0.8315
vn -0.3927 0.3930 -0.8315
vn -0.0000 -0.0000 -1.0000
vn -0.1050 0.7243 0.6814
vn -0.0559 0.9356 0.3487
vn -0.0151 0.9278 0.3727
vn -0.0259 0.7125 0.7012
vn -0.8068 0.0704 0.5866
vn -0.8086 -0.0173 0.5881
vn -0.8905 -0.0151 0.4548
vn -0.8883 0.0741 0.4533
vn -0.1486 0.9452 0.2907
vn -0.1048 0.9414 0.3205
vn -0.6814 0.7243 0.1050
vn -0.6461 0.7344 0.2078
vn -0.8794 0.3828 0.2829
vn -0.9124 0.3844 0.1410
vn -0.9506 -0.0114 0.3103
vn -0.9477 0.0801 0.3089
vn -0.6539 0.3806 0.6539
vn -0.5427 0.3808 0.7486
vn -0.5866 0.0704 0.8068
vn -0.7054 0.0692 0.7054
vn -0.0403 -0.0018 0.9992
vn -0.1582 -0.0064 0.9874
vn -0.1570 0.0882 0.9837
vn -0.0398 0.0953 0.9946
vn -0.5986 0.7414 0.3035
vn -0.8244 0.3816 0.4180
vn -0.3205 0.9414 0.1048
vn -0.2907 0.9452 0.1486
vn -0.2590 0.9473 0.1885
vn -0.3487 0.9356 0.0559
vn -0.7012 0.7125 0.0259
vn -0.7071 0.7071 -0.0000
vn -0.3827 0.9239 -0.0000
vn -0.3727 0.9278 0.0151
vn -0.1410 0.3844 0.9124
vn -0.0343 0.3837 0.9228
vn -0.2251 0.9480 0.2251
vn -0.5397 0.7454 0.3913
vn -0.4703 0.7468 0.4703
vn -0.7486 0.3808 0.5427
vn -0.3103 -0.0114 0.9506
vn -0.4548 -0.0151 0.8905
vn -0.4533 0.0741 0.8883
vn -0.3089 0.0801 0.9477
vn -0.9874 -0.0064 0.1582
vn -0.9837 0.0882 0.1570
vn -0.2829 0.3828 0.8795
vn -0.2078 0.7344 0.6461
vn -0.3035 0.7414 0.5986
vn -0.3913 0.7454 0.5397
vn -0.0000 0.9239 0.3827
vn -0.0000 0.7071 0.7071
vn -0.1885 0.9473 0.2590
vn -0.9228 0.3838 0.0343
vn -0.9946 0.0953 0.0398
vn -0.0000 0.0980 0.9952
vn -0.0000 0.3827 0.9239
vn -0.4180 0.3816 0.8244
vn -0.9239 0.3827 -0.0000
vn -0.9992 -0.0018 0.0403
vn -0.9952 0.0980 -0.0000
vn -0.5881 -0.0173 0.8086
vn -0.7070 -0.0181 0.7070
vn 1.0000 -0.0000 -0.0000
vn 0.8315 0.3927 0.3930
vn 0.8315 -0.3930 0.3927
vt 0.679216 0.601951
vt 0.679216 0.612964
vt 0.679221 0.584185
vt 0.679149 0.612964
vt 0.679149 0.592614
vt 0.679149 0.584185
vt 0.791875 0.657848
vt 0.793077 0.656646
vt 0.793185 0.656738
vt 0.679193 0.657251
vt 0.679185 0.657251
vt 0.679282 0.657251
vt 0.679216 0.657251
vt 0.679219 0.586376
vt 0.679217 0.592614
vt 0.679149 0.657251
vt 0.679149 0.601951
vt 0.679149 0.586376
vt 0.793922 0.656911
vt 0.793922 0.657848
vt 0.793717 0.656911
vt 0.793306 0.656813
vt 0.793575 0.656900
vt 0.791875 0.655801
vt 0.792910 0.656417
vt 0.792812 0.655801
vt 0.792812 0.656006
vt 0.792823 0.656148
vt 0.793437 0.656867
vt 0.792856 0.656286
vt 0.792985 0.656538
vt 0.679282 0.657251
vt 0.679215 0.657251
vt 0.679210 0.657251
vt 0.679200 0.657251
vt 0.679160 0.657251
vt 0.679169 0.657251
vt 0.679213 0.657251
vt 0.679177 0.657251
vt 0.679205 0.657251
vt 0.679282 0.584185
vt 0.679169 0.592614
vt 0.679170 0.586376
vt 0.679161 0.586376
vt 0.679160 0.592614
vt 0.679205 0.612964
vt 0.679210 0.612964
vt 0.679187 0.586376
vt 0.679189 0.584185
vt 0.679181 0.584185
vt 0.679179 0.586376
vt 0.679217 0.592614
vt 0.679215 0.592614
vt 0.679213 0.601951
vt 0.679215 0.601951
vt 0.679213 0.612964
vt 0.679200 0.601951
vt 0.679193 0.601951
vt 0.679193 0.612964
vt 0.679199 0.612964
vt 0.679169 0.612964
vt 0.679160 0.612964
vt 0.679172 0.584185
vt 0.679163 0.584185
vt 0.679211 0.592614
vt 0.679210 0.601951
vt 0.679216 0.586376
vt 0.679213 0.586376
vt 0.679215 0.584185
vt 0.679210 0.584185
vt 0.679208 0.586376
vt 0.679221 0.584185
vt 0.679219 0.584185
vt 0.679219 0.586376
vt 0.679169 0.601951
vt 0.679160 0.601951
vt 0.679204 0.584185
vt 0.679202 0.586376
vt 0.679206 0.592614
vt 0.679201 0.592614
vt 0.679205 0.601951
vt 0.679185 0.612964
vt 0.679177 0.612964
vt 0.679215 0.612964
vt 0.679177 0.601951
vt 0.679178 0.592614
vt 0.679186 0.592614
vt 0.679194 0.592614
vt 0.679195 0.586376
vt 0.679197 0.584185
vt 0.679185 0.601951
s 1
usemtl Graveyard
f 11/1/1 9/2/1 10/3/1
f 15/4/2 17/5/2 14/6/2
f 5/7/3 69/8/4 70/9/5
f 81/10/6 82/11/6 6/12/6
f 9/2/1 1/13/1 10/3/1
f 10/3/1 13/14/1 12/15/1
f 12/15/1 11/1/1 10/3/1
f 2/16/2 15/4/2 14/6/2
f 15/4/2 18/17/2 17/5/2
f 17/5/2 16/18/2 14/6/2
f 10/19/7 3/20/3 64/21/8
f 3/20/3 5/7/3 71/22/9
f 64/21/8 3/20/3 73/23/10
f 5/7/3 7/24/3 67/25/11
f 7/24/3 14/26/12 63/27/13
f 7/24/3 63/27/13 65/28/14
f 73/23/10 3/20/3 72/29/15
f 72/29/15 3/20/3 71/22/9
f 7/24/3 65/28/14 66/30/16
f 7/24/3 66/30/16 67/25/11
f 5/7/3 67/25/11 68/31/17
f 70/9/5 71/22/9 5/7/3
f 5/7/3 68/31/17 69/8/4
f 4/32/6 1/13/6 74/13/6
f 4/32/6 74/13/6 76/33/6
f 8/16/6 6/12/6 82/11/6
f 6/12/6 4/32/6 78/34/6
f 81/10/6 6/12/6 80/35/6
f 75/36/6 2/16/6 8/16/6
f 84/37/6 75/36/6 8/16/6
f 4/32/6 76/33/6 77/38/6
f 4/32/6 77/38/6 78/34/6
f 83/39/6 84/37/6 8/16/6
f 82/11/6 83/39/6 8/16/6
f 78/34/6 79/40/6 6/12/6
f 79/40/6 80/35/6 6/12/6
f 5/41/18 6/32/19 8/16/20 7/6/20
f 32/42/21 51/43/22 42/44/23 30/45/24
f 59/46/25 79/40/26 78/34/27 60/47/28
f 49/48/29 67/49/11 66/50/16 50/51/30
f 40/52/31 39/53/32 22/54/33 21/55/34
f 60/47/28 78/34/27 77/38/35 61/56/36
f 25/57/37 26/58/38 57/59/39 58/60/40
f 75/36/41 84/37/42 54/61/43 52/62/44
f 51/43/22 65/63/14 63/64/13 42/44/23
f 39/53/32 38/65/45 23/66/46 22/54/33
f 44/67/47 45/68/48 38/65/45 39/53/32
f 71/69/9 70/70/5 46/71/49 45/68/48
f 73/72/10 72/73/15 44/67/47 43/74/50
f 31/15/51 12/15/52 13/14/53 41/14/54
f 29/75/55 20/76/56 52/62/44 54/61/43
f 70/70/5 69/77/4 47/78/57 46/71/49
f 37/79/58 36/80/59 25/57/37 24/81/60
f 83/39/61 82/11/62 56/82/63 55/83/64
f 61/56/36 77/38/35 76/33/65 62/84/66
f 46/71/49 47/78/57 36/80/59 37/79/58
f 28/85/67 33/86/68 32/42/21 29/75/55
f 29/75/55 32/42/21 30/45/24 20/76/56
f 45/68/48 46/71/49 37/79/58 38/65/45
f 72/73/15 71/69/9 45/68/48 44/67/47
f 10/3/1 1/13/1 4/32/1 3/41/1
f 33/86/68 50/51/30 51/43/22 32/42/21
f 34/87/69 49/48/29 50/51/30 33/86/68
f 38/65/45 37/79/58 24/81/60 23/66/46
f 25/57/37 36/80/59 35/88/70 26/58/38
f 30/45/24 42/44/23 16/18/71 17/5/72
f 48/89/73 68/90/17 67/49/11 49/48/29
f 41/14/54 43/74/50 40/52/31 31/15/51
f 42/44/23 63/64/13 14/6/12 16/18/71
f 50/51/30 66/50/16 65/63/14 51/43/22
f 43/74/50 44/67/47 39/53/32 40/52/31
f 62/84/66 21/55/34 22/54/33 61/56/36
f 31/15/51 40/52/31 21/55/34 19/1/74
f 8/16/2 2/16/2 14/6/2 7/6/2
f 41/14/54 13/14/53 10/3/7 64/3/8
f 64/3/8 73/72/10 43/74/50 41/14/54
f 53/2/75 19/1/74 21/55/34 62/84/66
f 47/78/57 69/77/4 68/90/17 48/89/73
f 15/4/76 52/62/44 20/76/56 18/17/77
f 20/76/56 30/45/24 17/5/72 18/17/77
f 26/58/38 35/88/70 34/87/69 27/91/78
f 19/1/74 11/1/79 12/15/52 31/15/51
f 62/84/66 76/33/65 74/13/80 53/2/75
f 27/91/78 28/85/67 55/83/64 56/82/63
f 28/85/67 29/75/55 54/61/43 55/83/64
f 35/88/70 48/89/73 49/48/29 34/87/69
f 9/2/81 11/1/79 19/1/74 53/2/75
f 36/80/59 47/78/57 48/89/73 35/88/70
f 26/58/38 27/91/78 56/82/63 57/59/39
f 59/46/25 24/81/60 25/57/37 58/60/40
f 1/13/2 9/2/81 53/2/75 74/13/80
f 82/11/62 81/10/82 57/59/39 56/82/63
f 2/16/1 75/36/41 52/62/44 15/4/76
f 84/37/42 83/39/61 55/83/64 54/61/43
f 60/47/28 23/66/46 24/81/60 59/46/25
f 27/91/78 34/87/69 33/86/68 28/85/67
f 61/56/36 22/54/33 23/66/46 60/47/28
f 81/10/82 80/35/83 58/60/40 57/59/39
f 58/60/40 80/35/83 79/40/26 59/46/25
f 3/41/84 4/32/84 6/12/85 5/41/86
