# Blender 4.1.1
# www.blender.org
mtllib GF_ICorner_1_3.mtl
o GF_ICorner_1_3
v -1.999999 0.000000 4.000000
v -3.999999 0.000000 2.000001
v 0.000001 0.318729 4.000000
v 0.000001 0.000000 4.000000
v -3.360071 0.000000 2.000001
v -1.999999 0.000000 3.360072
v -3.008059 0.000000 2.046344
v -2.680035 0.000000 2.182216
v -2.398355 0.000000 2.398357
v -2.182214 0.000000 2.680037
v -2.046342 0.000000 3.008060
v 0.000000 0.318729 0.000000
v 0.000000 0.000000 0.000000
v -4.000000 0.318729 0.000001
v -4.000000 0.000000 0.000001
v -1.999999 0.149026 4.000000
v -1.830296 0.318729 4.000000
v -1.987081 0.213968 4.000000
v -1.950294 0.269024 4.000000
v -1.895238 0.305811 4.000000
v -3.999999 0.318729 1.830299
v -3.999999 0.149026 2.000001
v -3.999999 0.305811 1.895241
v -3.999999 0.269024 1.950297
v -3.999999 0.213968 1.987084
v -1.830296 0.318729 3.348950
v -1.999999 0.149026 3.360073
v -1.895239 0.305811 3.353206
v -1.950294 0.269024 3.356815
v -1.987081 0.213968 3.359226
v -3.348947 0.318729 1.830298
v -3.360071 0.149026 2.000001
v -3.353204 0.305811 1.895241
v -3.356813 0.269024 1.950297
v -3.359224 0.213968 1.987084
v -1.881008 0.318729 2.963759
v -2.046342 0.149026 3.008060
v -1.944278 0.305811 2.980712
v -1.997917 0.269024 2.995085
v -2.033757 0.213968 3.004688
v -2.033979 0.318729 2.594453
v -2.182214 0.149026 2.680037
v -2.090706 0.305811 2.627205
v -2.138797 0.269024 2.654970
v -2.170930 0.213968 2.673522
v -2.277322 0.318729 2.277323
v -2.398355 0.149026 2.398357
v -2.323639 0.305811 2.323641
v -2.362906 0.269024 2.362907
v -2.389142 0.213968 2.389143
v -2.594451 0.318729 2.033981
v -2.680035 0.149026 2.182216
v -2.627203 0.305811 2.090708
v -2.654968 0.269024 2.138799
v -2.673520 0.213968 2.170932
v -2.963758 0.318729 1.881009
v -3.008059 0.149026 2.046344
v -2.980711 0.305811 1.944280
v -2.995083 0.269024 1.997919
v -3.004686 0.213968 2.033759
vn -0.9659 -0.0000 0.2588
vn -0.9979 -0.0000 0.0654
vn -0.9930 0.0986 0.0651
vn -0.9611 0.0997 0.2575
vn 1.0000 -0.0000 -0.0000
vn -0.0000 1.0000 -0.0000
vn -0.0000 0.9952 0.0980
vn -0.0064 0.9952 0.0976
vn -0.0252 0.9953 0.0940
vn -0.0486 0.9953 0.0842
vn -0.0688 0.9953 0.0688
vn -0.0842 0.9953 0.0486
vn -0.0940 0.9953 0.0252
vn -0.0976 0.9952 0.0064
vn -0.0980 0.9952 -0.0000
vn -0.0000 -0.0000 1.0000
vn -0.8660 -0.0000 0.5000
vn -0.8617 0.0997 0.4975
vn -0.2588 -0.0000 0.9659
vn -0.5000 -0.0000 0.8660
vn -0.4975 0.0997 0.8617
vn -0.2575 0.0997 0.9611
vn -0.7071 -0.0000 0.7071
vn -0.7036 0.0997 0.7036
vn -0.0654 -0.0000 0.9979
vn -0.0651 0.0986 0.9930
vn -0.0000 -0.0000 -1.0000
vn -0.0000 0.0980 0.9952
vn -1.0000 -0.0000 -0.0000
vn -0.0245 0.9270 0.3743
vn -0.0948 0.9306 0.3536
vn -0.0459 0.7119 0.7008
vn -0.1801 0.7181 0.6722
vn -0.0603 0.3862 0.9204
vn -0.2382 0.3912 0.8889
vn -0.1831 0.9306 0.3171
vn -0.3480 0.7181 0.6027
vn -0.4602 0.3912 0.7970
vn -0.2589 0.9306 0.2589
vn -0.4921 0.7181 0.4921
vn -0.6508 0.3912 0.6508
vn -0.3171 0.9306 0.1831
vn -0.6027 0.7181 0.3480
vn -0.7970 0.3912 0.4602
vn -0.3536 0.9306 0.0948
vn -0.6722 0.7181 0.1801
vn -0.8889 0.3912 0.2382
vn -0.3743 0.9270 0.0245
vn -0.7008 0.7119 0.0459
vn -0.9204 0.3862 0.0603
vn -0.3827 0.9239 -0.0000
vn -0.7071 0.7071 -0.0000
vn -0.9239 0.3827 -0.0000
vn -0.9952 0.0980 -0.0000
vn -0.0000 0.9239 0.3827
vn -0.0000 0.7071 0.7071
vn -0.0000 0.3827 0.9239
vt 0.792210 0.659964
vt 0.792211 0.659964
vt 0.792211 0.615677
vt 0.792210 0.615677
vt 0.792278 0.659964
vt 0.792278 0.586898
vt 0.998306 0.998306
vt 0.001694 0.998306
vt 0.001694 0.001694
vt 0.457718 0.001694
vt 0.457718 0.163906
vt 0.470353 0.259877
vt 0.508466 0.351890
vt 0.569096 0.430904
vt 0.648109 0.491534
vt 0.740123 0.529647
vt 0.836095 0.542282
vt 0.998306 0.542282
vt 0.792217 0.586898
vt 0.792215 0.589089
vt 0.792213 0.595327
vt 0.792212 0.604664
vt 0.792205 0.659964
vt 0.792205 0.615677
vt 0.792178 0.659964
vt 0.792189 0.659964
vt 0.792189 0.615677
vt 0.792178 0.615677
vt 0.792198 0.659964
vt 0.792198 0.615677
vt 0.792166 0.659964
vt 0.792166 0.615677
vt 0.792145 0.659964
vt 0.792145 0.586898
vt 0.792145 0.615677
vt 0.792145 0.604664
vt 0.792145 0.595327
vt 0.792145 0.589088
vt 0.792166 0.586898
vt 0.792166 0.589088
vt 0.792179 0.589088
vt 0.792179 0.586898
vt 0.792166 0.595327
vt 0.792178 0.595327
vt 0.792166 0.604664
vt 0.792178 0.604664
vt 0.792190 0.589088
vt 0.792191 0.586898
vt 0.792189 0.595327
vt 0.792189 0.604664
vt 0.792200 0.589089
vt 0.792202 0.586898
vt 0.792199 0.595327
vt 0.792198 0.604664
vt 0.792208 0.589089
vt 0.792210 0.586898
vt 0.792207 0.595327
vt 0.792206 0.604664
vt 0.792213 0.589089
vt 0.792215 0.586898
vt 0.792211 0.595327
vt 0.792210 0.604664
s 1
usemtl Grass_2
f 11/1/1 6/2/2 27/3/3 37/4/4
f 4/5/5 13/5/5 12/6/5 3/6/5
f 3/7/6 12/8/6 14/9/6 21/10/7 31/11/8 56/12/9 51/13/10 46/14/11 41/15/12 36/16/13 26/17/14 17/18/15
f 1/2/16 4/5/16 3/6/16 17/19/16 20/20/16 19/21/16 18/22/16 16/3/16
f 10/23/17 11/1/1 37/4/4 42/24/18
f 7/25/19 8/26/20 52/27/21 57/28/22
f 8/26/20 9/29/23 47/30/24 52/27/21
f 9/29/23 10/23/17 42/24/18 47/30/24
f 5/31/25 7/25/19 57/28/22 32/32/26
f 13/5/27 15/33/27 14/34/27 12/6/27
f 2/33/16 5/31/25 32/32/26 22/35/28
f 2/33/29 22/35/29 25/36/29 24/37/29 23/38/29 21/34/29 14/34/29 15/33/29
f 31/39/8 33/40/30 58/41/31 56/42/9
f 33/40/30 34/43/32 59/44/33 58/41/31
f 34/43/32 35/45/34 60/46/35 59/44/33
f 35/45/34 32/32/26 57/28/22 60/46/35
f 56/42/9 58/41/31 53/47/36 51/48/10
f 58/41/31 59/44/33 54/49/37 53/47/36
f 59/44/33 60/46/35 55/50/38 54/49/37
f 60/46/35 57/28/22 52/27/21 55/50/38
f 51/48/10 53/47/36 48/51/39 46/52/11
f 53/47/36 54/49/37 49/53/40 48/51/39
f 54/49/37 55/50/38 50/54/41 49/53/40
f 55/50/38 52/27/21 47/30/24 50/54/41
f 46/52/11 48/51/39 43/55/42 41/56/12
f 48/51/39 49/53/40 44/57/43 43/55/42
f 49/53/40 50/54/41 45/58/44 44/57/43
f 50/54/41 47/30/24 42/24/18 45/58/44
f 41/56/12 43/55/42 38/59/45 36/60/13
f 43/55/42 44/57/43 39/61/46 38/59/45
f 44/57/43 45/58/44 40/62/47 39/61/46
f 45/58/44 42/24/18 37/4/4 40/62/47
f 36/60/13 38/59/45 28/20/48 26/19/14
f 38/59/45 39/61/46 29/21/49 28/20/48
f 39/61/46 40/62/47 30/22/50 29/21/49
f 40/62/47 37/4/4 27/3/3 30/22/50
f 26/19/14 28/20/48 20/20/51 17/19/15
f 28/20/48 29/21/49 19/21/52 20/20/51
f 29/21/49 30/22/50 18/22/53 19/21/52
f 30/22/50 27/3/3 16/3/54 18/22/53
f 21/34/7 23/38/55 33/40/30 31/39/8
f 23/38/55 24/37/56 34/43/32 33/40/30
f 24/37/56 25/36/57 35/45/34 34/43/32
f 25/36/57 22/35/28 32/32/26 35/45/34
f 6/2/2 1/2/29 16/3/54 27/3/3
