# Blender 4.1.1
# www.blender.org
mtllib Grass_2_2.mtl
o Grass_2_2
v 0.049426 0.000000 -0.039637
v 0.056199 0.000000 -0.032378
v 0.044452 0.047885 -0.033260
v 0.051483 0.045049 -0.026004
v 0.056612 0.000000 0.013547
v 0.049970 0.000000 0.020926
v 0.051782 0.045049 0.007259
v 0.044882 0.047885 0.014639
v -0.004364 0.000000 -0.031854
v 0.003088 0.000000 -0.039221
v 0.007119 0.063109 -0.025625
v 0.014059 0.060257 -0.032987
v 0.003632 0.000000 0.021342
v -0.003951 0.000000 0.014110
v 0.014489 0.060258 0.014912
v 0.007418 0.063109 0.007676
v 0.060475 0.078232 -0.031148
v 0.065898 0.072421 -0.023880
v 0.066157 0.072421 0.004875
v 0.060865 0.078232 0.012240
v 0.036609 0.104188 -0.023635
v 0.041642 0.098657 -0.030979
v 0.042032 0.098658 0.012409
v 0.036867 0.104188 0.005156
v 0.099402 0.113378 -0.020616
v 0.093301 0.118492 -0.027597
v 0.097789 0.123913 -0.019575
v 0.099755 0.112272 0.002057
v 0.098126 0.122855 0.002097
v 0.093882 0.116673 0.009688
v 0.070626 0.136233 -0.018949
v 0.080937 0.137316 -0.018659
v 0.076053 0.132196 -0.026537
v 0.076630 0.130389 0.010505
v 0.081275 0.136258 0.003014
v 0.070976 0.135137 0.003517
v -0.015263 -0.000000 -0.042293
v -0.017846 -0.000000 -0.057477
v -0.060182 -0.000000 -0.000506
v -0.044898 -0.000000 -0.002413
v -0.056877 -0.000000 -0.086481
v -0.071833 -0.000000 -0.084315
v -0.101453 -0.000000 -0.044456
v -0.099212 -0.000000 -0.029510
v -0.036480 0.074837 -0.051575
v -0.038154 0.071068 -0.066082
v -0.074279 0.071070 -0.017470
v -0.059905 0.074837 -0.020052
v -0.067523 0.057277 -0.087906
v -0.081976 0.053475 -0.085368
v -0.105387 0.053476 -0.053865
v -0.103648 0.057278 -0.039294
v -0.060451 0.132420 -0.069390
v -0.071939 0.136936 -0.077941
v -0.061650 0.127507 -0.083544
v -0.083877 0.132421 -0.037866
v -0.097775 0.127509 -0.034931
v -0.095379 0.136937 -0.046400
v -0.103500 0.104407 -0.101364
v -0.089535 0.109358 -0.104265
v -0.099897 0.118740 -0.098717
v -0.125660 0.109360 -0.055653
v -0.126911 0.104408 -0.069860
v -0.123336 0.118742 -0.067175
v -0.021527 0.000000 0.084579
v -0.032398 -0.000000 0.094723
v -0.090065 0.000000 0.093526
v -0.100505 -0.000000 0.082940
v -0.030762 0.000000 0.016347
v -0.020340 -0.000000 0.027333
v -0.099318 0.000000 0.025695
v -0.088449 -0.000000 0.015150
v -0.039290 0.150658 0.128158
v -0.028444 0.155589 0.118955
v -0.039180 0.164968 0.123748
v -0.084562 0.150659 0.127219
v -0.084489 0.164969 0.122808
v -0.095017 0.155591 0.117575
v -0.038070 0.181229 0.069745
v -0.038355 0.185757 0.084025
v -0.027621 0.176352 0.079284
v -0.094194 0.176353 0.077903
v -0.083665 0.185758 0.083085
v -0.083358 0.181230 0.068805
v -0.038534 0.056741 0.091484
v -0.027662 0.059667 0.081198
v -0.027966 0.112423 0.095901
v -0.038836 0.109500 0.106176
v -0.084106 0.109501 0.105237
v -0.094539 0.112424 0.094520
v -0.094235 0.059668 0.079817
v -0.083799 0.056742 0.090545
v -0.037497 0.127356 0.042064
v -0.027069 0.124476 0.052625
v -0.026765 0.071711 0.037942
v -0.037195 0.074589 0.027386
v -0.093641 0.124477 0.051244
v -0.082784 0.127356 0.041125
v -0.082479 0.074590 0.026447
v -0.093338 0.071712 0.036561
vn 0.4134 0.1545 -0.8973
vn 0.9139 0.1474 -0.3782
vn 0.3274 0.0206 -0.9447
vn 0.9061 -0.1159 -0.4069
vn 0.9205 0.1474 0.3618
vn 0.4295 0.1545 0.8898
vn 0.9132 -0.1159 0.3906
vn 0.3443 0.0206 0.9386
vn -0.9015 0.2027 -0.3824
vn -0.3918 0.1710 -0.9040
vn -0.8512 0.3839 -0.3579
vn -0.3725 0.2294 -0.8992
vn -0.3756 0.1710 0.9109
vn -0.8945 0.2027 0.3985
vn -0.3563 0.2294 0.9058
vn -0.8446 0.3839 0.3731
vn 0.3164 -0.1398 -0.9383
vn 0.7756 -0.4772 -0.4132
vn 0.7831 -0.4889 0.3844
vn 0.3299 -0.1644 0.9296
vn -0.6815 0.6333 -0.3668
vn -0.2734 0.3131 -0.9095
vn -0.2640 0.2913 0.9195
vn -0.6785 0.6240 0.3876
vn 0.8994 -0.2437 -0.3630
vn 0.4884 0.1228 -0.8639
vn 0.8007 0.5104 -0.3137
vn 0.9069 -0.2700 0.3233
vn 0.8108 0.4786 0.3368
vn 0.5066 0.0562 0.8603
vn -0.3983 0.8694 -0.2923
vn 0.2830 0.9159 -0.2848
vn -0.0061 0.5507 -0.8347
vn 0.0123 0.4844 0.8748
vn 0.2931 0.8842 0.3637
vn -0.3908 0.8437 0.3680
vn 0.9280 0.2924 0.2310
vn 0.8592 0.1912 -0.4746
vn -0.2065 0.1912 0.9596
vn 0.4889 0.2924 0.8219
vn 0.2776 0.0223 -0.9604
vn -0.4801 -0.1096 -0.8703
vn -0.9718 -0.1096 -0.2086
vn -0.8395 0.0224 0.5429
vn 0.9072 0.3605 0.2167
vn 0.8382 0.1851 -0.5130
vn -0.2493 0.1851 0.9506
vn 0.4692 0.3605 0.8061
vn 0.2872 -0.0718 -0.9552
vn -0.4724 -0.2735 -0.8379
vn -0.9385 -0.2735 -0.2106
vn -0.8317 -0.0718 0.5505
vn 0.7007 0.7070 0.0959
vn 0.1220 0.9343 -0.3350
vn 0.6392 0.4608 -0.6157
vn 0.2940 0.7070 0.6432
vn -0.4051 0.4609 0.7896
vn -0.2855 0.9343 0.2134
vn -0.5453 -0.1050 -0.8317
vn 0.1535 0.1440 -0.9776
vn -0.3649 0.6168 -0.6974
vn -0.8918 0.1440 0.4289
vn -0.9536 -0.1049 -0.2822
vn -0.7730 0.6168 -0.1482
vn 0.9025 0.1116 0.4159
vn 0.3690 0.0916 0.9249
vn -0.4071 0.0916 0.9088
vn -0.9190 0.1116 0.3781
vn 0.4051 0.1686 -0.8986
vn 0.9175 0.1410 -0.3719
vn -0.9013 0.1411 -0.4096
vn -0.3674 0.1686 -0.9146
vn 0.3221 -0.1091 0.9404
vn 0.8662 0.1419 0.4791
vn 0.3272 0.6155 0.7170
vn -0.3608 -0.1091 0.9262
vn -0.3566 0.6155 0.7028
vn -0.8853 0.1419 0.4428
vn 0.3522 0.7059 -0.6146
vn 0.3390 0.9344 0.1089
vn 0.8776 0.4614 -0.1300
vn -0.8715 0.4614 -0.1663
vn -0.3432 0.9345 0.0947
vn -0.3264 0.7059 -0.6286
vn 0.3677 -0.0722 0.9271
vn 0.9282 0.0070 0.3721
vn 0.9276 -0.1307 0.3501
vn 0.3786 -0.3437 0.8594
vn -0.4139 -0.3437 0.8429
vn -0.9413 -0.1306 0.3113
vn -0.9428 0.0070 0.3333
vn -0.4059 -0.0721 0.9111
vn 0.3929 0.3363 -0.8559
vn 0.9229 0.1487 -0.3553
vn 0.9234 0.1221 -0.3640
vn 0.3883 0.2082 -0.8977
vn -0.9073 0.1487 -0.3932
vn -0.3570 0.3363 -0.8714
vn -0.3508 0.2082 -0.9130
vn -0.9075 0.1221 -0.4020
vt 0.573910 0.606264
vt 0.573944 0.591732
vt 0.574039 0.594716
vt 0.574054 0.606264
vt 0.573945 0.591732
vt 0.574040 0.594716
vt 0.574090 0.587397
vt 0.574031 0.582471
vt 0.573922 0.591044
vt 0.573923 0.591044
vt 0.574015 0.581138
vt 0.574014 0.581138
vt 0.574062 0.595400
vt 0.574061 0.595400
vt 0.574106 0.588799
vt 0.574106 0.588799
vt 0.574056 0.606264
vt 0.573911 0.606264
vt 0.574154 0.573404
vt 0.574206 0.576636
vt 0.574205 0.576381
vt 0.574152 0.573149
vt 0.573888 0.606264
vt 0.573887 0.606264
vt 0.574210 0.578921
vt 0.574211 0.579188
vt 0.574030 0.582471
vt 0.574089 0.587397
vt 0.574137 0.574383
vt 0.574191 0.577688
vt 0.574193 0.578127
vt 0.574139 0.574819
vt 0.574121 0.573674
vt 0.574120 0.573410
vt 0.574075 0.606264
vt 0.574077 0.606264
vt 0.573669 0.589125
vt 0.573595 0.575514
vt 0.573508 0.579890
vt 0.573577 0.592451
vt 0.573723 0.606264
vt 0.573690 0.592451
vt 0.573781 0.589125
vt 0.573844 0.606264
vt 0.573712 0.606264
vt 0.573591 0.606264
vt 0.573584 0.606264
vt 0.573572 0.593368
vt 0.573645 0.593368
vt 0.573676 0.606264
vt 0.573786 0.588216
vt 0.573712 0.574329
vt 0.573639 0.574329
vt 0.573713 0.588216
vt 0.573619 0.606264
vt 0.573799 0.606264
vt 0.573780 0.592581
vt 0.573639 0.592580
vt 0.573504 0.581084
vt 0.573577 0.581085
vt 0.573603 0.573240
vt 0.573676 0.573240
vt 0.573589 0.577628
vt 0.573516 0.577628
vt 0.573621 0.579891
vt 0.573708 0.575514
vt 0.573590 0.606264
vt 0.573587 0.606264
vt 0.573606 0.591875
vt 0.573609 0.588970
vt 0.573608 0.576245
vt 0.573605 0.579151
vt 0.573604 0.568741
vt 0.573606 0.563734
vt 0.573783 0.575551
vt 0.573642 0.575551
vt 0.573640 0.562558
vt 0.573781 0.562558
vt 0.573779 0.579857
vt 0.573638 0.579857
vt 0.573813 0.579152
vt 0.573816 0.576245
vt 0.573814 0.563734
vt 0.573811 0.568742
vt 0.573804 0.606264
vt 0.573624 0.606264
vt 0.573643 0.588276
vt 0.573784 0.588276
vt 0.573778 0.569931
vt 0.573636 0.569931
vt 0.573833 0.606264
vt 0.573837 0.606264
vt 0.573817 0.588970
vt 0.573814 0.591875
vt 0.573637 0.566480
vt 0.573778 0.566480
vt 0.573781 0.561466
vt 0.573639 0.561466
vt 0.573760 0.606264
vt 0.573853 0.606264
s 1
usemtl Graveyard
f 10/1/10 12/2/12 3/3/3 1/4/1
f 15/5/15 8/6/8 20/7/20 23/8/23
f 11/9/11 16/10/16 24/11/24 21/12/21
f 7/13/7 4/14/4 18/15/18 19/16/19
f 6/17/6 8/6/8 15/5/15 13/18/13
f 35/19/35 29/20/29 27/21/27 32/22/32
f 14/23/14 16/10/16 11/9/11 9/24/9
f 19/16/19 18/15/18 25/25/25 28/26/28
f 3/3/3 12/2/12 22/27/22 17/28/17
f 17/28/17 22/27/22 33/29/33 26/30/26
f 23/8/23 20/7/20 30/31/30 34/32/34
f 21/12/21 24/11/24 36/33/36 31/34/31
f 25/25/25 26/30/26 27/21/27
f 28/26/28 29/20/29 30/31/30
f 31/34/31 32/22/32 33/29/33
f 34/32/34 35/19/35 36/33/36
f 1/4/1 3/3/3 4/14/4 2/35/2
f 8/6/8 6/17/6 5/36/5 7/13/7
f 16/10/16 14/23/14 13/18/13 15/5/15
f 12/2/12 10/1/10 9/24/9 11/9/11
f 11/9/11 21/12/21 22/27/22 12/2/12
f 18/15/18 4/14/4 3/3/3 17/28/17
f 7/13/7 19/16/19 20/7/20 8/6/8
f 24/11/24 16/10/16 15/5/15 23/8/23
f 27/21/27 29/20/29 28/26/28 25/25/25
f 29/20/29 35/19/35 34/32/34 30/31/30
f 35/19/35 32/22/32 31/34/31 36/33/36
f 32/22/32 27/21/27 26/30/26 33/29/33
f 23/8/23 34/32/34 36/33/36 24/11/24
f 33/29/33 22/27/22 21/12/21 31/34/31
f 17/28/17 26/30/26 25/25/25 18/15/18
f 30/31/30 20/7/20 19/16/19 28/26/28
f 2/35/2 4/14/4 7/13/7 5/36/5
f 47/37/47 57/38/57 62/39/62 52/40/52
f 41/41/41 49/42/49 46/43/46 38/44/38
f 39/45/39 47/37/47 52/40/52 44/46/44
f 43/47/43 51/48/51 50/49/50 42/50/42
f 45/51/45 53/52/53 56/53/56 48/54/48
f 67/55/67 66/56/66 85/57/85 92/58/92
f 51/48/51 63/59/63 59/60/59 50/49/50
f 58/61/58 54/62/54 61/63/61 64/64/64
f 49/42/49 60/65/60 55/66/55 46/43/46
f 71/67/71 68/68/68 91/69/91 100/70/100
f 97/71/97 90/72/90 78/73/78 82/74/82
f 93/75/93 98/76/98 84/77/84 79/78/79
f 92/58/92 85/57/85 88/79/88 89/80/89
f 87/81/87 94/82/94 81/83/81 74/84/74
f 69/85/69 72/86/72 99/87/99 96/88/96
f 89/80/89 88/79/88 73/89/73 76/90/76
f 65/91/65 70/92/70 95/93/95 86/94/86
f 86/94/86 95/93/95 94/82/94 87/81/87
f 96/88/96 99/87/99 98/76/98 93/75/93
f 100/70/100 91/69/91 90/72/90 97/71/97
f 77/95/77 75/96/75 80/97/80 83/98/83
f 53/52/53 55/66/55 54/62/54
f 56/53/56 58/61/58 57/38/57
f 59/60/59 61/63/61 60/65/60
f 62/39/62 64/64/64 63/59/63
f 73/89/73 74/84/74 75/96/75
f 76/90/76 77/95/77 78/73/78
f 79/78/79 80/97/80 81/83/81
f 82/74/82 83/98/83 84/77/84
f 39/45/39 40/99/40 48/54/48 47/37/47
f 46/43/46 45/51/45 37/100/37 38/44/38
f 50/49/50 49/42/49 41/41/41 42/50/42
f 43/47/43 44/46/44 52/40/52 51/48/51
f 58/61/58 56/53/56 53/52/53 54/62/54
f 64/64/64 62/39/62 57/38/57 58/61/58
f 61/63/61 59/60/59 63/59/63 64/64/64
f 54/62/54 55/66/55 60/65/60 61/63/61
f 45/51/45 46/43/46 55/66/55 53/52/53
f 59/60/59 60/65/60 49/42/49 50/49/50
f 51/48/51 52/40/52 62/39/62 63/59/63
f 56/53/56 57/38/57 47/37/47 48/54/48
f 76/90/76 73/89/73 75/96/75 77/95/77
f 82/74/82 78/73/78 77/95/77 83/98/83
f 79/78/79 84/77/84 83/98/83 80/97/80
f 74/84/74 81/83/81 80/97/80 75/96/75
f 90/72/90 91/69/91 92/58/92 89/80/89
f 86/94/86 87/81/87 88/79/88 85/57/85
f 98/76/98 99/87/99 100/70/100 97/71/97
f 94/82/94 95/93/95 96/88/96 93/75/93
f 78/73/78 90/72/90 89/80/89 76/90/76
f 87/81/87 74/84/74 73/89/73 88/79/88
f 91/69/91 68/68/68 67/55/67 92/58/92
f 65/91/65 86/94/86 85/57/85 66/56/66
f 93/75/93 79/78/79 81/83/81 94/82/94
f 69/85/69 96/88/96 95/93/95 70/92/70
f 84/77/84 98/76/98 97/71/97 82/74/82
f 99/87/99 72/86/72 71/67/71 100/70/100
f 37/100/37 45/51/45 48/54/48 40/99/40
