# Blender 4.1.1
# www.blender.org
mtllib Grass_3_1.mtl
o Grass_3_1
v -0.015270 0.000000 -0.042284
v -0.017846 -0.000000 -0.057477
v -0.060180 0.000000 -0.000505
v -0.044904 0.000000 -0.002406
v -0.056877 0.000000 -0.086481
v -0.071834 -0.000000 -0.084315
v -0.101453 0.000000 -0.044456
v -0.099166 0.000000 -0.029475
v -0.036272 0.074554 -0.051435
v -0.038154 0.071068 -0.066082
v -0.073852 0.069754 -0.015835
v -0.059696 0.073476 -0.018309
v -0.067523 0.057277 -0.087906
v -0.081976 0.053475 -0.085368
v -0.105387 0.053476 -0.053865
v -0.103693 0.056935 -0.039047
v -0.060411 0.132332 -0.069375
v -0.071906 0.136848 -0.077917
v -0.061650 0.127507 -0.083544
v -0.083793 0.132043 -0.037539
v -0.097666 0.127147 -0.034592
v -0.095282 0.136611 -0.046281
v -0.103500 0.104407 -0.101364
v -0.089535 0.109358 -0.104265
v -0.099897 0.118740 -0.098717
v -0.125668 0.109247 -0.055649
v -0.126911 0.104408 -0.069860
v -0.123305 0.118655 -0.067142
v -0.042190 0.000000 0.104417
v -0.057773 -0.000000 0.103581
v -0.084773 0.000000 0.074712
v -0.083886 0.000000 0.059902
v -0.008692 0.000000 0.062308
v -0.010323 0.000000 0.077606
v -0.050398 0.000000 0.031199
v -0.034871 0.000000 0.031928
v -0.085608 0.114270 0.112488
v -0.070926 0.117002 0.115405
v -0.079647 0.127229 0.108187
v -0.099973 0.114060 0.093915
v -0.093071 0.126590 0.089002
v -0.097577 0.116156 0.079179
v -0.047860 0.125860 0.086424
v -0.059575 0.133012 0.094528
v -0.049839 0.123856 0.100611
v -0.078555 0.120861 0.065239
v -0.074403 0.131864 0.075743
v -0.063357 0.123802 0.067547
v -0.068180 0.045894 0.103299
v -0.052528 0.047422 0.104590
v -0.063677 0.087283 0.110923
v -0.079349 0.086506 0.109067
v -0.095135 0.087094 0.090486
v -0.093414 0.087735 0.075853
v -0.086078 0.048222 0.069068
v -0.086973 0.046602 0.083442
v -0.037081 0.090801 0.078715
v -0.038837 0.090225 0.093007
v -0.026331 0.053135 0.084017
v -0.025299 0.054709 0.069735
v -0.070520 0.088759 0.058515
v -0.054445 0.089638 0.059664
v -0.044797 0.054031 0.049356
v -0.060555 0.052401 0.048436
v 0.033800 -0.000000 -0.042023
v 0.046087 -0.000000 -0.051310
v 0.000542 -0.000000 -0.058679
v 0.009273 -0.000000 -0.045992
v 0.049915 -0.000000 -0.074967
v 0.041104 -0.000000 -0.087245
v 0.016603 -0.000000 -0.091209
v 0.004370 -0.000000 -0.082336
v 0.032803 0.048646 -0.057044
v 0.044909 0.044878 -0.065212
v 0.006045 0.044879 -0.071500
v 0.014957 0.048647 -0.059931
v 0.047585 0.038562 -0.081752
v 0.038675 0.034760 -0.093412
v 0.020854 0.034761 -0.096296
v 0.008722 0.038563 -0.088041
v 0.035632 0.082773 -0.074517
v 0.037931 0.087289 -0.088653
v 0.047642 0.077860 -0.082100
v 0.017785 0.082774 -0.077405
v 0.008779 0.077861 -0.088389
v 0.020062 0.087290 -0.091544
v 0.041184 0.064575 -0.108908
v 0.050191 0.069526 -0.097849
v 0.040493 0.078908 -0.104491
v 0.011327 0.069527 -0.104138
v 0.023361 0.064575 -0.111792
v 0.022624 0.078909 -0.107382
v -0.000479 -0.000000 0.035775
v 0.002267 -0.000000 0.050699
v 0.042966 -0.000000 -0.007452
v 0.028014 -0.000000 -0.004937
v 0.042584 -0.000000 0.078916
v 0.057253 -0.000000 0.076185
v 0.085740 -0.000000 0.035484
v 0.083234 -0.000000 0.020731
v 0.020775 0.095509 0.044324
v 0.022832 0.091187 0.058739
v 0.057088 0.089490 0.007489
v 0.043253 0.094127 0.010540
v 0.053262 0.073252 0.080036
v 0.067422 0.068505 0.076948
v 0.089939 0.068506 0.044778
v 0.088025 0.072826 0.030173
v 0.046156 0.171763 0.062089
v 0.056668 0.175706 0.069443
v 0.047497 0.165560 0.076003
v 0.068616 0.171372 0.029626
v 0.082108 0.165108 0.026082
v 0.079148 0.175383 0.037163
v 0.090139 0.135972 0.092849
v 0.076402 0.141950 0.096233
v 0.086202 0.151722 0.090112
v 0.111145 0.141834 0.046614
v 0.112656 0.135973 0.060678
v 0.108690 0.151632 0.057876
vn 0.9303 0.2884 0.2265
vn 0.8585 0.1903 -0.4762
vn -0.2111 0.1754 0.9616
vn 0.4954 0.2809 0.8220
vn 0.2776 0.0223 -0.9604
vn -0.4801 -0.1096 -0.8703
vn -0.9716 -0.1104 -0.2095
vn -0.8422 0.0152 0.5389
vn 0.9084 0.3600 0.2127
vn 0.8374 0.1848 -0.5143
vn -0.2552 0.1825 0.9495
vn 0.4688 0.3582 0.8074
vn 0.2872 -0.0718 -0.9552
vn -0.4724 -0.2735 -0.8379
vn -0.9375 -0.2752 -0.2130
vn -0.8362 -0.0743 0.5434
vn 0.6995 0.7083 0.0948
vn 0.1207 0.9358 -0.3312
vn 0.6381 0.4622 -0.6158
vn 0.2925 0.7103 0.6402
vn -0.4091 0.4648 0.7852
vn -0.2847 0.9343 0.2144
vn -0.5455 -0.1043 -0.8316
vn 0.1532 0.1446 -0.9776
vn -0.3653 0.6191 -0.6952
vn -0.8945 0.1455 0.4227
vn -0.9531 -0.1033 -0.2845
vn -0.7714 0.6193 -0.1460
vn 0.3431 0.0611 0.9373
vn -0.3823 -0.0841 0.9202
vn -0.9496 -0.0996 0.2973
vn -0.8707 0.0560 -0.4886
vn 0.8975 0.3227 -0.3006
vn 0.8798 0.2231 0.4197
vn -0.2634 0.2512 -0.9314
vn 0.4014 0.3402 -0.8504
vn -0.5463 0.1267 0.8280
vn 0.1640 0.2541 0.9532
vn -0.2566 0.7736 0.5794
vn -0.9480 0.1429 0.2843
vn -0.6307 0.7758 0.0167
vn -0.8425 0.2685 -0.4670
vn 0.7575 0.6184 -0.2092
vn 0.2488 0.9501 0.1882
vn 0.6872 0.4634 0.5594
vn -0.3356 0.4188 -0.8438
vn -0.1314 0.9213 -0.3660
vn 0.3399 0.5787 -0.7413
vn -0.4321 -0.1678 0.8861
vn 0.2980 -0.0079 0.9545
vn 0.2547 -0.0828 0.9635
vn -0.4593 -0.2261 0.8590
vn -0.9354 -0.2220 0.2754
vn -0.8670 -0.0759 -0.4924
vn -0.8820 -0.0126 -0.4711
vn -0.9305 -0.1769 0.3208
vn 0.8959 0.3481 -0.2760
vn 0.8415 0.1610 0.5157
vn 0.8578 0.1973 0.4747
vn 0.8901 0.3419 -0.3013
vn -0.2991 0.1492 -0.9425
vn 0.3973 0.3310 -0.8559
vn 0.3971 0.3458 -0.8502
vn -0.3136 0.2064 -0.9269
vn 0.2224 0.2928 0.9300
vn 0.8169 0.1916 0.5440
vn -0.9468 0.1916 0.2586
vn -0.5043 0.2928 0.8124
vn 0.9804 0.0218 -0.1959
vn 0.5514 -0.1103 -0.8269
vn -0.2625 -0.1103 -0.9586
vn -0.8686 0.0218 -0.4951
vn 0.2255 0.3607 0.9050
vn 0.8413 0.1853 0.5079
vn -0.9585 0.1853 0.2166
vn -0.4994 0.3607 0.7877
vn 0.9801 -0.0721 -0.1847
vn 0.5261 -0.2739 -0.8051
vn -0.2453 -0.2738 -0.9300
vn -0.8719 -0.0721 -0.4844
vn 0.2376 0.7070 0.6661
vn 0.3535 0.9343 -0.0460
vn 0.8409 0.4608 0.2838
vn -0.4355 0.7070 0.5572
vn -0.8875 0.4609 0.0041
vn -0.3209 0.9343 -0.1552
vn 0.4871 -0.1050 -0.8670
vn 0.9384 0.1439 -0.3141
vn 0.4510 0.6168 -0.6451
vn -0.7915 0.1440 -0.5940
vn -0.1888 -0.1050 -0.9764
vn -0.2245 0.6168 -0.7544
vn -0.9510 0.2290 -0.2076
vn -0.8492 0.1491 0.5066
vn 0.1876 0.1374 -0.9726
vn -0.5302 0.2228 -0.8180
vn -0.2358 0.0154 0.9717
vn 0.5185 -0.0875 0.8506
vn 0.9765 -0.0881 0.1966
vn 0.8348 0.0099 -0.5504
vn -0.9360 0.2913 -0.1975
vn -0.8322 0.1442 0.5354
vn 0.2223 0.1423 -0.9645
vn -0.5095 0.2901 -0.8101
vn -0.2490 -0.0628 0.9665
vn 0.5121 -0.2160 0.8313
vn 0.9556 -0.2175 0.1986
vn 0.8273 -0.0648 -0.5580
vn -0.7262 0.6831 -0.0775
vn -0.0804 0.9263 0.3681
vn -0.6174 0.4370 0.6540
vn -0.3211 0.6833 -0.6557
vn 0.4052 0.4392 -0.8018
vn 0.3216 0.9241 -0.2064
vn 0.5716 -0.0676 0.8177
vn -0.1142 0.1466 0.9826
vn 0.4139 0.5813 0.7006
vn 0.8868 0.1479 -0.4378
vn 0.9635 -0.0666 0.2594
vn 0.8003 0.5818 0.1450
vt 0.787100 0.630808
vt 0.787224 0.607415
vt 0.787371 0.614711
vt 0.787256 0.636034
vt 0.787011 0.659241
vt 0.787067 0.635894
vt 0.786913 0.630273
vt 0.786807 0.659241
vt 0.787028 0.659241
vt 0.787232 0.659241
vt 0.787244 0.659241
vt 0.787265 0.637444
vt 0.787142 0.637444
vt 0.787089 0.659241
vt 0.786903 0.628852
vt 0.787029 0.605301
vt 0.787152 0.605419
vt 0.787026 0.629292
vt 0.787157 0.659241
vt 0.787016 0.659241
vt 0.787070 0.640534
vt 0.787168 0.640245
vt 0.787377 0.616683
vt 0.787255 0.616683
vt 0.787212 0.603557
vt 0.787090 0.603460
vt 0.787236 0.610841
vt 0.787358 0.610876
vt 0.787182 0.614665
vt 0.787036 0.607268
vt 0.786977 0.659241
vt 0.787152 0.659241
vt 0.787164 0.639585
vt 0.787030 0.637882
vt 0.787082 0.623062
vt 0.787202 0.623479
vt 0.787224 0.611895
vt 0.787124 0.609977
vt 0.786908 0.622229
vt 0.786998 0.622704
vt 0.787045 0.608778
vt 0.786964 0.607939
vt 0.787128 0.623980
vt 0.787211 0.623741
vt 0.787047 0.623663
vt 0.786917 0.622464
vt 0.786974 0.608756
vt 0.787084 0.611550
vt 0.786759 0.659241
vt 0.786896 0.659241
vt 0.786948 0.637217
vt 0.786846 0.636941
vt 0.787161 0.612664
vt 0.787236 0.612749
vt 0.786934 0.659241
vt 0.786768 0.659241
vt 0.786851 0.637583
vt 0.786988 0.639911
vt 0.786537 0.659241
vt 0.786542 0.639412
vt 0.786636 0.639412
vt 0.786665 0.659241
vt 0.787200 0.607642
vt 0.787130 0.607381
vt 0.787025 0.605024
vt 0.787103 0.605492
vt 0.786682 0.640948
vt 0.786668 0.627504
vt 0.786655 0.630901
vt 0.786668 0.643522
vt 0.786453 0.659241
vt 0.786465 0.643523
vt 0.786479 0.640948
vt 0.786473 0.659241
vt 0.786711 0.659241
vt 0.786691 0.659241
vt 0.786627 0.659241
vt 0.786605 0.645072
vt 0.786512 0.645072
vt 0.786499 0.659241
vt 0.786527 0.625502
vt 0.786621 0.625502
vt 0.786716 0.659241
vt 0.786605 0.620311
vt 0.786488 0.620874
vt 0.786567 0.659241
vt 0.786592 0.632919
vt 0.786498 0.632920
vt 0.786609 0.623661
vt 0.786515 0.623661
vt 0.786502 0.627077
vt 0.786595 0.627077
vt 0.786451 0.630901
vt 0.786465 0.627504
vt 0.786415 0.622764
vt 0.786285 0.591942
vt 0.786133 0.601428
vt 0.786254 0.629556
vt 0.786491 0.659241
vt 0.786435 0.629383
vt 0.786594 0.622072
vt 0.786702 0.659241
vt 0.786489 0.659241
vt 0.786279 0.659241
vt 0.786266 0.659241
vt 0.786244 0.631317
vt 0.786361 0.631317
vt 0.786415 0.659241
vt 0.786472 0.589229
vt 0.786355 0.589388
vt 0.786125 0.603817
vt 0.786243 0.603818
vt 0.786300 0.587753
vt 0.786418 0.587622
vt 0.786263 0.597398
vt 0.786146 0.597434
vt 0.786314 0.601381
vt 0.786465 0.591757
vt 0.786948 0.659241
vt 0.786794 0.659241
s 1
usemtl Graveyard
f 11/1/11 21/2/21 26/3/26 16/4/16
f 5/5/5 13/6/13 10/7/10 2/8/2
f 3/9/3 11/1/11 16/4/16 8/10/8
f 7/11/7 15/12/15 14/13/14 6/14/6
f 9/15/9 17/16/17 20/17/20 12/18/12
f 31/19/31 30/20/30 49/21/49 56/22/56
f 15/12/15 27/23/27 23/24/23 14/13/14
f 22/25/22 18/26/18 25/27/25 28/28/28
f 13/6/13 24/29/24 19/30/19 10/7/10
f 35/31/35 32/32/32 55/33/55 64/34/64
f 61/35/61 54/36/54 42/37/42 46/38/46
f 57/39/57 62/40/62 48/41/48 43/42/43
f 56/22/56 49/21/49 52/43/52 53/44/53
f 51/45/51 58/46/58 45/47/45 38/48/38
f 33/49/33 36/50/36 63/51/63 60/52/60
f 53/44/53 52/43/52 37/53/37 40/54/40
f 29/55/29 34/56/34 59/57/59 50/58/50
f 50/58/50 59/57/59 58/46/58 51/45/51
f 60/52/60 63/51/63 62/40/62 57/39/57
f 65/59/65 73/60/73 76/61/76 68/62/68
f 64/34/64 55/33/55 54/36/54 61/35/61
f 41/63/41 39/64/39 44/65/44 47/66/47
f 75/67/75 85/68/85 90/69/90 80/70/80
f 69/71/69 77/72/77 74/73/74 66/74/66
f 67/75/67 75/67/75 80/70/80 72/76/72
f 71/77/71 79/78/79 78/79/78 70/80/70
f 73/60/73 81/81/81 84/82/84 76/61/76
f 93/83/93 101/84/101 104/85/104 96/86/96
f 79/78/79 91/87/91 87/88/87 78/79/78
f 86/89/86 82/90/82 89/91/89 92/92/92
f 77/72/77 88/93/88 83/94/83 74/73/74
f 103/95/103 113/96/113 118/97/118 108/98/108
f 97/99/97 105/100/105 102/101/102 94/102/94
f 95/103/95 103/95/103 108/98/108 100/104/100
f 99/105/99 107/106/107 106/107/106 98/108/98
f 101/84/101 109/109/109 112/110/112 104/85/104
f 107/106/107 119/111/119 115/112/115 106/107/106
f 114/113/114 110/114/110 117/115/117 120/116/120
f 105/100/105 116/117/116 111/118/111 102/101/102
f 17/16/17 19/30/19 18/26/18
f 20/17/20 22/25/22 21/2/21
f 23/24/23 25/27/25 24/29/24
f 26/3/26 28/28/28 27/23/27
f 37/53/37 38/48/38 39/64/39
f 40/54/40 41/63/41 42/37/42
f 43/42/43 44/65/44 45/47/45
f 46/38/46 47/66/47 48/41/48
f 81/81/81 83/94/83 82/90/82
f 84/82/84 86/89/86 85/68/85
f 87/88/87 89/91/89 88/93/88
f 90/69/90 92/92/92 91/87/91
f 109/109/109 111/118/111 110/114/110
f 112/110/112 114/113/114 113/96/113
f 115/112/115 117/115/117 116/117/116
f 118/97/118 120/116/120 119/111/119
f 3/9/3 4/119/4 12/18/12 11/1/11
f 10/7/10 9/15/9 1/120/1 2/8/2
f 14/13/14 13/6/13 5/5/5 6/14/6
f 7/11/7 8/10/8 16/4/16 15/12/15
f 22/25/22 20/17/20 17/16/17 18/26/18
f 28/28/28 26/3/26 21/2/21 22/25/22
f 25/27/25 23/24/23 27/23/27 28/28/28
f 18/26/18 19/30/19 24/29/24 25/27/25
f 9/15/9 10/7/10 19/30/19 17/16/17
f 23/24/23 24/29/24 13/6/13 14/13/14
f 15/12/15 16/4/16 26/3/26 27/23/27
f 20/17/20 21/2/21 11/1/11 12/18/12
f 40/54/40 37/53/37 39/64/39 41/63/41
f 46/38/46 42/37/42 41/63/41 47/66/47
f 43/42/43 48/41/48 47/66/47 44/65/44
f 38/48/38 45/47/45 44/65/44 39/64/39
f 54/36/54 55/33/55 56/22/56 53/44/53
f 50/58/50 51/45/51 52/43/52 49/21/49
f 62/40/62 63/51/63 64/34/64 61/35/61
f 58/46/58 59/57/59 60/52/60 57/39/57
f 42/37/42 54/36/54 53/44/53 40/54/40
f 51/45/51 38/48/38 37/53/37 52/43/52
f 55/33/55 32/32/32 31/19/31 56/22/56
f 29/55/29 50/58/50 49/21/49 30/20/30
f 57/39/57 43/42/43 45/47/45 58/46/58
f 33/49/33 60/52/60 59/57/59 34/56/34
f 48/41/48 62/40/62 61/35/61 46/38/46
f 63/51/63 36/50/36 35/31/35 64/34/64
f 67/75/67 68/62/68 76/61/76 75/67/75
f 74/73/74 73/60/73 65/59/65 66/74/66
f 78/79/78 77/72/77 69/71/69 70/80/70
f 71/77/71 72/76/72 80/70/80 79/78/79
f 86/89/86 84/82/84 81/81/81 82/90/82
f 92/92/92 90/69/90 85/68/85 86/89/86
f 89/91/89 87/88/87 91/87/91 92/92/92
f 82/90/82 83/94/83 88/93/88 89/91/89
f 73/60/73 74/73/74 83/94/83 81/81/81
f 87/88/87 88/93/88 77/72/77 78/79/78
f 79/78/79 80/70/80 90/69/90 91/87/91
f 84/82/84 85/68/85 75/67/75 76/61/76
f 95/103/95 96/86/96 104/85/104 103/95/103
f 102/101/102 101/84/101 93/83/93 94/102/94
f 106/107/106 105/100/105 97/99/97 98/108/98
f 99/105/99 100/104/100 108/98/108 107/106/107
f 114/113/114 112/110/112 109/109/109 110/114/110
f 120/116/120 118/97/118 113/96/113 114/113/114
f 117/115/117 115/112/115 119/111/119 120/116/120
f 110/114/110 111/118/111 116/117/116 117/115/117
f 101/84/101 102/101/102 111/118/111 109/109/109
f 115/112/115 116/117/116 105/100/105 106/107/106
f 107/106/107 108/98/108 118/97/118 119/111/119
f 112/110/112 113/96/113 103/95/103 104/85/104
f 1/120/1 9/15/9 12/18/12 4/119/4
