# Blender 4.1.1
# www.blender.org
mtllib Grass_1_3.mtl
o Grass_1_3
v 0.082088 -0.000000 0.018829
v 0.083489 -0.000000 0.028658
v 0.074360 0.047885 0.021212
v 0.075974 0.045049 0.031186
v 0.057547 -0.000000 0.066556
v 0.047877 -0.000000 0.068807
v 0.057184 0.045049 0.058636
v 0.047302 0.047885 0.060740
v 0.033522 -0.000000 -0.005569
v 0.043849 -0.000000 -0.007347
v 0.039375 0.063109 0.006110
v 0.049279 0.060257 0.004044
v 0.009638 -0.000000 0.042631
v 0.007558 -0.000000 0.032361
v 0.022221 0.060258 0.043571
v 0.020564 0.063109 0.033590
v 0.081655 0.090421 0.028033
v 0.084169 0.087926 0.038205
v 0.068953 0.087738 0.062605
v 0.058696 0.090137 0.064850
v 0.049270 0.101305 0.016523
v 0.059210 0.099024 0.014102
v 0.036250 0.098740 0.050918
v 0.034034 0.101117 0.040953
v 0.098912 0.126038 0.050877
v 0.096534 0.128901 0.040964
v 0.094711 0.135704 0.048980
v 0.087331 0.126013 0.070403
v 0.083641 0.135680 0.067645
v 0.077489 0.128859 0.073075
v 0.069491 0.139748 0.033566
v 0.077510 0.143748 0.038788
v 0.078866 0.137125 0.030637
v 0.059945 0.137084 0.062539
v 0.066440 0.143724 0.057454
v 0.058016 0.139723 0.052914
v -0.015270 0.000000 -0.042284
v -0.017846 -0.000000 -0.057477
v -0.060180 0.000000 -0.000505
v -0.044904 0.000000 -0.002406
v -0.056877 0.000000 -0.086481
v -0.071834 -0.000000 -0.084315
v -0.101453 0.000000 -0.044456
v -0.099166 0.000000 -0.029476
v -0.036272 0.074554 -0.051435
v -0.038154 0.071068 -0.066082
v -0.073852 0.069754 -0.015835
v -0.059696 0.073476 -0.018309
v -0.067523 0.057277 -0.087906
v -0.081976 0.053475 -0.085368
v -0.105387 0.053476 -0.053865
v -0.103693 0.056935 -0.039047
v -0.060411 0.132332 -0.069375
v -0.071906 0.136848 -0.077917
v -0.061650 0.127507 -0.083544
v -0.083793 0.132043 -0.037539
v -0.097666 0.127147 -0.034592
v -0.095282 0.136611 -0.046281
v -0.103500 0.104407 -0.101365
v -0.089535 0.109358 -0.104265
v -0.099897 0.118740 -0.098717
v -0.125668 0.109247 -0.055649
v -0.126911 0.104408 -0.069860
v -0.123305 0.118655 -0.067142
v -0.030599 -0.000000 0.081882
v -0.041581 -0.000000 0.092971
v -0.081096 -0.000000 0.093957
v -0.091572 -0.000000 0.083451
v -0.039798 -0.000000 0.028867
v -0.029452 -0.000000 0.040254
v -0.090761 -0.000000 0.039353
v -0.079897 -0.000000 0.028236
v -0.053426 0.114270 0.119688
v -0.041488 0.117002 0.110657
v -0.052677 0.127229 0.112376
v -0.076850 0.114060 0.118077
v -0.075934 0.126590 0.109655
v -0.086269 0.116156 0.106493
v -0.047812 0.125860 0.074161
v -0.049543 0.133012 0.088300
v -0.038526 0.123856 0.085069
v -0.084041 0.120861 0.083016
v -0.073433 0.131864 0.086894
v -0.072216 0.123802 0.073193
v -0.048708 0.045894 0.100559
v -0.037341 0.047422 0.089722
v -0.040019 0.087283 0.102262
v -0.051821 0.086506 0.112738
v -0.076196 0.087094 0.112183
v -0.085986 0.087735 0.101172
v -0.086180 0.048222 0.091181
v -0.076036 0.046602 0.101403
v -0.046407 0.090801 0.060983
v -0.036896 0.090225 0.071794
v -0.035302 0.053135 0.056475
v -0.045287 0.054709 0.046211
v -0.083725 0.088759 0.072542
v -0.072183 0.089638 0.061295
v -0.073472 0.054031 0.047236
v -0.084633 0.052401 0.058399
v 0.032822 0.000000 -0.045543
v 0.045669 0.000000 -0.054038
v 0.000677 0.000000 -0.064258
v 0.008593 0.000000 -0.051046
v 0.050977 0.000000 -0.077407
v 0.042956 -0.000000 -0.090216
v 0.018753 0.000000 -0.095713
v 0.005985 0.000000 -0.087627
v 0.032772 0.048646 -0.060596
v 0.045367 0.044878 -0.067987
v 0.006976 0.044879 -0.076707
v 0.015143 0.048647 -0.064601
v 0.049079 0.038562 -0.084326
v 0.040919 0.034760 -0.096523
v 0.023315 0.034761 -0.100522
v 0.010687 0.038563 -0.093047
v 0.036693 0.082773 -0.077857
v 0.039877 0.087289 -0.091820
v 0.049157 0.077860 -0.084669
v 0.019064 0.082774 -0.081862
v 0.010766 0.077861 -0.093390
v 0.022225 0.087290 -0.095830
v 0.044398 0.064575 -0.111831
v 0.052691 0.069526 -0.100227
v 0.043431 0.078908 -0.107466
v 0.014300 0.069527 -0.108948
v 0.026792 0.064576 -0.115830
v 0.025779 0.078909 -0.111475
vn 0.8525 0.1545 -0.4993
vn 0.9659 0.1474 0.2128
vn 0.8204 0.0513 -0.5695
vn 0.9793 -0.0196 0.2013
vn 0.5479 0.1474 0.8235
vn -0.1570 0.1545 0.9754
vn 0.5527 -0.0196 0.8331
vn -0.2201 0.0511 0.9741
vn -0.5205 0.2027 -0.8295
vn 0.1960 0.1710 -0.9656
vn -0.5236 0.2777 -0.8054
vn 0.2077 0.1760 -0.9622
vn -0.8292 0.1710 0.5321
vn -0.9616 0.2027 -0.1850
vn -0.8136 0.1756 0.5542
vn -0.9435 0.2771 -0.1820
vn 0.7899 -0.0599 -0.6103
vn 0.9475 -0.2992 0.1130
vn 0.5122 -0.3051 0.8028
vn -0.2100 -0.0735 0.9749
vn -0.4888 0.4502 -0.7473
vn 0.2013 0.2485 -0.9475
vn -0.7709 0.2344 0.5922
vn -0.8884 0.4445 -0.1150
vn 0.9815 -0.0157 0.1906
vn 0.8343 0.2232 -0.5042
vn 0.7081 0.7049 0.0422
vn 0.6278 -0.0197 0.7781
vn 0.3758 0.7041 0.6025
vn -0.0576 0.2121 0.9756
vn -0.3477 0.7329 -0.5848
vn 0.1806 0.9460 -0.2691
vn 0.3227 0.5131 -0.7954
vn -0.5572 0.5012 0.6621
vn -0.1507 0.9453 0.2894
vn -0.6849 0.7282 -0.0273
vn 0.9303 0.2884 0.2265
vn 0.8585 0.1903 -0.4762
vn -0.2111 0.1754 0.9616
vn 0.4954 0.2809 0.8220
vn 0.2776 0.0223 -0.9604
vn -0.4801 -0.1096 -0.8703
vn -0.9716 -0.1104 -0.2095
vn -0.8422 0.0152 0.5389
vn 0.9084 0.3600 0.2127
vn 0.8374 0.1848 -0.5143
vn -0.2552 0.1825 0.9495
vn 0.4688 0.3582 0.8074
vn 0.2872 -0.0718 -0.9552
vn -0.4724 -0.2735 -0.8379
vn -0.9375 -0.2752 -0.2130
vn -0.8362 -0.0743 0.5434
vn 0.6995 0.7083 0.0948
vn 0.1207 0.9358 -0.3312
vn 0.6381 0.4622 -0.6158
vn 0.2925 0.7103 0.6402
vn -0.4091 0.4648 0.7852
vn -0.2847 0.9343 0.2144
vn -0.5455 -0.1043 -0.8316
vn 0.1532 0.1446 -0.9776
vn -0.3653 0.6191 -0.6952
vn -0.8945 0.1455 0.4227
vn -0.9531 -0.1033 -0.2845
vn -0.7714 0.6193 -0.1460
vn 0.9284 0.0611 0.3666
vn 0.4335 -0.0841 0.8972
vn -0.4090 -0.0996 0.9071
vn -0.9438 0.0560 0.3258
vn 0.3719 0.3227 -0.8704
vn 0.8984 0.2231 -0.3784
vn -0.8710 0.2512 -0.4223
vn -0.3686 0.3402 -0.8651
vn 0.2556 0.1267 0.9584
vn 0.8212 0.2541 0.5110
vn 0.2624 0.7736 0.5768
vn -0.4177 0.1429 0.8973
vn -0.4067 0.7758 0.4824
vn -0.9089 0.2685 0.3191
vn 0.3472 0.6184 -0.7050
vn 0.3060 0.9501 -0.0609
vn 0.8747 0.4634 -0.1417
vn -0.8535 0.4188 -0.3100
vn -0.3608 0.9213 -0.1451
vn -0.3280 0.5787 -0.7466
vn 0.3749 -0.1678 0.9118
vn 0.9113 -0.0079 0.4117
vn 0.8892 -0.0828 0.4500
vn 0.3366 -0.2261 0.9141
vn -0.4159 -0.2220 0.8819
vn -0.9442 -0.0758 0.3206
vn -0.9382 -0.0126 0.3459
vn -0.3787 -0.1769 0.9084
vn 0.3892 0.3481 -0.8528
vn 0.9446 0.1610 -0.2860
vn 0.9248 0.1973 -0.3254
vn 0.3665 0.3419 -0.8653
vn -0.9030 0.1492 -0.4029
vn -0.3755 0.3310 -0.8657
vn -0.3713 0.3458 -0.8617
vn -0.9009 0.2064 -0.3817
vn 0.1634 0.2928 0.9421
vn 0.7811 0.1916 0.5943
vn -0.9612 0.1916 0.1985
vn -0.5544 0.2928 0.7791
vn 0.9908 0.0218 -0.1338
vn 0.6023 -0.1103 -0.7906
vn -0.2017 -0.1103 -0.9732
vn -0.8357 0.0218 -0.5487
vn 0.1681 0.3607 0.9174
vn 0.8077 0.1853 0.5598
vn -0.9702 0.1853 0.1559
vn -0.5479 0.3607 0.7548
vn 0.9898 -0.0721 -0.1227
vn 0.5757 -0.2739 -0.7704
vn -0.1864 -0.2738 -0.9435
vn -0.8397 -0.0721 -0.5383
vn 0.1953 0.7070 0.6797
vn 0.3557 0.9343 -0.0237
vn 0.8214 0.4608 0.3362
vn -0.4697 0.7070 0.5287
vn -0.8860 0.4609 -0.0517
vn -0.3105 0.9343 -0.1750
vn 0.5406 -0.1050 -0.8347
vn 0.9563 0.1439 -0.2544
vn 0.4907 0.6168 -0.6155
vn -0.7526 0.1440 -0.6426
vn -0.1270 -0.1049 -0.9863
vn -0.1766 0.6168 -0.7671
vt 0.683855 0.654859
vt 0.683876 0.625333
vt 0.683971 0.631396
vt 0.684001 0.654859
vt 0.683772 0.625333
vt 0.683868 0.631395
vt 0.683912 0.610692
vt 0.683826 0.606476
vt 0.683838 0.623936
vt 0.683766 0.623936
vt 0.683817 0.605311
vt 0.683876 0.605220
vt 0.683906 0.632785
vt 0.683977 0.632785
vt 0.684009 0.611776
vt 0.683951 0.611868
vt 0.683870 0.654859
vt 0.683724 0.654859
vt 0.683941 0.584434
vt 0.684007 0.588376
vt 0.684049 0.588364
vt 0.683983 0.584422
vt 0.683716 0.654859
vt 0.683815 0.654859
vt 0.684065 0.593100
vt 0.684021 0.593113
vt 0.683914 0.606337
vt 0.683999 0.610553
vt 0.683988 0.587668
vt 0.684056 0.591697
vt 0.683983 0.591718
vt 0.683916 0.587688
vt 0.683909 0.586394
vt 0.683953 0.586382
vt 0.684006 0.654859
vt 0.683907 0.654859
vt 0.683405 0.620680
vt 0.683315 0.592557
vt 0.683208 0.601327
vt 0.683291 0.626961
vt 0.683470 0.654859
vt 0.683430 0.626794
vt 0.683542 0.620036
vt 0.683619 0.654859
vt 0.683458 0.654859
vt 0.683309 0.654859
vt 0.683300 0.654859
vt 0.683285 0.628656
vt 0.683374 0.628656
vt 0.683413 0.654859
vt 0.683549 0.618328
vt 0.683457 0.590016
vt 0.683368 0.590158
vt 0.683460 0.618856
vt 0.683378 0.654859
vt 0.683529 0.654859
vt 0.683501 0.632371
vt 0.683397 0.632025
vt 0.683203 0.603699
vt 0.683293 0.603699
vt 0.683324 0.587919
vt 0.683413 0.587803
vt 0.683306 0.596676
vt 0.683217 0.596718
vt 0.683346 0.601273
vt 0.683452 0.592381
vt 0.683341 0.654859
vt 0.683338 0.654859
vt 0.683358 0.631231
vt 0.683364 0.629183
vt 0.683368 0.611367
vt 0.683359 0.611869
vt 0.683358 0.597942
vt 0.683367 0.595637
vt 0.683510 0.610366
vt 0.683412 0.610936
vt 0.683412 0.594196
vt 0.683505 0.593187
vt 0.683490 0.612471
vt 0.683397 0.612184
vt 0.683535 0.612090
vt 0.683546 0.610649
vt 0.683540 0.594169
vt 0.683529 0.597528
vt 0.683536 0.654859
vt 0.683382 0.654859
vt 0.683407 0.628384
vt 0.683515 0.628052
vt 0.683484 0.598867
vt 0.683394 0.598970
vt 0.683571 0.654859
vt 0.683575 0.654859
vt 0.683553 0.628823
vt 0.683545 0.631623
vt 0.683813 0.654859
vt 0.683812 0.631023
vt 0.683745 0.631023
vt 0.683720 0.654859
vt 0.683398 0.592830
vt 0.683486 0.592516
vt 0.683498 0.589683
vt 0.683407 0.590245
vt 0.683714 0.632869
vt 0.683728 0.616707
vt 0.683742 0.620791
vt 0.683728 0.635964
vt 0.683882 0.654859
vt 0.683875 0.635964
vt 0.683860 0.632869
vt 0.683862 0.654859
vt 0.683690 0.654859
vt 0.683710 0.654859
vt 0.683759 0.654859
vt 0.683776 0.637826
vt 0.683844 0.637827
vt 0.683851 0.654859
vt 0.683828 0.614300
vt 0.683760 0.614300
vt 0.683790 0.623217
vt 0.683857 0.623218
vt 0.683772 0.612087
vt 0.683840 0.612087
vt 0.683853 0.616194
vt 0.683786 0.616194
vt 0.683888 0.620791
vt 0.683875 0.616708
vt 0.683516 0.654859
vt 0.683629 0.654859
s 1
usemtl Graveyard
f 10/1/10 12/2/12 3/3/3 1/4/1
f 15/5/15 8/6/8 20/7/20 23/8/23
f 11/9/11 16/10/16 24/11/24 21/12/21
f 7/13/7 4/14/4 18/15/18 19/16/19
f 6/17/6 8/6/8 15/5/15 13/18/13
f 35/19/35 29/20/29 27/21/27 32/22/32
f 14/23/14 16/10/16 11/9/11 9/24/9
f 19/16/19 18/15/18 25/25/25 28/26/28
f 3/3/3 12/2/12 22/27/22 17/28/17
f 17/28/17 22/27/22 33/29/33 26/30/26
f 23/8/23 20/7/20 30/31/30 34/32/34
f 21/12/21 24/11/24 36/33/36 31/34/31
f 25/25/25 26/30/26 27/21/27
f 28/26/28 29/20/29 30/31/30
f 31/34/31 32/22/32 33/29/33
f 34/32/34 35/19/35 36/33/36
f 1/4/1 3/3/3 4/14/4 2/35/2
f 8/6/8 6/17/6 5/36/5 7/13/7
f 16/10/16 14/23/14 13/18/13 15/5/15
f 12/2/12 10/1/10 9/24/9 11/9/11
f 11/9/11 21/12/21 22/27/22 12/2/12
f 18/15/18 4/14/4 3/3/3 17/28/17
f 7/13/7 19/16/19 20/7/20 8/6/8
f 24/11/24 16/10/16 15/5/15 23/8/23
f 27/21/27 29/20/29 28/26/28 25/25/25
f 29/20/29 35/19/35 34/32/34 30/31/30
f 35/19/35 32/22/32 31/34/31 36/33/36
f 32/22/32 27/21/27 26/30/26 33/29/33
f 23/8/23 34/32/34 36/33/36 24/11/24
f 33/29/33 22/27/22 21/12/21 31/34/31
f 17/28/17 26/30/26 25/25/25 18/15/18
f 30/31/30 20/7/20 19/16/19 28/26/28
f 2/35/2 4/14/4 7/13/7 5/36/5
f 47/37/47 57/38/57 62/39/62 52/40/52
f 41/41/41 49/42/49 46/43/46 38/44/38
f 39/45/39 47/37/47 52/40/52 44/46/44
f 43/47/43 51/48/51 50/49/50 42/50/42
f 45/51/45 53/52/53 56/53/56 48/54/48
f 67/55/67 66/56/66 85/57/85 92/58/92
f 51/48/51 63/59/63 59/60/59 50/49/50
f 58/61/58 54/62/54 61/63/61 64/64/64
f 49/42/49 60/65/60 55/66/55 46/43/46
f 71/67/71 68/68/68 91/69/91 100/70/100
f 97/71/97 90/72/90 78/73/78 82/74/82
f 93/75/93 98/76/98 84/77/84 79/78/79
f 92/58/92 85/57/85 88/79/88 89/80/89
f 87/81/87 94/82/94 81/83/81 74/84/74
f 69/85/69 72/86/72 99/87/99 96/88/96
f 89/80/89 88/79/88 73/89/73 76/90/76
f 65/91/65 70/92/70 95/93/95 86/94/86
f 86/94/86 95/93/95 94/82/94 87/81/87
f 96/88/96 99/87/99 98/76/98 93/75/93
f 101/95/101 109/96/109 112/97/112 104/98/104
f 100/70/100 91/69/91 90/72/90 97/71/97
f 77/99/77 75/100/75 80/101/80 83/102/83
f 111/103/111 121/104/121 126/105/126 116/106/116
f 105/107/105 113/108/113 110/109/110 102/110/102
f 103/111/103 111/103/111 116/106/116 108/112/108
f 107/113/107 115/114/115 114/115/114 106/116/106
f 109/96/109 117/117/117 120/118/120 112/97/112
f 115/114/115 127/119/127 123/120/123 114/115/114
f 122/121/122 118/122/118 125/123/125 128/124/128
f 113/108/113 124/125/124 119/126/119 110/109/110
f 53/52/53 55/66/55 54/62/54
f 56/53/56 58/61/58 57/38/57
f 59/60/59 61/63/61 60/65/60
f 62/39/62 64/64/64 63/59/63
f 73/89/73 74/84/74 75/100/75
f 76/90/76 77/99/77 78/73/78
f 79/78/79 80/101/80 81/83/81
f 82/74/82 83/102/83 84/77/84
f 117/117/117 119/126/119 118/122/118
f 120/118/120 122/121/122 121/104/121
f 123/120/123 125/123/125 124/125/124
f 126/105/126 128/124/128 127/119/127
f 39/45/39 40/127/40 48/54/48 47/37/47
f 46/43/46 45/51/45 37/128/37 38/44/38
f 50/49/50 49/42/49 41/41/41 42/50/42
f 43/47/43 44/46/44 52/40/52 51/48/51
f 58/61/58 56/53/56 53/52/53 54/62/54
f 64/64/64 62/39/62 57/38/57 58/61/58
f 61/63/61 59/60/59 63/59/63 64/64/64
f 54/62/54 55/66/55 60/65/60 61/63/61
f 45/51/45 46/43/46 55/66/55 53/52/53
f 59/60/59 60/65/60 49/42/49 50/49/50
f 51/48/51 52/40/52 62/39/62 63/59/63
f 56/53/56 57/38/57 47/37/47 48/54/48
f 76/90/76 73/89/73 75/100/75 77/99/77
f 82/74/82 78/73/78 77/99/77 83/102/83
f 79/78/79 84/77/84 83/102/83 80/101/80
f 74/84/74 81/83/81 80/101/80 75/100/75
f 90/72/90 91/69/91 92/58/92 89/80/89
f 86/94/86 87/81/87 88/79/88 85/57/85
f 98/76/98 99/87/99 100/70/100 97/71/97
f 94/82/94 95/93/95 96/88/96 93/75/93
f 78/73/78 90/72/90 89/80/89 76/90/76
f 87/81/87 74/84/74 73/89/73 88/79/88
f 91/69/91 68/68/68 67/55/67 92/58/92
f 65/91/65 86/94/86 85/57/85 66/56/66
f 93/75/93 79/78/79 81/83/81 94/82/94
f 69/85/69 96/88/96 95/93/95 70/92/70
f 84/77/84 98/76/98 97/71/97 82/74/82
f 99/87/99 72/86/72 71/67/71 100/70/100
f 103/111/103 104/98/104 112/97/112 111/103/111
f 110/109/110 109/96/109 101/95/101 102/110/102
f 114/115/114 113/108/113 105/107/105 106/116/106
f 107/113/107 108/112/108 116/106/116 115/114/115
f 122/121/122 120/118/120 117/117/117 118/122/118
f 128/124/128 126/105/126 121/104/121 122/121/122
f 125/123/125 123/120/123 127/119/127 128/124/128
f 118/122/118 119/126/119 124/125/124 125/123/125
f 109/96/109 110/109/110 119/126/119 117/117/117
f 123/120/123 124/125/124 113/108/113 114/115/114
f 115/114/115 116/106/116 126/105/126 127/119/127
f 120/118/120 121/104/121 111/103/111 112/97/112
f 37/128/37 45/51/45 48/54/48 40/127/40
