# Blender 4.1.1
# www.blender.org
mtllib Grave_1_1.mtl
o Grave_1_1
v 0.818003 0.000000 -0.430035
v 0.844314 0.000000 -0.397580
v 0.818003 0.160331 -0.430035
v 0.818003 0.186642 -0.397580
v 0.844314 0.160331 -0.397580
v 0.844314 0.000000 0.397580
v 0.818004 0.000000 0.430035
v 0.818004 0.186642 0.397580
v 0.818004 0.160331 0.430035
v 0.844314 0.160331 0.397580
v -0.844315 0.000000 -0.397580
v -0.818004 0.000000 -0.430035
v -0.818004 0.186642 -0.397580
v -0.818004 0.160331 -0.430035
v -0.844315 0.160331 -0.397580
v -0.818003 0.000000 0.430035
v -0.844314 0.000000 0.397580
v -0.818003 0.186642 0.397580
v -0.844314 0.160331 0.397580
v -0.818003 0.160331 0.430035
vn 0.2391 0.7543 -0.6115
vn 0.3474 0.8888 -0.2989
vn 0.6909 0.6909 -0.2128
vn 0.3474 0.8888 0.2989
vn 0.2391 0.7543 0.6115
vn 0.6909 0.6909 0.2128
vn -0.3474 0.8888 -0.2989
vn -0.2391 0.7543 -0.6115
vn -0.6909 0.6909 -0.2128
vn -0.3474 0.8888 0.2989
vn -0.6909 0.6909 0.2128
vn -0.2391 0.7543 0.6115
vn -0.0000 -1.0000 -0.0000
vn -0.4303 -0.0000 0.9027
vn 0.4303 -0.0000 0.9027
vn 0.9425 -0.0000 -0.3341
vn 0.4303 -0.0000 -0.9027
vn 0.9425 -0.0000 0.3341
vn -0.9425 -0.0000 0.3341
vn -0.9426 -0.0000 -0.3341
vn -0.4303 -0.0000 -0.9027
vt 0.672955 0.059660
vt 0.672955 0.062750
vt 0.672769 0.059660
vt 0.672955 0.062750
vt 0.672955 0.059660
vt 0.672769 0.059660
vt 0.675862 0.062750
vt 0.675862 0.059660
vt 0.676047 0.059660
vt 0.675862 0.062750
vt 0.676047 0.059660
vt 0.675862 0.059660
vt 0.676047 0.027916
vt 0.676047 0.027916
vt 0.675862 0.027916
vt 0.672955 0.027916
vt 0.672769 0.027916
vt 0.672955 0.027916
vt 0.672769 0.027916
vt 0.675862 0.027916
s 1
usemtl Graveyard
f 3/1/1 4/2/2 5/3/3
f 8/4/4 9/5/5 10/6/6
f 13/7/7 14/8/8 15/9/9
f 18/10/10 19/11/11 20/12/12
f 17/13/13 11/14/13 12/15/13
f 1/16/13 2/17/13 7/18/13
f 2/17/13 6/19/13 7/18/13
f 16/20/13 17/13/13 12/15/13
f 16/20/14 7/18/15 9/5/15 20/12/14
f 2/17/16 1/16/17 3/1/17 5/3/16
f 5/3/3 4/2/2 8/4/4 10/6/6
f 7/18/13 16/20/13 12/15/13 1/16/13
f 10/6/18 9/5/15 7/18/15 6/19/18
f 6/19/18 2/17/16 5/3/16 10/6/18
f 20/12/14 19/11/19 17/13/19 16/20/14
f 15/9/20 14/8/21 12/15/21 11/14/20
f 1/16/17 12/15/21 14/8/21 3/1/17
f 11/14/20 17/13/19 19/11/19 15/9/20
f 14/8/8 13/7/7 4/2/2 3/1/1
f 13/7/7 18/10/10 8/4/4 4/2/2
f 19/11/11 18/10/10 13/7/7 15/9/9
f 9/5/5 8/4/4 18/10/10 20/12/12
