# Blender 4.1.1
# www.blender.org
mtllib Grave_2_1.mtl
o Grave_2_1
v 0.818007 0.000000 -0.430035
v 0.844318 0.000000 -0.397580
v 0.844318 0.000000 0.397580
v 0.818007 0.000000 0.430035
v -0.844311 0.000000 -0.397580
v -0.818000 0.000000 -0.430034
v -0.818000 0.000000 0.430035
v -0.844311 0.000000 0.397581
v 0.818007 0.132611 -0.430035
v 0.792890 0.160331 -0.411502
v 0.708929 0.187296 0.314279
v 0.731516 0.160331 0.323026
v 0.818247 0.160331 -0.380350
v 0.844318 0.132611 -0.397580
v 0.708527 0.160331 0.349252
v 0.686946 0.187277 0.339230
v 0.792890 0.160331 0.411502
v 0.818007 0.132611 0.430035
v 0.844318 0.132611 0.397580
v 0.818248 0.160331 0.380349
v 0.731516 0.160331 -0.323027
v 0.708932 0.187318 -0.297182
v -0.792883 0.160331 -0.411501
v -0.818000 0.132611 -0.430034
v -0.844311 0.132611 -0.397580
v -0.818241 0.160331 -0.380349
v 0.686949 0.187296 -0.322146
v 0.708527 0.160331 -0.349253
v -0.818240 0.160331 0.380350
v -0.844311 0.132611 0.397581
v -0.818000 0.132611 0.430035
v -0.792883 0.160331 0.411502
v -0.654955 0.280062 -0.265029
v -0.671055 0.253116 -0.301288
v -0.693038 0.253097 -0.276337
v -0.661740 0.280062 -0.257325
v -0.693040 0.253076 0.335124
v -0.661740 0.280062 0.333209
v -0.671057 0.253097 0.360088
v -0.654955 0.280062 0.340912
v 0.686731 0.280062 -0.265029
v 0.695678 0.253097 -0.301295
v 0.717656 0.253076 -0.276344
v 0.693516 0.280062 -0.257326
v 0.686731 0.280062 0.340912
v 0.695681 0.253116 0.360094
v 0.717659 0.253097 0.335130
v 0.693516 0.280062 0.333208
v -0.679787 0.187296 0.339236
v -0.708520 0.160331 0.349253
v -0.701765 0.187318 0.314286
v -0.731509 0.160331 0.323027
v -0.731510 0.160331 -0.323026
v -0.701768 0.187296 -0.297188
v -0.708520 0.160331 -0.349252
v -0.679790 0.187277 -0.322152
vn -0.0000 1.0000 -0.0000
vn 0.4042 0.5844 0.7036
vn -0.1985 0.5197 0.8310
vn -0.3922 0.6563 0.6446
vn -0.0000 -1.0000 -0.0000
vn 0.2381 0.4999 0.8327
vn 0.3917 -0.3248 0.8609
vn 0.3875 -0.3248 0.8627
vn -0.3478 -0.2410 0.9061
vn -0.4626 -0.2115 0.8610
vn 0.6956 0.6686 0.2631
vn 0.6963 0.6686 0.2611
vn 0.3252 0.6176 0.7161
vn 0.3221 0.6176 0.7175
vn -0.2645 0.6589 0.7042
vn -0.3318 0.6703 0.6638
vn -0.9066 -0.0134 0.4218
vn -0.9583 0.0374 0.2832
vn 0.9425 -0.0000 0.3341
vn 0.4303 -0.0000 0.9027
vn -0.2244 0.6737 0.7041
vn -0.3469 0.7175 0.6040
vn 0.3469 0.7175 0.6040
vn 0.2244 0.6737 0.7041
vn -0.9426 -0.0000 -0.3341
vn -0.9425 -0.0000 0.3341
vn -0.5536 0.8016 -0.2257
vn -0.5736 0.7975 -0.1871
vn -0.2326 0.8272 -0.5116
vn -0.2310 0.8272 -0.5123
vn 0.9425 -0.0000 -0.3341
vn 0.4303 -0.0000 -0.9027
vn 0.9066 0.0134 -0.4218
vn 0.3478 0.2410 -0.9061
vn 0.4626 0.2115 -0.8610
vn 0.9583 -0.0374 -0.2832
vn -0.8898 0.2409 -0.3876
vn -0.9318 0.2160 -0.2916
vn -0.3917 0.3248 -0.8609
vn -0.3875 0.3248 -0.8627
vn 0.5934 0.7577 -0.2717
vn 0.2789 0.7824 -0.5569
vn 0.2187 0.7731 -0.5954
vn 0.6694 0.7233 -0.1696
vn -0.6311 0.7470 0.2090
vn -0.6166 0.7353 0.2813
vn -0.6509 0.7337 0.1949
vn -0.6256 0.7409 0.2444
vn -0.6170 0.7539 0.2255
vn -0.6114 0.7533 0.2424
vn -0.5816 0.7971 -0.1621
vn -0.5337 0.8128 -0.2334
vn -0.3469 0.7175 -0.6040
vn -0.6256 0.7409 -0.2444
vn -0.6509 0.7337 -0.1949
vn -0.2244 0.6737 -0.7041
vn -0.1847 0.7876 -0.5879
vn -0.2747 0.8112 -0.5162
vn 0.2244 0.6737 -0.7041
vn 0.3469 0.7175 -0.6040
vn 0.7144 0.6567 0.2416
vn 0.6981 0.6469 0.3069
vn 0.6256 0.7409 0.2444
vn 0.6509 0.7337 0.1949
vn 0.6192 0.7397 -0.2634
vn 0.2271 0.8075 -0.5444
vn 0.2760 0.8027 -0.5287
vn 0.6569 0.7275 -0.1982
vn 0.9318 -0.2160 0.2916
vn 0.8898 -0.2409 0.3876
vn 0.6256 0.7409 -0.2444
vn 0.6509 0.7337 -0.1949
vn -0.4303 -0.0000 -0.9027
vn -0.4303 -0.0000 0.9027
vt 0.670937 0.050040
vt 0.670067 0.050040
vt 0.672888 0.059660
vt 0.672888 0.059660
vt 0.672926 0.059660
vt 0.670067 0.050040
vt 0.670937 0.050040
vt 0.669832 0.052600
vt 0.671172 0.052600
vt 0.670993 0.040531
vt 0.670993 0.040531
vt 0.670937 0.040531
vt 0.675890 0.059660
vt 0.675929 0.059660
vt 0.675890 0.059660
vt 0.675929 0.059660
vt 0.672926 0.059660
vt 0.670067 0.040531
vt 0.670011 0.040531
vt 0.670067 0.040531
vt 0.670011 0.040531
vt 0.670937 0.040531
vt 0.672955 0.059660
vt 0.672955 0.059660
vt 0.675862 0.059660
vt 0.669747 0.052600
vt 0.676047 0.059660
vt 0.670011 0.048396
vt 0.670067 0.048396
vt 0.670937 0.048396
vt 0.670067 0.048396
vt 0.670993 0.048396
vt 0.676047 0.059660
vt 0.675862 0.059660
vt 0.672769 0.059660
vt 0.672955 0.059660
vt 0.672955 0.059660
vt 0.675862 0.059660
vt 0.669747 0.052600
vt 0.669832 0.052600
vt 0.670993 0.050040
vt 0.671257 0.052600
vt 0.671257 0.052600
vt 0.670011 0.050040
vt 0.670993 0.050040
vt 0.671172 0.052600
vt 0.670011 0.050040
vt 0.672769 0.059660
vt 0.670011 0.048396
vt 0.672769 0.059660
vt 0.672769 0.059660
vt 0.676047 0.059660
s 1
usemtl Graveyard
f 23/1/1 28/2/1 10/2/1
f 48/3/1 44/4/1 41/5/1
f 17/6/1 50/7/1 32/7/1
f 15/8/2 49/9/3 50/9/4
f 8/10/5 5/11/5 6/12/5
f 23/1/1 55/1/1 28/2/1
f 33/13/1 36/14/1 40/15/1
f 36/14/1 38/16/1 40/15/1
f 45/17/1 48/3/1 41/5/1
f 17/6/1 15/6/1 50/7/1
f 15/8/2 16/8/6 49/9/3
f 1/18/5 2/19/5 4/20/5
f 2/19/5 3/21/5 4/20/5
f 7/22/5 8/10/5 6/12/5
f 16/23/7 46/24/8 39/25/9 49/25/10
f 15/8/2 12/26/11 11/26/12 16/8/6
f 46/24/13 45/17/14 40/15/15 39/25/16
f 49/25/10 39/25/9 37/27/17 51/27/18
f 19/28/19 18/29/20 4/20/20 3/21/19
f 32/7/21 31/30/22 18/31/23 17/6/24
f 5/11/25 8/10/26 30/32/26 25/32/25
f 35/33/27 36/14/28 33/13/29 34/34/30
f 2/19/31 1/18/32 9/29/32 14/28/31
f 22/35/33 27/36/34 42/37/35 43/35/36
f 40/15/1 45/17/1 41/5/1 33/13/1
f 54/33/37 35/33/38 34/34/39 56/38/40
f 21/39/41 28/40/42 27/40/43 22/39/44
f 37/27/45 38/16/46 36/14/28 35/33/27
f 31/30/22 32/7/21 29/41/47 30/32/48
f 4/20/5 7/22/5 6/12/5 1/18/5
f 52/42/49 51/43/50 54/43/51 53/43/52
f 17/6/1 20/44/1 12/44/1 15/6/1
f 24/30/53 25/32/54 26/45/55 23/1/56
f 27/36/34 56/38/40 34/38/39 42/37/35
f 53/43/52 54/43/51 56/46/57 55/46/58
f 23/1/1 26/45/1 53/45/1 55/1/1
f 10/2/59 9/29/60 24/30/53 23/1/56
f 10/2/1 28/2/1 21/47/1 13/47/1
f 53/45/1 26/45/1 29/41/1 52/41/1
f 46/24/13 47/48/61 48/3/62 45/17/14
f 18/29/23 19/28/63 20/44/64 17/6/24
f 43/35/65 42/37/66 41/5/67 44/4/68
f 16/24/7 11/48/69 47/48/70 46/24/8
f 32/7/1 50/7/1 52/41/1 29/41/1
f 25/32/54 30/32/48 29/41/47 26/45/55
f 42/37/66 34/38/30 33/13/29 41/5/67
f 20/44/64 19/49/63 14/28/71 13/47/72
f 9/29/60 10/2/59 13/47/72 14/28/71
f 12/44/1 20/44/1 13/47/1 21/47/1
f 11/48/69 22/50/33 43/35/36 47/51/70
f 51/52/18 37/27/17 35/33/38 54/33/37
f 47/51/61 43/35/65 44/4/68 48/3/62
f 28/40/42 55/46/58 56/46/57 27/40/43
f 39/25/16 40/15/15 38/16/46 37/27/45
f 50/9/4 49/9/3 51/42/50 52/42/49
f 12/26/11 21/39/41 22/39/44 11/26/12
f 6/12/73 24/30/73 9/29/32 1/18/32
f 31/30/74 30/32/26 8/10/26 7/22/74
f 4/20/20 18/31/20 31/30/74 7/22/74
f 25/32/25 24/30/73 6/12/73 5/11/25
f 3/21/19 2/19/31 14/28/31 19/49/19
