# Blender 4.1.1
# www.blender.org
mtllib Grave_5.mtl
o Grave_5
v 0.818007 -0.000000 -0.430035
v 0.844318 -0.000000 -0.397580
v 0.818007 0.160331 -0.430035
v 0.818007 0.186642 -0.397580
v 0.844318 0.160331 -0.397580
v 0.844318 -0.000000 0.397580
v 0.818007 -0.000000 0.430035
v 0.818007 0.186642 0.397580
v 0.818007 0.160331 0.430035
v 0.844318 0.160331 0.397580
v -0.844311 -0.000000 -0.397580
v -0.818000 -0.000000 -0.430034
v -0.818000 0.186642 -0.397580
v -0.818000 0.160331 -0.430034
v -0.844311 0.160331 -0.397580
v -0.818000 -0.000000 0.430035
v -0.844311 -0.000000 0.397581
v -0.818000 0.186642 0.397581
v -0.844311 0.160331 0.397581
v -0.818000 0.160331 0.430035
v 0.272671 0.186642 0.355310
v -0.272664 0.186642 0.355310
v -0.272664 0.160331 0.384314
v 0.272671 0.160331 0.384314
v -0.272664 0.186642 -0.355310
v 0.272671 0.186642 -0.355310
v 0.272671 0.160331 -0.384314
v -0.272665 0.160331 -0.384314
v -0.272664 -0.000000 -0.384314
v 0.272671 -0.000000 -0.384314
v 0.272671 -0.000000 0.384314
v -0.272664 -0.000000 0.384314
vn 0.2133 0.7477 -0.6289
vn 0.3348 0.8876 -0.3162
vn 0.6909 0.6909 -0.2128
vn 0.3348 0.8876 0.3162
vn 0.2133 0.7477 0.6289
vn 0.6909 0.6909 0.2128
vn -0.3348 0.8876 -0.3162
vn -0.2133 0.7477 -0.6289
vn -0.6909 0.6909 -0.2128
vn -0.3348 0.8876 0.3162
vn -0.6909 0.6909 0.2128
vn -0.2133 0.7477 0.6289
vn -0.0000 -1.0000 -0.0000
vn -0.3921 -0.0000 0.9199
vn 0.0418 -0.0000 0.9991
vn 0.9425 -0.0000 -0.3341
vn 0.3921 -0.0000 -0.9199
vn -0.0267 0.7501 -0.6608
vn -0.0135 0.9382 -0.3458
vn -0.3921 -0.0000 -0.9199
vn 0.0418 -0.0000 -0.9991
vn -0.9426 -0.0000 -0.3341
vn -0.0135 0.9382 0.3458
vn 0.0135 0.9382 -0.3458
vn 0.0135 0.9382 0.3458
vn 0.0267 0.7501 -0.6608
vn 0.9425 -0.0000 0.3341
vn 0.3921 -0.0000 0.9199
vn -0.0418 -0.0000 -0.9991
vn -0.9426 -0.0000 0.3341
vn 0.0267 0.7501 0.6608
vn -0.0267 0.7501 0.6608
vn -0.0418 -0.0000 0.9991
vt 0.672955 0.059660
vt 0.672955 0.062750
vt 0.672769 0.059660
vt 0.672955 0.062750
vt 0.672955 0.059660
vt 0.672769 0.059660
vt 0.675862 0.062750
vt 0.675862 0.059660
vt 0.676047 0.059660
vt 0.675862 0.062750
vt 0.676047 0.059660
vt 0.675862 0.059660
vt 0.673924 0.027916
vt 0.672955 0.027916
vt 0.672769 0.027916
vt 0.672769 0.027916
vt 0.672955 0.027916
vt 0.673924 0.027916
vt 0.674893 0.027916
vt 0.675862 0.027916
vt 0.676047 0.027916
vt 0.676047 0.027916
vt 0.675862 0.027916
vt 0.674893 0.027916
vt 0.674893 0.059660
vt 0.673924 0.059660
vt 0.673924 0.062750
vt 0.674893 0.059660
vt 0.673924 0.062750
vt 0.674893 0.062750
vt 0.674893 0.062750
vt 0.673924 0.059660
s 1
usemtl Graveyard
f 3/1/1 4/2/2 5/3/3
f 8/4/4 9/5/5 10/6/6
f 13/7/7 14/8/8 15/9/9
f 18/10/10 19/11/11 20/12/12
f 30/13/13 1/14/13 2/15/13
f 6/16/13 7/17/13 31/18/13
f 32/19/13 16/20/13 17/21/13
f 11/22/13 12/23/13 29/24/13
f 16/20/14 32/19/15 23/25/15 20/12/14
f 2/15/16 1/14/17 3/1/17 5/3/16
f 4/2/2 3/1/1 27/26/18 26/27/19
f 12/23/20 14/8/20 28/28/21 29/24/21
f 15/9/22 14/8/20 12/23/20 11/22/22
f 29/24/13 30/13/13 31/18/13 32/19/13
f 21/29/23 26/27/19 25/30/24 22/31/25
f 13/7/7 25/30/24 28/28/26 14/8/8
f 5/3/3 4/2/2 8/4/4 10/6/6
f 10/6/27 9/5/28 7/17/28 6/16/27
f 30/13/29 27/26/29 3/1/17 1/14/17
f 11/22/22 17/21/30 19/11/30 15/9/22
f 13/7/7 18/10/10 22/31/25 25/30/24
f 25/30/24 26/27/19 27/26/18 28/28/26
f 21/29/23 22/31/25 23/25/31 24/32/32
f 29/24/21 28/28/21 27/26/29 30/13/29
f 8/4/4 21/29/23 24/32/32 9/5/5
f 31/18/33 24/32/33 23/25/15 32/19/15
f 30/13/13 2/15/13 6/16/13 31/18/13
f 8/4/4 4/2/2 26/27/19 21/29/23
f 29/24/13 32/19/13 17/21/13 11/22/13
f 7/17/28 9/5/28 24/32/33 31/18/33
f 18/10/10 20/12/12 23/25/31 22/31/25
f 6/16/27 2/15/16 5/3/16 10/6/27
f 20/12/14 19/11/30 17/21/30 16/20/14
f 19/11/11 18/10/10 13/7/7 15/9/9
