# Blender 4.1.1
# www.blender.org
mtllib Grave_6.mtl
o Grave_6
v 0.818005 0.000000 -0.430035
v 0.844316 0.000000 -0.397580
v 0.818005 0.160331 -0.430035
v 0.726591 0.160331 0.298667
v 0.844316 0.160331 -0.397580
v 0.844316 0.000000 0.397580
v 0.818005 0.000000 0.430035
v 0.703949 0.160331 0.323048
v 0.818005 0.160331 0.430035
v 0.844316 0.160331 0.397580
v -0.844313 0.000000 -0.397580
v -0.818002 0.000000 -0.430034
v 0.726591 0.160331 -0.298667
v -0.818002 0.160331 -0.430034
v -0.844313 0.160331 -0.397580
v -0.818002 0.000000 0.430035
v -0.844313 0.000000 0.397581
v 0.703948 0.160331 -0.323048
v -0.844313 0.160331 0.397581
v -0.818002 0.160331 0.430035
v -0.703946 0.160331 -0.323047
v -0.726588 0.160331 -0.298667
v -0.726588 0.160331 0.298668
v -0.703946 0.160331 0.323048
vn -0.0000 1.0000 -0.0000
vn -0.0000 -1.0000 -0.0000
vn -0.4303 -0.0000 0.9027
vn 0.4303 -0.0000 0.9027
vn 0.9425 -0.0000 0.3341
vn 0.9425 -0.0000 -0.3341
vn 0.4303 -0.0000 -0.9027
vn -0.4303 -0.0000 -0.9027
vn -0.9426 -0.0000 -0.3341
vn -0.9426 -0.0000 0.3341
vt 0.672769 0.059660
vt 0.672769 0.059660
vt 0.676047 0.059660
vt 0.676047 0.059660
vt 0.675862 0.059660
vt 0.672955 0.059660
vt 0.675862 0.059660
vt 0.672955 0.059660
vt 0.670494 0.079347
vt 0.670308 0.079347
vt 0.670308 0.079347
vt 0.676047 0.027916
vt 0.676047 0.027916
vt 0.675862 0.027916
vt 0.670494 0.079347
vt 0.673401 0.079347
vt 0.673587 0.079347
vt 0.673587 0.079347
vt 0.673401 0.079347
vt 0.672955 0.027916
vt 0.672769 0.027916
vt 0.672955 0.027916
vt 0.672769 0.027916
vt 0.675862 0.027916
s 1
usemtl Graveyard
f 10/1/1 13/2/1 4/1/1
f 19/3/1 22/4/1 15/4/1
f 20/5/1 8/6/1 24/5/1
f 14/7/1 18/8/1 3/8/1
f 8/9/1 4/10/1 13/11/1
f 17/12/2 11/13/2 12/14/2
f 10/1/1 5/2/1 13/2/1
f 19/3/1 23/3/1 22/4/1
f 20/5/1 9/6/1 8/6/1
f 14/7/1 21/7/1 18/8/1
f 13/11/1 18/15/1 8/9/1
f 21/16/1 22/17/1 23/18/1
f 23/18/1 24/19/1 21/16/1
f 1/20/2 2/21/2 7/22/2
f 2/21/2 6/23/2 7/22/2
f 16/24/2 17/12/2 12/14/2
f 16/24/3 7/22/4 9/6/4 20/5/3
f 24/19/1 8/9/1 18/15/1 21/16/1
f 15/4/1 22/4/1 21/7/1 14/7/1
f 10/1/5 9/6/4 7/22/4 6/23/5
f 7/22/2 16/24/2 12/14/2 1/20/2
f 2/21/6 1/20/7 3/8/7 5/2/6
f 1/20/7 12/14/8 14/7/8 3/8/7
f 11/13/9 17/12/10 19/3/10 15/4/9
f 20/5/3 19/3/10 17/12/10 16/24/3
f 15/4/9 14/7/8 12/14/8 11/13/9
f 19/3/1 20/5/1 24/5/1 23/3/1
f 5/2/1 3/8/1 18/8/1 13/2/1
f 10/1/1 4/1/1 8/6/1 9/6/1
f 6/23/5 2/21/6 5/2/6 10/1/5
