# Blender 4.1.1
# www.blender.org
mtllib Grave_8_3.mtl
o Grave_8_3
v 0.921099 0.022023 -0.471566
v -0.876812 0.022023 -0.445585
v 0.880983 0.022023 0.451616
v -0.893501 0.022023 0.445824
v 0.752823 0.242170 -0.361688
v -0.743993 0.242258 -0.367577
v 0.745710 0.246938 0.370745
v -0.752604 0.242258 0.368127
v 0.503452 0.026450 -0.483634
v -0.007109 0.026306 -0.503487
v -0.513354 0.022023 -0.521308
v -0.503863 0.022023 0.542357
v -0.002583 0.017409 0.508612
v 0.486637 0.022023 0.499981
v 0.429266 0.271354 -0.298340
v -0.000531 0.263184 -0.373021
v -0.411445 0.261849 -0.380567
v -0.408050 0.255176 0.384410
v 0.000000 0.230459 0.375974
v 0.408885 0.252364 0.376610
v 1.002045 0.022023 0.158872
v 1.008420 0.022023 -0.196208
v -0.965218 0.022023 -0.172323
v -0.934133 0.022023 0.137448
v 0.768751 0.269867 0.136672
v 0.765997 0.256283 -0.134290
v -0.762672 0.258637 -0.136422
v -0.752747 0.258637 0.131109
v 0.432798 0.308934 -0.064806
v 0.416150 0.309426 0.152172
v 0.002772 0.282918 -0.132536
v 0.002772 0.279755 0.133808
v -0.396436 0.318648 -0.133172
v -0.396436 0.318648 0.133172
v -0.848057 0.132141 -0.433490
v 0.877667 0.131501 -0.433614
v -0.867033 0.132141 0.434082
v 0.852474 0.132141 0.440389
v -0.476812 0.128680 0.512934
v -0.001937 0.114836 0.479190
v 0.461955 0.128680 0.472717
v 0.479935 0.144924 -0.414215
v -0.005862 0.147561 -0.472393
v -0.487325 0.135353 -0.493304
v 0.945619 0.135651 0.156952
v 0.940737 0.132141 -0.162911
v -0.917868 0.132141 -0.161819
v -0.884630 0.132141 0.130349
vn 0.5471 0.5035 -0.6687
vn -0.6572 0.3267 -0.6792
vn 0.6049 0.3269 0.7261
vn -0.7176 0.3445 0.6053
vn 0.2339 0.8449 -0.4810
vn -0.3205 0.8468 -0.4245
vn 0.2706 0.8448 0.4616
vn -0.3468 0.8527 0.3906
vn 0.0246 0.4436 -0.8959
vn 0.0533 0.3159 -0.9473
vn -0.0878 0.2282 -0.9697
vn -0.0907 0.2502 0.9639
vn 0.0412 0.2682 0.9625
vn 0.0605 0.2290 0.9715
vn 0.0376 0.9057 -0.4223
vn 0.0412 0.8740 -0.4842
vn -0.0286 0.8772 -0.4792
vn 0.0005 0.8798 0.4754
vn 0.0151 0.8568 0.5154
vn 0.0026 0.8526 0.5226
vn 0.8895 0.4287 0.1580
vn 0.8588 0.4956 -0.1300
vn -0.9229 0.3746 -0.0893
vn -0.9261 0.3655 0.0934
vn 0.3721 0.9254 0.0724
vn 0.3674 0.9271 -0.0743
vn -0.4211 0.9053 -0.0566
vn -0.4194 0.9053 0.0672
vn 0.0386 0.9975 -0.0584
vn 0.0148 0.9952 0.0969
vn 0.0138 0.9974 -0.0701
vn 0.0097 0.9935 0.1136
vn -0.0340 0.9966 -0.0745
vn -0.0233 0.9949 0.0986
vn -0.5684 0.5195 -0.6380
vn 0.4698 0.6275 -0.6209
vn -0.6308 0.5285 0.5681
vn 0.5106 0.5238 0.6819
vn -0.0403 0.4832 0.8746
vn 0.0326 0.4746 0.8796
vn 0.0342 0.4325 0.9010
vn 0.0140 0.5546 -0.8320
vn 0.0560 0.5014 -0.8634
vn -0.0557 0.4538 -0.8894
vn 0.7786 0.6143 0.1281
vn 0.7494 0.6559 -0.0908
vn -0.8196 0.5692 -0.0654
vn -0.8197 0.5682 0.0724
vt 0.985624 0.266315
vt 0.985800 0.216362
vt 0.985572 0.207208
vt 0.985617 0.269434
vt 0.985806 0.216362
vt 0.985884 0.267816
vt 0.984951 0.319669
vt 0.984691 0.268115
vt 0.984661 0.319271
vt 0.985871 0.267816
vt 0.985570 0.210326
vt 0.984974 0.267810
vt 0.985013 0.211657
vt 0.984777 0.216761
vt 0.984781 0.214175
vt 0.985012 0.211640
vt 0.984975 0.269434
vt 0.984708 0.267816
vt 0.985293 0.321427
vt 0.985293 0.275902
vt 0.985636 0.319271
vt 0.985295 0.260611
vt 0.985292 0.206584
vt 0.985011 0.194097
vt 0.984768 0.210022
vt 0.984602 0.319271
vt 0.984648 0.267816
vt 0.985296 0.317269
vt 0.985896 0.267816
vt 0.985806 0.208709
vt 0.984958 0.319271
vt 0.984689 0.319271
vt 0.985813 0.208709
vt 0.985562 0.180667
vt 0.985289 0.197363
vt 0.985289 0.198841
vt 0.985011 0.187237
vt 0.985562 0.180668
vt 0.985291 0.221875
vt 0.985951 0.319271
vt 0.985919 0.267816
vt 0.985891 0.319271
vt 0.984766 0.203461
vt 0.985642 0.319271
vt 0.985930 0.319271
vt 0.984645 0.266176
vt 0.985902 0.319271
vt 0.984606 0.319271
s 1
usemtl Graveyard
f 44/1/44 6/2/6 17/3/17
f 39/4/39 8/5/8 37/6/37
f 9/7/9 36/8/36 1/9/1
f 44/1/44 35/10/35 6/2/6
f 39/4/39 18/11/18 8/5/8
f 42/12/42 15/13/15 5/14/5
f 7/15/7 20/16/20 41/17/41 38/18/38
f 13/19/13 40/20/40 39/4/39 12/21/12
f 43/22/43 44/1/44 17/3/17 16/23/16
f 15/13/15 29/24/29 26/25/26 5/14/5
f 22/26/22 1/9/1 36/8/36 46/27/46
f 10/28/10 43/22/43 42/12/42 9/7/9
f 48/29/48 37/6/37 8/5/8 28/30/28
f 14/31/14 3/32/3 38/18/38 41/17/41
f 6/2/6 27/33/27 33/34/33 17/3/17
f 29/24/29 31/35/31 32/36/32 30/37/30
f 16/23/16 17/3/17 33/34/33 31/35/31
f 13/19/13 14/31/14 41/17/41 40/20/40
f 34/38/34 18/11/18 19/39/19 32/36/32
f 46/27/46 36/8/36 5/14/5 26/25/26
f 23/40/23 47/41/47 35/10/35 2/42/2
f 15/13/15 16/23/16 31/35/31 29/24/29
f 29/24/29 30/37/30 25/43/25 26/25/26
f 11/44/11 2/42/2 35/10/35 44/1/44
f 48/29/48 28/30/28 27/33/27 47/41/47
f 47/41/47 27/33/27 6/2/6 35/10/35
f 10/28/10 11/44/11 44/1/44 43/22/43
f 28/30/28 8/5/8 18/11/18 34/38/34
f 24/45/24 48/29/48 47/41/47 23/40/23
f 45/46/45 46/27/46 26/25/26 25/43/25
f 24/45/24 4/47/4 37/6/37 48/29/48
f 40/20/40 41/17/41 20/16/20 19/39/19
f 40/20/40 19/39/19 18/11/18 39/4/39
f 21/48/21 22/26/22 46/27/46 45/46/45
f 12/21/12 39/4/39 37/6/37 4/47/4
f 43/22/43 16/23/16 15/13/15 42/12/42
f 30/37/30 20/16/20 7/15/7 25/43/25
f 5/14/5 36/8/36 9/7/9 42/12/42
f 3/32/3 21/48/21 45/46/45 38/18/38
f 45/46/45 25/43/25 7/15/7 38/18/38
f 32/36/32 19/39/19 20/16/20 30/37/30
f 33/34/33 27/33/27 28/30/28 34/38/34
f 31/35/31 33/34/33 34/38/34 32/36/32
