# Blender 4.1.1
# www.blender.org
mtllib Ground_3_4.mtl
o Ground_3_4
v 1.000000 0.000000 -1.000000
v -1.000000 0.000000 -1.000000
v -1.000000 0.000000 1.000000
v 1.000000 0.000000 1.000000
v 1.000000 0.391152 -1.000000
v -1.000000 0.391152 -1.000000
v -1.000000 0.391152 1.000000
v 1.000000 0.391152 1.000000
v 0.822674 0.391152 0.268651
v 0.597479 0.391152 0.378961
v 0.499770 0.391152 0.605663
v 0.186981 0.391152 0.654953
v 0.558865 0.391152 0.717803
v 0.614060 0.391152 0.499982
v -0.222410 0.391152 -0.687800
v -0.408588 0.391152 -0.534757
v -0.265745 0.391152 -0.376581
v -0.443590 0.391152 -0.160351
v -0.453807 0.391152 0.045983
v -0.326351 0.391152 -0.158478
v 0.026352 0.391152 -0.362644
v -0.424624 0.391152 0.544022
v -0.448835 0.391152 0.716720
v -0.340357 0.391152 0.676994
v 0.316220 0.391152 -0.189155
v 0.230215 0.391152 -0.096864
v 0.324296 0.391152 0.039478
v 0.399858 0.391152 -0.070744
vn -0.0000 1.0000 -0.0000
vn -0.0000 -0.0000 1.0000
vn -1.0000 -0.0000 -0.0000
vn -0.0000 -1.0000 -0.0000
vn -0.0000 -0.0000 -1.0000
vn 1.0000 -0.0000 -0.0000
vt 0.680723 0.038061
vt 0.680725 0.038062
vt 0.680724 0.038062
vt 0.680727 0.038065
vt 0.680727 0.038064
vt 0.680728 0.038066
vt 0.672836 0.068451
vt 0.672836 0.068451
vt 0.672836 0.068451
vt 0.680723 0.038066
vt 0.680724 0.038063
vt 0.680725 0.038063
vt 0.680728 0.038061
vt 0.680727 0.038062
vt 0.680726 0.038062
vt 0.672836 0.068451
vt 0.680725 0.038063
vt 0.680726 0.038065
vt 0.672836 0.068451
vt 0.672836 0.068451
vt 0.680725 0.038062
vt 0.680726 0.038064
vt 0.680727 0.038062
vt 0.680727 0.038064
vt 0.680727 0.038062
vt 0.680726 0.038064
vt 0.680725 0.038064
vt 0.680726 0.038064
vt 0.680724 0.038066
vt 0.680724 0.038066
vt 0.680724 0.038070
vt 0.680724 0.038070
vt 0.680718 0.038066
vt 0.680719 0.038066
vt 0.680719 0.038070
vt 0.680718 0.038070
vt 0.680723 0.038070
vt 0.672836 0.068451
vt 0.680718 0.038061
vt 0.680719 0.038061
vt 0.680727 0.038064
vt 0.680727 0.038065
s 0
usemtl Graveyard
f 6/1/1 18/2/1 16/3/1
f 14/4/1 13/5/1 8/6/1
f 14/7/1 11/7/1 13/7/1
f 17/8/1 20/9/1 21/8/1
f 5/10/1 15/11/1 21/12/1
f 7/13/1 22/14/1 19/15/1
f 23/16/1 24/16/1 22/16/1
f 6/1/1 7/13/1 19/15/1
f 18/2/1 17/17/1 16/3/1
f 6/1/1 19/15/1 18/2/1
f 16/3/1 15/11/1 6/1/1
f 8/6/1 5/10/1 9/18/1
f 9/18/1 14/4/1 8/6/1
f 14/7/1 9/19/1 10/7/1
f 11/7/1 12/20/1 13/7/1
f 14/7/1 10/7/1 11/7/1
f 21/8/1 15/8/1 17/8/1
f 15/8/1 16/9/1 17/8/1
f 17/8/1 18/9/1 20/9/1
f 18/9/1 19/16/1 20/9/1
f 21/12/1 20/21/1 26/22/1
f 20/21/1 19/15/1 26/22/1
f 22/14/1 24/23/1 12/24/1
f 24/23/1 23/25/1 12/24/1
f 23/25/1 7/13/1 8/6/1
f 12/24/1 23/25/1 8/6/1
f 8/6/1 13/5/1 12/24/1
f 27/26/1 26/22/1 19/15/1
f 26/22/1 25/27/1 21/12/1
f 25/27/1 5/10/1 21/12/1
f 5/10/1 6/1/1 15/11/1
f 7/13/1 23/25/1 22/14/1
f 9/18/1 5/10/1 28/28/1
f 5/10/1 25/27/1 28/28/1
f 7/29/2 3/30/2 4/31/2 8/32/2
f 6/33/3 2/34/3 3/35/3 7/36/3
f 3/35/4 2/34/4 1/10/4 4/37/4
f 28/7/1 25/38/1 26/7/1 27/7/1
f 5/39/5 1/40/5 2/34/5 6/33/5
f 12/24/1 11/41/1 10/42/1 27/26/1
f 28/28/1 27/26/1 10/42/1 9/18/1
f 27/26/1 19/15/1 22/14/1 12/24/1
f 8/10/6 4/29/6 1/32/6 5/37/6
