# Blender 4.1.1
# www.blender.org
mtllib Ground_1_4.mtl
o Ground_1_4
v 1.000000 0.000000 -1.000000
v -1.000000 0.000000 -1.000000
v -1.000000 0.000000 1.000000
v 1.000000 0.000000 1.000000
v 1.000000 0.391152 -1.000000
v -1.000000 0.391152 -1.000000
v -1.000000 0.391152 1.000000
v 1.000000 0.391152 1.000000
v 0.822674 0.391152 0.268651
v 0.597479 0.391152 0.378961
v 0.499770 0.391152 0.605663
v 0.186981 0.391152 0.654953
v 0.558865 0.391152 0.717803
v 0.614060 0.391152 0.499982
v -0.222410 0.391152 -0.687800
v -0.408588 0.391152 -0.534757
v -0.265745 0.391152 -0.376581
v -0.443590 0.391152 -0.160351
v -0.453807 0.391152 0.045983
v -0.326351 0.391152 -0.158478
v 0.026352 0.391152 -0.362644
v -0.424624 0.391152 0.544022
v -0.448835 0.391152 0.716720
v -0.340357 0.391152 0.676994
v 0.316220 0.391152 -0.189155
v 0.230215 0.391152 -0.096864
v 0.324296 0.391152 0.039478
v 0.399858 0.391152 -0.070744
vn -0.0000 1.0000 -0.0000
vn -0.0000 -0.0000 1.0000
vn -1.0000 -0.0000 -0.0000
vn -0.0000 -1.0000 -0.0000
vn -0.0000 -0.0000 -1.0000
vn 1.0000 -0.0000 -0.0000
vt 0.238017 0.485989
vt 0.238019 0.485990
vt 0.238018 0.485991
vt 0.238021 0.485993
vt 0.238021 0.485993
vt 0.238022 0.485994
vt 0.243446 0.495294
vt 0.243446 0.495294
vt 0.243447 0.495294
vt 0.243444 0.495292
vt 0.243445 0.495292
vt 0.243444 0.495293
vt 0.238017 0.485994
vt 0.238018 0.485991
vt 0.238019 0.485991
vt 0.238022 0.485989
vt 0.238021 0.485990
vt 0.238019 0.485990
vt 0.243447 0.495292
vt 0.243447 0.495292
vt 0.243446 0.495292
vt 0.238018 0.485991
vt 0.238020 0.485993
vt 0.243446 0.495295
vt 0.243446 0.495294
vt 0.243447 0.495293
vt 0.243443 0.495292
vt 0.243444 0.495292
vt 0.243445 0.495292
vt 0.243445 0.495292
vt 0.238019 0.485991
vt 0.238019 0.485992
vt 0.238021 0.485991
vt 0.238021 0.485992
vt 0.238021 0.485990
vt 0.238019 0.485992
vt 0.238019 0.485992
vt 0.238019 0.485992
vt 0.238018 0.485994
vt 0.238018 0.485994
vt 0.238018 0.485998
vt 0.238018 0.485998
vt 0.238012 0.485994
vt 0.238012 0.485994
vt 0.238012 0.485998
vt 0.238012 0.485998
vt 0.238017 0.485998
vt 0.243445 0.495294
vt 0.243445 0.495293
vt 0.243445 0.495293
vt 0.243445 0.495293
vt 0.238012 0.485989
vt 0.238012 0.485989
vt 0.238021 0.485993
vt 0.238020 0.485993
s 0
usemtl Graveyard
f 6/1/1 18/2/1 16/3/1
f 14/4/1 13/5/1 8/6/1
f 14/7/1 11/8/1 13/9/1
f 17/10/1 20/11/1 21/12/1
f 5/13/1 15/14/1 21/15/1
f 7/16/1 22/17/1 19/18/1
f 23/19/1 24/20/1 22/21/1
f 6/1/1 7/16/1 19/18/1
f 18/2/1 17/22/1 16/3/1
f 6/1/1 19/18/1 18/2/1
f 16/3/1 15/14/1 6/1/1
f 8/6/1 5/13/1 9/23/1
f 9/23/1 14/4/1 8/6/1
f 14/7/1 9/24/1 10/25/1
f 11/8/1 12/26/1 13/9/1
f 14/7/1 10/25/1 11/8/1
f 21/12/1 15/27/1 17/10/1
f 15/27/1 16/28/1 17/10/1
f 17/10/1 18/29/1 20/11/1
f 18/29/1 19/30/1 20/11/1
f 21/15/1 20/31/1 26/32/1
f 20/31/1 19/18/1 26/32/1
f 22/17/1 24/33/1 12/34/1
f 24/33/1 23/35/1 12/34/1
f 23/35/1 7/16/1 8/6/1
f 12/34/1 23/35/1 8/6/1
f 8/6/1 13/5/1 12/34/1
f 27/36/1 26/32/1 19/18/1
f 26/32/1 25/37/1 21/15/1
f 25/37/1 5/13/1 21/15/1
f 5/13/1 6/1/1 15/14/1
f 7/16/1 23/35/1 22/17/1
f 9/23/1 5/13/1 28/38/1
f 5/13/1 25/37/1 28/38/1
f 7/39/2 3/40/2 4/41/2 8/42/2
f 6/43/3 2/44/3 3/45/3 7/46/3
f 3/45/4 2/44/4 1/13/4 4/47/4
f 28/48/1 25/49/1 26/50/1 27/51/1
f 5/52/5 1/53/5 2/44/5 6/43/5
f 12/34/1 11/54/1 10/55/1 27/36/1
f 28/38/1 27/36/1 10/55/1 9/23/1
f 27/36/1 19/18/1 22/17/1 12/34/1
f 8/13/6 4/39/6 1/42/6 5/47/6
