# Blender 4.1.1
# www.blender.org
mtllib Ground_4_3.mtl
o Ground_4_3
v 1.000000 0.000000 -1.000000
v -1.000000 0.000000 -1.000000
v -1.000000 0.000000 1.000000
v 1.000000 0.000000 1.000000
v 1.000000 0.391152 -1.000000
v -1.000000 0.391152 -1.000000
v -1.000000 0.391152 1.000000
v 1.000000 0.391152 1.000000
v -0.542960 0.391152 -0.546430
v -0.293145 0.391152 -0.724177
v -0.017890 0.391152 -0.576673
v -0.200279 0.391152 -0.466317
v 0.494124 0.391152 0.031865
v 0.180327 0.391152 0.377208
v -0.182104 0.391152 0.440141
v 0.246171 0.391152 0.499923
v 0.577462 0.391152 -0.752672
v 0.526636 0.391152 -0.662827
v 0.594011 0.391152 -0.646869
v 0.631496 0.391152 -0.705891
v -0.505800 0.391152 0.093867
v -0.611373 0.391152 0.287439
v -0.629089 0.391152 0.032796
v -0.694659 0.391152 0.206114
v -0.524562 0.391152 0.371810
v -0.398782 0.391152 0.147246
vn -0.0000 1.0000 -0.0000
vn 1.0000 -0.0000 -0.0000
vn -0.0000 -0.0000 1.0000
vn -1.0000 -0.0000 -0.0000
vn -0.0000 -0.0000 -1.0000
vn -0.0000 -1.0000 -0.0000
vt 0.488341 0.534155
vt 0.488343 0.534155
vt 0.488342 0.534156
vt 0.325549 0.464954
vt 0.488344 0.534156
vt 0.488345 0.534155
vt 0.488344 0.534157
vt 0.488343 0.534158
vt 0.488345 0.534159
vt 0.488341 0.534159
vt 0.325568 0.464993
vt 0.325568 0.464993
vt 0.488341 0.534158
vt 0.488344 0.534155
vt 0.488343 0.534155
vt 0.488341 0.534156
vt 0.325549 0.464954
vt 0.488342 0.534156
vt 0.488343 0.534156
vt 0.488343 0.534156
vt 0.488344 0.534157
vt 0.488341 0.534158
vt 0.488342 0.534157
vt 0.488341 0.534158
vt 0.488344 0.534157
vt 0.325568 0.464993
vt 0.488341 0.534158
vt 0.488341 0.534159
vt 0.488341 0.534164
vt 0.488341 0.534164
vt 0.325529 0.464993
vt 0.325432 0.464974
vt 0.325432 0.464974
vt 0.325432 0.464974
vt 0.488341 0.534159
vt 0.488341 0.534164
vt 0.488335 0.534159
vt 0.488336 0.534159
vt 0.488336 0.534164
vt 0.488335 0.534164
vt 0.488335 0.534155
vt 0.488336 0.534155
s 0
usemtl Graveyard
f 6/1/1 23/2/1 9/3/1
f 10/4/1 12/4/1 11/4/1
f 25/5/1 7/6/1 15/7/1
f 13/8/1 8/9/1 5/10/1
f 14/11/1 16/11/1 13/12/1
f 19/13/1 13/8/1 5/10/1
f 7/6/1 22/14/1 24/15/1
f 7/6/1 24/15/1 6/1/1
f 24/15/1 23/2/1 6/1/1
f 9/3/1 10/16/1 6/1/1
f 10/4/1 9/17/1 12/4/1
f 12/18/1 21/19/1 26/20/1
f 12/18/1 26/20/1 14/21/1
f 5/10/1 6/1/1 10/16/1
f 5/10/1 10/16/1 17/22/1
f 10/16/1 11/23/1 17/22/1
f 17/22/1 11/23/1 18/24/1
f 18/24/1 11/23/1 13/8/1
f 13/8/1 19/13/1 18/24/1
f 25/5/1 22/14/1 7/6/1
f 26/20/1 25/5/1 15/7/1
f 8/9/1 16/25/1 7/6/1
f 16/25/1 15/7/1 7/6/1
f 15/7/1 14/21/1 26/20/1
f 13/8/1 16/25/1 8/9/1
f 14/11/1 15/26/1 16/11/1
f 5/10/1 17/22/1 20/27/1
f 20/27/1 19/13/1 5/10/1
f 8/10/2 4/28/2 1/29/2 5/30/2
f 17/31/1 18/31/1 19/31/1 20/31/1
f 23/2/1 21/19/1 12/18/1 9/3/1
f 22/32/1 25/32/1 26/33/1 21/34/1
f 7/28/3 3/35/3 4/36/3 8/29/3
f 13/8/1 11/23/1 12/18/1 14/21/1
f 21/34/1 23/34/1 24/34/1 22/32/1
f 6/37/4 2/38/4 3/39/4 7/40/4
f 5/41/5 1/42/5 2/38/5 6/37/5
f 3/39/6 2/38/6 1/10/6 4/30/6
