# Blender 4.1.1
# www.blender.org
mtllib Ground_2_2.mtl
o Ground_2_2
v 1.000000 0.000000 -1.000000
v -1.000000 0.000000 -1.000000
v -1.000000 0.000000 1.000000
v 1.000000 0.000000 1.000000
v 1.000000 0.391152 -1.000000
v -1.000000 0.391152 -1.000000
v -1.000000 0.391152 1.000000
v 1.000000 0.391152 1.000000
v -0.711304 0.391152 -0.627036
v -0.642566 0.391152 -0.453086
v -0.479843 0.391152 -0.482348
v -0.528815 0.391152 -0.658553
v 0.029609 0.391152 0.486684
v 0.274859 0.391152 0.336360
v 0.521530 0.391152 0.541044
v 0.206229 0.391152 0.564331
vn -0.0000 1.0000 -0.0000
vn -1.0000 -0.0000 -0.0000
vn -0.0000 -1.0000 -0.0000
vn 1.0000 -0.0000 -0.0000
vn -0.0000 -0.0000 -1.0000
vn -0.0000 -0.0000 1.0000
vt 0.067442 0.442358
vt 0.067443 0.442359
vt 0.067443 0.442358
vt 0.067442 0.442362
vt 0.067443 0.442359
vt 0.067446 0.442361
vt 0.067447 0.442362
vt 0.059730 0.472748
vt 0.059730 0.472748
vt 0.059730 0.472748
vt 0.067447 0.442358
vt 0.067446 0.442360
vt 0.067446 0.442361
vt 0.067445 0.442361
vt 0.067443 0.442359
vt 0.067437 0.442362
vt 0.067438 0.442362
vt 0.067438 0.442367
vt 0.067437 0.442367
vt 0.067442 0.442367
vt 0.067443 0.442362
vt 0.067443 0.442367
vt 0.067437 0.442358
vt 0.067438 0.442358
vt 0.059846 0.472709
vt 0.059846 0.472709
vt 0.059846 0.472709
vt 0.059846 0.472709
vt 0.067443 0.442362
vt 0.067443 0.442367
s 0
usemtl Graveyard
f 6/1/1 10/2/1 9/3/1
f 5/4/1 6/1/1 12/5/1
f 5/4/1 15/6/1 8/7/1
f 14/8/1 16/9/1 15/10/1
f 6/1/1 7/11/1 10/2/1
f 9/3/1 12/5/1 6/1/1
f 10/2/1 7/11/1 13/12/1
f 7/11/1 8/7/1 16/13/1
f 14/14/1 5/4/1 11/15/1
f 11/15/1 5/4/1 12/5/1
f 7/11/1 16/13/1 13/12/1
f 5/4/1 14/14/1 15/6/1
f 15/6/1 16/13/1 8/7/1
f 14/8/1 13/9/1 16/9/1
f 6/16/2 2/17/2 3/18/2 7/19/2
f 3/18/3 2/17/3 1/4/3 4/20/3
f 8/4/4 4/21/4 1/22/4 5/20/4
f 5/23/5 1/24/5 2/17/5 6/16/5
f 11/15/1 10/2/1 13/12/1 14/14/1
f 12/25/1 9/26/1 10/27/1 11/28/1
f 7/21/6 3/29/6 4/30/6 8/22/6
