# Blender 4.1.1
# www.blender.org
mtllib Ground_3_1.mtl
o Ground_3_1
v 1.000000 0.000000 -1.000000
v -1.000000 0.000000 -1.000000
v -1.000000 0.000000 1.000000
v 1.000000 0.000000 1.000000
v 1.000000 0.391152 -1.000000
v -1.000000 0.391152 -1.000000
v -1.000000 0.391152 1.000000
v 1.000000 0.391152 1.000000
vn -0.0000 -1.0000 -0.0000
vn -0.0000 1.0000 -0.0000
vn 1.0000 -0.0000 -0.0000
vn -0.0000 -0.0000 -1.0000
vn -0.0000 -0.0000 1.0000
vn -1.0000 -0.0000 -0.0000
vt 0.680719 0.038070
vt 0.680719 0.038066
vt 0.680723 0.038066
vt 0.680723 0.038070
vt 0.680723 0.038061
vt 0.680728 0.038061
vt 0.680728 0.038066
vt 0.680724 0.038066
vt 0.680724 0.038070
vt 0.680718 0.038061
vt 0.680719 0.038061
vt 0.680718 0.038066
vt 0.680724 0.038066
vt 0.680724 0.038070
vt 0.680718 0.038070
s 0
usemtl Graveyard
f 3/1/1 2/2/1 1/3/1 4/4/1
f 5/3/2 6/5/2 7/6/2 8/7/2
f 8/3/3 4/8/3 1/9/3 5/4/3
f 5/10/4 1/11/4 2/2/4 6/12/4
f 7/8/5 3/13/5 4/14/5 8/9/5
f 6/12/6 2/2/6 3/1/6 7/15/6
