# Blender 4.1.1
# www.blender.org
mtllib Ground_4_5.mtl
o Ground_4_5
v 1.000000 0.000000 -1.000000
v -1.000000 0.000000 -1.000000
v -1.000000 0.000000 1.000000
v 1.000000 0.000000 1.000000
v 1.000000 0.391152 -1.000000
v -1.000000 0.391152 -1.000000
v -1.000000 0.391152 1.000000
v 1.000000 0.391152 1.000000
v -1.000000 0.391152 0.211041
v -0.175468 0.391152 -1.000000
v -0.159190 0.391152 -0.344948
v -0.442843 0.391152 -0.374464
v -0.635867 0.391152 0.119521
vn -0.0000 1.0000 -0.0000
vn -0.0000 -0.0000 -1.0000
vn -1.0000 -0.0000 -0.0000
vn -0.0000 -1.0000 -0.0000
vn 1.0000 -0.0000 -0.0000
vn -0.0000 -0.0000 1.0000
vt 0.315495 0.471373
vt 0.315495 0.471374
vt 0.315494 0.471374
vt 0.488336 0.534159
vt 0.488335 0.534159
vt 0.488335 0.534157
vt 0.488336 0.534164
vt 0.488335 0.534164
vt 0.488335 0.534162
vt 0.488343 0.534155
vt 0.488345 0.534159
vt 0.488342 0.534157
vt 0.315494 0.471372
vt 0.315497 0.471372
vt 0.315496 0.471372
vt 0.488335 0.534155
vt 0.488336 0.534155
vt 0.488341 0.534159
vt 0.488341 0.534157
vt 0.488342 0.534156
vt 0.488343 0.534155
vt 0.488345 0.534155
vt 0.488341 0.534164
vt 0.488341 0.534159
vt 0.488341 0.534164
vt 0.488341 0.534159
vt 0.488341 0.534164
s 0
usemtl Graveyard
f 12/1/1 11/2/1 10/3/1
f 2/4/2 6/5/2 10/6/2
f 3/7/3 7/8/3 9/9/3
f 13/10/1 8/11/1 11/12/1
f 10/3/1 6/13/1 12/1/1
f 6/13/1 9/14/1 12/1/1
f 9/14/1 13/15/1 12/1/1
f 5/16/2 1/17/2 10/6/2
f 1/17/2 2/4/2 10/6/2
f 6/5/3 2/4/3 9/9/3
f 2/4/3 3/7/3 9/9/3
f 5/18/1 10/19/1 11/12/1
f 11/12/1 12/20/1 13/10/1
f 13/10/1 9/21/1 7/22/1
f 7/22/1 8/11/1 13/10/1
f 8/11/1 5/18/1 11/12/1
f 3/7/4 2/4/4 1/18/4 4/23/4
f 8/18/5 4/24/5 1/25/5 5/23/5
f 7/24/6 3/26/6 4/27/6 8/25/6
