# Blender 4.1.1
# www.blender.org
mtllib Hat.mtl
o Hat
v -0.016631 0.037361 0.091778
v -0.060241 0.063636 -0.026198
v -0.074554 0.045369 -0.044665
v -0.037340 0.055474 0.066733
v -0.048118 0.037787 0.079218
v 0.054902 0.065707 -0.028524
v 0.071351 0.047293 -0.047414
v 0.017260 0.037787 0.091066
v 0.065603 0.063636 -0.003393
v 0.085487 0.045369 -0.015664
v -0.050176 0.047293 -0.069436
v -0.041402 0.065707 -0.045976
v -0.018244 0.048589 -0.083043
v -0.016177 0.067086 -0.057020
v 0.010437 0.067560 -0.057597
v 0.015159 0.049037 -0.083652
v 0.035157 0.067086 -0.047718
v 0.046224 0.048589 -0.071361
v 0.086381 0.043122 0.019157
v 0.065641 0.061191 0.023602
v -0.073368 0.039029 0.054764
v -0.056991 0.056774 0.049380
v -0.068522 0.058771 0.025681
v -0.087230 0.040898 0.022566
v -0.069749 0.061191 -0.000933
v -0.087611 0.043122 -0.012372
v 0.049486 0.039029 0.077027
v 0.036040 0.056774 0.066238
v 0.055153 0.058771 0.048093
v 0.073765 0.040898 0.051740
v -0.021356 0.149211 0.000406
v -0.027409 0.173881 0.063347
v -0.023926 0.169064 0.027671
v -0.011666 0.176726 0.064377
v -0.000369 0.152802 0.002037
v -0.005264 0.172323 0.029050
v 0.003437 0.173881 0.068937
v 0.019856 0.149211 0.007874
v 0.012694 0.169064 0.034307
v -0.052665 0.127091 0.088934
v -0.063918 0.083841 0.035674
v -0.057744 0.112184 0.057521
v -0.055154 0.066525 0.051662
v -0.044714 0.116694 0.097178
v -0.048916 0.098101 0.068945
v 0.052273 0.103595 0.042567
v 0.023570 0.140096 0.094310
v 0.039285 0.128817 0.064221
v 0.018109 0.127091 0.101759
v 0.047336 0.083841 0.055834
v 0.033888 0.112184 0.074126
v -0.055165 0.140096 0.080042
v -0.063886 0.103595 0.021517
v -0.059322 0.128817 0.046352
v 0.015832 0.165709 0.076419
v 0.037239 0.138718 0.017417
v 0.027827 0.159611 0.042870
v -0.040982 0.138718 0.003242
v -0.041640 0.165709 0.066004
v -0.041100 0.159611 0.030379
v 0.033519 0.066525 0.067731
v 0.007771 0.116694 0.106689
v 0.021612 0.098101 0.081726
v -0.005567 0.110145 0.108601
v 0.011549 0.055474 0.075592
v 0.004050 0.088699 0.085681
v -0.051385 0.153740 0.071927
v -0.055817 0.122793 0.010458
v -0.053500 0.145474 0.036899
v -0.032895 0.110145 0.103649
v -0.033858 0.088699 0.078812
v -0.013699 0.055027 0.075595
v -0.015365 0.085466 0.084788
v 0.022878 0.153740 0.085385
v 0.048598 0.122793 0.029379
v 0.037151 0.145474 0.053326
v -0.033402 0.165439 0.123755
v -0.036355 0.151460 0.155369
v -0.027380 0.124862 0.182524
v -0.022930 0.167240 0.126539
v -0.028536 0.152924 0.157473
v -0.012148 0.165439 0.127607
v -0.020476 0.151460 0.158247
v -0.044594 0.105421 0.171517
v -0.050722 0.129531 0.106169
v -0.047068 0.124804 0.141797
v -0.044193 0.118471 0.103969
v -0.042003 0.117661 0.139879
v 0.010387 0.141157 0.121248
v -0.018428 0.105421 0.176259
v -0.004987 0.132875 0.152759
v 0.010242 0.129531 0.117216
v -0.005682 0.124804 0.149297
v -0.052273 0.141157 0.109893
v -0.048934 0.132875 0.144795
v -0.001938 0.160100 0.126908
v -0.013036 0.147185 0.157613
v -0.042717 0.160100 0.119518
v -0.038409 0.124862 0.180525
v -0.043100 0.147185 0.152165
v 0.004900 0.118471 0.112865
v -0.009752 0.117661 0.145723
v -0.025697 0.098047 0.171593
v -0.016795 0.112643 0.142519
v -0.045708 0.116589 0.175900
v -0.049336 0.151737 0.114605
v -0.047511 0.140697 0.148438
v -0.034283 0.112643 0.139350
v -0.019288 0.107516 0.106436
v -0.036150 0.098047 0.169699
v -0.025421 0.110851 0.140282
v -0.018922 0.116589 0.180754
v 0.005984 0.151737 0.124630
v -0.007597 0.140697 0.155671
v -0.030634 0.020249 0.169050
v -0.029360 0.028341 0.162020
v -0.159903 0.028398 -0.028735
v -0.166885 0.019784 -0.030296
v -0.165738 0.019962 0.036845
v -0.158730 0.028380 0.035554
v 0.142270 0.019962 0.092660
v 0.136161 0.028380 0.088992
v 0.030653 0.019320 -0.169154
v 0.029350 0.028411 -0.161962
v -0.033995 0.019355 -0.167805
v -0.032659 0.028412 -0.160649
v 0.166904 0.019784 0.030191
v 0.159819 0.028398 0.029202
v 0.032499 0.028346 0.160740
v 0.034014 0.020214 0.167700
v 0.091453 0.028361 0.135170
v 0.095605 0.020113 0.140947
v 0.086954 0.028412 -0.138974
v 0.090716 0.019355 -0.145206
v -0.090697 0.020214 0.145101
v -0.086837 0.028346 0.139115
v -0.138984 0.020113 0.098436
v -0.133069 0.028361 0.094484
v 0.133224 0.028412 -0.094188
v 0.139003 0.019455 -0.098541
v 0.165757 0.019606 -0.036950
v 0.158801 0.028408 -0.035122
v -0.095586 0.019455 -0.141051
v -0.091701 0.028412 -0.134947
v -0.142251 0.019606 -0.092765
v -0.136378 0.028408 -0.088612
v 0.030646 0.004052 -0.169114
v 0.029822 -0.000000 -0.164567
v -0.095593 0.004187 -0.141011
v -0.092972 -0.000000 -0.137214
v -0.034002 0.004087 -0.167764
v -0.033021 -0.000000 -0.163255
v 0.142262 0.004694 0.092701
v 0.138388 -0.000000 0.090220
v 0.092972 -0.000000 0.137215
v 0.095598 0.004845 0.140988
v -0.165745 0.004694 0.036886
v -0.161247 -0.000000 0.035922
v -0.138991 0.004845 0.098477
v -0.135209 -0.000000 0.095866
v 0.034006 0.004946 0.167741
v 0.033021 -0.000000 0.163256
v -0.029822 -0.000000 0.164568
v -0.030641 0.004981 0.169090
v -0.088208 -0.000000 0.141288
v -0.090704 0.004946 0.145142
v 0.166897 0.004516 0.030232
v 0.162363 -0.000000 0.029423
v 0.135209 -0.000000 -0.095865
v 0.138996 0.004187 -0.098500
v -0.166892 0.004516 -0.030255
v -0.162363 -0.000000 -0.029422
v -0.138388 -0.000000 -0.090220
v -0.142258 0.004338 -0.092724
v 0.165749 0.004338 -0.036909
v 0.161247 -0.000000 -0.035922
v 0.088208 -0.000000 -0.141287
v 0.090709 0.004087 -0.145165
v -0.035295 0.077187 0.209069
v -0.035891 0.075035 0.208570
v -0.041364 0.071010 0.202083
v -0.042741 0.071803 0.200383
v -0.030291 0.071803 0.202639
v -0.032178 0.071010 0.203748
v -0.041928 0.073367 0.205199
v -0.032742 0.073367 0.206863
v -0.031066 0.074961 0.206804
v -0.040312 0.077187 0.208160
v -0.039579 0.075035 0.207901
v -0.033452 0.069561 0.199005
v -0.034527 0.069342 0.201046
v -0.043477 0.074961 0.204555
v -0.038506 0.069561 0.198089
v -0.038216 0.069342 0.200377
vn 0.3237 -0.8171 0.4771
vn 0.6020 -0.5587 0.5705
vn 0.6399 -0.6715 0.3738
vn -0.7639 -0.5587 0.3230
vn -0.4705 -0.8171 0.3331
vn -0.7303 -0.6715 0.1255
vn -0.0000 -1.0000 -0.0000
vn -0.7345 0.3701 0.5689
vn -0.5124 0.2661 0.8165
vn -0.8012 -0.0879 0.5919
vn 0.1933 0.2661 0.9444
vn 0.4881 0.3701 0.7904
vn 0.5426 -0.0879 0.8354
vn -0.9411 -0.3368 -0.0293
vn -0.7360 -0.6625 -0.1394
vn -0.8893 -0.3894 -0.2398
vn -0.5069 0.5264 0.6826
vn -0.4251 0.7550 0.4993
vn -0.7255 0.5787 0.3724
vn -0.9471 0.1539 0.2817
vn -0.9144 0.3248 0.2417
vn -0.9958 -0.0030 0.0912
vn -0.0850 0.8091 0.5815
vn 0.2043 0.5335 0.8208
vn 0.2497 0.7505 0.6119
vn 0.4517 -0.7834 -0.4269
vn 0.0481 -0.9880 -0.1471
vn 0.4474 -0.8941 -0.0227
vn 0.9169 -0.3894 0.0876
vn 0.7381 -0.6625 0.1277
vn 0.8916 -0.3368 0.3028
vn -0.1065 -0.8021 0.5876
vn 0.5487 0.5787 0.6033
vn 0.9005 -0.0030 0.4348
vn 0.7714 0.3248 0.5472
vn 0.7880 0.1539 0.5961
vn -0.3878 -0.9055 -0.1724
vn -0.3089 -0.7716 -0.5561
vn 0.5813 -0.3032 0.7551
vn 0.8046 0.0232 0.5934
vn 0.8091 -0.0854 0.5815
vn -0.0585 0.9695 -0.2381
vn -0.0974 0.9156 -0.3900
vn 0.0709 0.9175 -0.3914
vn 0.0442 0.9688 -0.2438
vn -0.7051 0.5909 -0.3919
vn -0.3678 0.9071 -0.2048
vn -0.4290 0.9020 -0.0484
vn -0.8592 0.5025 -0.0963
vn -0.8774 0.4797 0.0051
vn -0.9000 0.4214 0.1112
vn -0.6836 0.7126 0.1577
vn -0.6473 0.7613 -0.0378
vn -0.0514 0.9576 0.2835
vn 0.2875 0.8949 0.3412
vn -0.4592 0.6621 -0.5922
vn -0.8434 0.3817 -0.3781
vn -0.5810 0.5540 -0.5963
vn 0.9840 -0.0000 0.1783
vn 0.9773 -0.0010 -0.2118
vn 0.9372 -0.3477 -0.0261
vn 0.4819 -0.6723 -0.5620
vn -0.2221 0.9022 0.3699
vn -0.3461 0.8991 0.2681
vn 0.8038 0.4214 0.4199
vn 0.9002 0.0515 0.4325
vn 0.8198 -0.2418 0.5191
vn 0.8947 0.1268 0.4283
vn 0.8435 -0.3378 0.4177
vn -0.7027 -0.4645 0.5389
vn -0.6301 -0.7613 0.1530
vn -0.6292 -0.7623 0.1518
vn -0.7021 -0.4631 0.5409
vn -0.1963 0.9804 -0.0175
vn -0.1923 0.9757 -0.1046
vn 0.7533 0.5540 -0.3545
vn 0.7070 0.7029 -0.0780
vn 0.8784 0.4575 0.1384
vn 0.9225 0.3817 -0.0581
vn 0.8219 -0.0019 -0.5697
vn -0.9947 0.0515 0.0891
vn -0.9793 0.1896 -0.0708
vn -0.8722 0.4210 0.2490
vn -0.9616 0.0232 0.2733
vn -0.1732 0.2368 0.9560
vn -0.0759 0.9048 0.4190
vn 0.0782 0.9022 0.4243
vn 0.1783 -0.0027 -0.9840
vn 0.5429 -0.0025 -0.8398
vn -0.1647 0.9849 0.0528
vn -0.4218 0.8988 0.1196
vn -0.9498 -0.2418 0.1985
vn -0.9364 -0.3378 0.0951
vn -0.9881 0.1268 0.0871
vn -0.8219 0.0019 0.5697
vn -0.5429 0.0025 0.8398
vn 0.9419 0.1896 0.2774
vn 0.9125 0.1794 0.3676
vn -0.1783 0.0027 0.9840
vn 0.4163 0.9071 -0.0627
vn 0.3486 0.9120 -0.2160
vn 0.6379 0.6621 -0.3934
vn 0.7978 0.5909 -0.1196
vn -0.9773 0.0010 0.2118
vn -0.1161 0.9886 0.0962
vn 0.1357 0.9849 0.1072
vn 0.1900 0.9804 0.0525
vn 0.4187 0.9020 0.1052
vn 0.3530 0.8988 0.2600
vn -0.5254 -0.4563 0.7182
vn -0.8093 -0.3032 0.5031
vn -0.8711 0.4575 -0.1786
vn -0.6347 0.7029 -0.3211
vn 0.0749 0.9886 0.1308
vn 0.2300 0.8991 0.3725
vn 0.2002 0.9719 -0.1240
vn 0.1384 0.9695 -0.2024
vn 0.2281 0.9156 -0.3311
vn -0.5697 -0.0019 -0.8219
vn -0.8408 -0.0010 -0.5413
vn 0.2137 0.0025 0.9769
vn 0.4232 0.8705 -0.2514
vn 0.0651 0.9310 -0.3593
vn -0.0010 1.0000 0.0053
vn 0.3337 0.9388 0.0851
vn 0.5697 0.0019 0.8219
vn -0.2137 -0.0025 -0.9769
vn -0.9617 -0.0854 0.2606
vn -0.9835 0.1794 0.0240
vn 0.4209 0.6274 -0.6552
vn 0.1388 0.6278 -0.7659
vn 0.4241 0.6274 -0.6531
vn 0.8383 0.5025 0.2113
vn 0.7294 0.4210 0.5392
vn 0.2400 -0.4563 0.8569
vn -0.1531 -0.5122 0.8451
vn 0.8198 0.4797 0.3127
vn 0.6194 0.7613 0.1917
vn 0.5848 0.7126 0.3876
vn 0.1235 0.7211 -0.6817
vn -0.1730 0.7057 -0.6871
vn -0.2429 0.6699 -0.7016
vn 0.1253 0.7113 -0.6916
vn -0.0671 0.9909 0.1171
vn -0.0769 -0.9022 0.4243
vn -0.1642 0.6274 -0.7612
vn -0.1680 0.6274 -0.7604
vn -0.6243 0.6521 0.4302
vn -0.6229 0.6522 0.4320
vn -0.7463 0.6455 0.1627
vn -0.7472 0.6454 0.1587
vn -0.5946 -0.6892 0.4142
vn -0.3965 -0.6816 0.6150
vn -0.3966 -0.6816 0.6150
vn -0.5946 -0.6892 0.4141
vn 0.2168 0.9757 -0.0304
vn -0.9546 0.1333 0.2664
vn -0.4915 0.4490 0.7462
vn -0.2540 -0.6723 -0.6953
vn -0.8685 -0.3477 -0.3533
vn -0.2507 0.9120 -0.3246
vn -0.1439 0.9719 -0.1864
vn 0.0217 0.9909 0.1332
vn 0.4031 0.7057 -0.5827
vn 0.4736 0.6699 -0.5718
vn -0.3890 0.8949 0.2187
vn 0.1984 0.4490 0.8712
vn 0.8004 0.1333 0.5844
vn -0.2393 -0.9689 -0.0622
vn -0.2371 -0.9695 -0.0625
vn 0.4689 -0.4645 0.7512
vn 0.4677 -0.4631 0.7529
vn 0.5359 -0.7623 0.3629
vn 0.5364 -0.7613 0.3644
vn -0.7574 0.6387 -0.1357
vn -0.7566 0.6386 -0.1409
vn -0.1308 -0.6794 0.7220
vn -0.3423 0.9388 -0.0375
vn 0.6371 0.6290 -0.4455
vn 0.6400 0.6290 -0.4414
vn -0.0230 0.9916 0.1270
vn -0.3080 0.8705 -0.3839
vn -0.1339 0.6606 0.7387
vn 0.1615 0.6577 0.7358
vn 0.1616 0.6577 0.7358
vn -0.6970 -0.7005 0.1533
vn -0.6970 -0.7005 0.1532
vn -0.6894 -0.7140 -0.1224
vn -0.6893 -0.7140 -0.1225
vn -0.4444 0.6290 -0.6379
vn -0.4403 0.6290 -0.6408
vn -0.6490 0.6328 -0.4223
vn -0.6520 0.6329 -0.4175
vn 0.1555 -0.6816 0.7150
vn 0.4114 -0.6892 0.5965
vn 0.4115 -0.6892 0.5964
vn 0.4317 0.6522 0.6231
vn 0.4336 0.6521 0.6219
vn 0.6417 0.6455 0.4142
vn 0.6440 0.6454 0.4108
vn 0.7559 0.6328 -0.1677
vn 0.7570 0.6329 -0.1622
vn -0.4094 0.6577 0.6323
vn -0.4095 0.6577 0.6323
vn 0.7579 0.6386 0.1335
vn 0.7569 0.6387 0.1387
vn 0.5543 -0.7395 -0.3819
vn 0.5542 -0.7395 -0.3820
vn 0.6708 -0.7277 -0.1431
vn 0.6708 -0.7277 -0.1429
vn 0.5989 -0.7005 0.3882
vn 0.5990 -0.7005 0.3881
vn -0.5779 -0.7277 -0.3694
vn -0.3849 -0.7395 -0.5522
vn -0.3850 -0.7395 -0.5521
vn -0.5780 -0.7277 -0.3692
vn 0.6885 -0.7140 0.1272
vn 0.6885 -0.7140 0.1273
vn 0.3616 -0.7473 -0.5575
vn -0.1429 -0.7473 -0.6489
vn -0.1430 -0.7473 -0.6489
vn 0.1178 -0.7505 -0.6503
vn 0.8408 0.0010 0.5413
vn 0.2459 -0.9689 0.0257
vn 0.2440 -0.9695 0.0246
vn 0.0781 -0.2478 0.9657
vn 0.0759 -0.2472 0.9660
vn -0.4100 -0.2472 0.8779
vn -0.4120 -0.2478 0.8768
vn -0.9840 -0.0000 -0.1783
vt 0.574054 0.452104
vt 0.573995 0.453592
vt 0.574105 0.453830
vt 0.574054 0.452105
vt 0.569613 0.434111
vt 0.570203 0.433358
vt 0.573171 0.441764
vt 0.573387 0.441009
vt 0.573218 0.443803
vt 0.573389 0.441198
vt 0.574728 0.454378
vt 0.574671 0.452913
vt 0.575164 0.449629
vt 0.575321 0.453611
vt 0.574957 0.459820
vt 0.574918 0.458950
vt 0.575255 0.451915
vt 0.574861 0.457627
vt 0.574794 0.456030
vt 0.574970 0.460118
vt 0.575099 0.448126
vt 0.574618 0.451515
vt 0.574632 0.451883
vt 0.575548 0.441352
vt 0.575548 0.441352
vt 0.575587 0.441660
vt 0.573166 0.429575
vt 0.574048 0.428449
vt 0.574637 0.427697
vt 0.574840 0.427438
vt 0.571085 0.432232
vt 0.569410 0.434370
vt 0.575642 0.442095
vt 0.575681 0.442403
vt 0.575681 0.442403
vt 0.575587 0.441660
vt 0.575159 0.449512
vt 0.573527 0.450201
vt 0.573016 0.447799
vt 0.573393 0.453411
vt 0.569700 0.440208
vt 0.570931 0.442941
vt 0.570825 0.443176
vt 0.569500 0.440471
vt 0.195287 0.604470
vt 0.195004 0.600906
vt 0.195553 0.599700
vt 0.195714 0.603383
vt 0.573672 0.461999
vt 0.574344 0.460685
vt 0.574417 0.462391
vt 0.573568 0.464713
vt 0.574483 0.463842
vt 0.574466 0.463476
vt 0.571617 0.445727
vt 0.571984 0.444800
vt 0.572653 0.456668
vt 0.572520 0.460273
vt 0.572156 0.435126
vt 0.572132 0.431868
vt 0.571063 0.433232
vt 0.571087 0.436491
vt 0.575095 0.448045
vt 0.575565 0.441859
vt 0.575513 0.441405
vt 0.196893 0.596792
vt 0.196691 0.600868
vt 0.196473 0.601434
vt 0.196578 0.597474
vt 0.574260 0.458515
vt 0.573904 0.455952
vt 0.573790 0.458904
vt 0.574177 0.456119
vt 0.575640 0.442409
vt 0.575565 0.441859
vt 0.572175 0.436957
vt 0.572251 0.440030
vt 0.571701 0.441235
vt 0.571151 0.438304
vt 0.572988 0.464161
vt 0.573105 0.460961
vt 0.570157 0.434390
vt 0.570181 0.437648
vt 0.572411 0.443712
vt 0.572822 0.452310
vt 0.572829 0.442643
vt 0.196764 0.600677
vt 0.197002 0.596557
vt 0.569367 0.438687
vt 0.569575 0.438421
vt 0.569551 0.435163
vt 0.569343 0.435429
vt 0.573198 0.435610
vt 0.572804 0.438824
vt 0.574132 0.432603
vt 0.574108 0.429345
vt 0.574713 0.428572
vt 0.574737 0.431830
vt 0.573246 0.457188
vt 0.574922 0.428306
vt 0.574946 0.431564
vt 0.194541 0.601928
vt 0.194920 0.605398
vt 0.573225 0.433761
vt 0.573201 0.430503
vt 0.574065 0.434468
vt 0.573275 0.437803
vt 0.573625 0.448046
vt 0.572125 0.430904
vt 0.570282 0.439445
vt 0.571238 0.442258
vt 0.572910 0.466300
vt 0.572884 0.467037
vt 0.573473 0.467211
vt 0.573498 0.466566
vt 0.196131 0.602313
vt 0.196107 0.598495
vt 0.573662 0.447301
vt 0.573454 0.440020
vt 0.571285 0.446563
vt 0.571370 0.446349
vt 0.572435 0.462646
vt 0.572406 0.463457
vt 0.574644 0.433705
vt 0.573591 0.437122
vt 0.574036 0.451462
vt 0.574074 0.451611
vt 0.575639 0.442443
vt 0.575693 0.442832
vt 0.575327 0.453633
vt 0.575512 0.441445
vt 0.575565 0.441815
vt 0.575255 0.451891
vt 0.575512 0.441399
vt 0.575093 0.447998
vt 0.575265 0.451968
vt 0.575691 0.442854
vt 0.575642 0.442426
vt 0.575548 0.441352
vt 0.575639 0.442443
vt 0.575567 0.441832
vt 0.573699 0.436887
vt 0.574843 0.433442
vt 0.575691 0.442854
vt 0.575694 0.442840
vt 0.575330 0.453663
vt 0.194233 0.602611
vt 0.194127 0.602846
vt 0.194587 0.606233
vt 0.194673 0.606019
vt 0.575548 0.441352
vt 0.575168 0.449628
vt 0.575681 0.442403
vt 0.575681 0.442403
vt 0.575642 0.442095
s 1
usemtl Graveyard
f 64/1/1 62/2/2 101/3/3
f 44/2/4 70/4/5 87/3/6
f 177/5/7 169/6/7 150/6/7
f 22/7/8 4/8/9 43/9/10
f 65/10/11 28/7/12 61/9/13
f 86/11/14 88/12/15 84/13/16
f 99/14/17 78/15/18 100/16/19
f 105/17/20 107/18/21 95/19/22
f 81/20/23 79/14/24 83/15/25
f 103/21/26 111/22/27 104/23/28
f 90/13/29 102/12/30 93/11/31
f 194/24/32 191/25/32 184/26/32
f 154/27/7 155/28/7 160/28/7
f 155/28/7 162/29/7 160/28/7
f 162/29/7 163/30/7 165/29/7
f 160/28/7 162/29/7 165/29/7
f 173/31/7 150/6/7 169/6/7
f 150/6/7 152/5/7 177/5/7
f 152/5/7 148/32/7 177/5/7
f 97/16/33 83/15/25 79/14/24
f 91/19/34 114/18/35 112/17/36
f 186/33/32 180/34/32 185/33/32
f 180/34/32 189/35/32 185/33/32
f 181/36/32 194/24/32 184/26/32
f 108/23/37 110/21/38 84/37/16 88/12/15
f 104/23/28 102/12/30 90/13/29 103/21/26
f 63/38/39 61/9/13 50/39/40 51/40/41
f 126/41/42 13/42/43 16/43/44 124/44/45
f 2/45/46 3/46/47 26/47/48 25/48/49
f 67/49/50 106/50/51 98/51/52 59/52/53
f 80/53/54 81/20/23 83/15/25 82/54/55
f 12/55/56 2/56/46 68/57/57 58/58/58
f 127/59/59 167/60/59 175/61/60 141/62/60
f 103/63/26 90/13/29 183/64/61 190/65/62
f 5/66/63 4/67/9 22/68/8 21/69/64
f 113/50/65 114/18/35 91/19/34 89/70/66
f 49/71/67 47/72/68 89/70/66 92/73/69
f 192/74/70 182/75/71 181/36/72 185/33/73
f 117/76/74 26/77/48 3/78/47 146/79/75
f 56/58/76 57/80/77 76/81/78 75/57/79
f 170/82/80 140/83/80 141/62/60 175/61/60
f 95/19/22 107/18/21 106/50/51 94/70/81
f 2/56/46 25/84/49 53/85/82 68/57/57
f 25/84/49 23/86/83 41/39/84 53/85/82
f 65/67/11 72/87/85 1/88/86 8/66/87
f 123/89/88 134/90/89 178/91/89 147/92/88
f 120/93/90 24/94/91 26/77/48 117/76/74
f 40/71/92 85/73/93 94/70/81 52/72/94
f 137/95/95 159/96/95 166/97/96 135/98/96
f 51/40/41 50/39/40 46/85/97 48/99/98
f 164/100/99 115/101/99 135/98/96 166/97/96
f 10/46/100 7/102/101 6/103/102 9/45/103
f 159/96/95 137/95/95 119/104/104 157/105/104
f 52/72/94 94/70/81 106/50/51 67/49/50
f 138/106/105 21/107/64 24/94/91 120/93/90
f 122/93/106 128/76/107 19/77/108 30/94/109
f 71/108/110 70/1/5 44/2/4 45/38/111
f 69/81/112 60/80/113 58/58/58 68/57/57
f 131/106/114 122/93/106 30/94/109 27/107/115
f 154/27/7 160/28/7 158/27/7 168/109/7
f 139/110/116 133/41/117 18/42/118 7/111/101
f 149/82/119 174/61/120 145/62/120 143/83/119
f 115/101/99 164/100/99 161/97/121 130/98/121
f 39/112/122 36/113/123 34/114/124 37/115/125
f 156/96/126 132/95/126 130/98/121 161/97/121
f 149/82/119 143/83/119 125/90/127 151/91/127
f 6/55/102 56/58/76 75/57/79 9/56/103
f 186/33/32 185/33/32 181/36/32 184/26/32
f 151/91/127 125/90/127 123/89/88 147/92/88
f 87/3/6 70/4/5 108/23/37 88/12/15
f 170/82/80 178/91/89 134/90/89 140/83/80
f 42/40/128 40/71/92 52/72/94 54/99/129
f 134/90/130 123/89/131 124/44/131 133/41/132
f 176/31/7 172/109/7 173/31/7 169/6/7
f 20/48/133 29/116/134 30/117/109 19/47/108
f 44/2/4 87/3/6 85/73/93 40/71/92
f 66/108/135 73/118/136 72/119/85 65/8/11
f 9/56/103 75/57/79 46/85/97 20/84/133
f 20/84/133 46/85/97 50/39/40 29/86/134
f 47/72/68 74/49/137 113/50/65 89/70/66
f 74/49/137 55/52/138 96/51/139 113/50/65
f 28/68/12 65/67/11 8/66/87 27/69/115
f 15/120/140 14/121/141 31/122/142 35/123/143
f 136/124/144 5/125/63 21/107/64 138/106/105
f 62/2/2 49/71/67 92/73/69 101/3/3
f 23/86/83 22/7/8 43/9/10 41/39/84
f 14/121/141 12/55/56 58/58/58 31/122/142
f 104/23/28 111/22/27 109/126/145 64/4/1
f 47/72/68 49/71/67 51/40/41 48/99/98
f 73/118/136 109/127/145 70/1/5 71/108/110
f 124/44/131 123/89/131 125/90/146 126/41/147
f 41/39/84 43/9/10 45/38/111 42/40/128
f 75/57/79 76/81/78 48/99/98 46/85/97
f 55/52/138 37/115/125 82/54/55 96/51/139
f 137/95/148 138/106/149 120/93/150 119/104/151
f 160/28/152 165/29/153 166/97/154 159/96/155
f 128/76/107 142/79/156 10/78/100 19/77/108
f 105/17/20 192/128/157 188/129/158 99/130/17
f 76/81/78 57/80/77 55/52/138 74/49/137
f 110/21/38 193/131/159 182/132/160 84/37/16
f 146/79/75 3/78/47 11/111/161 144/110/162
f 96/51/139 97/16/33 114/18/35 113/50/65
f 129/124/163 131/106/114 27/107/115 8/125/87
f 17/121/164 38/122/165 56/58/76 6/55/102
f 67/49/50 69/81/112 54/99/129 52/72/94
f 86/11/14 84/13/16 105/133/20 95/19/22
f 35/123/143 36/113/123 39/112/122 38/122/165
f 109/126/145 111/22/27 108/23/37 70/4/5
f 193/134/159 110/135/38 103/21/26 190/131/62
f 78/15/18 81/20/23 80/53/54 77/54/166
f 111/22/27 103/21/26 110/21/38 108/23/37
f 112/136/36 79/14/24 179/137/167 187/138/168
f 24/117/91 23/116/83 25/48/49 26/47/48
f 193/131/169 194/139/170 181/36/72 182/132/71
f 187/140/171 186/33/172 184/26/173 183/141/174
f 54/99/129 69/81/112 68/57/57 53/85/82
f 43/9/10 4/8/9 71/108/110 45/38/111
f 119/104/151 120/93/150 117/76/175 118/59/176
f 163/30/177 164/100/177 166/97/154 165/29/153
f 114/18/35 97/16/33 79/14/24 112/17/36
f 1/88/86 72/87/85 4/67/9 5/66/63
f 99/130/17 100/16/19 107/18/21 105/17/20
f 49/71/67 62/2/2 63/38/39 51/40/41
f 59/52/53 98/51/52 77/54/166 32/115/178
f 104/23/28 64/4/1 101/3/3 102/12/30
f 140/83/179 134/90/130 133/41/132 139/110/180
f 144/110/162 11/111/161 13/42/43 126/41/42
f 21/69/64 22/68/8 23/116/83 24/117/91
f 93/11/31 91/19/34 112/17/36 90/13/29
f 129/124/163 8/125/87 1/142/86 116/143/181
f 102/12/30 101/3/3 92/73/69 93/11/31
f 37/115/125 34/114/124 80/53/54 82/54/55
f 99/14/17 79/14/24 81/20/23 78/15/18
f 107/18/21 100/16/19 98/51/52 106/50/51
f 53/85/82 41/39/84 42/40/128 54/99/129
f 45/38/111 44/2/4 40/71/92 42/40/128
f 19/47/108 10/46/100 9/45/103 20/48/133
f 48/99/98 76/81/78 74/49/137 47/72/68
f 94/70/81 85/73/93 86/11/14 95/19/22
f 99/14/17 188/144/158 179/145/167 79/146/24
f 33/112/182 36/113/123 35/123/143 31/122/142
f 116/143/183 115/101/183 130/98/184 129/124/185
f 62/2/2 64/1/1 66/108/135 63/38/39
f 133/41/117 124/44/45 16/43/44 18/42/118
f 29/116/134 28/68/12 27/69/115 30/117/109
f 158/27/186 160/28/152 159/96/155 157/105/187
f 172/109/188 158/27/186 157/105/187 171/60/189
f 32/115/178 77/54/166 80/53/54 34/114/124
f 142/79/156 139/110/116 7/111/101 10/78/100
f 72/119/85 73/118/136 71/108/110 4/8/9
f 59/52/53 60/80/113 69/81/112 67/49/50
f 136/124/144 116/143/181 1/142/86 5/125/63
f 15/120/140 35/123/143 38/122/165 17/121/164
f 18/147/118 16/148/44 15/149/140 17/150/164
f 93/11/31 92/73/69 89/70/66 91/19/34
f 12/103/56 11/102/161 3/46/47 2/45/46
f 144/110/190 143/83/191 145/62/192 146/79/193
f 15/149/140 16/148/44 13/147/43 14/150/141
f 161/97/194 162/29/194 155/28/195 156/96/196
f 131/106/197 129/124/185 130/98/184 132/95/198
f 82/54/55 83/15/25 97/16/33 96/51/139
f 7/102/101 18/147/118 17/150/164 6/103/102
f 64/1/1 109/127/145 73/118/136 66/108/135
f 126/41/147 125/90/146 143/83/191 144/110/190
f 85/73/93 87/3/6 88/12/15 86/11/14
f 161/97/194 164/100/177 163/30/177 162/29/194
f 122/93/199 131/106/197 132/95/198 121/104/200
f 141/62/201 140/83/179 139/110/180 142/79/202
f 14/150/141 13/147/43 11/102/161 12/103/56
f 135/98/203 115/101/183 116/143/183 136/124/204
f 146/79/193 145/62/192 118/59/176 117/76/175
f 57/80/77 39/112/122 37/115/125 55/52/138
f 32/115/178 33/112/182 60/80/113 59/52/53
f 127/59/205 141/62/201 142/79/202 128/76/206
f 168/109/7 158/27/7 172/109/7 176/31/7
f 66/108/135 65/8/11 61/9/13 63/38/39
f 60/80/113 33/112/182 31/122/142 58/58/58
f 100/16/19 78/15/18 77/54/166 98/51/52
f 169/6/207 170/82/208 175/61/209 176/31/210
f 156/96/196 155/28/195 154/27/211 153/105/212
f 174/61/213 149/82/214 150/6/215 173/31/216
f 171/60/189 174/61/213 173/31/216 172/109/188
f 176/31/210 175/61/209 167/60/217 168/109/218
f 177/5/219 178/91/219 170/82/208 169/6/207
f 149/82/214 151/91/220 152/5/221 150/6/215
f 148/32/222 147/92/222 178/91/219 177/5/219
f 151/91/220 147/92/222 148/32/222 152/5/221
f 153/105/212 154/27/211 168/109/218 167/60/217
f 135/98/203 136/124/204 138/106/149 137/95/148
f 128/76/206 122/93/199 121/104/200 127/59/205
f 38/122/165 39/112/122 57/80/77 56/58/76
f 153/105/223 121/104/223 132/95/126 156/96/126
f 194/24/170 193/134/169 190/131/224 191/151/225
f 184/26/173 191/25/225 190/65/224 183/64/174
f 90/152/29 112/17/36 187/140/168 183/141/61
f 84/13/16 182/75/160 192/74/157 105/133/20
f 29/86/134 50/39/40 61/9/13 28/7/12
f 179/137/226 180/153/227 186/33/172 187/138/171
f 189/154/228 180/34/227 179/145/226 188/144/229
f 185/155/73 189/35/228 188/129/229 192/128/70
f 34/114/124 36/113/123 33/112/182 32/115/178
f 145/62/120 174/61/120 171/60/230 118/59/230
f 171/60/230 157/105/104 119/104/104 118/59/230
f 127/59/59 121/104/223 153/105/223 167/60/59
