# Blender 4.1.1
# www.blender.org
mtllib Musshroom_1_1.mtl
o Musshroom_1_1
v 0.003335 0.031913 -0.015430
v -0.017632 0.000000 -0.003794
v -0.008565 0.031913 -0.013265
v -0.015449 0.031913 -0.003321
v -0.009774 0.000000 -0.015146
v -0.015161 -0.000000 0.009790
v -0.013285 0.031913 0.008579
v -0.003809 -0.000000 0.017647
v 0.008559 0.031913 0.013298
v 0.009774 -0.000000 0.015177
v 0.017632 -0.000000 0.003825
v 0.015443 0.031913 0.003354
v 0.013279 0.031913 -0.008546
v 0.015163 0.000000 -0.009759
v 0.003810 0.000000 -0.017617
v 0.044277 0.049899 0.009580
v 0.038074 0.049899 -0.024530
v 0.009567 0.049899 -0.044264
v 0.044277 0.068487 0.009580
v 0.038074 0.068487 -0.024530
v 0.024544 0.049899 0.038087
v 0.032010 0.031914 0.006929
v 0.027524 0.031914 -0.017729
v -0.024544 0.049899 -0.038059
v 0.009567 0.068487 -0.044264
v 0.006915 0.031914 -0.031994
v 0.024884 0.082429 -0.016027
v 0.028938 0.082429 0.006266
v 0.024544 0.068487 0.038087
v -0.009565 0.049899 0.044292
v 0.017743 0.031914 0.027537
v -0.006915 0.031914 0.032022
v -0.003340 0.031913 0.015463
v -0.027524 0.031914 0.017757
v -0.032008 0.031914 -0.006902
v -0.017743 0.031914 -0.027509
v -0.044277 0.049899 -0.009552
v -0.024544 0.068487 -0.038059
v 0.006252 0.082429 -0.028923
v 0.016042 0.082429 0.024897
v -0.009565 0.068487 0.044292
v -0.038072 0.049899 0.024559
v -0.044277 0.068487 -0.009552
v -0.016040 0.082429 -0.024869
v 0.000000 0.087076 0.000027
v -0.006252 0.082429 0.028951
v -0.038072 0.068487 0.024559
v -0.028936 0.082429 -0.006238
v -0.024882 0.082429 0.016055
vn 0.2605 0.8769 0.4040
vn -0.0000 1.0000 0.0001
vn -0.1015 0.8769 0.4699
vn -0.4040 0.8769 0.2605
vn -0.2604 0.8769 -0.4040
vn -0.4698 0.8769 -0.1015
vn 0.4699 0.8769 0.1015
vn 0.4040 0.8769 -0.2605
vn 0.1015 0.8769 -0.4698
vn -0.0000 1.0000 -0.0000
vn -0.5020 0.3765 -0.7786
vn -0.5200 -0.2809 -0.8066
vn -0.9381 -0.2809 -0.2027
vn -0.9055 0.3765 -0.1956
vn 0.2027 -0.2809 -0.9381
vn 0.1956 0.3765 -0.9055
vn -0.9751 0.0698 -0.2107
vn -0.5405 0.0699 -0.8384
vn -0.0000 -1.0000 -0.0000
vn 0.2944 -0.8395 0.4567
vn -0.1148 -0.8395 0.5312
vn 0.4567 -0.8395 -0.2944
vn 0.1148 -0.8395 -0.5312
vn 0.8067 -0.2809 -0.5200
vn -0.8384 0.0698 0.5405
vn -0.2106 0.0699 0.9751
vn -0.2107 0.0699 0.9751
vn -0.7786 0.3765 0.5020
vn -0.1956 0.3765 0.9055
vn 0.5405 0.0699 0.8384
vn 0.9381 -0.2809 0.2027
vn 0.5312 -0.8394 0.1148
vn -0.5312 -0.8395 -0.1148
vn -0.2944 -0.8395 -0.4567
vn 0.5200 -0.2809 0.8066
vn -0.2027 -0.2809 0.9381
vn -0.4568 -0.8394 0.2945
vn -0.8066 -0.2809 0.5200
vn 0.7786 0.3765 -0.5019
vn 0.5020 0.3765 0.7786
vn 0.9055 0.3765 0.1956
vn 0.9750 0.0700 0.2107
vn 0.8384 0.0700 -0.5405
vn 0.2107 0.0700 -0.9750
vn 0.2106 0.0700 -0.9751
vt 0.203748 0.144831
vt 0.203219 0.150382
vt 0.204425 0.146475
vt 0.204459 0.149059
vt 0.202583 0.151025
vt 0.203696 0.151098
vt 0.202821 0.144780
vt 0.202072 0.146341
vt 0.201921 0.148904
vt 0.202990 0.117376
vt 0.203875 0.117482
vt 0.203510 0.117378
vt 0.202525 0.117624
vt 0.203460 0.117746
vt 0.203869 0.117633
vt 0.202584 0.117473
vt 0.202886 0.117742
vt 0.202186 0.143544
vt 0.202179 0.130697
vt 0.203993 0.130750
vt 0.203992 0.143638
vt 0.201175 0.129186
vt 0.201185 0.140891
vt 0.099631 0.075553
vt 0.099597 0.096043
vt 0.099023 0.096039
vt 0.098967 0.075573
vt 0.203799 0.117210
vt 0.204558 0.117409
vt 0.201939 0.117393
vt 0.201756 0.117706
vt 0.201487 0.127494
vt 0.100103 0.076108
vt 0.100105 0.076848
vt 0.100012 0.095779
vt 0.100006 0.095930
vt 0.205164 0.141080
vt 0.205035 0.138070
vt 0.099685 0.077342
vt 0.099647 0.095675
vt 0.202630 0.126529
vt 0.202774 0.117204
vt 0.203753 0.117979
vt 0.202493 0.117969
vt 0.203995 0.126559
vt 0.205040 0.127580
vt 0.204606 0.117725
vt 0.205170 0.129293
vt 0.201495 0.137920
vt 0.203994 0.136275
vt 0.202634 0.136222
vt 0.099093 0.077356
vt 0.098626 0.076887
vt 0.098720 0.095770
vt 0.099127 0.095673
vt 0.098553 0.076152
vt 0.098662 0.095922
s 1
usemtl Graveyard
f 40/1/1 45/2/2 46/3/3
f 49/4/4 46/3/3 45/2/2
f 45/2/2 44/5/5 48/6/6
f 45/2/2 28/7/7 27/8/8
f 45/2/2 48/6/6 49/4/4
f 45/2/2 39/9/9 44/5/5
f 12/10/10 33/11/10 9/12/10
f 27/8/8 39/9/9 45/2/2
f 1/13/10 4/14/10 7/15/10
f 28/7/7 45/2/2 40/1/1
f 12/10/10 13/16/10 33/11/10
f 1/13/10 3/17/10 4/14/10
f 38/18/11 24/19/12 37/20/13 43/21/14
f 18/22/15 24/19/12 38/18/11 25/23/16
f 2/24/17 4/25/17 3/26/18 5/27/18
f 9/12/19 31/28/20 32/29/21 33/11/19
f 23/30/22 26/31/23 18/22/15 17/32/24
f 6/33/25 8/34/26 33/35/27 7/36/25
f 46/3/3 49/4/4 47/37/28 41/38/29
f 13/16/19 1/13/19 26/31/23 23/30/22
f 8/34/26 10/39/30 9/40/30 33/35/27
f 23/30/22 17/32/24 16/41/31 22/42/32
f 35/43/33 37/20/13 24/19/12 36/44/34
f 36/44/34 26/31/23 1/13/19 3/17/19
f 6/33/25 7/36/25 4/25/17 2/24/17
f 21/45/35 30/46/36 32/29/21 31/28/20
f 37/20/13 35/43/33 34/47/37 42/48/38
f 13/16/19 23/30/22 22/42/32 12/10/19
f 12/10/19 22/42/32 31/28/20 9/12/19
f 24/19/12 18/22/15 26/31/23 36/44/34
f 22/42/32 16/41/31 21/45/35 31/28/20
f 27/8/8 20/49/39 25/23/16 39/9/9
f 40/1/1 29/50/40 19/51/41 28/7/7
f 38/18/11 44/5/5 39/9/9 25/23/16
f 11/52/42 14/53/43 13/54/43 12/55/42
f 34/47/37 7/15/19 33/11/19 32/29/21
f 43/21/14 37/20/13 42/48/38 47/37/28
f 38/18/11 43/21/14 48/6/6 44/5/5
f 43/21/14 47/37/28 49/4/4 48/6/6
f 13/54/43 14/53/43 15/56/44 1/57/45
f 46/3/3 41/38/29 29/50/40 40/1/1
f 1/57/45 15/56/44 5/27/18 3/26/18
f 20/49/39 27/8/8 28/7/7 19/51/41
f 10/39/30 11/52/42 12/55/42 9/40/30
f 41/38/29 30/46/36 21/45/35 29/50/40
f 20/49/39 19/51/41 16/41/31 17/32/24
f 19/51/41 29/50/40 21/45/35 16/41/31
f 1/13/10 7/15/10 33/11/10 13/16/10
f 35/43/33 36/44/34 3/17/19 4/14/19
f 34/47/37 35/43/33 4/14/19 7/15/19
f 32/29/21 30/46/36 42/48/38 34/47/37
f 18/22/15 25/23/16 20/49/39 17/32/24
f 42/48/38 30/46/36 41/38/29 47/37/28
