# Blender 4.1.1
# www.blender.org
mtllib Musshroom_1_2.mtl
o Musshroom_1_2
v 0.003335 0.031913 -0.015430
v -0.017632 0.000000 -0.003794
v -0.008565 0.031913 -0.013265
v -0.015449 0.031913 -0.003321
v -0.009774 0.000000 -0.015146
v -0.015161 -0.000000 0.009790
v -0.013285 0.031913 0.008579
v -0.003809 -0.000000 0.017647
v 0.008559 0.031913 0.013298
v 0.009774 -0.000000 0.015177
v 0.017632 -0.000000 0.003825
v 0.015443 0.031913 0.003354
v 0.013279 0.031913 -0.008546
v 0.015163 0.000000 -0.009759
v 0.003810 0.000000 -0.017617
v 0.044277 0.049899 0.009580
v 0.038074 0.049899 -0.024530
v 0.009567 0.049899 -0.044264
v 0.044277 0.068487 0.009580
v 0.038074 0.068487 -0.024530
v 0.024544 0.049899 0.038087
v 0.032010 0.031914 0.006929
v 0.027524 0.031914 -0.017729
v -0.024544 0.049899 -0.038059
v 0.009567 0.068487 -0.044264
v 0.006915 0.031914 -0.031994
v 0.024884 0.082429 -0.016027
v 0.028938 0.082429 0.006266
v 0.024544 0.068487 0.038087
v -0.009565 0.049899 0.044292
v 0.017743 0.031914 0.027537
v -0.006915 0.031914 0.032022
v -0.003340 0.031913 0.015463
v -0.027524 0.031914 0.017757
v -0.032008 0.031914 -0.006902
v -0.017743 0.031914 -0.027509
v -0.044277 0.049899 -0.009552
v -0.024544 0.068487 -0.038059
v 0.006252 0.082429 -0.028923
v 0.016042 0.082429 0.024897
v -0.009565 0.068487 0.044292
v -0.038072 0.049899 0.024559
v -0.044277 0.068487 -0.009552
v -0.016040 0.082429 -0.024869
v 0.000000 0.087076 0.000027
v -0.006252 0.082429 0.028951
v -0.038072 0.068487 0.024559
v -0.028936 0.082429 -0.006238
v -0.024882 0.082429 0.016055
vn 0.2605 0.8769 0.4040
vn -0.0000 1.0000 0.0001
vn -0.1015 0.8769 0.4699
vn -0.4040 0.8769 0.2605
vn -0.2604 0.8769 -0.4040
vn -0.4698 0.8769 -0.1015
vn 0.4699 0.8769 0.1015
vn 0.4040 0.8769 -0.2605
vn 0.1015 0.8769 -0.4698
vn -0.0000 1.0000 -0.0000
vn -0.5020 0.3765 -0.7786
vn -0.5200 -0.2809 -0.8066
vn -0.9381 -0.2809 -0.2027
vn -0.9055 0.3765 -0.1956
vn 0.2027 -0.2809 -0.9381
vn 0.1956 0.3765 -0.9055
vn -0.9751 0.0698 -0.2107
vn -0.5405 0.0699 -0.8384
vn -0.0000 -1.0000 -0.0000
vn 0.2944 -0.8395 0.4567
vn -0.1148 -0.8395 0.5312
vn 0.4567 -0.8395 -0.2944
vn 0.1148 -0.8395 -0.5312
vn 0.8067 -0.2809 -0.5200
vn -0.8384 0.0698 0.5405
vn -0.2106 0.0699 0.9751
vn -0.2107 0.0699 0.9751
vn -0.7786 0.3765 0.5020
vn -0.1956 0.3765 0.9055
vn 0.5405 0.0699 0.8384
vn 0.9381 -0.2809 0.2027
vn 0.5312 -0.8394 0.1148
vn -0.5312 -0.8395 -0.1148
vn -0.2944 -0.8395 -0.4567
vn 0.5200 -0.2809 0.8066
vn -0.2027 -0.2809 0.9381
vn -0.4568 -0.8394 0.2945
vn -0.8066 -0.2809 0.5200
vn 0.7786 0.3765 -0.5019
vn 0.5020 0.3765 0.7786
vn 0.9055 0.3765 0.1956
vn 0.9750 0.0700 0.2107
vn 0.8384 0.0700 -0.5405
vn 0.2107 0.0700 -0.9750
vn 0.2106 0.0700 -0.9751
vt 0.992797 0.949383
vt 0.992268 0.954934
vt 0.993475 0.951027
vt 0.993508 0.953611
vt 0.991632 0.955577
vt 0.992746 0.955650
vt 0.991870 0.949332
vt 0.991122 0.950893
vt 0.990971 0.953456
vt 0.992040 0.921928
vt 0.992925 0.922034
vt 0.992560 0.921930
vt 0.991575 0.922176
vt 0.992509 0.922298
vt 0.992919 0.922185
vt 0.991634 0.922025
vt 0.991936 0.922294
vt 0.991236 0.948096
vt 0.991229 0.935248
vt 0.993043 0.935301
vt 0.993042 0.948189
vt 0.990225 0.933738
vt 0.990235 0.945443
vt 0.099631 0.075553
vt 0.099597 0.096043
vt 0.099023 0.096039
vt 0.098967 0.075573
vt 0.992848 0.921762
vt 0.993608 0.921961
vt 0.990988 0.921944
vt 0.990806 0.922257
vt 0.990537 0.932046
vt 0.100103 0.076108
vt 0.100105 0.076848
vt 0.100012 0.095779
vt 0.100006 0.095930
vt 0.994214 0.945632
vt 0.994085 0.942621
vt 0.099685 0.077342
vt 0.099647 0.095675
vt 0.991680 0.931081
vt 0.991824 0.921756
vt 0.992803 0.922530
vt 0.991543 0.922521
vt 0.993045 0.931111
vt 0.994090 0.932132
vt 0.993656 0.922277
vt 0.994220 0.933845
vt 0.990545 0.942471
vt 0.993044 0.940827
vt 0.991683 0.940774
vt 0.099093 0.077356
vt 0.098626 0.076887
vt 0.098720 0.095770
vt 0.099127 0.095673
vt 0.098553 0.076152
vt 0.098662 0.095922
s 1
usemtl Graveyard
f 40/1/1 45/2/2 46/3/3
f 49/4/4 46/3/3 45/2/2
f 45/2/2 44/5/5 48/6/6
f 45/2/2 28/7/7 27/8/8
f 45/2/2 48/6/6 49/4/4
f 45/2/2 39/9/9 44/5/5
f 12/10/10 33/11/10 9/12/10
f 27/8/8 39/9/9 45/2/2
f 1/13/10 4/14/10 7/15/10
f 28/7/7 45/2/2 40/1/1
f 12/10/10 13/16/10 33/11/10
f 1/13/10 3/17/10 4/14/10
f 38/18/11 24/19/12 37/20/13 43/21/14
f 18/22/15 24/19/12 38/18/11 25/23/16
f 2/24/17 4/25/17 3/26/18 5/27/18
f 9/12/19 31/28/20 32/29/21 33/11/19
f 23/30/22 26/31/23 18/22/15 17/32/24
f 6/33/25 8/34/26 33/35/27 7/36/25
f 46/3/3 49/4/4 47/37/28 41/38/29
f 13/16/19 1/13/19 26/31/23 23/30/22
f 8/34/26 10/39/30 9/40/30 33/35/27
f 23/30/22 17/32/24 16/41/31 22/42/32
f 35/43/33 37/20/13 24/19/12 36/44/34
f 36/44/34 26/31/23 1/13/19 3/17/19
f 6/33/25 7/36/25 4/25/17 2/24/17
f 21/45/35 30/46/36 32/29/21 31/28/20
f 37/20/13 35/43/33 34/47/37 42/48/38
f 13/16/19 23/30/22 22/42/32 12/10/19
f 12/10/19 22/42/32 31/28/20 9/12/19
f 24/19/12 18/22/15 26/31/23 36/44/34
f 22/42/32 16/41/31 21/45/35 31/28/20
f 27/8/8 20/49/39 25/23/16 39/9/9
f 40/1/1 29/50/40 19/51/41 28/7/7
f 38/18/11 44/5/5 39/9/9 25/23/16
f 11/52/42 14/53/43 13/54/43 12/55/42
f 34/47/37 7/15/19 33/11/19 32/29/21
f 43/21/14 37/20/13 42/48/38 47/37/28
f 38/18/11 43/21/14 48/6/6 44/5/5
f 43/21/14 47/37/28 49/4/4 48/6/6
f 13/54/43 14/53/43 15/56/44 1/57/45
f 46/3/3 41/38/29 29/50/40 40/1/1
f 1/57/45 15/56/44 5/27/18 3/26/18
f 20/49/39 27/8/8 28/7/7 19/51/41
f 10/39/30 11/52/42 12/55/42 9/40/30
f 41/38/29 30/46/36 21/45/35 29/50/40
f 20/49/39 19/51/41 16/41/31 17/32/24
f 19/51/41 29/50/40 21/45/35 16/41/31
f 1/13/10 7/15/10 33/11/10 13/16/10
f 35/43/33 36/44/34 3/17/19 4/14/19
f 34/47/37 35/43/33 4/14/19 7/15/19
f 32/29/21 30/46/36 42/48/38 34/47/37
f 18/22/15 25/23/16 20/49/39 17/32/24
f 42/48/38 30/46/36 41/38/29 47/37/28
