# Blender 4.1.1
# www.blender.org
mtllib Pilar_1_1.mtl
o Pilar_1_1
v 0.196746 0.000000 -0.212722
v 0.232238 0.000000 -0.188044
v 0.196746 0.146791 -0.212722
v 0.196746 0.180046 -0.188044
v 0.232238 0.146791 -0.188044
v 0.232238 0.000000 0.188042
v 0.196747 0.000000 0.212720
v 0.196747 0.180046 0.188042
v 0.196747 0.146791 0.212720
v 0.232238 0.146791 0.188042
v -0.232238 0.000000 -0.188044
v -0.196747 0.000000 -0.212721
v -0.196747 0.180046 -0.188044
v -0.196747 0.146791 -0.212721
v -0.232238 0.146791 -0.188044
v -0.196746 0.000000 0.212720
v -0.232238 0.000000 0.188042
v -0.196746 0.180046 0.188042
v -0.232238 0.146791 0.188042
v -0.196746 0.146791 0.212720
v -0.183887 0.879358 0.154790
v -0.162992 0.879356 0.175683
v -0.162391 0.900236 0.154283
v -0.163048 0.858480 -0.175889
v -0.183944 0.858478 -0.154991
v -0.162391 0.879354 -0.154283
v 0.163242 0.858480 -0.175902
v 0.162391 0.879354 -0.154283
v 0.184146 0.858486 -0.155002
v 0.162867 0.879356 0.175689
v 0.183759 0.879355 0.154797
v -0.174467 0.563712 0.185351
v -0.195174 0.571814 0.164252
v -0.171621 0.611142 -0.185149
v -0.192654 0.604808 -0.164459
v 0.174219 0.615842 -0.185133
v 0.194920 0.610083 -0.164450
v 0.174946 0.588333 -0.166063
v 0.171828 0.568418 0.185349
v 0.172457 0.554189 0.166067
v 0.192840 0.577106 0.164250
v 0.184154 0.194351 -0.155009
v 0.162391 0.173483 -0.154283
v 0.163250 0.194356 -0.175908
v 0.184443 0.194337 0.155503
v 0.163524 0.194331 0.176427
v 0.162391 0.173483 0.154283
v -0.183974 0.194358 -0.155022
v -0.163077 0.194356 -0.175922
v -0.162391 0.173483 -0.154283
v -0.163873 0.194329 0.176465
v -0.184814 0.194312 0.155537
v -0.162391 0.173483 0.154283
v 0.183277 1.135992 -0.154283
v 0.162391 1.135992 -0.175170
v 0.162391 1.156878 -0.154283
v 0.183277 1.135992 0.154283
v 0.162391 1.156878 0.154283
v 0.162391 1.135992 0.175170
v -0.162391 1.135992 0.175170
v -0.162391 1.156878 0.154283
v -0.183277 1.135992 0.154283
v -0.183277 1.135992 -0.154283
v -0.162391 1.156878 -0.154283
v -0.162391 1.135992 -0.175169
v -0.171609 0.569392 -0.185117
v -0.192609 0.560590 -0.163915
v -0.172457 0.583611 -0.166067
v 0.192143 0.533149 0.164061
v 0.171094 0.526676 0.184611
v -0.194239 0.527900 0.164036
v -0.173522 0.521995 0.184571
v -0.174946 0.549467 0.166063
v 0.194886 0.565888 -0.163926
v 0.174186 0.574091 -0.185125
v 0.183277 0.921122 0.154283
v 0.162391 0.921122 0.175170
v 0.162391 0.900236 0.154283
v -0.183277 0.921122 0.154283
v -0.162391 0.921122 0.175170
v -0.183277 0.900240 -0.154283
v -0.162391 0.900240 -0.175169
v 0.183277 0.900240 -0.154283
v 0.162391 0.900240 -0.175170
v 0.203418 1.218819 -0.219934
v 0.203418 1.252074 -0.194419
v 0.240113 1.218819 -0.194419
v 0.203418 1.252074 0.194419
v 0.203418 1.218819 0.219933
v 0.240113 1.218819 0.194419
v -0.203418 1.252074 -0.194419
v -0.203418 1.218819 -0.219934
v -0.240113 1.218819 -0.194419
v -0.203418 1.252074 0.194419
v -0.240113 1.218819 0.194419
v -0.203418 1.218819 0.219934
v 0.194830 1.083548 -0.205518
v 0.203418 1.102337 -0.219934
v 0.219380 1.083548 -0.188448
v 0.240113 1.102337 -0.194419
v 0.219380 1.083548 0.188448
v 0.240113 1.102337 0.194419
v 0.194830 1.083548 0.205518
v 0.203418 1.102337 0.219933
v -0.219380 1.083548 -0.188448
v -0.240113 1.102337 -0.194419
v -0.194830 1.083548 -0.205518
v -0.203418 1.102337 -0.219934
v -0.194830 1.083548 0.205518
v -0.203418 1.102337 0.219934
v -0.219380 1.083548 0.188448
v -0.240113 1.102337 0.194419
vn 0.2749 0.2896 -0.9168
vn 0.3203 0.8576 -0.4023
vn 0.8444 0.3445 -0.4103
vn 0.3203 0.8576 0.4023
vn 0.2749 0.2896 0.9168
vn 0.8444 0.3445 0.4103
vn -0.3203 0.8576 -0.4023
vn -0.2749 0.2896 -0.9168
vn -0.8444 0.3445 -0.4103
vn -0.3203 0.8576 0.4023
vn -0.8444 0.3445 0.4103
vn -0.2749 0.2896 0.9168
vn -0.8665 0.3795 0.3243
vn -0.3360 0.3678 0.8671
vn -0.4499 0.7769 0.4405
vn -0.3369 0.3727 -0.8647
vn -0.8647 0.3620 -0.3482
vn -0.4485 0.7662 -0.4601
vn 0.3365 0.3752 -0.8637
vn 0.4468 0.7675 -0.4598
vn 0.8650 0.3648 -0.3445
vn 0.3359 0.3662 0.8678
vn 0.8659 0.3783 0.3274
vn 0.4505 0.7765 0.4406
vn -0.3637 -0.3976 0.8424
vn -0.9047 -0.2970 0.3054
vn -0.4990 -0.7873 0.3621
vn -0.3382 -0.2321 -0.9120
vn -0.4687 -0.6703 -0.5754
vn -0.8751 -0.2970 -0.3821
vn 0.3467 -0.2275 -0.9100
vn 0.8811 -0.2891 -0.3743
vn 0.4817 -0.6667 -0.5688
vn 0.3678 -0.3947 0.8420
vn 0.5092 -0.7785 0.3670
vn 0.9041 -0.2919 0.3122
vn 0.8661 -0.3689 -0.3374
vn 0.4444 -0.7760 -0.4475
vn 0.3380 -0.3667 -0.8668
vn 0.8648 -0.3703 0.3392
vn 0.3378 -0.3715 0.8648
vn 0.4417 -0.7824 0.4390
vn -0.8651 -0.3679 -0.3408
vn -0.3376 -0.3652 -0.8676
vn -0.4448 -0.7757 -0.4477
vn -0.3381 -0.3738 0.8637
vn -0.8650 -0.3732 0.3355
vn -0.4382 -0.7847 0.4383
vn 0.8756 0.3416 -0.3416
vn 0.3416 0.3416 -0.8756
vn 0.4606 0.7588 -0.4606
vn 0.8756 0.3416 0.3416
vn 0.4606 0.7588 0.4606
vn 0.3416 0.3416 0.8756
vn -0.3416 0.3416 0.8756
vn -0.4606 0.7588 0.4606
vn -0.8756 0.3416 0.3416
vn -0.8756 0.3416 -0.3416
vn -0.4606 0.7588 -0.4606
vn -0.3416 0.3416 -0.8756
vn -0.3674 0.3949 -0.8421
vn -0.9046 0.2923 -0.3103
vn -0.5157 0.7717 -0.3723
vn 0.8753 0.2979 0.3809
vn 0.4755 0.6588 0.5830
vn 0.3352 0.2336 0.9127
vn -0.8811 0.2899 0.3736
vn -0.3428 0.2295 0.9109
vn -0.4898 0.6540 0.5766
vn 0.9050 0.2976 -0.3038
vn 0.3628 0.3977 -0.8427
vn 0.5060 0.7803 -0.3677
vn 0.8747 -0.3318 0.3531
vn 0.3416 -0.3416 0.8756
vn 0.4599 -0.7523 0.4718
vn -0.8747 -0.3318 0.3531
vn -0.4599 -0.7523 0.4718
vn -0.3416 -0.3416 0.8756
vn -0.8765 -0.3512 -0.3292
vn -0.3416 -0.3416 -0.8756
vn -0.4606 -0.7650 -0.4502
vn 0.8765 -0.3512 -0.3292
vn 0.4606 -0.7650 -0.4502
vn 0.3416 -0.3416 -0.8756
vn 0.2742 0.2964 -0.9149
vn 0.3145 0.8623 -0.3970
vn 0.8422 0.3510 -0.4092
vn 0.3145 0.8623 0.3970
vn 0.2742 0.2964 0.9149
vn 0.8422 0.3510 0.4092
vn -0.3145 0.8623 -0.3970
vn -0.2742 0.2964 -0.9149
vn -0.8422 0.3510 -0.4092
vn -0.3145 0.8623 0.3970
vn -0.8422 0.3510 0.4092
vn -0.2742 0.2964 0.9149
vn -0.2991 -0.0000 0.9542
vn 0.2991 -0.0000 0.9542
vn 0.8862 -0.0000 -0.4632
vn 0.2991 -0.0000 -0.9542
vn 0.8862 -0.0000 0.4632
vn -0.8862 -0.0000 0.4632
vn -0.2991 -0.0000 -0.9542
vn -0.8862 -0.0000 -0.4632
vn 0.8279 -0.3716 -0.4202
vn 0.2913 -0.3312 -0.8975
vn 0.2913 -0.3312 0.8975
vn 0.8279 -0.3716 0.4202
vn -0.2913 -0.3312 0.8975
vn 0.3813 -0.8947 0.2326
vn 0.1267 -0.8778 0.4619
vn -0.3813 -0.8947 -0.2326
vn -0.8279 -0.3716 -0.4202
vn -0.2913 -0.3312 -0.8975
vn -0.1267 -0.8778 -0.4619
vn 0.1267 -0.8778 -0.4619
vn -0.1267 -0.8778 0.4619
vn -0.3813 -0.8947 0.2326
vn -0.8279 -0.3716 0.4202
vn 0.3813 -0.8947 -0.2326
vt 0.782187 0.069032
vt 0.782187 0.057503
vt 0.782051 0.069032
vt 0.783697 0.057503
vt 0.783697 0.069032
vt 0.783833 0.069032
vt 0.783697 0.057503
vt 0.783612 0.057503
vt 0.783611 0.057503
vt 0.783612 0.057503
vt 0.783697 0.057503
vt 0.783611 0.057503
vt 0.782272 0.057503
vt 0.782273 0.057503
vt 0.782272 0.057503
vt 0.782273 0.057503
vt 0.783615 0.057503
vt 0.783697 0.057503
vt 0.783616 0.057503
vt 0.783615 0.057503
vt 0.783616 0.057503
vt 0.783697 0.057503
vt 0.782269 0.057503
vt 0.782187 0.057503
vt 0.782268 0.057503
vt 0.782269 0.057503
vt 0.782268 0.057503
vt 0.782187 0.057503
vt 0.782272 0.057503
vt 0.782272 0.057503
vt 0.783612 0.057503
vt 0.783612 0.057503
vt 0.783611 0.057503
vt 0.782273 0.057503
vt 0.782187 0.057503
vt 0.782273 0.057503
vt 0.783611 0.057503
vt 0.783697 0.057503
vt 0.783615 0.057503
vt 0.783697 0.057503
vt 0.783616 0.057503
vt 0.782269 0.057503
vt 0.783697 0.057503
vt 0.783615 0.057503
vt 0.783616 0.057503
vt 0.782269 0.057503
vt 0.782268 0.057503
vt 0.782187 0.057503
vt 0.782273 0.057503
vt 0.783611 0.057503
vt 0.783611 0.057503
vt 0.783611 0.057503
vt 0.782273 0.057503
vt 0.783697 0.159104
vt 0.782187 0.159104
vt 0.782051 0.159104
vt 0.783833 0.159104
vt 0.782051 0.146593
vt 0.782187 0.146593
vt 0.783697 0.146593
vt 0.782127 0.159104
vt 0.782219 0.159104
vt 0.783756 0.159104
vt 0.783833 0.146593
vt 0.783665 0.159104
vt 0.782219 0.159104
vt 0.783665 0.159104
vt 0.783756 0.159104
vt 0.782128 0.159104
s 1
usemtl Graveyard
f 3/1/1 4/2/2 5/3/3
f 8/2/4 9/1/5 10/3/6
f 13/4/7 14/5/8 15/6/9
f 18/4/10 19/6/11 20/5/12
f 21/7/13 22/8/14 23/9/15
f 24/10/16 25/11/17 26/12/18
f 27/13/19 28/14/20 29/2/21
f 30/15/22 31/2/23 78/16/24
f 32/17/25 33/18/26 73/19/27
f 34/20/28 68/21/29 35/22/30
f 36/23/31 37/24/32 38/25/33
f 39/26/34 40/27/35 41/2/36
f 42/28/37 43/14/38 44/29/39
f 45/2/40 46/30/41 47/16/42
f 48/4/43 49/31/44 50/9/45
f 51/32/46 52/22/47 53/33/48
f 54/2/49 55/34/50 56/14/51
f 57/35/52 58/36/53 59/36/54
f 60/37/55 61/33/56 62/38/57
f 63/7/58 64/9/59 65/33/60
f 66/39/61 67/40/62 68/41/63
f 69/2/64 40/27/65 70/42/66
f 71/43/67 72/44/68 73/45/69
f 74/24/70 75/46/71 38/47/72
f 76/48/73 77/49/74 78/36/75
f 79/38/76 23/50/77 80/51/78
f 81/22/79 82/33/80 26/52/81
f 83/2/82 28/16/83 84/53/84
f 85/1/85 86/2/86 87/3/87
f 88/2/88 89/1/89 90/3/90
f 91/4/91 92/5/92 93/6/93
f 94/4/94 95/6/95 96/5/96
f 16/54/97 7/55/98 9/1/5 20/5/12
f 2/56/99 1/55/100 3/1/1 5/3/3
f 5/3/3 4/2/2 8/2/4 10/3/6
f 10/3/6 9/1/5 7/55/98 6/56/101
f 9/1/5 8/2/4 18/4/10 20/5/12
f 20/5/12 19/6/11 17/57/102 16/54/97
f 19/6/11 18/4/10 13/4/7 15/6/9
f 15/6/9 14/5/8 12/54/103 11/57/104
f 14/5/8 13/4/7 4/2/2 3/1/1
f 6/56/101 2/56/99 5/3/3 10/3/6
f 100/58/105 98/59/106 85/1/85 87/3/87
f 54/2/49 56/14/51 58/36/53 57/35/52
f 90/3/90 89/1/89 104/59/107 102/58/108
f 34/20/28 35/22/30 25/11/17 24/10/16
f 42/28/37 45/2/40 47/16/42 43/14/38
f 73/45/69 68/41/63 67/40/62 71/43/67
f 46/30/41 51/32/46 53/33/48 47/16/42
f 76/48/73 83/2/82 54/2/49 57/35/52
f 55/34/50 84/53/84 82/33/80 65/33/60
f 110/60/109 104/59/107 89/1/89 96/5/96
f 68/41/63 38/47/72 75/46/71 66/39/61
f 36/23/31 34/20/28 24/10/16 27/13/19
f 79/38/76 62/38/57 63/7/58 81/22/79
f 33/18/26 35/22/30 68/21/29 73/19/27
f 30/15/22 39/26/34 41/2/36 31/2/23
f 22/8/14 21/7/13 33/18/26 32/17/25
f 44/29/39 75/46/71 74/24/70 42/28/37
f 101/61/110 102/58/108 104/59/107 103/62/111
f 41/2/36 40/27/35 38/25/33 37/24/32
f 36/23/31 27/13/19 29/2/21 37/24/32
f 44/29/39 49/31/44 66/39/61 75/46/71
f 49/31/44 44/29/39 43/14/38 50/9/45
f 40/27/65 69/2/64 74/24/70 38/47/72
f 28/14/20 27/13/19 24/10/16 26/12/18
f 42/28/37 74/24/70 69/2/64 45/2/40
f 46/30/41 70/42/66 72/44/68 51/32/46
f 48/4/43 50/9/45 53/33/48 52/22/47
f 26/12/18 25/11/17 21/7/13 23/9/15
f 83/2/82 76/48/73 78/36/75 28/16/83
f 39/26/34 30/15/22 22/8/14 32/17/25
f 23/9/15 22/8/14 30/15/22 78/16/24
f 32/17/25 73/19/27 40/27/35 39/26/34
f 13/4/7 18/4/10 8/2/4 4/2/2
f 1/55/100 12/54/103 14/5/8 3/1/1
f 62/38/57 61/33/56 64/9/59 63/7/58
f 105/63/112 106/64/113 108/60/114 107/65/115
f 107/65/115 97/66/116 103/62/111 109/67/117
f 49/31/44 48/4/43 67/40/62 66/39/61
f 65/33/60 64/9/59 56/14/51 55/34/50
f 79/38/76 80/51/78 60/37/55 62/38/57
f 34/20/28 36/23/31 38/25/33 68/21/29
f 83/2/82 84/53/84 55/34/50 54/2/49
f 48/4/43 52/22/47 71/43/67 67/40/62
f 28/14/20 78/16/24 31/2/23 29/2/21
f 70/42/66 46/30/41 45/2/40 69/2/64
f 105/63/112 111/68/118 112/64/119 106/64/113
f 81/22/79 26/52/81 23/50/77 79/38/76
f 37/24/32 29/2/21 31/2/23 41/2/36
f 73/45/69 72/44/68 70/42/66 40/27/65
f 35/22/30 33/18/26 21/7/13 25/11/17
f 72/44/68 71/43/67 52/22/47 51/32/46
f 63/7/58 65/33/60 82/33/80 81/22/79
f 57/35/52 59/36/54 77/49/74 76/48/73
f 26/52/81 82/33/80 84/53/84 28/16/83
f 102/58/108 100/58/105 87/3/87 90/3/90
f 96/5/96 95/6/95 112/64/119 110/60/109
f 91/4/91 94/4/94 88/2/88 86/2/86
f 93/6/93 92/5/92 108/60/114 106/64/113
f 98/59/106 108/60/114 92/5/92 85/1/85
f 87/3/87 86/2/86 88/2/88 90/3/90
f 89/1/89 88/2/88 94/4/94 96/5/96
f 60/37/55 80/51/78 77/49/74 59/36/54
f 95/6/95 94/4/94 91/4/91 93/6/93
f 106/64/113 112/64/119 95/6/95 93/6/93
f 98/59/106 97/66/116 107/65/115 108/60/114
f 110/60/109 109/67/117 103/62/111 104/59/107
f 111/68/118 105/63/112 107/65/115 109/67/117
f 99/69/120 97/66/116 98/59/106 100/58/105
f 111/68/118 109/67/117 110/60/109 112/64/119
f 97/66/116 99/69/120 101/61/110 103/62/111
f 101/61/110 99/69/120 100/58/105 102/58/108
f 92/5/92 91/4/91 86/2/86 85/1/85
f 78/36/75 77/49/74 80/51/78 23/50/77
f 59/36/54 58/36/53 61/33/56 60/37/55
f 11/57/104 17/57/102 19/6/11 15/6/9
