# Blender 4.1.1
# www.blender.org
mtllib Podest_3_1.mtl
o Podest_3_1
v 0.111614 0.000000 0.348566
v 0.111614 0.012735 0.361301
v 0.124348 0.012735 0.348566
v -0.111613 0.000000 0.348566
v -0.124348 0.012735 0.348566
v -0.111613 0.012735 0.361301
v 0.111614 0.095336 0.348566
v 0.124348 0.082601 0.348566
v 0.111614 0.082601 0.361301
v -0.111613 0.095336 0.348566
v -0.111613 0.082601 0.361301
v -0.124348 0.082601 0.348566
v -0.124348 0.082601 -0.348566
v -0.111613 0.082601 -0.361301
v -0.111613 0.095336 -0.348566
v 0.124348 0.082601 -0.348566
v 0.111613 0.095336 -0.348566
v 0.111613 0.082601 -0.361301
v -0.124348 0.012735 -0.348566
v -0.111613 -0.000000 -0.348566
v -0.111613 0.012735 -0.361301
v 0.124348 0.012735 -0.348566
v 0.111613 0.012735 -0.361301
v 0.111613 -0.000000 -0.348566
vn 0.3416 -0.8756 0.3416
vn 0.3416 -0.3416 0.8756
vn 0.8756 -0.3416 0.3416
vn -0.3416 -0.8756 0.3416
vn -0.8756 -0.3416 0.3416
vn -0.3416 -0.3416 0.8756
vn 0.3416 0.8756 0.3416
vn 0.8756 0.3416 0.3416
vn 0.3416 0.3416 0.8756
vn -0.3416 0.8756 0.3416
vn -0.3416 0.3416 0.8756
vn -0.8756 0.3416 0.3416
vn -0.8756 0.3416 -0.3416
vn -0.3416 0.3416 -0.8756
vn -0.3416 0.8756 -0.3416
vn 0.8756 0.3416 -0.3416
vn 0.3416 0.8756 -0.3416
vn 0.3416 0.3416 -0.8756
vn -0.8756 -0.3416 -0.3416
vn -0.3416 -0.8756 -0.3416
vn -0.3416 -0.3416 -0.8756
vn 0.8756 -0.3416 -0.3416
vn 0.3416 -0.3416 -0.8756
vn 0.3416 -0.8756 -0.3416
vt 0.671498 0.028371
vt 0.671498 0.028513
vt 0.671498 0.028513
vt 0.671492 0.028371
vt 0.671492 0.028513
vt 0.671492 0.028513
vt 0.671498 0.029438
vt 0.671498 0.029295
vt 0.671498 0.029295
vt 0.671492 0.029438
vt 0.671492 0.029295
vt 0.671492 0.029295
vt 0.671492 0.029295
vt 0.671492 0.029438
vt 0.671492 0.029295
vt 0.671498 0.029295
vt 0.671498 0.029295
vt 0.671498 0.029438
vt 0.671492 0.028513
vt 0.671492 0.028513
vt 0.671492 0.028371
vt 0.671498 0.028513
vt 0.671498 0.028371
vt 0.671498 0.028513
s 1
usemtl Graveyard
f 1/1/1 3/2/3 2/3/2
f 4/4/4 6/5/6 5/6/5
f 7/7/7 9/8/9 8/9/8
f 10/10/10 12/11/12 11/12/11
f 13/13/13 15/14/15 14/15/14
f 16/16/16 18/17/18 17/18/17
f 19/19/19 21/20/21 20/21/20
f 22/22/22 24/23/24 23/24/23
f 6/5/6 4/4/4 1/1/1 2/3/2
f 24/23/24 1/1/1 4/4/4 20/21/20
f 14/15/14 15/14/15 17/18/17 18/17/18
f 8/9/8 9/8/9 2/3/2 3/2/3
f 20/21/20 21/20/21 23/24/23 24/23/24
f 19/19/19 13/13/13 14/15/14 21/20/21
f 1/1/1 24/23/24 22/22/22 3/2/3
f 12/11/12 10/10/10 15/14/15 13/13/13
f 6/5/6 11/12/11 12/11/12 5/6/5
f 19/19/19 20/21/20 4/4/4 5/6/5
f 11/12/11 6/5/6 2/3/2 9/8/9
f 14/15/14 18/17/18 23/24/23 21/20/21
f 17/18/17 7/7/7 8/9/8 16/16/16
f 22/22/22 16/16/16 8/9/8 3/2/3
f 22/22/22 23/24/23 18/17/18 16/16/16
f 10/10/10 11/12/11 9/8/9 7/7/7
f 19/19/19 5/6/5 12/11/12 13/13/13
f 15/14/15 10/10/10 7/7/7 17/18/17
