# Blender 4.1.1
# www.blender.org
mtllib Podest_2_1.mtl
o Podest_2_1
v -0.189396 0.025362 -0.357892
v -0.164033 0.025362 -0.383255
v -0.164033 -0.000000 -0.357892
v -0.189396 0.168541 -0.357892
v -0.164033 0.193903 -0.357892
v -0.164033 0.168541 -0.383255
v 0.189395 0.025362 -0.357892
v 0.164033 -0.000000 -0.357892
v 0.164033 0.025362 -0.383255
v 0.189395 0.168541 -0.357892
v 0.164033 0.168541 -0.383255
v 0.164033 0.193903 -0.357892
v -0.189395 0.025363 0.357893
v -0.164033 0.000000 0.357893
v -0.164033 0.025363 0.383256
v -0.189395 0.168541 0.357893
v -0.164033 0.168541 0.383256
v -0.164033 0.193904 0.357893
v 0.189396 0.025363 0.357893
v 0.164033 0.025363 0.383256
v 0.164033 0.000000 0.357893
v 0.189396 0.168541 0.357893
v 0.164033 0.193904 0.357893
v 0.164033 0.168541 0.383256
vn -0.8756 -0.3416 -0.3416
vn -0.3416 -0.3416 -0.8756
vn -0.3416 -0.8756 -0.3416
vn -0.8756 0.3416 -0.3416
vn -0.3416 0.8756 -0.3416
vn -0.3416 0.3416 -0.8756
vn 0.8756 -0.3416 -0.3416
vn 0.3416 -0.8756 -0.3416
vn 0.3416 -0.3416 -0.8756
vn 0.8756 0.3416 -0.3416
vn 0.3416 0.3416 -0.8756
vn 0.3416 0.8756 -0.3416
vn -0.8756 -0.3416 0.3416
vn -0.3416 -0.8756 0.3416
vn -0.3416 -0.3416 0.8756
vn -0.8756 0.3416 0.3416
vn -0.3416 0.3416 0.8756
vn -0.3416 0.8756 0.3416
vn 0.8756 -0.3416 0.3416
vn 0.3416 -0.3416 0.8756
vn 0.3416 -0.8756 0.3416
vn 0.8756 0.3416 0.3416
vn 0.3416 0.8756 0.3416
vn 0.3416 0.3416 0.8756
vt 0.671507 0.028703
vt 0.671508 0.028703
vt 0.671508 0.028419
vt 0.671507 0.030305
vt 0.671508 0.030589
vt 0.671508 0.030305
vt 0.671516 0.028703
vt 0.671516 0.028419
vt 0.671516 0.028703
vt 0.671516 0.030305
vt 0.671516 0.030305
vt 0.671516 0.030589
vt 0.671508 0.028419
vt 0.671508 0.028703
vt 0.671507 0.030305
vt 0.671508 0.030305
vt 0.671508 0.030589
vt 0.671516 0.028703
vt 0.671516 0.028419
vt 0.671516 0.030305
vt 0.671516 0.030589
vt 0.671516 0.030305
s 1
usemtl Graveyard
f 1/1/1 2/2/2 3/3/3
f 4/4/4 5/5/5 6/6/6
f 7/7/7 8/8/8 9/9/9
f 10/10/10 11/11/11 12/12/12
f 13/1/13 14/13/14 15/14/15
f 16/15/16 17/16/17 18/17/18
f 19/7/19 20/18/20 21/19/21
f 22/20/22 23/21/23 24/22/24
f 13/1/13 1/1/1 3/3/3 14/13/14
f 12/12/12 5/5/5 18/17/18 23/21/23
f 17/16/17 15/14/15 20/18/20 24/22/24
f 14/13/14 21/19/21 20/18/20 15/14/15
f 5/5/5 12/12/12 11/11/11 6/6/6
f 21/19/21 8/8/8 7/7/7 19/7/19
f 16/15/16 13/1/13 15/14/15 17/16/17
f 4/4/4 1/1/1 13/1/13 16/15/16
f 9/9/9 11/11/11 10/10/10 7/7/7
f 23/21/23 22/20/22 10/10/10 12/12/12
f 17/16/17 24/22/24 23/21/23 18/17/18
f 2/2/2 9/9/9 8/8/8 3/3/3
f 18/17/18 5/5/5 4/4/4 16/15/16
f 2/2/2 1/1/1 4/4/4 6/6/6
f 24/22/24 20/18/20 19/7/19 22/20/22
f 7/7/7 10/10/10 22/20/22 19/7/19
f 6/6/6 11/11/11 9/9/9 2/2/2
f 3/3/3 8/8/8 21/19/21 14/13/14
