# Blender 4.1.1
# www.blender.org
mtllib Rip_1.mtl
o Rip_1
v 0.015401 0.121485 0.167031
v 0.015401 -0.000000 0.167031
v 0.015401 -0.000000 0.184488
v 0.015401 0.052548 0.184488
v 0.015401 0.052548 0.202657
v -0.015401 0.105809 0.184488
v -0.015400 0.121485 0.204973
v 0.015401 0.053745 0.215464
v 0.015401 0.057134 0.225787
v -0.015400 0.118735 0.222209
v 0.015401 0.060414 0.230703
v 0.015401 0.065666 0.236766
v 0.015401 0.073214 0.241183
v -0.015401 -0.000000 0.064305
v -0.015401 0.024938 0.048273
v 0.015401 0.081898 0.243358
v -0.015401 0.039801 0.037725
v 0.015401 0.091299 0.243373
v -0.015401 0.049850 0.027077
v 0.015401 0.100142 0.241319
v -0.015401 0.052656 0.018231
v 0.015401 0.107887 0.237150
v -0.015401 0.052726 0.008728
v 0.015401 0.114197 0.230802
v -0.015401 -0.000000 0.008728
v -0.015401 -0.000000 -0.008728
v 0.015401 0.118735 0.222209
v 0.015401 0.121485 0.204973
v -0.015401 0.121485 -0.008728
v 0.015401 0.105809 0.184488
v 0.015401 0.105809 0.204973
v -0.015400 0.114197 0.230802
v -0.015401 -0.000000 0.133119
v 0.015401 0.102985 0.217376
v -0.015401 -0.000000 0.112899
v -0.015401 0.121485 0.112899
v -0.015400 0.107887 0.237150
v -0.015401 0.121485 0.133119
v 0.015401 0.096045 0.223802
v -0.015401 0.068224 0.184488
v 0.015401 0.087284 0.225636
v -0.015400 0.068224 0.204260
v -0.015400 0.100142 0.241319
v -0.015400 0.091299 0.243373
v -0.015400 0.070473 0.215581
v -0.015400 0.081898 0.243358
v -0.015400 0.076959 0.222983
v -0.015400 0.087284 0.225636
v 0.015401 0.076959 0.222983
v -0.015400 0.096045 0.223801
v 0.015401 0.070473 0.215581
v -0.015400 0.102985 0.217376
v -0.015400 0.073214 0.241183
v -0.015400 0.105809 0.204973
v 0.015401 0.068224 0.204260
v 0.015401 0.068224 0.184488
v 0.015401 0.121485 0.133119
v 0.015401 0.121485 0.112899
v 0.015401 -0.000000 0.112899
v 0.015401 -0.000000 0.133119
v 0.015401 0.121485 -0.008728
v 0.015401 -0.000000 -0.008728
v 0.015401 -0.000000 0.008728
v 0.015401 0.052726 0.008728
v 0.015401 0.052656 0.018231
v -0.015400 0.065666 0.236766
v 0.015401 0.049850 0.027077
v -0.015400 0.060414 0.230703
v 0.015401 0.039801 0.037725
v -0.015400 0.057134 0.225787
v 0.015401 0.024938 0.048273
v 0.015401 -0.000000 0.064305
v -0.015401 0.068402 0.008728
v -0.015401 0.068402 0.019951
v -0.015401 0.071272 0.034491
v 0.015401 -0.000000 0.085146
v -0.015401 0.078535 0.041867
v -0.015401 0.088174 0.043820
v -0.015401 0.097998 0.041313
v -0.015401 0.104298 0.033620
v -0.015401 0.106522 0.019951
v -0.015401 0.106522 0.008728
v -0.015401 0.121485 0.021910
v 0.015401 0.027751 0.066312
v -0.015401 0.120424 0.033401
v 0.015401 0.034669 0.061995
v 0.015401 0.040933 0.057811
v -0.015401 0.117335 0.043180
v -0.015401 0.112355 0.051079
v 0.015401 0.046544 0.053572
v 0.015401 0.051502 0.049091
v -0.015401 0.105624 0.056929
v -0.015401 -0.000000 0.085146
v -0.015401 0.097280 0.060563
v 0.015401 0.057714 0.041504
v -0.015401 0.087462 0.061811
v 0.015401 0.060734 0.047524
v -0.015401 0.080731 0.061210
v 0.015401 0.064595 0.052548
v -0.015401 0.074643 0.059436
v 0.015401 0.069248 0.056534
v 0.015401 0.074643 0.059436
v -0.015401 0.069248 0.056534
v -0.015401 0.064595 0.052548
v 0.015401 0.080731 0.061210
v 0.015401 0.087462 0.061811
v -0.015401 0.060734 0.047524
v -0.015401 0.057714 0.041504
v 0.015401 0.097280 0.060563
v 0.015401 0.105624 0.056929
v -0.015401 0.051502 0.049091
v 0.015401 0.112355 0.051079
v -0.015401 0.046544 0.053572
v 0.015401 0.117335 0.043180
v -0.015401 0.040933 0.057811
v -0.015401 0.034669 0.061995
v 0.015401 0.120424 0.033401
v -0.015401 0.027751 0.066312
v 0.015401 0.121485 0.021910
v 0.015401 0.106522 0.008728
v 0.015401 0.106522 0.019951
v -0.015400 0.053745 0.215464
v 0.015401 0.104298 0.033620
v 0.015401 0.097998 0.041313
v -0.015400 0.052548 0.202657
v -0.015401 0.052548 0.184488
v 0.015401 0.088174 0.043820
v -0.015400 -0.000000 0.184488
v -0.015401 -0.000000 0.167031
v 0.015401 0.078535 0.041867
v -0.015401 0.121485 0.167031
v 0.015401 0.071272 0.034491
v 0.015401 0.068402 0.019951
v 0.015401 0.068402 0.008728
v -0.013227 0.002173 0.108105
v -0.013227 0.000000 0.105932
v -0.015401 0.002173 0.105932
v -0.013227 0.002173 0.090649
v -0.015401 0.002173 0.092822
v -0.013227 0.000000 0.092822
v 0.015401 0.002173 0.090649
v 0.015401 -0.000000 0.092822
v 0.015401 0.002173 0.108105
v 0.015401 -0.000000 0.105932
v -0.013227 0.013388 0.108105
v -0.015401 0.013388 0.105932
v -0.013227 0.015561 0.105932
v -0.013227 0.013388 0.090649
v -0.013227 0.015561 0.092822
v -0.015401 0.013388 0.092822
v 0.015401 0.013388 0.090649
v 0.015401 0.015561 0.092822
v 0.015401 0.013388 0.108105
v 0.015401 0.015561 0.105932
v -0.013227 0.002173 0.157143
v -0.013227 0.000000 0.154970
v -0.015401 0.002173 0.154970
v -0.013227 0.002173 0.139686
v -0.015401 0.002173 0.141860
v -0.013227 0.000000 0.141860
v 0.015401 0.002173 0.139686
v 0.015401 -0.000000 0.141860
v 0.015401 0.002173 0.157143
v 0.015401 -0.000000 0.154970
v -0.013227 0.013388 0.157143
v -0.015401 0.013388 0.154970
v -0.013227 0.015561 0.154970
v -0.013227 0.013388 0.139686
v -0.013227 0.015561 0.141860
v -0.015401 0.013388 0.141860
v 0.015401 0.013388 0.139686
v 0.015401 0.015561 0.141860
v 0.015401 0.013388 0.157143
v 0.015401 0.015561 0.154970
v -0.013227 0.002173 0.210262
v -0.013227 0.000000 0.208088
v -0.015400 0.002173 0.208088
v -0.013227 0.002173 0.192805
v -0.015401 0.002173 0.194978
v -0.013227 0.000000 0.194978
v 0.015401 0.002173 0.192805
v 0.015401 -0.000000 0.194978
v 0.015401 0.002173 0.210262
v 0.015401 -0.000000 0.208088
v -0.013227 0.013388 0.210262
v -0.015400 0.013388 0.208088
v -0.013227 0.015561 0.208088
v -0.013227 0.013388 0.192805
v -0.013227 0.015561 0.194978
v -0.015401 0.013388 0.194978
v 0.015401 0.013388 0.192805
v 0.015401 0.015561 0.194978
v 0.015401 0.013388 0.210262
v 0.015401 0.015561 0.208088
vn -1.0000 -0.0000 -0.0000
vn -0.4606 -0.4606 0.7588
vn -0.7588 -0.4606 0.4606
vn -0.4606 -0.7588 0.4606
vn -0.4606 -0.4606 -0.7588
vn -0.4606 -0.7588 -0.4606
vn -0.7588 -0.4606 -0.4606
vn -0.4606 0.4606 0.7588
vn -0.4606 0.7588 0.4606
vn -0.7588 0.4606 0.4606
vn -0.4606 0.4606 -0.7588
vn -0.7588 0.4606 -0.4606
vn -0.4606 0.7588 -0.4606
vn -0.0000 0.7125 -0.7017
vn -0.0000 -0.0000 1.0000
vn -0.0000 -0.8938 0.4484
vn -0.0000 -0.8472 0.5313
vn -0.0000 -0.7256 0.6881
vn -0.0000 -0.2049 -0.9788
vn -0.0000 0.0225 -0.9997
vn -0.0000 0.8056 0.5925
vn -0.0000 0.9486 0.3165
vn -0.0000 -1.0000 -0.0000
vn -0.0000 0.7522 -0.6590
vn -0.0000 0.8970 -0.4420
vn -0.0000 -1.0000 -0.0074
vn -0.0000 -0.9877 -0.1566
vn -0.0000 0.9806 0.1961
vn -0.0000 -0.1961 -0.9806
vn -0.0000 0.9969 0.0790
vn -0.0000 1.0000 -0.0000
vn -0.0000 -0.5654 0.8248
vn -0.0000 -0.3788 0.9255
vn -0.0000 -0.7736 -0.6336
vn -0.0000 -0.0000 -1.0000
vn -0.0000 0.9803 0.1977
vn -0.0000 0.9072 0.4207
vn -0.0000 0.9952 -0.0979
vn -0.0000 0.9953 -0.0973
vn -0.0000 0.9811 -0.1936
vn -0.0000 -0.1232 0.9924
vn -0.0000 -0.3778 0.9259
vn -0.0000 -0.8992 0.4375
vn -0.0000 -0.7954 0.6061
vn -0.0000 -0.6794 -0.7338
vn -0.0000 0.9989 0.0460
vn -0.0000 0.7737 0.6335
vn -0.0000 0.7242 0.6896
vn -0.0000 0.7591 0.6510
vn -0.0000 0.5338 0.8456
vn -0.0000 -0.6390 0.7692
vn -0.0000 -0.1852 0.9827
vn -0.0000 0.6372 0.7707
vn -0.0000 0.5793 0.8151
vn -0.0000 0.5616 0.8274
vn -0.0000 0.5456 0.8380
vn -0.0000 -0.9968 -0.0805
vn -0.0000 -0.9870 -0.1605
vn -0.0000 -0.9751 -0.2220
vn -0.0000 -0.9937 -0.1117
vn -0.0000 -0.0250 -0.9997
vn -0.0000 0.1986 -0.9801
vn -0.0000 0.5981 0.8014
vn -0.0000 0.2488 -0.9686
vn -0.0000 -0.6562 -0.7546
vn -0.0000 -0.5599 -0.8285
vn -0.0000 0.1131 0.9936
vn -0.0000 0.3532 0.9355
vn -0.0000 -0.9790 0.2037
vn -0.0000 0.5425 0.8400
vn -0.0000 -0.9989 0.0466
vn -0.0000 -0.8619 -0.5071
vn -0.0000 -0.2473 -0.9689
vn -0.0000 -0.9806 0.1961
vn -0.0000 0.1961 -0.9806
vn -0.0000 0.9806 -0.1961
vn -0.0000 -0.1961 0.9806
vn -0.0000 0.1961 0.9806
vn -0.0000 -0.9806 -0.1961
vn -0.0000 0.2654 0.9641
vn -0.0000 0.0187 0.9998
vn -0.0000 -0.5408 -0.8412
vt 0.668670 0.039540
vt 0.668664 0.039304
vt 0.668664 0.039517
vt 0.668671 0.039850
vt 0.668665 0.040091
vt 0.668673 0.040049
vt 0.668678 0.040120
vt 0.668687 0.036752
vt 0.668681 0.038915
vt 0.668681 0.040120
vt 0.668667 0.040304
vt 0.668617 0.038909
vt 0.668606 0.038828
vt 0.668613 0.038980
vt 0.668670 0.040462
vt 0.668673 0.040559
vt 0.668677 0.040593
vt 0.668687 0.040593
vt 0.668629 0.036752
vt 0.668624 0.036752
vt 0.668624 0.038413
vt 0.668618 0.038413
vt 0.668613 0.038451
vt 0.668610 0.038558
vt 0.668608 0.038662
vt 0.668624 0.038909
vt 0.668610 0.039511
vt 0.668604 0.039341
vt 0.668604 0.039638
vt 0.668613 0.040008
vt 0.668606 0.040163
vt 0.668617 0.040097
vt 0.668624 0.040097
vt 0.668608 0.040362
vt 0.668611 0.040506
vt 0.668668 0.037540
vt 0.668662 0.037629
vt 0.668664 0.037848
vt 0.668617 0.040593
vt 0.668672 0.038010
vt 0.668665 0.038046
vt 0.668667 0.038224
vt 0.668668 0.038380
vt 0.668675 0.038328
vt 0.668678 0.038417
vt 0.668629 0.040593
vt 0.668681 0.036752
vt 0.668681 0.038419
vt 0.668670 0.038577
vt 0.668669 0.038672
vt 0.668667 0.038794
vt 0.668678 0.038915
vt 0.668673 0.039005
vt 0.668666 0.038941
vt 0.668665 0.039112
vt 0.668670 0.039235
vt 0.668664 0.039828
vt 0.668649 0.063188
vt 0.668649 0.063188
vt 0.668649 0.063119
vt 0.668654 0.063188
vt 0.668654 0.063119
vt 0.668654 0.063188
vt 0.668649 0.063543
vt 0.668649 0.063611
vt 0.668649 0.063543
vt 0.668654 0.063543
vt 0.668654 0.063543
vt 0.668654 0.063611
vt 0.668633 0.063188
vt 0.668633 0.063188
vt 0.668633 0.063119
vt 0.668638 0.063188
vt 0.668638 0.063119
vt 0.668638 0.063188
vt 0.668633 0.063543
vt 0.668633 0.063611
vt 0.668633 0.063543
vt 0.668638 0.063543
vt 0.668638 0.063543
vt 0.668638 0.063611
vt 0.668615 0.063188
vt 0.668616 0.063188
vt 0.668616 0.063119
vt 0.668621 0.063188
vt 0.668620 0.063119
vt 0.668620 0.063188
vt 0.668615 0.063543
vt 0.668616 0.063611
vt 0.668616 0.063543
vt 0.668621 0.063543
vt 0.668620 0.063543
vt 0.668620 0.063611
vt 0.668663 0.036752
vt 0.668656 0.036752
vt 0.668611 0.039788
vt 0.668611 0.039185
vt 0.668613 0.038980
vt 0.668647 0.036752
vt 0.668647 0.040593
vt 0.668673 0.040559
vt 0.668605 0.039067
vt 0.668605 0.039918
vt 0.668664 0.039304
vt 0.668641 0.040593
vt 0.668641 0.036752
s 1
usemtl Graveyard
f 78/1/1 98/2/1 96/3/1
f 79/4/1 92/5/1 80/6/1
f 80/6/1 92/5/1 81/7/1
f 26/8/1 73/9/1 82/10/1
f 81/7/1 92/5/1 89/11/1
f 82/10/1 81/7/1 89/11/1
f 42/12/1 66/13/1 45/14/1
f 82/10/1 89/11/1 88/15/1
f 82/10/1 88/15/1 85/16/1
f 82/10/1 85/16/1 83/17/1
f 82/10/1 83/17/1 29/18/1
f 26/8/1 82/10/1 29/18/1
f 129/19/1 128/20/1 126/21/1
f 126/21/1 125/22/1 122/23/1
f 126/21/1 122/23/1 70/24/1
f 126/21/1 70/24/1 68/25/1
f 126/21/1 68/25/1 66/13/1
f 126/21/1 66/13/1 42/12/1
f 126/21/1 42/12/1 40/26/1
f 48/27/1 46/28/1 44/29/1
f 129/19/1 126/21/1 40/26/1
f 52/30/1 37/31/1 54/32/1
f 129/19/1 40/26/1 6/33/1
f 6/33/1 54/32/1 37/31/1
f 6/33/1 37/31/1 32/34/1
f 6/33/1 32/34/1 10/35/1
f 15/36/1 118/37/1 116/38/1
f 6/33/1 10/35/1 7/39/1
f 17/40/1 115/41/1 113/42/1
f 17/40/1 113/42/1 111/43/1
f 17/40/1 111/43/1 19/44/1
f 19/44/1 111/43/1 21/45/1
f 6/33/1 7/39/1 131/46/1
f 26/8/1 25/47/1 23/48/1
f 21/45/1 111/43/1 108/49/1
f 23/48/1 21/45/1 108/49/1
f 23/48/1 108/49/1 107/50/1
f 129/19/1 6/33/1 131/46/1
f 23/48/1 107/50/1 104/51/1
f 23/48/1 104/51/1 74/52/1
f 23/48/1 74/52/1 73/9/1
f 26/8/1 23/48/1 73/9/1
f 74/52/1 104/51/1 75/53/1
f 75/53/1 104/51/1 103/54/1
f 75/53/1 103/54/1 100/55/1
f 75/53/1 100/55/1 77/56/1
f 79/4/1 78/1/1 94/57/1 92/5/1
f 78/1/1 96/3/1 94/57/1
f 135/58/2 137/59/3 136/60/4
f 138/61/5 140/62/6 139/63/7
f 145/64/8 147/65/9 146/66/10
f 148/67/11 150/68/12 149/69/13
f 155/70/2 157/71/3 156/72/4
f 158/73/5 160/74/6 159/75/7
f 165/76/8 167/77/9 166/78/10
f 168/79/11 170/80/12 169/81/13
f 175/82/2 177/83/3 176/84/4
f 178/85/5 180/86/6 179/87/7
f 185/88/8 187/89/9 186/90/10
f 188/91/11 190/92/12 189/93/13
f 178/85/5 179/87/7 190/92/12 188/91/11
f 15/36/1 116/38/1 115/41/1 17/40/1
f 78/1/1 77/56/1 100/55/1 98/2/1
f 14/94/1 93/95/1 118/37/1 15/36/1
f 130/56/14 132/53/14 75/53/14 77/56/14
f 25/47/15 63/47/15 64/48/15 23/48/15
f 108/49/16 95/49/16 97/50/17 107/50/17
f 107/50/17 97/50/17 99/51/18 104/51/18
f 39/96/19 41/27/20 48/27/20 50/96/19
f 24/34/21 27/35/22 10/35/22 32/34/21
f 2/19/23 3/20/23 128/20/23 129/19/23
f 47/97/24 49/97/24 51/98/25 45/14/25
f 23/48/26 64/48/26 65/45/27 21/45/27
f 151/67/28 148/67/11 149/69/13 152/69/29
f 7/39/30 28/39/30 1/46/31 131/46/31
f 101/54/32 102/55/33 100/55/33 103/54/32
f 168/79/11 169/81/13 172/81/29 171/79/28
f 123/6/34 124/4/34 79/4/34 80/6/34
f 35/99/35 36/100/35 58/100/35 59/99/35
f 85/16/36 88/15/37 114/15/37 117/101/36
f 45/14/25 51/98/25 55/12/38 42/12/38
f 74/52/39 75/53/40 132/53/40 133/52/39
f 46/28/41 53/102/42 13/102/42 16/28/41
f 47/97/1 53/102/1 46/28/1 48/27/1
f 9/24/43 11/25/44 68/25/44 70/24/43
f 50/96/45 52/30/45 34/30/45 39/96/45
f 66/13/1 53/102/1 47/97/1 45/14/1
f 50/96/1 43/103/1 37/31/1 52/30/1
f 29/18/31 83/17/46 119/17/46 61/18/31
f 108/49/47 111/43/48 91/43/48 95/49/47
f 44/29/1 43/103/1 50/96/1 48/27/1
f 3/20/15 4/21/15 126/21/15 128/20/15
f 89/11/49 92/5/50 110/5/50 112/11/49
f 12/13/51 13/102/42 53/102/42 66/13/51
f 98/2/52 100/55/33 102/55/33 105/104/52
f 113/42/53 115/41/54 87/41/54 90/42/53
f 93/95/55 76/95/55 84/37/56 118/37/56
f 121/7/57 123/6/58 80/6/58 81/7/57
f 55/12/38 56/26/31 40/26/31 42/12/38
f 52/30/59 54/32/60 31/32/60 34/30/59
f 127/1/61 130/56/62 77/56/62 78/1/61
f 152/69/31 149/69/31 147/65/31 154/65/31
f 22/31/63 24/34/21 32/34/21 37/31/63
f 112/11/49 114/15/37 88/15/37 89/11/49
f 10/35/22 27/35/22 28/39/30 7/39/30
f 48/27/20 41/27/20 49/97/64 47/97/64
f 69/40/65 71/36/66 15/36/66 17/40/65
f 111/43/48 113/42/53 90/42/53 91/43/48
f 18/29/67 20/103/68 43/103/68 44/29/67
f 172/81/31 169/81/31 167/77/31 174/77/31
f 70/24/43 122/23/69 8/23/69 9/24/43
f 115/41/54 116/38/70 86/38/70 87/41/54
f 57/105/31 58/100/31 36/100/31 38/105/31
f 183/82/15 193/88/15 185/88/15 175/82/15
f 158/73/35 168/79/35 171/79/35 161/73/35
f 122/23/69 125/22/71 5/22/71 8/23/69
f 54/32/60 6/33/23 30/33/23 31/32/60
f 20/103/68 22/31/63 37/31/63 43/103/68
f 11/25/44 12/13/51 66/13/51 68/25/44
f 137/59/3 135/58/2 145/64/8 146/66/10
f 44/29/67 46/28/41 16/28/41 18/29/67
f 19/44/72 67/44/72 69/40/65 17/40/65
f 84/37/56 86/38/70 116/38/70 118/37/56
f 79/4/73 124/4/73 127/1/61 78/1/61
f 6/33/15 40/26/15 56/26/15 30/33/15
f 131/46/35 1/46/35 2/19/35 129/19/35
f 160/74/6 158/73/5 161/73/74 162/74/75
f 21/45/27 65/45/27 67/44/72 19/44/72
f 173/76/76 174/77/77 167/77/9 165/76/8
f 144/60/78 143/58/79 135/58/2 136/60/4
f 104/51/18 99/51/18 101/54/32 103/54/32
f 26/8/23 62/8/23 63/47/23 25/47/23
f 83/17/46 85/16/36 117/101/36 119/17/46
f 169/81/13 170/80/12 166/78/10 167/77/9
f 94/57/80 96/3/81 106/3/81 109/57/80
f 177/83/3 175/82/2 185/88/8 186/90/10
f 61/18/35 62/8/35 26/8/35 29/18/35
f 109/57/80 110/5/50 92/5/50 94/57/80
f 59/99/23 60/106/23 33/106/23 35/99/23
f 14/94/23 72/94/23 76/95/23 93/95/23
f 138/61/5 139/63/7 150/68/12 148/67/11
f 4/21/23 5/22/71 125/22/71 126/21/23
f 184/84/78 183/82/79 175/82/2 176/84/4
f 159/75/7 160/74/6 156/72/4 157/71/3
f 82/10/15 73/9/15 134/9/15 120/10/15
f 151/67/35 141/61/35 138/61/35 148/67/35
f 178/85/35 188/91/35 191/91/35 181/85/35
f 163/70/15 173/76/15 165/76/15 155/70/15
f 149/69/13 150/68/12 146/66/10 147/65/9
f 139/63/7 140/62/6 136/60/4 137/59/3
f 82/10/23 120/10/23 121/7/57 81/7/57
f 180/86/6 178/85/5 181/85/74 182/86/75
f 38/105/15 33/106/15 60/106/15 57/105/15
f 105/104/52 106/3/81 96/3/81 98/2/52
f 158/73/5 159/75/7 170/80/12 168/79/11
f 157/71/3 155/70/2 165/76/8 166/78/10
f 157/71/1 166/78/1 170/80/1 159/75/1
f 192/93/29 191/91/28 188/91/11 189/93/13
f 71/36/66 72/94/82 14/94/82 15/36/66
f 192/93/31 189/93/31 187/89/31 194/89/31
f 140/62/6 138/61/5 141/61/74 142/62/75
f 153/64/76 154/65/77 147/65/9 145/64/8
f 162/74/23 164/72/23 156/72/23 160/74/23
f 73/9/31 74/52/39 133/52/39 134/9/31
f 142/62/23 144/60/23 136/60/23 140/62/23
f 179/87/7 180/86/6 176/84/4 177/83/3
f 137/59/1 146/66/1 150/68/1 139/63/1
f 182/86/23 184/84/23 176/84/23 180/86/23
f 177/83/1 186/90/1 190/92/1 179/87/1
f 185/88/8 193/88/76 194/89/77 187/89/9
f 189/93/13 190/92/12 186/90/10 187/89/9
f 135/58/15 143/58/15 153/64/15 145/64/15
f 164/72/78 163/70/79 155/70/2 156/72/4
f 33/106/1 38/105/1 36/100/1 35/99/1
