# Blender 4.1.1
# www.blender.org
mtllib SGround_1.mtl
o SGround_1
v 0.357402 0.000000 -0.301631
v -0.362384 0.000000 -0.328526
v 0.357402 0.000000 0.301631
v -0.352350 -0.000000 0.313931
v 0.203172 0.197445 -0.171468
v -0.203172 0.197445 -0.171468
v 0.203172 0.197445 0.171468
v -0.203172 0.197445 0.171468
v 0.457921 0.000000 0.164954
v 0.479118 -0.000000 0.010558
v 0.452234 -0.000000 -0.161202
v 0.196941 -0.000000 -0.405507
v 0.001487 -0.000000 -0.433785
v -0.195454 0.000000 -0.386465
v -0.483369 0.000000 -0.169668
v -0.491427 0.000000 0.000000
v -0.457920 0.000000 0.164955
v -0.195454 0.000000 0.386465
v -0.016523 -0.000000 0.443342
v 0.195454 0.000000 0.386465
v 0.228597 0.207046 0.101031
v 0.241036 0.211868 -0.000000
v 0.228597 0.207046 -0.101031
v 0.119712 0.207046 -0.192926
v 0.000000 0.211868 -0.203424
v -0.119711 0.207046 -0.192926
v -0.228597 0.207046 -0.101031
v -0.241036 0.211868 0.000000
v -0.119711 0.207046 0.192926
v 0.000000 0.211868 0.203424
v 0.119712 0.207046 0.192926
v 0.287054 0.123302 0.242261
v -0.282003 0.123302 0.254561
v -0.292036 0.123302 -0.269156
v 0.287054 0.123302 -0.242261
v 0.000000 0.234543 -0.108030
v 0.000000 0.242135 -0.000000
v 0.000000 0.234543 0.108030
v -0.228597 0.207046 0.101031
v -0.157167 0.124013 0.309808
v -0.016523 0.124724 0.360738
v 0.157168 0.124013 0.309808
v 0.158655 0.124013 -0.328850
v 0.001487 0.124724 -0.351181
v -0.157167 0.124013 -0.309808
v -0.392538 0.124013 -0.137356
v -0.393550 0.124724 0.000000
v -0.367090 0.124013 0.132642
v 0.367091 0.124013 0.132642
v 0.381241 0.124724 0.010558
v 0.399937 0.124013 -0.142217
v 0.000515 0.181722 -0.254537
v 0.001117 0.146446 -0.314350
v 0.027670 0.165026 -0.278652
v -0.040841 0.159483 -0.281045
v -0.285909 0.178323 -0.079402
v -0.316108 0.162819 -0.109602
v -0.360579 0.140727 -0.070893
v -0.308281 0.167260 -0.054213
v -0.084424 0.222708 0.116802
v -0.091479 0.216032 0.155991
v -0.050587 0.219783 0.157116
v -0.047616 0.226203 0.124236
v -0.253965 0.123461 0.266969
v -0.261042 0.143016 0.232467
v -0.301597 0.123465 0.226485
v -0.304197 0.084400 0.273292
v 0.087095 0.160407 0.267230
v 0.042057 0.169131 0.265507
v 0.039597 0.149650 0.300303
v 0.100326 0.142261 0.294979
v 0.395153 0.085699 0.142625
v 0.370886 0.124203 0.099896
v 0.342553 0.123795 0.166249
v 0.320375 0.152021 0.121979
v 0.151780 0.216286 -0.103383
v 0.075487 0.225463 -0.105719
v 0.127618 0.221224 -0.075215
v 0.106932 0.217009 -0.136342
v 0.239051 0.165732 -0.201748
v 0.293198 0.144664 -0.195371
v 0.224348 0.141415 -0.249755
v 0.090904 0.212542 -0.038490
v 0.098100 0.212542 -0.031294
v 0.087923 0.240966 -0.034594
v 0.087923 0.248456 -0.028314
v 0.094204 0.240966 -0.028314
v 0.098100 0.212542 0.015566
v 0.090904 0.212542 0.022763
v 0.087923 0.248456 0.012587
v 0.087923 0.240966 0.018867
v 0.094204 0.240966 0.012587
v 0.036847 0.212542 -0.031294
v 0.044043 0.212542 -0.038490
v 0.047023 0.248456 -0.028314
v 0.047023 0.240966 -0.034594
v 0.040742 0.240966 -0.028314
v 0.044043 0.212542 0.022763
v 0.036847 0.212542 0.015567
v 0.047023 0.248456 0.012587
v 0.040742 0.240966 0.012587
v 0.047023 0.240966 0.018867
v 0.164449 0.187567 0.153911
v 0.171202 0.183075 0.160058
v 0.166618 0.211398 0.170015
v 0.167733 0.215226 0.178940
v 0.172512 0.207478 0.175380
v 0.169175 0.162502 0.202113
v 0.161799 0.160676 0.208882
v 0.165964 0.197270 0.215645
v 0.164305 0.187928 0.217994
v 0.170743 0.189522 0.212086
v 0.111067 0.194418 0.162708
v 0.118443 0.196245 0.155939
v 0.127579 0.222800 0.180709
v 0.126464 0.218972 0.171785
v 0.120026 0.217378 0.177693
v 0.115793 0.169354 0.210909
v 0.109040 0.173846 0.204763
v 0.125810 0.204844 0.217415
v 0.118257 0.199422 0.214398
v 0.124151 0.195502 0.219763
v -0.224380 0.144316 -0.245326
v -0.208568 0.147122 -0.245422
v -0.228511 0.173353 -0.248084
v -0.223242 0.183904 -0.244179
v -0.214711 0.175802 -0.248168
v -0.159992 0.174311 -0.196750
v -0.160884 0.179855 -0.181706
v -0.180844 0.207635 -0.201698
v -0.173092 0.204372 -0.192555
v -0.172313 0.199533 -0.205686
v -0.279660 0.158779 -0.180983
v -0.278767 0.153235 -0.196028
v -0.270712 0.191688 -0.201151
v -0.275981 0.181138 -0.205056
v -0.276760 0.185977 -0.191925
v -0.215272 0.188774 -0.132407
v -0.231083 0.185968 -0.132311
v -0.228314 0.215419 -0.158670
v -0.234362 0.209708 -0.149443
v -0.220562 0.212156 -0.149527
v 0.387631 0.104923 -0.031957
v 0.384837 0.105354 -0.016149
v 0.392008 0.134037 -0.030940
v 0.387508 0.143907 -0.024885
v 0.389570 0.134413 -0.017143
v 0.328755 0.127912 0.026439
v 0.314324 0.134408 0.023712
v 0.338559 0.163595 0.012286
v 0.328026 0.159772 0.017648
v 0.340620 0.154102 0.020029
v 0.335313 0.131168 -0.095037
v 0.349743 0.124671 -0.092310
v 0.354440 0.161144 -0.077561
v 0.358939 0.151273 -0.083616
v 0.346345 0.156944 -0.085997
v 0.276436 0.154157 -0.036641
v 0.279230 0.153725 -0.052449
v 0.305491 0.180832 -0.040389
v 0.297395 0.176632 -0.048825
v 0.294957 0.177009 -0.035028
v -0.251647 0.176503 0.046823
v -0.242031 0.180744 0.043223
v -0.260027 0.203289 0.053815
v -0.257066 0.212316 0.057399
v -0.251634 0.206990 0.050673
v -0.198828 0.196540 0.065604
v -0.195176 0.197150 0.076078
v -0.219358 0.226103 0.076933
v -0.210739 0.221310 0.079349
v -0.213926 0.220777 0.070207
v -0.267412 0.165289 0.103124
v -0.271064 0.164679 0.092649
v -0.274013 0.201996 0.097397
v -0.276974 0.192969 0.093813
v -0.273786 0.193501 0.102954
v -0.214593 0.185326 0.121904
v -0.224209 0.181085 0.125505
v -0.236306 0.215783 0.116931
v -0.236079 0.207288 0.122489
v -0.227686 0.210990 0.119346
v 0.109427 0.116711 -0.314223
v 0.119317 0.117055 -0.311852
v 0.110663 0.144798 -0.320673
v 0.114421 0.153570 -0.318557
v 0.119296 0.145097 -0.318604
v 0.143983 0.131038 -0.274542
v 0.141667 0.134989 -0.265454
v 0.135949 0.165774 -0.285992
v 0.138803 0.160751 -0.278108
v 0.140824 0.157302 -0.286040
v 0.067367 0.132408 -0.283262
v 0.069683 0.128457 -0.292351
v 0.079732 0.163822 -0.299466
v 0.075975 0.155049 -0.301583
v 0.073954 0.158498 -0.293651
v 0.101923 0.146735 -0.243582
v 0.092033 0.146391 -0.245953
v 0.101260 0.176026 -0.266902
v 0.095482 0.170703 -0.261087
v 0.104115 0.171002 -0.259018
v -0.069340 0.150922 0.265631
v -0.068264 0.146888 0.274912
v -0.078349 0.175367 0.278010
v -0.083378 0.179543 0.285278
v -0.077411 0.171846 0.286111
v -0.097328 0.127751 0.306296
v -0.107330 0.125907 0.306654
v -0.108745 0.162840 0.312670
v -0.111508 0.153534 0.313815
v -0.102778 0.155143 0.313503
v -0.115410 0.156210 0.236935
v -0.105408 0.158054 0.236577
v -0.114859 0.185768 0.259920
v -0.109830 0.181592 0.252652
v -0.118560 0.179983 0.252964
v -0.143399 0.133039 0.277600
v -0.144475 0.137073 0.268319
v -0.140226 0.169065 0.287312
v -0.143928 0.163280 0.280357
v -0.142989 0.159759 0.288457
vn 0.5605 0.5413 -0.6268
vn -0.4824 0.5935 -0.6442
vn 0.5316 0.5939 0.6039
vn -0.5218 0.5959 0.6104
vn 0.2704 0.9015 -0.3380
vn -0.2479 0.9102 -0.3317
vn 0.2888 0.8923 0.3469
vn -0.2827 0.8969 0.3401
vn 0.7319 0.6160 0.2912
vn 0.8233 0.5661 0.0402
vn 0.7887 0.5335 -0.3054
vn 0.2974 0.5712 -0.7651
vn -0.0394 0.5565 -0.8299
vn -0.2337 0.5505 -0.8014
vn -0.7390 0.6201 -0.2634
vn -0.7894 0.6105 0.0639
vn -0.7272 0.6124 0.3101
vn -0.3070 0.5570 0.7717
vn -0.0198 0.5666 0.8237
vn 0.3077 0.5616 0.7681
vn 0.3207 0.9335 0.1604
vn 0.3270 0.9448 0.0196
vn 0.2913 0.9449 -0.1493
vn 0.1423 0.9273 -0.3462
vn -0.0104 0.9322 -0.3619
vn -0.1302 0.9231 -0.3618
vn -0.2939 0.9442 -0.1490
vn -0.3214 0.9469 0.0124
vn -0.1497 0.9233 0.3537
vn -0.0013 0.9318 0.3630
vn 0.1479 0.9193 0.3648
vn 0.4557 0.7127 0.5333
vn -0.4410 0.7111 0.5476
vn -0.3921 0.7255 -0.5656
vn 0.4552 0.7018 -0.5480
vn -0.0005 0.9924 -0.1233
vn -0.0000 1.0000 -0.0000
vn 0.0025 0.9919 0.1269
vn -0.3151 0.9350 0.1629
vn -0.2495 0.7115 0.6569
vn -0.0184 0.7097 0.7043
vn 0.2533 0.7057 0.6616
vn 0.2398 0.7139 -0.6579
vn -0.0319 0.7099 -0.7036
vn -0.1943 0.7106 -0.6762
vn -0.6234 0.7493 -0.2233
vn -0.6560 0.7531 0.0498
vn -0.6225 0.7362 0.2654
vn 0.6302 0.7357 0.2483
vn 0.6744 0.7372 0.0409
vn 0.6700 0.6959 -0.2585
vn -0.0212 0.8566 -0.5156
vn -0.0212 0.8565 -0.5157
vn 0.0780 0.8594 -0.5053
vn -0.1244 0.8474 -0.5161
vn -0.4634 0.8854 -0.0362
vn -0.4665 0.8835 -0.0427
vn -0.4594 0.8878 -0.0260
vn -0.4642 0.8850 -0.0366
vn -0.0981 0.9788 0.1797
vn -0.1065 0.9803 0.1665
vn -0.1002 0.9792 0.1763
vn -0.0996 0.9790 0.1780
vn -0.2914 0.7062 0.6453
vn -0.3438 0.8421 0.4155
vn -0.5608 0.7300 0.3906
vn -0.5102 0.5942 0.6217
vn 0.1310 0.8507 0.5091
vn 0.1344 0.8524 0.5053
vn 0.1353 0.8528 0.5044
vn 0.7312 0.6155 0.2942
vn 0.6593 0.7465 0.0898
vn 0.5536 0.7299 0.4011
vn 0.4811 0.8541 0.1976
vn 0.1127 0.9864 -0.1199
vn 0.1135 0.9864 -0.1187
vn 0.1220 0.9902 -0.0678
vn 0.1102 0.9806 -0.1622
vn 0.3291 0.8442 -0.4230
vn 0.3724 0.8438 -0.3864
vn 0.2868 0.8266 -0.4842
vn 0.3866 0.1649 -0.9074
vn 0.9074 0.1649 -0.3866
vn 0.3305 0.3838 -0.8623
vn 0.3715 0.8508 -0.3715
vn 0.8623 0.3838 -0.3305
vn 0.9074 0.1649 0.3866
vn 0.3866 0.1649 0.9074
vn 0.3715 0.8508 0.3715
vn 0.3305 0.3838 0.8623
vn 0.8623 0.3838 0.3305
vn -0.9074 0.1649 -0.3866
vn -0.3866 0.1649 -0.9074
vn -0.3715 0.8508 -0.3715
vn -0.3305 0.3838 -0.8623
vn -0.8623 0.3838 -0.3305
vn -0.3866 0.1649 0.9074
vn -0.9074 0.1649 0.3866
vn -0.3715 0.8508 0.3715
vn -0.8623 0.3838 0.3305
vn -0.3305 0.3838 0.8623
vn 0.4493 0.4717 -0.7586
vn 0.9381 0.1467 -0.3138
vn 0.4328 0.6548 -0.6196
vn 0.5384 0.8424 0.0240
vn 0.9319 0.3228 -0.1654
vn 0.9046 -0.1928 0.3801
vn 0.3708 -0.3250 0.8700
vn 0.5062 0.5162 0.6909
vn 0.3582 -0.1023 0.9280
vn 0.9033 0.0326 0.4278
vn -0.8436 0.4827 -0.2353
vn -0.3098 0.6149 -0.7252
vn -0.1911 0.9800 0.0562
vn -0.2161 0.7772 -0.5910
vn -0.7611 0.6422 -0.0908
vn -0.3883 -0.1818 0.9034
vn -0.8770 0.1433 0.4586
vn -0.2232 0.6538 0.7230
vn -0.7897 0.3520 0.5024
vn -0.2907 0.0201 0.9566
vn -0.3433 -0.1371 -0.9292
vn 0.3586 -0.0125 -0.9334
vn -0.3899 0.1404 -0.9101
vn -0.1281 0.6978 -0.7047
vn 0.3071 0.2641 -0.9143
vn 0.8624 0.2694 -0.4286
vn 0.8228 0.5156 0.2393
vn 0.2548 0.9121 -0.3211
vn 0.6658 0.7313 0.1478
vn 0.7052 0.4869 -0.5154
vn -0.9470 0.2016 0.2500
vn -0.9074 -0.0446 -0.4179
vn -0.5568 0.7681 -0.3161
vn -0.8357 0.2135 -0.5061
vn -0.8750 0.4579 0.1571
vn 0.2587 0.6081 0.7506
vn -0.4432 0.4835 0.7548
vn -0.1739 0.9824 0.0675
vn -0.4769 0.6807 0.5560
vn 0.2201 0.8044 0.5518
vn 0.9725 -0.1397 -0.1864
vn 0.8485 -0.1206 0.5153
vn 0.9711 0.1423 -0.1918
vn 0.7373 0.6661 0.1121
vn 0.8479 0.1613 0.5050
vn 0.2668 0.1134 0.9571
vn -0.3738 0.4018 0.8360
vn 0.2953 0.8439 0.4478
vn -0.2478 0.6325 0.7338
vn 0.3883 0.3461 0.8541
vn -0.0611 0.3535 -0.9334
vn 0.5795 0.0651 -0.8123
vn 0.4387 0.8218 -0.3636
vn 0.6606 0.3041 -0.6864
vn 0.0245 0.5905 -0.8067
vn -0.7668 0.6066 0.2100
vn -0.6427 0.5875 -0.4917
vn -0.0033 0.9996 -0.0279
vn -0.4352 0.7754 -0.4576
vn -0.5583 0.7944 0.2392
vn -0.6852 -0.0244 -0.7279
vn -0.0507 0.2555 -0.9655
vn -0.7507 0.1883 -0.6332
vn -0.4920 0.7688 -0.4084
vn -0.1056 0.4729 -0.8748
vn 0.6019 0.4941 -0.6274
vn 0.8429 0.5343 0.0637
vn 0.1107 0.9892 -0.0962
vn 0.6899 0.7150 0.1131
vn 0.4448 0.6741 -0.5896
vn -0.7375 -0.1627 0.6554
vn -0.9785 -0.2030 -0.0357
vn -0.7629 0.6039 0.2309
vn -0.9981 0.0377 -0.0494
vn -0.7530 0.0786 0.6533
vn 0.5496 0.3557 0.7559
vn -0.0849 0.0759 0.9935
vn -0.1602 0.8242 0.5431
vn -0.2026 0.2799 0.9384
vn 0.4425 0.5644 0.6969
vn -0.1398 -0.2158 -0.9664
vn 0.5760 -0.1909 -0.7948
vn -0.1504 0.0133 -0.9885
vn 0.1708 0.5796 -0.7968
vn 0.5805 0.0387 -0.8133
vn 0.9830 0.0398 -0.1792
vn 0.8154 0.3257 0.4785
vn 0.5619 0.8013 -0.2052
vn 0.7573 0.5279 0.3845
vn 0.9284 0.2359 -0.2871
vn -0.9631 0.2639 0.0522
vn -0.7955 -0.0220 -0.6055
vn -0.4593 0.7658 -0.4500
vn -0.7110 0.1790 -0.6800
vn -0.8821 0.4710 -0.0084
vn 0.1597 0.5195 0.8394
vn -0.5561 0.4947 0.6678
vn -0.0682 0.9876 0.1416
vn -0.5342 0.6682 0.5178
vn 0.1967 0.6936 0.6930
vn 0.8354 0.4601 -0.3006
vn 0.9133 0.1682 0.3711
vn 0.7311 0.6473 -0.2157
vn 0.3877 0.8610 0.3293
vn 0.8106 0.3491 0.4701
vn 0.4337 -0.1476 0.8889
vn -0.2902 -0.2810 0.9148
vn -0.0732 0.5575 0.8269
vn -0.3385 -0.0570 0.9392
vn 0.4006 0.0792 0.9128
vn -0.4836 0.4444 -0.7541
vn 0.2403 0.5778 -0.7800
vn -0.1842 0.9741 -0.1314
vn 0.2224 0.7479 -0.6255
vn -0.5168 0.6116 -0.5991
vn -0.8853 -0.1633 0.4354
vn -0.9631 0.1286 -0.2363
vn -0.6451 0.6706 0.3662
vn -0.9267 0.3417 -0.1564
vn -0.8472 0.0436 0.5294
vt 0.214434 0.418878
vt 0.214325 0.416009
vt 0.214290 0.414509
vt 0.214216 0.413160
vt 0.214109 0.410340
vt 0.214109 0.407983
vt 0.214451 0.417380
vt 0.213785 0.418878
vt 0.213767 0.417380
vt 0.214397 0.421858
vt 0.214279 0.418878
vt 0.214109 0.417380
vt 0.214261 0.415995
vt 0.213939 0.418878
vt 0.213821 0.421858
vt 0.213989 0.414134
vt 0.214042 0.413215
vt 0.214037 0.415407
vt 0.214086 0.483162
vt 0.214386 0.483162
vt 0.214332 0.444658
vt 0.214086 0.444437
vt 0.214616 0.483162
vt 0.214516 0.444879
vt 0.214165 0.436482
vt 0.214169 0.430253
vt 0.214233 0.432689
vt 0.214252 0.438655
vt 0.214389 0.483162
vt 0.214111 0.483162
vt 0.214111 0.444437
vt 0.214334 0.444658
vt 0.213886 0.444658
vt 0.213749 0.444829
vt 0.213677 0.456957
vt 0.213609 0.483162
vt 0.213832 0.483162
vt 0.213709 0.470102
vt 0.213749 0.470052
vt 0.213739 0.463981
vt 0.214111 0.437693
vt 0.214148 0.431909
vt 0.214110 0.426740
vt 0.213595 0.483162
vt 0.213695 0.444879
vt 0.214051 0.433415
vt 0.213423 0.483162
vt 0.213412 0.483162
vt 0.213551 0.444437
vt 0.213552 0.444658
vt 0.214448 0.431705
vt 0.214428 0.438925
vt 0.213670 0.430487
vt 0.213597 0.439235
vt 0.213660 0.432504
vt 0.213459 0.483162
vt 0.213588 0.444658
vt 0.213681 0.470051
vt 0.213677 0.482180
vt 0.213681 0.444828
vt 0.213739 0.438758
vt 0.214759 0.483162
vt 0.214789 0.483162
vt 0.214650 0.444437
vt 0.214635 0.444599
vt 0.214670 0.456554
vt 0.214564 0.435962
vt 0.214751 0.483162
vt 0.214677 0.444658
vt 0.214525 0.438650
vt 0.214630 0.469881
vt 0.214595 0.469949
vt 0.214670 0.481777
vt 0.214595 0.444726
vt 0.214110 0.451963
vt 0.214148 0.457132
vt 0.214111 0.462916
vt 0.214051 0.458638
vt 0.213703 0.427306
vt 0.213703 0.452529
vt 0.213660 0.457727
vt 0.213597 0.464458
vt 0.213670 0.455710
vt 0.213979 0.416504
vt 0.213979 0.441727
vt 0.214037 0.440630
vt 0.214042 0.438438
vt 0.213989 0.439357
vt 0.214252 0.463878
vt 0.214233 0.457912
vt 0.214169 0.455476
vt 0.214165 0.461705
vt 0.214564 0.461185
vt 0.214635 0.469822
vt 0.214216 0.438383
vt 0.214290 0.439732
vt 0.214325 0.441232
vt 0.214261 0.441218
vt 0.214448 0.456928
vt 0.214525 0.463873
vt 0.214516 0.470102
vt 0.214428 0.464148
vt 0.664388 0.049577
vt 0.664099 0.062873
vt 0.660133 0.062873
vt 0.659844 0.049577
vt 0.665085 0.049577
vt 0.664708 0.062873
vt 0.664099 0.066376
vt 0.660133 0.066376
vt 0.659524 0.062873
vt 0.659146 0.049577
vt 0.684074 0.054499
vt 0.683785 0.067794
vt 0.679819 0.067794
vt 0.679530 0.054499
vt 0.684772 0.054499
vt 0.684394 0.067794
vt 0.683785 0.071298
vt 0.679819 0.071298
vt 0.679210 0.067794
vt 0.678832 0.054499
vt 0.673000 0.042195
vt 0.672711 0.055490
vt 0.668746 0.055490
vt 0.668457 0.042195
vt 0.673698 0.042195
vt 0.673320 0.055490
vt 0.672711 0.058994
vt 0.668746 0.058994
vt 0.668137 0.055490
vt 0.667759 0.042195
vt 0.664388 0.016356
vt 0.664099 0.029652
vt 0.660133 0.029652
vt 0.659844 0.016356
vt 0.665085 0.016356
vt 0.664708 0.029652
vt 0.664099 0.033156
vt 0.660133 0.033156
vt 0.659524 0.029652
vt 0.659146 0.016356
vt 0.474907 0.066803
vt 0.474618 0.080098
vt 0.470652 0.080098
vt 0.470364 0.066803
vt 0.475605 0.066803
vt 0.475227 0.080098
vt 0.474618 0.083602
vt 0.470652 0.083602
vt 0.470044 0.080098
vt 0.469666 0.066803
s 1
usemtl Graveyard
f 23/1/23 76/2/75 78/3/77 77/4/76 36/5/36 37/6/37 22/7/22
f 36/5/36 27/8/27 28/9/28 37/6/37
f 22/7/22 37/6/37 38/5/38 21/1/21
f 37/6/37 28/9/28 39/8/39 38/5/38
f 5/10/5 24/11/24 23/1/23
f 24/11/24 25/12/25 36/5/36 77/4/76 79/13/78 76/2/75 23/1/23
f 25/12/25 26/14/26 27/8/27 36/5/36
f 26/14/26 6/15/6 27/8/27
f 39/8/39 8/15/8 29/14/29
f 38/5/38 39/8/39 60/16/60 63/17/63 62/18/62 30/12/30
f 21/1/21 38/5/38 30/12/30 31/11/31
f 21/1/21 31/11/31 7/10/7
f 19/19/19 20/20/20 42/21/42 41/22/41
f 3/23/3 32/24/32 42/21/42 20/20/20
f 42/21/42 31/11/31 30/12/30 41/22/41 70/25/69 69/26/68 68/27/68 71/28/70
f 32/24/32 7/10/7 31/11/31 42/21/42
f 12/29/12 13/30/13 44/31/44 43/32/43
f 40/33/40 64/34/64 67/35/67 4/36/4 18/37/18
f 33/38/33 64/39/64 65/40/65
f 44/31/44 53/41/53 54/42/54 52/43/52 25/12/25 24/11/24 43/32/43
f 13/30/13 14/37/14 45/33/45 44/31/44
f 2/44/2 34/45/34 45/33/45 14/37/14
f 45/33/45 26/14/26 25/12/25 52/43/52 55/46/55 53/41/53 44/31/44
f 34/45/34 6/15/6 26/14/26 45/33/45
f 15/47/15 16/48/16 47/49/47 46/50/46
f 43/32/43 35/24/35 1/23/1 12/29/12
f 35/24/35 43/32/43 24/11/24 5/10/5 80/51/79 82/52/81
f 47/49/47 28/9/28 59/53/59 58/54/58 57/55/57 46/50/46
f 16/48/16 17/56/17 48/57/48 47/49/47
f 33/38/33 66/58/66 67/59/67
f 48/57/48 39/8/39 28/9/28 47/49/47
f 8/15/8 39/8/39 48/57/48 66/60/66 65/61/65
f 9/62/9 10/63/10 50/64/50 73/65/72 72/66/71
f 46/50/46 34/45/34 2/44/2 15/47/15
f 34/45/34 46/50/46 27/8/27 6/15/6
f 50/64/50 22/7/22 21/1/21 75/67/74 73/65/72
f 10/63/10 11/68/11 51/69/51 50/64/50
f 35/24/35 51/69/51 11/68/11 1/23/1
f 51/69/51 23/1/23 22/7/22 50/64/50
f 5/10/5 23/1/23 51/69/51 35/24/35 81/70/80 80/51/79
f 49/71/49 74/72/73 72/73/71
f 32/24/32 74/74/73 75/67/74 21/1/21 7/10/7
f 18/37/18 19/19/19 41/22/41 40/33/40
f 41/22/41 30/12/30 29/14/29 40/33/40
f 52/75/52 54/76/54 53/77/53
f 53/77/53 55/78/55 52/75/52
f 46/50/46 57/55/57 56/79/56 59/53/59 28/9/28 27/8/27
f 56/80/56 57/81/57 58/82/58 59/83/59
f 30/12/30 62/18/62 61/84/61 60/16/60 39/8/39 29/14/29
f 61/85/61 62/86/62 63/87/63 60/88/60
f 65/61/65 64/34/64 40/33/40 29/14/29 8/15/8
f 67/59/67 64/39/64 33/38/33
f 65/40/65 66/58/66 33/38/33
f 67/35/67 66/60/66 48/57/48 17/56/17 4/36/4
f 71/89/70 68/90/68 69/91/68 70/92/69
f 71/28/70 70/25/69 41/22/41 42/21/42
f 75/93/74 74/72/73 49/71/49
f 72/73/71 73/94/72 49/71/49
f 73/94/72 75/93/74 49/71/49
f 72/66/71 74/74/73 32/24/32 3/23/3 9/62/9
f 77/95/76 78/96/77 76/97/75
f 76/97/75 79/98/78 77/95/76
f 80/99/79 81/100/80 35/101/35
f 82/102/81 80/99/79 35/101/35
f 94/103/93 96/104/95 85/105/84 83/106/82
f 99/107/98 101/108/100 97/108/96 93/107/92
f 100/109/99 90/110/89 86/110/85 95/109/94
f 89/106/88 91/105/90 102/104/101 98/103/97
f 85/105/84 86/110/85 87/111/86
f 90/110/89 91/105/90 92/111/91
f 95/109/94 96/104/95 97/108/96
f 100/109/99 101/108/100 102/104/101
f 83/106/82 85/105/84 87/111/86 84/112/83
f 86/110/85 90/110/89 92/111/91 87/111/86
f 91/105/90 89/106/88 88/112/87 92/111/91
f 90/110/89 100/109/99 102/104/101 91/105/90
f 101/108/100 99/107/98 98/103/97 102/104/101
f 100/109/99 95/109/94 97/108/96 101/108/100
f 96/104/95 94/103/93 93/107/92 97/108/96
f 95/109/94 86/110/85 85/105/84 96/104/95
f 84/112/83 87/111/86 92/111/91 88/112/87
f 114/113/113 116/114/115 105/115/104 103/116/102
f 119/117/118 121/118/120 117/118/116 113/117/112
f 120/119/119 110/120/109 106/120/105 115/119/114
f 109/116/108 111/115/110 122/114/121 118/113/117
f 105/115/104 106/120/105 107/121/106
f 110/120/109 111/115/110 112/121/111
f 115/119/114 116/114/115 117/118/116
f 120/119/119 121/118/120 122/114/121
f 103/116/102 105/115/104 107/121/106 104/122/103
f 106/120/105 110/120/109 112/121/111 107/121/106
f 111/115/110 109/116/108 108/122/107 112/121/111
f 110/120/109 120/119/119 122/114/121 111/115/110
f 121/118/120 119/117/118 118/113/117 122/114/121
f 120/119/119 115/119/114 117/118/116 121/118/120
f 116/114/115 114/113/113 113/117/112 117/118/116
f 115/119/114 106/120/105 105/115/104 116/114/115
f 104/122/103 107/121/106 112/121/111 108/122/107
f 134/113/133 136/114/135 125/115/124 123/116/122
f 139/117/138 141/118/140 137/118/136 133/117/132
f 140/119/139 130/120/129 126/120/125 135/119/134
f 129/116/128 131/115/130 142/114/141 138/113/137
f 125/115/124 126/120/125 127/121/126
f 130/120/129 131/115/130 132/121/131
f 135/119/134 136/114/135 137/118/136
f 140/119/139 141/118/140 142/114/141
f 123/116/122 125/115/124 127/121/126 124/122/123
f 126/120/125 130/120/129 132/121/131 127/121/126
f 131/115/130 129/116/128 128/122/127 132/121/131
f 130/120/129 140/119/139 142/114/141 131/115/130
f 141/118/140 139/117/138 138/113/137 142/114/141
f 140/119/139 135/119/134 137/118/136 141/118/140
f 136/114/135 134/113/133 133/117/132 137/118/136
f 135/119/134 126/120/125 125/115/124 136/114/135
f 124/122/123 127/121/126 132/121/131 128/122/127
f 154/123/153 156/124/155 145/125/144 143/126/142
f 159/127/158 161/128/160 157/128/156 153/127/152
f 160/129/159 150/130/149 146/130/145 155/129/154
f 149/126/148 151/125/150 162/124/161 158/123/157
f 145/125/144 146/130/145 147/131/146
f 150/130/149 151/125/150 152/131/151
f 155/129/154 156/124/155 157/128/156
f 160/129/159 161/128/160 162/124/161
f 143/126/142 145/125/144 147/131/146 144/132/143
f 146/130/145 150/130/149 152/131/151 147/131/146
f 151/125/150 149/126/148 148/132/147 152/131/151
f 150/130/149 160/129/159 162/124/161 151/125/150
f 161/128/160 159/127/158 158/123/157 162/124/161
f 160/129/159 155/129/154 157/128/156 161/128/160
f 156/124/155 154/123/153 153/127/152 157/128/156
f 155/129/154 146/130/145 145/125/144 156/124/155
f 144/132/143 147/131/146 152/131/151 148/132/147
f 174/133/173 176/134/175 165/135/164 163/136/162
f 179/137/178 181/138/180 177/138/176 173/137/172
f 180/139/179 170/140/169 166/140/165 175/139/174
f 169/136/168 171/135/170 182/134/181 178/133/177
f 165/135/164 166/140/165 167/141/166
f 170/140/169 171/135/170 172/141/171
f 175/139/174 176/134/175 177/138/176
f 180/139/179 181/138/180 182/134/181
f 163/136/162 165/135/164 167/141/166 164/142/163
f 166/140/165 170/140/169 172/141/171 167/141/166
f 171/135/170 169/136/168 168/142/167 172/141/171
f 170/140/169 180/139/179 182/134/181 171/135/170
f 181/138/180 179/137/178 178/133/177 182/134/181
f 180/139/179 175/139/174 177/138/176 181/138/180
f 176/134/175 174/133/173 173/137/172 177/138/176
f 175/139/174 166/140/165 165/135/164 176/134/175
f 164/142/163 167/141/166 172/141/171 168/142/167
f 194/143/193 196/144/195 185/145/184 183/146/182
f 199/147/198 201/148/200 197/148/196 193/147/192
f 200/149/199 190/150/189 186/150/185 195/149/194
f 189/146/188 191/145/190 202/144/201 198/143/197
f 185/145/184 186/150/185 187/151/186
f 190/150/189 191/145/190 192/151/191
f 195/149/194 196/144/195 197/148/196
f 200/149/199 201/148/200 202/144/201
f 183/146/182 185/145/184 187/151/186 184/152/183
f 186/150/185 190/150/189 192/151/191 187/151/186
f 191/145/190 189/146/188 188/152/187 192/151/191
f 190/150/189 200/149/199 202/144/201 191/145/190
f 201/148/200 199/147/198 198/143/197 202/144/201
f 200/149/199 195/149/194 197/148/196 201/148/200
f 196/144/195 194/143/193 193/147/192 197/148/196
f 195/149/194 186/150/185 185/145/184 196/144/195
f 184/152/183 187/151/186 192/151/191 188/152/187
f 214/143/213 216/144/215 205/145/204 203/146/202
f 219/147/218 221/148/220 217/148/216 213/147/212
f 220/149/219 210/150/209 206/150/205 215/149/214
f 209/146/208 211/145/210 222/144/221 218/143/217
f 205/145/204 206/150/205 207/151/206
f 210/150/209 211/145/210 212/151/211
f 215/149/214 216/144/215 217/148/216
f 220/149/219 221/148/220 222/144/221
f 203/146/202 205/145/204 207/151/206 204/152/203
f 206/150/205 210/150/209 212/151/211 207/151/206
f 211/145/210 209/146/208 208/152/207 212/151/211
f 210/150/209 220/149/219 222/144/221 211/145/210
f 221/148/220 219/147/218 218/143/217 222/144/221
f 220/149/219 215/149/214 217/148/216 221/148/220
f 216/144/215 214/143/213 213/147/212 217/148/216
f 215/149/214 206/150/205 205/145/204 216/144/215
f 204/152/203 207/151/206 212/151/211 208/152/207
