# Blender 4.1.1
# www.blender.org
mtllib Signs_1_1.mtl
o Signs_1_1
v 0.213368 -0.000000 0.165413
v 0.203136 -0.000000 0.171158
v 0.203136 -0.000000 -0.139849
v 0.213368 -0.000000 -0.134104
v 0.171610 -0.000000 0.171158
v 0.161378 -0.000000 0.165413
v 0.161377 -0.000000 -0.134104
v 0.171610 -0.000000 -0.139849
v 0.213368 0.028816 0.165413
v 0.203136 0.033139 0.165413
v 0.203136 0.028816 0.171158
v 0.213368 0.028816 -0.134104
v 0.203136 0.028816 -0.139849
v 0.203136 0.033139 -0.134104
v 0.161378 0.028816 0.165413
v 0.171610 0.028816 0.171158
v 0.171610 0.033139 0.165413
v 0.161377 0.028816 -0.134104
v 0.171610 0.033139 -0.134104
v 0.171610 0.028816 -0.139849
v 0.055630 -0.000000 -0.095771
v 0.045398 -0.000000 -0.090026
v 0.045398 -0.000000 -0.261143
v 0.055630 -0.000000 -0.255398
v 0.013872 -0.000000 -0.090026
v 0.003640 -0.000000 -0.095771
v 0.003640 -0.000000 -0.255398
v 0.013872 -0.000000 -0.261143
v 0.055630 0.028816 -0.095771
v 0.045398 0.033139 -0.095771
v 0.045398 0.028816 -0.090026
v 0.055630 0.028816 -0.255398
v 0.045398 0.028816 -0.261143
v 0.045398 0.033139 -0.255398
v 0.003640 0.028816 -0.095771
v 0.013872 0.028816 -0.090026
v 0.013872 0.033139 -0.095771
v 0.003640 0.028816 -0.255398
v 0.013872 0.033139 -0.255398
v 0.013872 0.028816 -0.261143
v 0.055631 -0.000000 0.193453
v 0.045398 -0.000000 0.199198
v 0.045398 -0.000000 -0.031750
v 0.055630 -0.000000 -0.026005
v 0.013872 -0.000000 0.199198
v 0.003640 -0.000000 0.193453
v 0.003640 -0.000000 -0.026005
v 0.013872 -0.000000 -0.031750
v 0.055631 0.028816 0.193453
v 0.045398 0.033139 0.193453
v 0.045398 0.028816 0.199198
v 0.055630 0.028816 -0.026005
v 0.045398 0.028816 -0.031750
v 0.045398 0.033139 -0.026005
v 0.003640 0.028816 0.193453
v 0.013872 0.028816 0.199198
v 0.013872 0.033139 0.193453
v 0.003640 0.028816 -0.026005
v 0.013872 0.033139 -0.026005
v 0.013872 0.028816 -0.031750
v -0.097329 -0.000000 0.059834
v -0.107561 -0.000000 0.065579
v -0.107561 -0.000000 -0.245428
v -0.097329 -0.000000 -0.239683
v -0.139087 -0.000000 0.065579
v -0.149319 -0.000000 0.059834
v -0.149319 -0.000000 -0.239683
v -0.139087 -0.000000 -0.245428
v -0.097329 0.028816 0.059834
v -0.107561 0.033139 0.059834
v -0.107561 0.028816 0.065579
v -0.097329 0.028816 -0.239683
v -0.107561 0.028816 -0.245428
v -0.107561 0.033139 -0.239683
v -0.149319 0.028816 0.059834
v -0.139087 0.028816 0.065579
v -0.139087 0.033139 0.059834
v -0.149319 0.028816 -0.239683
v -0.139087 0.033139 -0.239683
v -0.139087 0.028816 -0.245428
v -0.097329 -0.000000 0.199863
v -0.107561 -0.000000 0.205608
v -0.107561 -0.000000 0.126641
v -0.097329 -0.000000 0.132386
v -0.139087 -0.000000 0.205608
v -0.149319 -0.000000 0.199863
v -0.149319 -0.000000 0.132386
v -0.139087 -0.000000 0.126641
v -0.097329 0.028816 0.199863
v -0.107561 0.033139 0.199863
v -0.107561 0.028816 0.205608
v -0.097329 0.028816 0.132386
v -0.107561 0.028816 0.126641
v -0.107561 0.033139 0.132386
v -0.149319 0.028816 0.199863
v -0.139087 0.028816 0.205608
v -0.139087 0.033139 0.199863
v -0.149319 0.028816 0.132386
v -0.139087 0.033139 0.132386
v -0.139087 0.028816 0.126641
vn 0.3199 0.7571 0.5697
vn 0.3199 0.7571 -0.5697
vn -0.3199 0.7571 0.5697
vn -0.3199 0.7571 -0.5697
vn -1.0000 -0.0000 -0.0000
vn 0.4896 -0.0000 0.8720
vn -0.0000 -0.0000 -1.0000
vn 0.3892 0.9212 -0.0000
vn -0.3892 0.9212 -0.0000
vn -0.0000 0.7991 -0.6013
vn -0.4896 -0.0000 0.8720
vn 0.4896 -0.0000 -0.8720
vn -0.4896 -0.0000 -0.8720
vn -0.0000 -0.0000 1.0000
vn -0.0000 0.7990 -0.6013
vn 1.0000 -0.0000 -0.0000
vn -0.0000 0.7990 0.6013
vn -0.0000 0.7991 0.6013
vn -0.0000 1.0000 -0.0000
vt 0.661606 0.040911
vt 0.661765 0.040911
vt 0.661661 0.041159
vt 0.661606 0.041176
vt 0.661687 0.041169
vt 0.661765 0.041176
vt 0.661596 0.040911
vt 0.661645 0.041159
vt 0.661749 0.040911
vt 0.661596 0.041176
vt 0.661749 0.041176
vt 0.661671 0.041169
vt 0.661562 0.041176
vt 0.661562 0.040911
vt 0.661661 0.041125
vt 0.661640 0.040911
vt 0.661687 0.041203
vt 0.661671 0.041203
vt 0.661645 0.041125
vt 0.661640 0.041176
s 0
usemtl Graveyard
f 9/1/1 10/2/1 11/3/1
f 12/4/2 13/5/2 14/6/2
f 15/7/3 16/8/3 17/9/3
f 18/10/4 19/11/4 20/12/4
f 29/1/1 30/2/1 31/3/1
f 32/4/2 33/5/2 34/6/2
f 35/7/3 36/8/3 37/9/3
f 38/10/4 39/11/4 40/12/4
f 49/1/1 50/2/1 51/3/1
f 52/4/2 53/5/2 54/6/2
f 55/7/3 56/8/3 57/9/3
f 58/10/4 59/11/4 60/12/4
f 69/1/1 70/2/1 71/3/1
f 72/4/2 73/5/2 74/6/2
f 75/7/3 76/8/3 77/9/3
f 78/10/4 79/11/4 80/12/4
f 89/1/1 90/2/1 91/3/1
f 92/4/2 93/5/2 94/6/2
f 95/7/3 96/8/3 97/9/3
f 98/10/4 99/11/4 100/12/4
f 18/10/5 7/13/5 6/14/5 15/7/5
f 22/15/6 21/16/6 29/1/6 31/3/6
f 62/15/6 61/16/6 69/1/6 71/3/6
f 80/12/7 73/5/7 63/17/7 68/18/7
f 50/2/8 49/1/8 52/4/8 54/6/8
f 78/10/9 75/7/9 77/9/9 79/11/9
f 20/12/10 19/11/10 14/6/10 13/5/10
f 70/2/8 69/1/8 72/4/8 74/6/8
f 16/8/11 15/7/11 6/14/11 5/19/11
f 33/5/12 32/4/12 24/20/12 23/17/12
f 67/13/13 78/10/13 80/12/13 68/18/13
f 22/15/14 31/3/14 36/8/14 25/19/14
f 40/12/7 33/5/7 23/17/7 28/18/7
f 38/10/5 27/13/5 26/14/5 35/7/5
f 42/15/6 41/16/6 49/1/6 51/3/6
f 53/5/12 52/4/12 44/20/12 43/17/12
f 42/15/14 51/3/14 56/8/14 45/19/14
f 15/7/9 17/9/9 19/11/9 18/10/9
f 94/6/15 93/5/15 100/12/15 99/11/15
f 34/6/10 33/5/10 40/12/10 39/11/10
f 96/8/11 95/7/11 86/14/11 85/19/11
f 7/13/13 18/10/13 20/12/13 8/18/13
f 47/13/13 58/10/13 60/12/13 48/18/13
f 89/1/16 81/16/16 84/20/16 92/4/16
f 27/13/13 38/10/13 40/12/13 28/18/13
f 13/5/12 12/4/12 4/20/12 3/17/12
f 78/10/5 67/13/5 66/14/5 75/7/5
f 49/1/16 41/16/16 44/20/16 52/4/16
f 100/12/7 93/5/7 83/17/7 88/18/7
f 10/2/8 9/1/8 12/4/8 14/6/8
f 91/3/17 90/2/17 97/9/17 96/8/17
f 77/9/18 76/8/18 71/3/18 70/2/18
f 36/8/17 31/3/17 30/2/17 37/9/17
f 60/12/7 53/5/7 43/17/7 48/18/7
f 11/3/18 10/2/18 17/9/18 16/8/18
f 37/9/19 30/2/19 34/6/19 39/11/19
f 58/10/5 47/13/5 46/14/5 55/7/5
f 9/1/16 1/16/16 4/20/16 12/4/16
f 2/15/6 1/16/6 9/1/6 11/3/6
f 57/9/19 50/2/19 54/6/19 59/11/19
f 77/9/19 70/2/19 74/6/19 79/11/19
f 90/2/8 89/1/8 92/4/8 94/6/8
f 32/4/8 34/6/8 30/2/8 29/1/8
f 35/7/9 37/9/9 39/11/9 38/10/9
f 50/2/18 57/9/18 56/8/18 51/3/18
f 56/8/11 55/7/11 46/14/11 45/19/11
f 73/5/12 72/4/12 64/20/12 63/17/12
f 53/5/10 60/12/10 59/11/10 54/6/10
f 62/15/14 71/3/14 76/8/14 65/19/14
f 20/12/7 13/5/7 3/17/7 8/18/7
f 17/9/19 10/2/19 14/6/19 19/11/19
f 2/15/14 11/3/14 16/8/14 5/19/14
f 69/1/16 61/16/16 64/20/16 72/4/16
f 98/10/5 87/13/5 86/14/5 95/7/5
f 99/11/9 98/10/9 95/7/9 97/9/9
f 55/7/9 57/9/9 59/11/9 58/10/9
f 74/6/15 73/5/15 80/12/15 79/11/15
f 36/8/11 35/7/11 26/14/11 25/19/11
f 93/5/12 92/4/12 84/20/12 83/17/12
f 76/8/11 75/7/11 66/14/11 65/19/11
f 97/9/19 90/2/19 94/6/19 99/11/19
f 87/13/13 98/10/13 100/12/13 88/18/13
f 82/15/14 91/3/14 96/8/14 85/19/14
f 29/1/16 21/16/16 24/20/16 32/4/16
f 82/15/6 81/16/6 89/1/6 91/3/6
