# Blender 4.1.1
# www.blender.org
mtllib StoneBlock_4_1.mtl
o StoneBlock_4_1
v 0.205746 0.205732 -0.348627
v 0.205746 0.232043 -0.322316
v 0.232057 0.205732 -0.322316
v 0.205746 0.296653 0.322316
v 0.205746 0.270343 0.348627
v 0.232057 0.270343 0.322316
v -0.205746 0.296653 -0.322316
v -0.205746 0.270343 -0.348627
v -0.232057 0.270343 -0.322316
v -0.205746 0.334529 0.322316
v -0.232057 0.308218 0.322316
v -0.205746 0.308218 0.348627
v 0.279561 0.296653 -0.065960
v 0.247098 0.296653 0.146451
v 0.280772 0.270343 0.151597
v 0.313236 0.270343 -0.060814
v -0.279561 0.334529 0.065960
v -0.247098 0.296653 -0.146451
v -0.280772 0.270343 -0.151597
v -0.313235 0.308218 0.060814
v -0.041149 0.296653 0.342515
v -0.044508 0.270343 0.370474
v 0.041149 0.296653 -0.342515
v 0.044509 0.270343 -0.370475
v -0.029675 0.296653 0.110925
v 0.029675 0.296653 -0.110925
v 0.210291 0.000000 -0.352977
v 0.219056 0.021923 -0.371180
v 0.229378 0.000000 -0.333891
v 0.247069 0.021927 -0.343166
v 0.229187 0.000000 0.334082
v 0.247493 0.021990 0.343755
v 0.210709 0.000000 0.352560
v 0.219432 0.021989 0.371816
v -0.229186 0.000000 -0.334082
v -0.247492 0.022000 -0.343754
v -0.210709 0.000000 -0.352560
v -0.219431 0.021999 -0.371815
v -0.210291 0.000000 0.352977
v -0.219579 0.022015 0.372067
v -0.229378 0.000000 0.333891
v -0.247659 0.022016 0.343987
v 0.279474 0.000000 0.157855
v 0.299448 0.021990 0.161681
v 0.334071 0.021988 -0.064859
v 0.313308 0.000000 -0.063526
v -0.279473 0.000000 -0.157855
v -0.299447 0.022002 -0.161680
v -0.334295 0.022018 0.064903
v -0.313307 0.000000 0.063526
v 0.047469 0.022000 -0.395116
v 0.047202 0.000000 -0.375076
v -0.047469 0.021990 0.395117
v -0.047202 0.000000 0.375076
vn 0.4529 0.6426 -0.6180
vn 0.4293 0.7913 -0.4354
vn 0.6153 0.6478 -0.4491
vn 0.3046 0.8814 0.3610
vn 0.2715 0.6862 0.6748
vn 0.6331 0.7014 0.3275
vn -0.3046 0.8814 -0.3610
vn -0.2715 0.6862 -0.6748
vn -0.6331 0.7014 -0.3275
vn -0.2123 0.9101 0.3559
vn -0.6401 0.6868 0.3444
vn -0.1715 0.7023 0.6909
vn -0.0000 -1.0000 -0.0000
vn 0.3391 0.9381 0.0709
vn 0.6232 0.7714 0.1285
vn 0.3991 0.9095 -0.1162
vn 0.0665 0.9962 -0.0570
vn 0.0714 0.9971 -0.0247
vn 0.9735 0.0819 0.2134
vn 0.9739 0.0818 0.2115
vn 0.8614 0.0966 0.4986
vn 0.8545 0.0972 0.5103
vn -0.3213 0.9468 -0.0172
vn -0.6252 0.7788 -0.0507
vn 0.0861 0.9120 0.4011
vn 0.0674 0.7142 0.6967
vn 0.7264 -0.6849 -0.0561
vn 0.7265 -0.6850 -0.0544
vn 0.7175 -0.6789 0.1560
vn 0.7173 -0.6789 0.1570
vn 0.0362 0.1060 -0.9937
vn 0.0181 0.1049 -0.9943
vn 0.4189 0.1297 -0.8987
vn 0.4521 0.1312 -0.8822
vn -0.3061 -0.6928 -0.6529
vn -0.3038 -0.6928 -0.6540
vn 0.0182 -0.6707 -0.7415
vn 0.0190 -0.6706 -0.7415
vn 0.3280 -0.6804 -0.6553
vn 0.3257 -0.6805 -0.6564
vn 0.6330 -0.6754 -0.3784
vn 0.6284 -0.6749 -0.3867
vn -0.7219 -0.6899 0.0544
vn -0.7220 -0.6899 0.0531
vn -0.7168 -0.6796 -0.1561
vn -0.7166 -0.6795 -0.1571
vn 0.1133 0.9057 -0.4085
vn -0.9730 0.0793 -0.2167
vn -0.9741 0.0789 -0.2120
vn -0.8614 0.0966 -0.4986
vn -0.8545 0.0972 -0.5103
vn 0.8592 0.1177 -0.4978
vn 0.8427 0.1205 -0.5247
vn -0.0246 0.0954 0.9951
vn -0.4589 0.0974 0.8831
vn -0.4381 0.0975 0.8936
vn -0.0187 0.0955 0.9952
vn 0.1761 0.7121 -0.6796
vn 0.3060 -0.6930 0.6528
vn 0.3037 -0.6930 0.6538
vn -0.0169 -0.6747 0.7379
vn -0.0176 -0.6747 0.7379
vn 0.4180 0.1073 0.9021
vn 0.4221 0.1073 0.9002
vn -0.3171 0.9396 -0.1287
vn -0.6106 0.7669 -0.1976
vn -0.6259 -0.6848 -0.3732
vn -0.6296 -0.6850 -0.3666
vn -0.3204 -0.6931 0.6458
vn -0.3191 -0.6931 0.6464
vn -0.6226 -0.6880 0.3729
vn -0.6196 -0.6879 0.3781
vn 0.6348 0.7630 -0.1222
vn -0.8559 0.0853 0.5101
vn -0.9936 0.0766 0.0831
vn -0.9944 0.0766 0.0722
vn -0.8501 0.0857 0.5196
vn 0.9941 0.0899 -0.0602
vn 0.9925 0.0907 -0.0816
vn -0.4180 0.1073 -0.9021
vn -0.4221 0.1073 -0.9002
vn 0.6257 -0.6850 0.3731
vn 0.6294 -0.6852 0.3666
vt 0.672955 0.059660
vt 0.672955 0.062750
vt 0.672769 0.059660
vt 0.672955 0.062750
vt 0.672955 0.059660
vt 0.672769 0.059660
vt 0.675862 0.062750
vt 0.675862 0.059660
vt 0.676047 0.059660
vt 0.675862 0.062750
vt 0.676047 0.059660
vt 0.675862 0.059660
vt 0.674362 0.027916
vt 0.672858 0.027916
vt 0.675941 0.027916
vt 0.673048 0.027916
vt 0.672923 0.027916
vt 0.672876 0.027916
vt 0.672909 0.027916
vt 0.673015 0.027916
vt 0.674455 0.027916
vt 0.675769 0.027916
vt 0.675893 0.027916
vt 0.675959 0.027916
vt 0.675907 0.027916
vt 0.675802 0.027916
vt 0.672955 0.062750
vt 0.672769 0.059660
vt 0.672955 0.062750
vt 0.674408 0.062750
vt 0.674408 0.062750
vt 0.672769 0.030498
vt 0.672769 0.030498
vt 0.674408 0.059660
vt 0.672769 0.030498
vt 0.672769 0.030498
vt 0.674408 0.030499
vt 0.674408 0.059660
vt 0.672955 0.031299
vt 0.675862 0.030499
vt 0.674408 0.030499
vt 0.672769 0.031299
vt 0.676047 0.030184
vt 0.676047 0.030500
vt 0.674408 0.062750
vt 0.676047 0.059660
vt 0.676047 0.030499
vt 0.675862 0.030184
vt 0.674408 0.030498
vt 0.672955 0.030498
vt 0.674408 0.030498
vt 0.672955 0.030498
vt 0.672769 0.030498
vt 0.675862 0.062750
vt 0.675862 0.030184
vt 0.676047 0.030184
vt 0.672769 0.031299
vt 0.672769 0.030498
vt 0.672769 0.059660
vt 0.676047 0.030184
vt 0.676047 0.030499
vt 0.675862 0.030499
s 1
usemtl Graveyard
f 1/1/1 2/2/2 3/3/3
f 4/4/4 5/5/5 6/6/6
f 7/7/7 8/8/8 9/9/9
f 10/10/10 11/11/11 12/12/12
f 52/13/13 46/14/13 47/15/13
f 27/16/13 29/17/13 52/13/13
f 29/17/13 46/14/13 52/13/13
f 43/18/13 31/19/13 33/20/13
f 33/20/13 54/21/13 43/18/13
f 54/21/13 39/22/13 41/23/13
f 41/23/13 50/24/13 54/21/13
f 54/21/13 50/24/13 43/18/13
f 47/15/13 35/25/13 37/26/13
f 37/26/13 52/13/13 47/15/13
f 14/27/14 4/4/4 6/6/6 15/28/15
f 14/27/14 13/29/16 26/30/17 25/31/18
f 44/32/19 15/28/20 6/6/21 32/33/22
f 17/10/23 20/11/24 11/11/11 10/10/10
f 21/31/25 10/10/10 12/12/12 22/34/26
f 46/14/27 45/35/28 44/36/29 43/18/30
f 51/37/31 24/38/32 1/1/33 28/39/34
f 37/26/35 38/40/36 51/41/37 52/13/38
f 27/16/39 28/39/40 30/42/41 29/17/42
f 50/24/43 49/43/44 48/44/45 47/15/46
f 26/30/17 13/29/16 2/2/2 23/45/47
f 48/44/48 19/46/49 9/9/50 36/47/51
f 1/1/33 3/3/52 30/42/53 28/39/34
f 22/34/54 12/12/55 40/48/56 53/49/57
f 23/45/47 24/38/58 8/8/8 7/7/7
f 33/20/59 34/50/60 53/51/61 54/21/62
f 5/5/63 34/52/64 32/53/22 6/6/21
f 18/54/65 7/7/7 9/9/9 19/46/66
f 35/25/67 47/15/46 48/44/45 36/47/68
f 5/5/63 22/34/54 53/51/57 34/50/64
f 39/22/69 40/55/70 42/56/71 41/23/72
f 46/14/27 29/17/42 30/57/41 45/58/28
f 13/29/16 16/59/73 3/3/3 2/2/2
f 11/11/74 20/11/75 49/43/76 42/60/77
f 25/31/18 26/30/17 18/54/65 17/10/23
f 16/59/78 15/28/20 44/36/19 45/35/79
f 8/8/80 24/38/32 51/41/31 38/40/81
f 33/20/59 31/19/82 32/53/83 34/52/60
f 10/10/10 21/31/25 25/31/18 17/10/23
f 37/26/35 35/25/67 36/61/68 38/62/36
f 2/2/2 1/1/1 24/38/58 23/45/47
f 50/24/43 41/23/72 42/60/71 49/43/44
f 39/22/69 54/21/62 53/49/61 40/48/70
f 27/16/39 52/13/38 51/37/37 28/39/40
f 26/30/17 23/45/47 7/7/7 18/54/65
f 21/31/25 22/34/26 5/5/5 4/4/4
f 31/19/82 43/18/30 44/32/29 32/33/83
f 49/43/76 20/11/75 19/46/49 48/44/48
f 18/54/65 19/46/66 20/11/24 17/10/23
f 3/3/52 16/59/78 45/58/79 30/57/53
f 4/4/4 14/27/14 25/31/18 21/31/25
f 8/8/80 38/62/81 36/61/51 9/9/50
f 42/56/77 40/55/56 12/12/55 11/11/74
f 46/14/13 43/18/13 50/24/13 47/15/13
f 13/29/16 14/27/14 15/28/15 16/59/73
