# Blender 4.1.1
# www.blender.org
mtllib StoneBlock_2_2.mtl
o StoneBlock_2_2
v 0.208572 0.201311 -0.352032
v 0.208644 0.219255 -0.328166
v 0.234883 0.197996 -0.329214
v 0.208528 0.191100 0.288341
v 0.208450 0.172496 0.316476
v 0.234830 0.171547 0.288234
v -0.202332 0.212242 -0.299084
v -0.202375 0.193577 -0.324100
v -0.228676 0.193875 -0.297615
v -0.203546 0.207388 0.313361
v -0.229922 0.189167 0.315418
v -0.203630 0.187313 0.340034
v 0.209120 0.216230 -0.132697
v 0.233445 0.193038 0.068501
v 0.259703 0.172699 0.068161
v 0.235369 0.195115 -0.133739
v -0.219516 0.222160 0.104562
v -0.250010 0.241794 -0.094977
v -0.276381 0.223557 -0.093008
v -0.245900 0.204129 0.106933
v 0.071312 0.189563 0.293410
v -0.066155 0.195239 0.329843
v -0.066249 0.175690 0.357195
v 0.071215 0.170295 0.321096
v -0.065163 0.244244 -0.308830
v 0.071818 0.239642 -0.319475
v 0.071759 0.221728 -0.343491
v -0.065208 0.226206 -0.333174
v 0.072015 0.203593 0.077851
v -0.065289 0.213689 0.090385
v 0.072214 0.219330 -0.123114
v -0.064931 0.231605 -0.110424
v 0.229848 0.000000 -0.373878
v 0.234659 0.021513 -0.391679
v 0.245742 0.000000 -0.359664
v 0.264246 0.021478 -0.365183
v 0.246625 0.000000 0.333070
v 0.263681 0.021201 0.336147
v 0.227947 0.000000 0.352761
v 0.234063 0.021147 0.367512
v -0.241529 0.000000 -0.330443
v -0.258002 0.021415 -0.336698
v -0.222011 0.000000 -0.350052
v -0.228370 0.021391 -0.366472
v -0.222779 0.000000 0.373597
v -0.229546 0.021412 0.388254
v -0.241547 0.000000 0.355715
v -0.259183 0.021446 0.360143
v 0.273727 0.000000 0.092748
v 0.291495 0.021298 0.089659
v 0.264591 0.021436 -0.140535
v 0.246107 0.000000 -0.140050
v -0.293675 0.000000 -0.103743
v -0.312310 0.021569 -0.103486
v -0.277588 0.021510 0.124675
v -0.259354 0.000000 0.124270
v 0.082725 0.000000 -0.366072
v 0.080534 0.021601 -0.383782
v -0.074031 0.021601 -0.374434
v -0.073807 0.000000 -0.356727
v -0.077165 0.000000 0.394224
v -0.074855 0.021224 0.409509
v 0.079688 0.021121 0.371065
v 0.077971 0.000000 0.356106
vn 0.2818 0.7672 -0.5762
vn 0.3459 0.8967 -0.2764
vn 0.6129 0.7676 -0.1874
vn 0.2922 0.9106 0.2923
vn 0.2059 0.8117 0.5466
vn 0.5873 0.7777 0.2242
vn -0.3333 0.8749 -0.3513
vn -0.3403 0.7545 -0.5611
vn -0.5501 0.7616 -0.3426
vn -0.2362 0.9182 0.3181
vn -0.5288 0.8005 0.2822
vn -0.1675 0.7928 0.5860
vn -0.0000 -1.0000 -0.0000
vn 0.0849 0.9256 0.3689
vn 0.0723 0.9943 0.0787
vn -0.2512 0.9614 0.1122
vn 0.7006 -0.6164 0.3596
vn 0.7184 -0.6231 0.3094
vn 0.3223 -0.6027 0.7300
vn 0.3279 -0.6026 0.7276
vn 0.9837 0.1721 -0.0529
vn 0.9837 0.1720 -0.0526
vn 0.9801 0.1982 -0.0112
vn 0.9792 0.2025 0.0114
vn -0.6832 -0.6370 0.3570
vn -0.3491 -0.5992 0.7205
vn -0.3463 -0.5991 0.7219
vn -0.6999 -0.6421 0.3128
vn -0.8914 0.2524 0.3764
vn -0.9761 0.1790 0.1228
vn -0.9767 0.1798 0.1174
vn -0.8521 0.2665 0.4505
vn 0.3797 0.3524 0.8554
vn 0.3868 0.3525 0.8521
vn 0.8517 0.2990 0.4304
vn 0.8862 0.2850 0.3652
vn -0.6699 -0.6332 -0.3876
vn -0.6807 -0.6353 -0.3648
vn -0.3088 -0.6399 -0.7037
vn -0.3195 -0.6394 -0.6993
vn 0.0724 0.9488 0.3074
vn 0.0606 0.9956 0.0713
vn -0.0620 0.9536 -0.2947
vn -0.1225 0.7966 -0.5920
vn -0.9808 0.1894 -0.0460
vn -0.9815 0.1886 -0.0316
vn -0.8610 0.2379 -0.4495
vn -0.8364 0.2447 -0.4905
vn 0.0887 0.8083 0.5820
vn 0.1017 0.8177 0.5667
vn 0.3663 0.9288 0.0569
vn 0.6117 0.7898 0.0445
vn 0.7667 -0.6420 0.0046
vn 0.7657 -0.6432 -0.0077
vn -0.4003 0.3194 0.8589
vn -0.4061 0.3193 0.8562
vn -0.5540 0.8220 0.1322
vn -0.0726 0.2104 -0.9749
vn -0.0716 0.2090 -0.9753
vn -0.0531 0.1994 -0.9785
vn -0.0516 0.1997 -0.9785
vn 0.0361 -0.5876 0.8084
vn 0.0474 -0.5877 0.8077
vn -0.3229 0.9463 -0.0172
vn -0.5684 0.8222 -0.0308
vn 0.3413 0.2461 -0.9072
vn 0.2875 0.2419 -0.9267
vn 0.8966 0.2267 -0.3804
vn 0.8779 0.2314 -0.4193
vn 0.0571 0.9585 -0.2793
vn 0.0345 0.8009 -0.5978
vn 0.6729 -0.6637 -0.3267
vn 0.6859 -0.6662 -0.2928
vn 0.7573 -0.6514 -0.0459
vn 0.7574 -0.6515 -0.0447
vn -0.7602 -0.6489 -0.0330
vn -0.7603 -0.6491 -0.0266
vn 0.1344 0.3172 0.9388
vn 0.1324 0.3173 0.9390
vn -0.7589 -0.6456 0.0855
vn -0.7586 -0.6457 0.0876
vn 0.1066 -0.5821 0.8061
vn 0.1078 -0.5821 0.8059
vn -0.3800 0.2596 -0.8878
vn -0.4127 0.2623 -0.8723
vn -0.0419 -0.6299 -0.7755
vn -0.0417 -0.6298 -0.7757
vn 0.3513 0.9351 0.0476
vn 0.0737 0.9941 0.0800
vn 0.0357 0.9981 0.0496
vn 0.2637 -0.6503 -0.7124
vn 0.2454 -0.6511 -0.7182
vn 0.6240 0.7814 0.0121
vn 0.0671 0.3141 0.9470
vn 0.0574 0.3140 0.9477
vn -0.0433 -0.6343 -0.7719
vn -0.0435 -0.6343 -0.7718
vt 0.393656 0.079347
vt 0.393656 0.082436
vt 0.393470 0.079347
vt 0.393656 0.082436
vt 0.393656 0.079347
vt 0.393470 0.079347
vt 0.396563 0.082436
vt 0.396563 0.079347
vt 0.396749 0.079347
vt 0.396563 0.082436
vt 0.396749 0.079347
vt 0.396563 0.079347
vt 0.393581 0.047602
vt 0.394643 0.047602
vt 0.396618 0.047602
vt 0.393704 0.047602
vt 0.393605 0.047602
vt 0.394614 0.047602
vt 0.393610 0.047602
vt 0.393606 0.047602
vt 0.393718 0.047602
vt 0.395600 0.047602
vt 0.396499 0.047602
vt 0.396612 0.047602
vt 0.396651 0.047602
vt 0.396610 0.047602
vt 0.395581 0.047602
vt 0.396497 0.047602
vt 0.395594 0.082436
vt 0.393470 0.051526
vt 0.393656 0.051494
vt 0.393470 0.051090
vt 0.393470 0.079347
vt 0.393470 0.051517
vt 0.396563 0.051231
vt 0.396749 0.051201
vt 0.396749 0.050947
vt 0.396749 0.051109
vt 0.396563 0.051110
vt 0.394625 0.082436
vt 0.394625 0.082436
vt 0.395594 0.082436
vt 0.395594 0.079347
vt 0.396749 0.050665
vt 0.395594 0.079347
vt 0.394625 0.079347
vt 0.393656 0.082436
vt 0.395594 0.050634
vt 0.394625 0.050695
vt 0.395594 0.051437
vt 0.396748 0.050947
vt 0.393656 0.050995
vt 0.393470 0.051046
vt 0.394625 0.082436
vt 0.394625 0.051539
vt 0.395594 0.051437
vt 0.393656 0.082436
s 1
usemtl Graveyard
f 1/1/1 2/2/2 3/3/3
f 4/4/4 5/5/5 6/6/6
f 7/7/7 8/8/8 9/9/9
f 10/10/10 11/11/11 12/12/12
f 49/13/13 64/14/13 56/15/13
f 33/16/13 35/17/13 57/18/13
f 35/17/13 52/19/13 57/18/13
f 49/13/13 37/20/13 64/14/13
f 37/20/13 39/21/13 64/14/13
f 64/14/13 61/22/13 56/15/13
f 61/22/13 45/23/13 47/24/13
f 56/15/13 61/22/13 47/24/13
f 53/25/13 41/26/13 60/27/13
f 52/19/13 53/25/13 60/27/13
f 41/26/13 43/28/13 60/27/13
f 60/27/13 57/18/13 52/19/13
f 10/10/10 22/29/14 30/29/15 17/10/16
f 37/20/17 38/30/18 40/31/19 39/21/20
f 51/32/21 16/33/22 15/33/23 50/34/24
f 47/24/25 45/23/26 46/35/27 48/36/28
f 11/11/29 20/11/30 55/37/31 48/36/32
f 5/5/33 40/31/34 38/30/35 6/6/36
f 41/26/37 42/38/38 44/39/39 43/28/40
f 21/40/41 29/41/42 30/29/15 22/29/14
f 7/7/7 25/42/43 28/43/44 8/8/8
f 54/44/45 19/11/46 9/9/47 42/38/48
f 22/29/14 23/45/49 24/46/50 21/40/41
f 4/4/4 14/47/51 29/41/42 21/40/41
f 14/47/51 4/4/4 6/6/6 15/33/52
f 49/13/53 50/34/54 38/30/18 37/20/17
f 48/36/32 46/35/55 12/12/56 11/11/29
f 21/40/41 24/46/50 5/5/5 4/4/4
f 10/10/10 17/10/16 20/11/57 11/11/11
f 59/48/58 28/43/59 27/46/60 58/49/61
f 45/23/26 61/22/62 62/50/63 46/35/27
f 22/29/14 10/10/10 12/12/12 23/45/49
f 20/11/30 19/11/46 54/44/45 55/51/31
f 18/7/64 7/7/7 9/9/9 19/11/65
f 34/52/66 1/1/67 3/3/68 36/53/69
f 26/54/70 27/46/71 28/43/44 25/42/43
f 35/17/72 36/53/73 51/32/74 52/19/75
f 53/25/76 54/44/77 42/38/38 41/26/37
f 50/34/24 15/33/23 6/6/36 38/30/35
f 5/5/33 24/46/78 63/55/79 40/31/34
f 53/25/76 56/15/80 55/51/81 54/44/77
f 61/22/62 64/14/82 63/55/83 62/56/63
f 8/8/84 28/43/59 59/48/58 44/39/85
f 47/24/25 48/36/28 55/37/81 56/15/80
f 43/28/40 44/39/39 59/48/86 60/27/87
f 3/3/68 16/33/22 51/32/21 36/53/69
f 14/47/51 13/57/88 31/41/89 29/41/42
f 52/19/13 49/13/13 56/15/13 53/25/13
f 32/29/90 25/42/43 7/7/7 18/7/64
f 35/17/72 33/16/91 34/52/92 36/53/73
f 31/41/89 26/54/70 25/42/43 32/29/90
f 13/57/88 2/2/2 26/54/70 31/41/89
f 14/47/51 15/33/52 16/33/93 13/57/88
f 63/55/79 24/46/78 23/45/94 62/56/95
f 33/16/91 57/18/96 58/49/97 34/52/92
f 8/8/84 44/39/85 42/38/48 9/9/47
f 39/21/20 40/31/19 63/55/83 64/14/82
f 29/41/42 31/41/89 32/29/90 30/29/15
f 2/2/2 1/1/1 27/46/71 26/54/70
f 49/13/53 52/19/75 51/32/74 50/34/54
f 58/49/61 27/46/60 1/1/67 34/52/66
f 30/29/15 32/29/90 18/7/64 17/10/16
f 62/50/95 23/45/94 12/12/56 46/35/55
f 60/27/87 59/48/86 58/49/97 57/18/96
f 2/2/2 13/57/88 16/33/93 3/3/3
f 18/7/64 19/11/65 20/11/57 17/10/16
