# Blender 4.1.1
# www.blender.org
mtllib StoneBlock_1_1.mtl
o StoneBlock_1_1
v 0.208236 0.270343 -0.350275
v 0.208236 0.296653 -0.323964
v 0.234547 0.270343 -0.323964
v 0.208237 0.296653 0.320668
v 0.208237 0.270343 0.346979
v 0.234547 0.270343 0.320668
v -0.203256 0.240609 -0.323964
v -0.203256 0.214298 -0.350275
v -0.229567 0.214298 -0.323964
v -0.203256 0.296653 0.320668
v -0.229567 0.270343 0.320668
v -0.203256 0.270343 0.346979
v 0.208236 0.309306 -0.109087
v 0.232634 0.296653 0.105790
v 0.258945 0.270343 0.105790
v 0.234547 0.282995 -0.109087
v -0.219931 0.296653 0.105791
v -0.250823 0.296653 -0.109087
v -0.277134 0.270343 -0.109087
v -0.246241 0.270343 0.105791
v 0.071072 0.288932 0.320668
v -0.066092 0.288932 0.347036
v -0.066092 0.262621 0.373346
v 0.071072 0.262621 0.346979
v -0.066092 0.296653 -0.323964
v 0.071072 0.307300 -0.323964
v 0.071072 0.280989 -0.350275
v -0.066092 0.270343 -0.350275
v 0.071072 0.296653 0.105790
v -0.066092 0.296653 0.105791
v 0.071072 0.296653 -0.109087
v -0.066092 0.296653 -0.109087
v 0.199085 0.000000 -0.328182
v 0.208236 0.022093 -0.350275
v 0.212454 0.000000 -0.314813
v 0.234547 0.022093 -0.323964
v 0.213466 0.000000 0.310505
v 0.234547 0.022093 0.320668
v 0.199085 0.000000 0.324886
v 0.208237 0.022093 0.346979
v -0.209389 0.000000 -0.312898
v -0.229567 0.022093 -0.323964
v -0.194105 0.000000 -0.328182
v -0.203256 0.022093 -0.350275
v -0.192428 0.000000 0.326563
v -0.203256 0.022093 0.346979
v -0.208172 0.000000 0.310819
v -0.229567 0.022093 0.320668
v 0.236710 0.000000 0.105790
v 0.258945 0.022093 0.105790
v 0.234547 0.022093 -0.109087
v 0.212454 0.000000 -0.107837
v -0.254693 0.000000 -0.108244
v -0.277134 0.022093 -0.109087
v -0.246241 0.022093 0.105791
v -0.224271 0.000000 0.103361
v 0.071072 0.000000 -0.328182
v 0.071072 0.022093 -0.350275
v -0.066092 0.022093 -0.350275
v -0.066092 0.000000 -0.328182
v -0.066092 0.000000 0.350849
v -0.066092 0.022093 0.373346
v 0.071072 0.022093 0.346979
v 0.068968 0.000000 0.324886
vn 0.2788 0.6791 -0.6791
vn 0.3536 0.8655 -0.3547
vn 0.6808 0.6808 -0.2700
vn 0.3083 0.8787 0.3645
vn 0.2143 0.6907 0.6907
vn 0.6783 0.6783 0.2826
vn -0.4254 0.7848 -0.4507
vn -0.4171 0.6427 -0.6427
vn -0.6384 0.6384 -0.4299
vn -0.3443 0.8781 0.3322
vn -0.6809 0.6809 0.2696
vn -0.2854 0.6777 0.6777
vn -0.0000 -1.0000 -0.0000
vn 0.0160 0.9259 0.3773
vn 0.0523 0.7061 0.7061
vn 0.2597 -0.7345 0.6269
vn 0.6184 -0.7272 0.2981
vn -0.9993 -0.0000 -0.0375
vn -0.9998 -0.0000 -0.0218
vn -0.8869 -0.0000 -0.4619
vn -0.8768 -0.0000 -0.4809
vn -0.7018 0.7018 -0.1224
vn -0.4393 0.8933 -0.0950
vn -0.0221 0.9997 0.0130
vn -0.0127 0.9284 -0.3714
vn -0.1377 0.9090 -0.3935
vn -0.0524 0.9982 -0.0304
vn -0.7049 0.7049 0.0791
vn -0.3694 0.9282 0.0451
vn -0.9939 -0.0000 0.1099
vn -0.9084 -0.0000 0.4182
vn -0.3403 -0.0000 -0.9403
vn -0.0000 -0.0000 -1.0000
vn -0.3827 -0.0000 -0.9239
vn 0.9268 -0.0000 -0.3756
vn 0.9984 -0.0000 -0.0565
vn 0.9239 -0.0000 -0.3827
vn 1.0000 -0.0000 -0.0021
vn 1.0000 -0.0000 -0.0000
vn -0.6214 -0.7294 0.2861
vn -0.7026 -0.7073 0.0777
vn 0.0071 0.9999 0.0125
vn 0.9008 -0.0000 0.4343
vn 0.3896 -0.0000 0.9210
vn 0.3827 -0.0000 0.9239
vn 0.7048 -0.7094 -0.0000
vn 0.7054 -0.7077 -0.0399
vn -0.0162 0.9997 0.0205
vn 0.3938 0.9189 0.0239
vn 0.3538 0.9352 -0.0129
vn -0.0000 0.7071 -0.7071
vn 0.0177 0.9011 0.4332
vn 0.0212 0.7069 0.7069
vn -0.0000 -0.7135 0.7007
vn 0.0669 -0.7087 0.7023
vn 0.3735 -0.0000 -0.9276
vn 0.3827 -0.0000 -0.9239
vn 0.7065 0.7065 -0.0401
vn -0.7008 -0.7129 -0.0263
vn -0.2597 -0.7345 -0.6269
vn -0.0000 -0.7071 -0.7071
vn -0.1781 0.6958 -0.6958
vn -0.0033 -0.0000 1.0000
vn -0.4734 -0.0000 0.8808
vn -0.4686 -0.0000 0.8834
vn -0.0000 -0.0000 1.0000
vn 0.0948 -0.0000 0.9955
vn 0.0932 -0.0000 0.9957
vn 0.2597 -0.7345 -0.6269
vn 0.6269 -0.7345 -0.2597
vn -0.6072 -0.7214 -0.3330
vn 0.7069 0.7069 0.0216
vn -0.3238 -0.7228 0.6105
vt 0.672955 0.059660
vt 0.672955 0.062750
vt 0.672769 0.059660
vt 0.672955 0.062750
vt 0.672955 0.059660
vt 0.672769 0.059660
vt 0.675862 0.062750
vt 0.675862 0.059660
vt 0.676047 0.059660
vt 0.675862 0.062750
vt 0.676047 0.059660
vt 0.675862 0.059660
vt 0.675935 0.027916
vt 0.674886 0.027916
vt 0.672929 0.027916
vt 0.673018 0.027916
vt 0.672923 0.027916
vt 0.673920 0.027916
vt 0.672896 0.027916
vt 0.672924 0.027916
vt 0.673940 0.027916
vt 0.675898 0.027916
vt 0.673022 0.027916
vt 0.674891 0.027916
vt 0.675783 0.027916
vt 0.675892 0.027916
vt 0.675890 0.027916
vt 0.675790 0.027916
vt 0.673924 0.062750
vt 0.673924 0.059660
vt 0.672769 0.030510
vt 0.672955 0.030510
vt 0.676047 0.030510
vt 0.676047 0.059660
vt 0.676047 0.031189
vt 0.675862 0.062750
vt 0.673924 0.062750
vt 0.673924 0.062750
vt 0.674893 0.062750
vt 0.674893 0.062750
vt 0.676047 0.030510
vt 0.674893 0.059660
vt 0.674893 0.030510
vt 0.675862 0.031189
vt 0.672769 0.059660
vt 0.672769 0.030394
vt 0.672769 0.030510
vt 0.672769 0.030394
vt 0.672769 0.059660
vt 0.672769 0.030510
vt 0.673924 0.059660
vt 0.673924 0.030412
vt 0.674893 0.030510
vt 0.675862 0.031189
vt 0.676047 0.031189
vt 0.672955 0.062750
vt 0.672955 0.062750
vt 0.674893 0.059660
vt 0.673924 0.030587
vt 0.674893 0.030587
vt 0.673924 0.030412
vt 0.672955 0.030510
vt 0.676047 0.030510
vt 0.676047 0.030510
vt 0.672955 0.030510
vt 0.675862 0.030510
vt 0.672955 0.030510
vt 0.672769 0.030510
vt 0.672769 0.030510
vt 0.675862 0.030510
vt 0.676047 0.030510
s 1
usemtl Graveyard
f 1/1/1 2/2/2 3/3/3
f 4/4/4 5/5/5 6/6/6
f 7/7/7 8/8/8 9/9/9
f 10/10/10 11/11/11 12/12/12
f 53/13/13 60/14/13 52/15/13
f 33/16/13 35/17/13 57/18/13
f 35/17/13 52/15/13 57/18/13
f 49/19/13 37/20/13 64/21/13
f 56/22/13 49/19/13 64/21/13
f 37/20/13 39/23/13 64/21/13
f 64/21/13 61/24/13 56/22/13
f 61/24/13 45/25/13 47/26/13
f 56/22/13 61/24/13 47/26/13
f 53/13/13 41/27/13 60/14/13
f 52/15/13 60/14/13 57/18/13
f 41/27/13 43/28/13 60/14/13
f 21/29/14 24/30/15 5/5/5 4/4/4
f 39/23/16 37/20/17 38/31/17 40/32/16
f 54/33/18 19/34/19 9/9/20 42/35/21
f 7/7/7 9/9/9 19/34/22 18/36/23
f 31/37/24 26/38/25 25/39/26 32/40/27
f 18/36/23 19/34/22 20/11/28 17/10/29
f 55/33/30 48/41/31 11/11/31 20/11/30
f 8/8/32 28/42/33 59/43/33 44/44/34
f 3/3/35 16/45/36 51/46/36 36/47/37
f 51/48/36 16/45/36 15/49/38 50/50/39
f 47/26/40 48/41/40 55/33/41 56/22/41
f 17/10/29 30/40/42 32/40/27 18/36/23
f 28/42/33 27/51/33 58/52/33 59/53/33
f 6/6/43 5/5/44 40/32/45 38/31/43
f 9/9/20 8/8/32 44/54/34 42/55/21
f 49/19/46 52/15/47 51/48/47 50/50/46
f 29/37/48 14/56/49 13/57/50 31/37/24
f 2/2/2 1/1/1 27/51/51 26/38/25
f 22/40/52 23/58/53 24/30/15 21/29/14
f 61/24/54 64/21/55 63/59/55 62/60/54
f 52/15/13 49/19/13 56/22/13 53/13/13
f 58/61/33 27/51/33 1/1/56 34/62/57
f 2/2/2 13/57/50 16/45/58 3/3/3
f 4/4/4 14/56/49 29/37/48 21/29/14
f 54/63/18 55/64/30 20/11/30 19/34/19
f 39/23/16 40/65/16 63/59/55 64/21/55
f 31/37/24 13/57/50 2/2/2 26/38/25
f 53/13/59 56/22/41 55/64/41 54/63/59
f 17/10/29 20/11/28 11/11/11 10/10/10
f 43/28/60 44/44/60 59/43/61 60/14/61
f 58/52/61 57/18/61 60/14/61 59/53/61
f 25/39/26 26/38/25 27/51/51 28/42/62
f 23/58/63 12/12/64 46/66/65 62/60/66
f 62/60/66 63/59/67 24/30/68 23/58/63
f 30/40/42 29/37/48 31/37/24 32/40/27
f 32/40/27 25/39/26 7/7/7 18/36/23
f 7/7/7 25/39/26 28/42/62 8/8/8
f 34/67/69 36/68/70 35/17/70 33/16/69
f 22/40/52 10/10/10 12/12/12 23/58/53
f 41/27/71 53/13/59 54/33/59 42/35/71
f 43/28/60 41/27/71 42/55/71 44/54/60
f 37/20/17 49/19/46 50/69/46 38/50/17
f 10/10/10 22/40/52 30/40/42 17/10/29
f 14/56/49 4/4/4 6/6/6 15/49/72
f 45/25/73 61/24/54 62/60/54 46/66/73
f 21/29/14 29/37/48 30/40/42 22/40/52
f 35/17/70 36/47/70 51/46/47 52/15/47
f 40/65/45 5/5/44 24/30/68 63/59/67
f 47/26/40 45/25/73 46/70/73 48/71/40
f 14/56/49 15/49/72 16/45/58 13/57/50
f 33/16/69 57/18/61 58/61/61 34/62/69
f 12/12/64 11/11/31 48/71/31 46/70/65
f 38/50/43 50/69/39 15/49/38 6/6/43
f 36/68/37 34/67/57 1/1/56 3/3/35
