# Blender 4.1.1
# www.blender.org
mtllib StoneBlock_3_3.mtl
o StoneBlock_3_3
v 0.205746 0.270343 -0.348627
v 0.205746 0.296653 -0.322316
v 0.232057 0.270343 -0.322316
v 0.205746 0.296653 0.322316
v 0.205746 0.270343 0.348627
v 0.232057 0.270343 0.322316
v -0.205746 0.296653 -0.322316
v -0.205746 0.270343 -0.348627
v -0.232057 0.270343 -0.322316
v -0.205746 0.296653 0.322316
v -0.232057 0.270343 0.322316
v -0.205746 0.270343 0.348627
v 0.196595 0.000000 -0.326534
v 0.205746 0.022093 -0.348627
v 0.209964 0.000000 -0.313165
v 0.232057 0.022093 -0.322316
v 0.209964 0.000000 0.313165
v 0.232057 0.022093 0.322316
v 0.196595 0.000000 0.326534
v 0.205746 0.022093 0.348627
v -0.209964 0.000000 -0.313165
v -0.232057 0.022093 -0.322316
v -0.196595 0.000000 -0.326534
v -0.205746 0.022093 -0.348627
v -0.196595 0.000000 0.326534
v -0.205746 0.022093 0.348627
v -0.209964 0.000000 0.313165
v -0.232057 0.022093 0.322316
vn 0.2418 0.6861 -0.6861
vn 0.3416 0.8756 -0.3416
vn 0.6861 0.6861 -0.2418
vn 0.3416 0.8756 0.3416
vn 0.2418 0.6861 0.6861
vn 0.6861 0.6861 0.2418
vn -0.3416 0.8756 -0.3416
vn -0.2418 0.6861 -0.6861
vn -0.6861 0.6861 -0.2418
vn -0.3416 0.8756 0.3416
vn -0.6861 0.6861 0.2418
vn -0.2418 0.6861 0.6861
vn -0.0000 -1.0000 -0.0000
vn -0.9239 -0.0000 -0.3827
vn -0.3827 -0.0000 -0.9239
vn 0.3827 -0.0000 -0.9239
vn -0.3827 -0.0000 0.9239
vn 0.3827 -0.0000 0.9239
vn -0.9239 -0.0000 0.3827
vn 0.9239 -0.0000 0.3827
vn 0.9239 -0.0000 -0.3827
vn -0.6269 -0.7345 0.2597
vn -0.2597 -0.7345 0.6269
vn 0.2597 -0.7345 0.6269
vn 0.6269 -0.7345 0.2597
vn -0.2597 -0.7345 -0.6269
vn -0.6269 -0.7345 -0.2597
vn 0.6269 -0.7345 -0.2597
vn 0.2597 -0.7345 -0.6269
vt 0.679468 0.044136
vt 0.679468 0.047046
vt 0.679464 0.044136
vt 0.679532 0.047046
vt 0.679532 0.044136
vt 0.679536 0.044136
vt 0.679533 0.014240
vt 0.679531 0.014240
vt 0.679470 0.014240
vt 0.679468 0.014240
vt 0.679532 0.016683
vt 0.679536 0.016683
vt 0.679468 0.016683
vt 0.679532 0.016683
vt 0.679468 0.016683
vt 0.679536 0.016683
vt 0.679464 0.016683
vt 0.679464 0.016683
s 1
usemtl Graveyard
f 1/1/1 2/2/2 3/3/3
f 4/2/4 5/1/5 6/3/6
f 7/4/7 8/5/8 9/6/9
f 10/4/10 11/6/11 12/5/12
f 21/7/13 23/8/13 13/9/13
f 13/9/13 15/10/13 21/7/13
f 17/10/13 19/9/13 25/8/13
f 25/8/13 27/7/13 17/10/13
f 9/6/14 8/5/15 24/11/15 22/12/14
f 14/13/16 24/11/15 8/5/15 1/1/16
f 3/3/3 2/2/2 4/2/4 6/3/6
f 26/14/17 20/15/18 5/1/18 12/5/17
f 5/1/5 4/2/4 10/4/10 12/5/12
f 11/6/11 10/4/10 7/4/7 9/6/9
f 22/12/14 28/16/19 11/6/19 9/6/14
f 8/5/8 7/4/7 2/2/2 1/1/1
f 6/3/20 5/1/18 20/15/18 18/17/20
f 16/18/21 14/13/16 1/1/16 3/3/21
f 27/7/13 21/7/13 15/10/13 17/10/13
f 18/17/20 16/18/21 3/3/21 6/3/20
f 12/5/17 11/6/19 28/16/19 26/14/17
f 28/16/22 27/7/22 25/8/23 26/14/23
f 19/9/24 17/10/25 18/17/25 20/15/24
f 24/11/26 23/8/26 21/7/27 22/12/27
f 22/12/27 21/7/27 27/7/22 28/16/22
f 18/17/25 17/10/25 15/10/28 16/18/28
f 13/9/29 14/13/29 16/18/28 15/10/28
f 26/14/23 25/8/23 19/9/24 20/15/24
f 14/13/29 13/9/29 23/8/26 24/11/26
f 7/4/7 10/4/10 4/2/4 2/2/2
