# Blender 4.1.1
# www.blender.org
mtllib Table_1_2.mtl
o Table_1_2
v 0.036480 0.000000 -0.182198
v 0.036480 0.016402 -0.198601
v 0.036480 0.390252 -0.198601
v 0.036480 0.406654 -0.182198
v 0.036480 0.016402 0.198601
v 0.036480 0.000000 0.182198
v 0.036480 0.406654 0.182198
v 0.036480 0.390252 0.198601
v -0.036480 0.000000 -0.182198
v -0.052882 0.016402 -0.182198
v -0.036480 0.016402 -0.198601
v -0.036480 0.406654 -0.182198
v -0.036480 0.390252 -0.198601
v -0.052882 0.390252 -0.182198
v -0.036480 0.000000 0.182198
v -0.036480 0.016402 0.198601
v -0.052882 0.016402 0.182198
v -0.036480 0.406654 0.182198
v -0.052882 0.390252 0.182198
v -0.036480 0.390252 0.198601
vn -0.3416 -0.8756 -0.3416
vn -0.8756 -0.3416 -0.3416
vn -0.3416 -0.3416 -0.8756
vn -0.3416 0.8756 -0.3416
vn -0.3416 0.3416 -0.8756
vn -0.8756 0.3416 -0.3416
vn -0.3416 -0.8756 0.3416
vn -0.3416 -0.3416 0.8756
vn -0.8756 -0.3416 0.3416
vn -0.3416 0.8756 0.3416
vn -0.8756 0.3416 0.3416
vn -0.3416 0.3416 0.8756
vn 1.0000 -0.0000 -0.0000
vn -0.0000 0.3827 -0.9239
vn -0.0000 -0.3827 -0.9239
vn -0.0000 -0.3827 0.9239
vn -0.0000 0.3827 0.9239
vn -0.0000 -0.9239 0.3827
vn -0.0000 0.9239 0.3827
vn -0.0000 -0.9239 -0.3827
vn -0.0000 0.9239 -0.3827
vt 0.668502 0.054994
vt 0.668502 0.054966
vt 0.668509 0.054966
vt 0.668502 0.054313
vt 0.668509 0.054340
vt 0.668502 0.054340
vt 0.668359 0.054994
vt 0.668353 0.054966
vt 0.668359 0.054966
vt 0.668359 0.054313
vt 0.668359 0.054340
vt 0.668353 0.054340
vt 0.668436 0.054631
vt 0.668436 0.054629
vt 0.668426 0.054629
vt 0.668425 0.054631
vt 0.668425 0.054676
vt 0.668426 0.054678
vt 0.668436 0.054678
vt 0.668436 0.054676
s 1
usemtl Graveyard
f 9/1/1 10/2/2 11/3/3
f 12/4/4 13/5/5 14/6/6
f 15/7/7 16/8/8 17/9/9
f 18/10/10 19/11/11 20/12/12
f 5/13/13 6/14/13 1/15/13
f 1/15/13 2/16/13 5/13/13
f 3/17/13 4/18/13 7/19/13
f 7/19/13 8/20/13 3/17/13
f 11/3/3 13/5/5 3/5/14 2/3/15
f 5/8/16 8/12/17 20/12/12 16/8/8
f 15/7/7 6/7/18 5/8/16 16/8/8
f 7/10/19 18/10/10 20/12/12 8/12/17
f 19/11/11 17/9/9 16/8/8 20/12/12
f 9/1/1 15/7/7 17/9/9 10/2/2
f 18/10/10 12/4/4 14/6/6 19/11/11
f 13/5/5 11/3/3 10/2/2 14/6/6
f 1/1/20 9/1/1 11/3/3 2/3/15
f 12/4/4 4/4/21 3/5/14 13/5/5
f 6/7/18 15/7/7 9/1/1 1/1/20
f 5/13/13 2/16/13 3/17/13 8/20/13
f 17/9/9 19/11/11 14/6/6 10/2/2
f 18/10/10 7/10/19 4/4/21 12/4/4
