# Blender 4.1.1
# www.blender.org
mtllib Table_1_3.mtl
o Table_1_3
v 0.036480 0.000000 -0.182198
v 0.036480 0.016402 -0.198601
v 0.036480 0.390252 -0.198601
v 0.036480 0.406654 -0.182198
v 0.036480 0.016402 0.198601
v 0.036480 0.000000 0.182198
v 0.036480 0.406654 0.182198
v 0.036480 0.390252 0.198601
v -0.036480 0.000000 -0.182198
v -0.052882 0.016402 -0.182198
v -0.036480 0.016402 -0.198601
v -0.036480 0.406654 -0.182198
v -0.036480 0.390252 -0.198601
v -0.052882 0.390252 -0.182198
v -0.036480 0.000000 0.182198
v -0.036480 0.016402 0.198601
v -0.052882 0.016402 0.182198
v -0.036480 0.406654 0.182198
v -0.049209 0.387161 0.178273
v -0.036480 0.390252 0.198601
v -0.052882 0.390252 0.139944
v -0.033716 0.403636 0.158325
v -0.032281 0.404217 0.150615
v -0.048160 0.329129 0.178273
v -0.020668 0.404612 0.151363
v -0.048160 0.367677 0.151725
v -0.048160 0.313132 0.160230
v -0.052882 0.390252 0.182198
v -0.052882 0.329406 0.182198
v -0.011373 0.406654 0.148332
v -0.036480 0.406654 0.146716
v -0.036480 0.406654 0.161729
v -0.048584 0.388529 0.144011
v -0.052882 0.368726 0.147908
v -0.052882 0.307472 0.157459
v -0.046986 0.388182 -0.085562
v -0.044592 0.387529 -0.073189
v -0.006136 0.234155 -0.191427
v -0.033932 0.266552 -0.192220
v -0.034130 0.253678 -0.192049
v -0.045286 0.269334 -0.179724
v -0.046574 0.280002 -0.179885
v -0.033721 0.400516 -0.049995
v -0.033679 0.399426 -0.064281
v -0.045485 0.376411 -0.080682
v -0.045485 0.337126 -0.080105
v -0.045485 0.327782 -0.105149
v -0.045485 0.295470 -0.107628
v -0.045485 0.291549 -0.136765
v -0.045485 0.275698 -0.153489
v -0.045485 0.264384 -0.156899
v -0.045485 0.279913 -0.131774
v -0.045485 0.287649 -0.094934
v -0.045485 0.326921 -0.094091
v -0.045485 0.334564 -0.065792
v -0.045485 0.376249 -0.065008
v -0.005449 0.399283 -0.059934
v -0.003393 0.399283 -0.046044
v -0.052882 0.283873 -0.182198
v -0.036480 0.269465 -0.198601
v -0.036480 0.250992 -0.198601
v -0.052882 0.264452 -0.182198
v -0.052882 0.390252 -0.089799
v -0.052882 0.375644 -0.084766
v -0.052882 0.339944 -0.084242
v -0.052882 0.330696 -0.109028
v -0.052882 0.299086 -0.111454
v -0.052882 0.295434 -0.138594
v -0.052882 0.280035 -0.154841
v -0.052882 0.259994 -0.156002
v -0.052882 0.275964 -0.130163
v -0.052882 0.284227 -0.090813
v -0.052882 0.323687 -0.089965
v -0.052882 0.331333 -0.061658
v -0.052882 0.377241 -0.060795
v -0.052882 0.390252 -0.068007
v -0.001754 0.406654 -0.064333
v -0.036480 0.406654 -0.067993
v -0.036480 0.406654 -0.046313
v 0.001564 0.406654 -0.041924
v 0.036480 0.203797 -0.198601
v -0.047253 0.112472 0.165223
v -0.047253 0.093889 0.155909
v -0.047253 0.081863 0.118802
v -0.047253 0.052440 0.105747
v -0.047253 0.044580 0.098231
v -0.047253 0.054526 0.115485
v -0.047253 0.075558 0.127817
v -0.047253 0.092849 0.162925
v -0.052882 0.127989 0.169863
v -0.052882 0.096194 0.153928
v -0.052882 0.084144 0.116747
v -0.052882 0.054024 0.103382
v -0.052882 0.032387 0.082693
v -0.052882 0.052468 0.117529
v -0.052882 0.073414 0.129810
v -0.052882 0.091008 0.165532
vn -0.8756 -0.3416 0.3416
vn -1.0000 -0.0000 -0.0000
vn -0.0000 0.9239 0.3827
vn -0.0000 0.9239 -0.3827
vn -0.0000 1.0000 -0.0000
vn -0.3416 -0.8756 -0.3416
vn -0.8756 -0.3416 -0.3416
vn -0.3416 -0.3416 -0.8756
vn -0.3416 0.8756 -0.3416
vn -0.3416 0.3416 -0.8756
vn -0.8756 0.3416 -0.3416
vn -0.3416 -0.8756 0.3416
vn -0.3416 -0.3416 0.8756
vn -0.8099 -0.0000 0.5866
vn -0.3416 0.3416 0.8756
vn 1.0000 -0.0000 -0.0000
vn -0.5538 0.8326 -0.0006
vn -0.0383 0.9969 0.0680
vn -0.3797 0.9251 -0.0009
vn -0.6581 -0.2875 0.6959
vn -0.8158 -0.0806 0.5726
vn -0.6245 -0.3217 0.7117
vn -0.9996 -0.0193 -0.0200
vn -1.0000 -0.0047 -0.0069
vn -0.9724 0.2329 -0.0115
vn -0.0349 0.8658 0.4992
vn -0.0541 0.8332 0.5503
vn -0.0649 0.8133 0.5782
vn -0.3677 0.6291 -0.6849
vn -0.4298 0.4972 -0.7536
vn -0.3617 0.6402 -0.6778
vn -0.6074 0.1224 0.7849
vn 0.0128 -0.0135 -0.9998
vn -0.2117 -0.0098 -0.9773
vn -0.5942 -0.0200 -0.8041
vn -0.9073 0.4206 -0.0000
vn -0.9267 0.3550 0.1232
vn -0.4957 0.8680 -0.0287
vn -0.9655 0.2282 0.1251
vn -0.9268 0.3755 -0.0000
vn -0.4684 0.8835 -0.0000
vn -0.9432 0.3323 -0.0000
vn -0.2311 -0.0000 -0.9729
vn -0.0000 0.3827 -0.9239
vn -0.0000 -0.0000 -1.0000
vn -0.5321 -0.5822 -0.6148
vn -0.7411 -0.6609 -0.1180
vn -0.5151 -0.5723 -0.6381
vn 0.5164 0.7932 -0.3227
vn 0.5120 0.7293 -0.4538
vn 0.5100 0.7161 -0.4765
vn -0.4526 0.6672 -0.5916
vn -0.9133 -0.0730 -0.4007
vn -0.9622 -0.0798 -0.2606
vn -0.4459 -0.4010 0.8002
vn -0.4459 -0.6186 0.6469
vn -0.4459 0.7755 -0.4470
vn -0.4459 0.1041 -0.8890
vn -0.2198 0.9755 -0.0000
vn -0.3416 0.8756 0.3416
vn -0.7363 0.3690 0.5672
vn -0.9200 0.3917 -0.0130
vn -0.0316 0.8710 0.4902
vn -0.4446 0.4598 -0.7687
vn -0.9998 -0.0211 0.0024
vn -0.9991 -0.0414 0.0048
vn -0.9058 -0.0000 -0.4238
vn -0.1704 0.9842 -0.0474
vn -0.7590 -0.6511 0.0060
vn 0.5163 0.7981 -0.3106
vn -0.9453 -0.0000 -0.3262
vn -0.8365 -0.0437 0.5462
vn -0.2482 0.9687 -0.0000
vn -0.3367 0.9416 -0.0000
vn -0.0000 -0.9239 -0.3827
vn -0.0000 -0.9239 0.3827
vn -0.0000 0.3827 0.9239
vn -0.0000 -0.3827 0.9239
vn -0.4860 -0.8655 -0.1212
vn -0.4459 0.4527 -0.7721
vn -0.0000 -0.3827 -0.9239
vn -0.9988 0.0125 0.0481
vn -0.9995 0.0083 0.0321
vn -0.1091 0.4879 0.8661
vn 0.0620 0.7301 -0.6805
vn 0.1460 0.7847 -0.6025
vn -0.5828 0.2768 0.7640
vn 0.1146 0.4828 -0.8682
vn -0.5133 -0.0000 -0.8582
vn -0.4835 -0.8201 0.3060
vn -0.6843 -0.0060 -0.7292
vn -0.4934 0.8512 -0.1788
vn -0.4889 0.2823 0.8254
vn -0.4840 -0.0669 0.8725
vn 0.0292 0.9987 -0.0407
vn -0.4459 0.8030 -0.3955
vn -0.4843 -0.8671 0.1167
vn -0.4932 0.0187 -0.8697
vn -0.5313 0.8324 0.1576
vn -0.7676 -0.0416 -0.6396
vn -0.6512 -0.7553 0.0741
vn -0.4936 0.8396 -0.2268
vn -0.4843 0.0128 0.8748
vn -0.4828 -0.6356 0.6024
vn -0.4459 -0.8515 0.2760
vn -0.4943 0.7395 -0.4570
vn -0.8545 0.5039 0.1265
vn -0.4932 0.0164 -0.8698
vn -0.4459 -0.3630 0.8182
vn -0.5825 0.2748 0.7649
vn -0.5360 -0.4377 -0.7219
vt 0.670820 0.082035
vt 0.670845 0.081975
vt 0.670859 0.082008
vt 0.670820 0.081382
vt 0.670963 0.081382
vt 0.670908 0.081382
vt 0.670963 0.082063
vt 0.670963 0.082035
vt 0.670970 0.082035
vt 0.670970 0.081409
vt 0.670963 0.081409
vt 0.670820 0.082063
vt 0.670813 0.082035
vt 0.670820 0.081511
vt 0.670813 0.081409
vt 0.670897 0.081745
vt 0.670897 0.081700
vt 0.670886 0.081722
vt 0.663447 0.064159
vt 0.663450 0.064156
vt 0.663450 0.064157
vt 0.670925 0.081410
vt 0.670918 0.081382
vt 0.670927 0.081409
vt 0.663450 0.064218
vt 0.663439 0.064282
vt 0.663439 0.064185
vt 0.670832 0.081382
vt 0.670834 0.081382
vt 0.670832 0.081382
vt 0.670828 0.081382
vt 0.670833 0.081382
vt 0.670829 0.081535
vt 0.670833 0.081445
vt 0.670830 0.081548
vt 0.670825 0.081848
vt 0.670846 0.081922
vt 0.670946 0.081568
vt 0.670934 0.081509
vt 0.669739 0.066288
vt 0.669739 0.066256
vt 0.669739 0.066237
vt 0.669690 0.066028
vt 0.669686 0.066004
vt 0.669695 0.066031
vt 0.665837 0.049912
vt 0.665835 0.049866
vt 0.665840 0.049916
vt 0.670837 0.081409
vt 0.670910 0.081382
vt 0.670918 0.081409
vt 0.670970 0.081611
vt 0.670970 0.081721
vt 0.670925 0.081433
vt 0.670970 0.081668
vt 0.670970 0.081642
vt 0.670970 0.081636
vt 0.670821 0.081508
vt 0.669733 0.066233
vt 0.669733 0.066214
vt 0.665820 0.049846
vt 0.665832 0.049877
vt 0.670827 0.081874
vt 0.670831 0.081901
vt 0.670830 0.081905
vt 0.670853 0.081988
vt 0.670851 0.081972
vt 0.670846 0.081971
vt 0.670827 0.081910
vt 0.670840 0.081940
vt 0.670917 0.081382
vt 0.670820 0.081409
vt 0.670897 0.081747
vt 0.670886 0.081747
vt 0.670886 0.081698
vt 0.670886 0.081700
vt 0.670886 0.081745
vt 0.663453 0.064184
vt 0.670829 0.081384
vt 0.669715 0.066194
vt 0.669721 0.066221
vt 0.669713 0.066214
vt 0.669698 0.066135
vt 0.669687 0.066122
vt 0.669693 0.066118
vt 0.669723 0.066240
vt 0.669702 0.066134
vt 0.670963 0.081587
vt 0.670952 0.081594
vt 0.670935 0.081562
vt 0.669703 0.066188
vt 0.670925 0.081493
vt 0.669681 0.066000
vt 0.670970 0.081617
vt 0.670963 0.081620
vt 0.670953 0.081627
vt 0.670916 0.081508
vt 0.670927 0.081587
vt 0.670915 0.081431
vt 0.670943 0.081600
vt 0.670927 0.081520
vt 0.665843 0.049929
vt 0.670897 0.081698
vt 0.665818 0.049848
vt 0.665817 0.049815
vt 0.670850 0.081975
vt 0.670828 0.081907
vt 0.670917 0.081384
vt 0.663446 0.064309
vt 0.670832 0.081443
vt 0.669699 0.066201
vt 0.670963 0.081594
vt 0.670952 0.081601
vt 0.670841 0.081936
vt 0.669693 0.066052
vt 0.669687 0.066053
vt 0.670915 0.081382
vt 0.670963 0.081613
vt 0.670911 0.081379
vt 0.670920 0.081408
vt 0.670835 0.081409
vt 0.670910 0.081382
vt 0.670933 0.081514
vt 0.670923 0.081498
vt 0.670821 0.081411
vt 0.670929 0.081581
vt 0.670943 0.081594
vt 0.670923 0.081432
vt 0.670934 0.081568
vt 0.669685 0.066002
vt 0.669679 0.066002
vt 0.670945 0.081574
vt 0.670928 0.081515
vt 0.670953 0.081620
vt 0.670917 0.081502
vt 0.670845 0.081925
vt 0.670917 0.081433
s 1
usemtl Graveyard
f 17/1/1 95/2/2 94/3/2
f 7/4/3 4/5/4 80/6/5
f 9/7/6 10/8/7 11/9/8
f 12/5/9 13/10/10 14/11/11
f 15/12/12 16/13/13 17/1/1
f 29/14/14 16/13/13 20/15/15
f 8/16/16 5/17/16 81/18/16
f 22/19/17 25/20/18 23/21/19
f 36/22/20 78/23/21 63/24/22
f 26/25/23 24/26/24 19/27/25
f 25/28/26 31/29/27 23/30/28
f 25/28/29 32/31/30 30/32/31
f 27/33/32 34/34/32 35/35/32
f 90/36/2 35/35/2 92/37/2
f 14/11/11 68/38/2 66/39/2
f 38/40/33 40/41/34 39/42/35
f 63/24/36 12/5/9 14/11/11
f 37/43/37 44/44/38 36/45/39
f 87/46/2 84/47/2 85/48/2
f 21/49/40 79/50/41 76/51/42
f 60/52/43 3/10/44 81/53/45
f 63/24/36 66/39/2 64/54/2
f 38/55/46 60/52/47 81/53/48
f 38/55/49 61/56/50 40/57/51
f 27/33/52 29/14/52 24/58/52
f 39/42/35 41/59/53 42/60/54
f 83/61/2 84/47/2 88/62/2
f 82/63/55 91/64/55 83/65/55
f 86/66/56 93/67/56 94/3/56
f 86/66/57 95/2/57 87/68/57
f 82/63/58 97/69/58 90/36/58
f 17/1/1 90/36/2 97/69/2
f 97/69/2 96/70/2 17/1/1
f 96/70/2 95/2/2 17/1/1
f 94/3/2 10/8/7 17/1/1
f 32/31/59 18/4/60 30/32/5
f 18/4/60 7/4/3 30/32/5
f 4/5/4 77/71/5 80/6/5
f 30/32/5 7/4/3 80/6/5
f 20/15/15 28/72/61 29/14/14
f 29/14/14 17/1/1 16/13/13
f 7/73/16 81/18/16 4/74/16
f 1/75/16 2/76/16 81/18/16
f 81/18/16 3/77/16 4/74/16
f 19/27/25 33/78/62 26/25/23
f 25/28/26 30/32/63 31/29/27
f 25/28/29 22/79/64 32/31/30
f 22/19/17 33/78/62 19/27/25
f 49/80/2 50/81/65 52/82/2
f 54/83/2 55/84/2 46/85/2
f 50/81/65 51/86/66 52/82/2
f 54/83/2 46/85/2 47/87/2
f 14/11/11 59/88/67 68/38/2
f 59/88/67 69/89/2 68/38/2
f 68/38/2 67/90/2 66/39/2
f 52/82/2 48/91/2 49/80/2
f 66/39/2 65/92/2 64/54/2
f 37/43/37 43/93/68 44/44/38
f 38/55/46 39/94/69 60/52/47
f 38/55/49 81/53/70 61/56/50
f 62/95/71 10/8/7 70/96/2
f 94/3/2 93/67/2 92/37/2
f 92/37/2 91/64/2 90/36/2
f 90/36/2 17/1/1 29/14/14
f 35/35/2 34/34/2 74/97/2
f 18/4/60 28/72/61 20/15/15
f 94/3/2 92/37/2 72/98/2
f 21/49/40 76/51/42 75/99/2
f 72/98/2 71/100/2 70/96/2
f 74/97/2 73/101/2 72/98/2
f 85/48/2 86/102/2 87/46/2
f 6/103/16 81/18/16 5/17/16
f 89/104/2 82/105/2 83/61/2
f 88/62/2 89/104/2 83/61/2
f 82/63/55 90/36/55 91/64/55
f 86/66/56 85/106/56 93/67/56
f 86/66/57 94/3/57 95/2/57
f 82/63/58 89/107/58 97/69/58
f 90/36/2 29/14/14 35/35/2
f 36/22/20 44/108/72 78/23/21
f 26/25/23 27/109/2 24/26/24
f 27/33/32 26/110/32 34/34/32
f 63/24/36 78/23/73 12/5/9
f 87/46/2 88/62/2 84/47/2
f 21/49/40 31/29/74 79/50/41
f 60/52/43 13/10/10 3/10/44
f 63/24/36 14/11/11 66/39/2
f 27/33/52 35/35/52 29/14/52
f 39/42/35 40/41/34 41/59/53
f 7/73/16 8/16/16 81/18/16
f 22/19/17 23/21/19 33/78/62
f 52/82/2 53/111/2 48/91/2
f 18/4/60 32/31/59 28/72/61
f 6/103/16 1/75/16 81/18/16
f 72/98/2 92/37/2 35/35/2 74/97/2
f 4/5/4 3/10/44 13/10/10 12/5/9
f 15/12/12 9/7/6 1/7/75 6/12/76
f 8/15/77 20/15/15 16/13/13 5/13/78
f 15/12/12 17/1/1 10/8/7 9/7/6
f 69/89/79 59/88/79 42/112/79 50/113/79
f 96/70/80 88/114/80 87/68/80 95/2/80
f 80/6/5 79/50/41 31/29/74 30/32/5
f 9/7/6 11/9/8 2/9/81 1/7/75
f 45/115/82 56/116/83 37/43/37 36/45/39
f 77/71/84 78/23/84 44/108/84 57/117/84
f 62/95/85 41/118/85 40/57/85 61/56/85
f 76/51/86 79/50/86 43/119/86 37/120/86
f 34/34/87 26/110/87 33/121/87 21/49/87
f 79/50/88 80/6/88 58/122/88 43/119/88
f 81/53/45 2/9/81 11/9/8 61/56/89
f 65/92/90 66/39/90 47/123/90 46/124/90
f 48/91/2 53/111/2 54/83/2 47/87/2
f 29/14/91 28/72/91 19/125/91 24/58/91
f 71/100/92 72/98/92 53/126/92 52/127/92
f 64/54/93 45/128/93 36/22/93 63/24/93
f 72/98/2 70/96/2 10/8/7 94/3/2
f 59/88/67 14/11/11 13/10/10 60/52/43
f 50/81/65 42/60/54 41/59/53 51/86/66
f 67/90/94 48/129/94 47/123/94 66/39/94
f 57/130/95 44/44/38 43/93/68 58/131/95
f 96/70/96 97/69/96 89/107/96 88/114/96
f 67/90/97 68/38/97 49/132/97 48/129/97
f 73/101/98 54/133/98 53/126/98 72/98/98
f 10/8/7 62/95/71 61/56/89 11/9/8
f 62/95/99 70/96/99 51/134/99 41/118/99
f 32/31/100 22/79/100 19/125/100 28/72/100
f 60/52/101 39/94/101 42/112/101 59/88/101
f 73/101/102 74/97/102 55/135/102 54/133/102
f 65/92/103 46/124/103 45/128/103 64/54/103
f 74/97/2 34/34/2 21/49/40 75/99/2
f 77/71/5 4/5/4 12/5/9 78/23/73
f 69/89/104 50/113/104 49/132/104 68/38/104
f 91/64/105 92/37/105 84/136/105 83/65/105
f 71/100/106 52/127/106 51/134/106 70/96/106
f 77/71/107 57/117/107 58/122/107 80/6/107
f 75/99/108 56/137/108 55/135/108 74/97/108
f 93/67/109 85/106/109 84/136/109 92/37/109
f 31/29/110 21/49/110 33/121/110 23/30/110
f 76/51/111 37/120/111 56/137/111 75/99/111
f 46/85/2 55/84/2 56/116/83 45/115/82
f 6/12/76 5/13/78 16/13/13 15/12/12
f 18/4/60 20/15/15 8/15/77 7/4/3
