# Blender 4.1.1
# www.blender.org
mtllib Vine_2_3.mtl
o Vine_2_3
v -0.027148 -0.000000 -0.062141
v -0.067048 -0.000000 -0.025740
v 0.027148 -0.000000 -0.062141
v 0.067048 -0.000000 -0.025740
v -0.027148 -0.000000 0.062141
v -0.067048 -0.000000 0.025740
v 0.027148 -0.000000 0.062141
v 0.067048 -0.000000 0.025740
v 0.032110 0.085182 0.113385
v 0.030883 0.122036 0.124035
v 0.031242 0.102222 0.123169
v 0.012505 0.116522 0.141533
v 0.012992 0.079443 0.131790
v 0.012647 0.096669 0.140956
v -0.032110 0.085182 0.113385
v -0.030883 0.122036 0.124035
v -0.031242 0.102222 0.123169
v -0.012992 0.079443 0.131790
v -0.012504 0.116522 0.141533
v -0.012647 0.096669 0.140956
v 0.032142 0.093347 0.087331
v 0.030883 0.129698 0.099362
v 0.031252 0.110048 0.098029
v 0.012504 0.135083 0.081968
v 0.013021 0.099223 0.068981
v 0.012656 0.115603 0.080289
v -0.030883 0.129698 0.099362
v -0.032142 0.093347 0.087331
v -0.031252 0.110048 0.098029
v -0.013021 0.099223 0.068981
v -0.012505 0.135083 0.081968
v -0.012656 0.115603 0.080289
v 0.030883 0.226200 0.098014
v 0.030883 0.251024 0.069904
v 0.030883 0.242596 0.087501
v 0.012504 0.264720 0.082184
v 0.012504 0.240050 0.110267
v 0.012504 0.256354 0.099743
v -0.030883 0.226200 0.098014
v -0.030883 0.251024 0.069904
v -0.030883 0.242596 0.087501
v -0.012505 0.240050 0.110267
v -0.012505 0.264720 0.082184
v -0.012505 0.256355 0.099743
v 0.030883 0.206652 0.080635
v 0.030883 0.231664 0.052694
v 0.030883 0.223153 0.070218
v 0.012504 0.218001 0.040601
v 0.012504 0.192927 0.068276
v 0.012504 0.209441 0.057999
v -0.030883 0.231664 0.052694
v -0.030883 0.206652 0.080635
v -0.030883 0.223153 0.070218
v -0.012505 0.192927 0.068276
v -0.012505 0.218001 0.040601
v -0.012505 0.209441 0.057999
v 0.030883 0.260388 -0.005860
v 0.030883 0.242639 -0.038464
v 0.030883 0.256351 -0.024811
v 0.012504 0.258898 -0.047316
v 0.012504 0.276557 -0.014773
v 0.012504 0.272528 -0.033668
v -0.030883 0.260388 -0.005860
v -0.030883 0.242639 -0.038464
v -0.030883 0.256351 -0.024811
v -0.012505 0.276557 -0.014773
v -0.012505 0.258898 -0.047316
v -0.012505 0.272528 -0.033668
v 0.030883 0.237505 0.006654
v 0.030883 0.219612 -0.025857
v 0.030883 0.233459 -0.012286
v 0.012504 0.203357 -0.016740
v 0.012504 0.221300 0.015397
v 0.012504 0.217273 -0.003401
v -0.030883 0.219612 -0.025857
v -0.030883 0.237505 0.006654
v -0.030883 0.233459 -0.012286
v -0.012505 0.221300 0.015397
v -0.012505 0.203357 -0.016740
v -0.012505 0.217273 -0.003401
v 0.030883 0.197517 -0.060216
v 0.030883 0.159830 -0.055971
v 0.030883 0.178026 -0.063047
v 0.012504 0.157284 -0.074719
v 0.012504 0.195064 -0.078389
v 0.012504 0.175582 -0.081411
v -0.030883 0.197517 -0.060216
v -0.030883 0.159830 -0.055971
v -0.030883 0.178026 -0.063047
v -0.012505 0.195064 -0.078389
v -0.012505 0.157284 -0.074719
v -0.012505 0.175583 -0.081411
v 0.030883 0.200836 -0.034689
v 0.030883 0.163349 -0.029105
v 0.030883 0.181413 -0.037025
v 0.012504 0.166200 -0.010139
v 0.012504 0.203196 -0.016813
v 0.012504 0.183919 -0.018685
v -0.030883 0.163349 -0.029105
v -0.030883 0.200836 -0.034689
v -0.030883 0.181413 -0.037025
v -0.012505 0.203196 -0.016813
v -0.012505 0.166200 -0.010139
v -0.012505 0.183919 -0.018685
v 0.030883 0.105246 -0.011490
v 0.020446 0.096866 0.000959
v 0.008229 0.088965 -0.008360
v 0.012504 0.094407 -0.025891
v -0.030883 0.105246 -0.011490
v -0.020446 0.096866 0.000959
v -0.012505 0.094407 -0.025891
v -0.008229 0.088965 -0.008360
v 0.030883 0.120532 0.008878
v 0.020446 0.108039 0.014138
v 0.008229 0.115939 0.023456
v 0.012504 0.131343 0.023243
v -0.020446 0.108039 0.014138
v -0.030883 0.120532 0.008878
v -0.012505 0.131343 0.023243
v -0.008229 0.115940 0.023456
vn 0.9656 0.1574 0.2069
vn 0.8797 0.4062 -0.2470
vn 0.9044 -0.1575 0.3966
vn -0.9656 0.1574 0.2069
vn -0.8797 0.4062 -0.2470
vn -0.6615 0.6577 -0.3602
vn 0.3908 -0.5533 0.7356
vn 0.3578 -0.5083 0.7834
vn -0.3908 -0.5533 0.7356
vn -0.9044 -0.1575 0.3966
vn -0.0000 -0.7628 0.6467
vn 0.6615 0.6577 -0.3602
vn -0.3578 -0.5083 0.7834
vn -0.8975 0.0659 0.4361
vn -0.8978 0.1611 0.4099
vn -0.9310 -0.1512 -0.3323
vn -0.9308 -0.0135 -0.3652
vn -0.8957 0.4310 0.1093
vn -0.8953 0.4455 -0.0029
vn -0.9308 -0.3647 0.0264
vn -0.9300 -0.3489 -0.1154
vn 0.9312 -0.2162 0.2935
vn 0.9303 -0.0898 0.3556
vn 0.8972 0.1441 -0.4174
vn 0.8960 0.2437 -0.3711
vn -0.3718 -0.0803 -0.9248
vn -0.3712 -0.3450 -0.8621
vn 0.3712 -0.3450 -0.8621
vn 0.3718 -0.0803 -0.9248
vn 0.3611 0.8194 -0.4453
vn 0.3510 0.5527 -0.7559
vn -0.3510 0.5527 -0.7559
vn -0.3611 0.8194 -0.4452
vn -0.3520 0.0942 0.9313
vn -0.3529 0.3830 0.8537
vn -0.3695 -0.5112 0.7759
vn -0.9312 -0.2162 0.2935
vn -0.9303 -0.0898 0.3556
vn -0.3697 -0.2579 0.8926
vn 0.3513 0.2690 -0.8968
vn -0.8960 0.2437 -0.3711
vn -0.8972 0.1441 -0.4174
vn 0.3655 -0.4458 -0.8171
vn 0.3649 -0.0950 -0.9262
vn 0.9023 -0.0439 -0.4288
vn 0.9066 -0.2184 -0.3610
vn 0.8975 0.0659 0.4361
vn 0.9308 -0.0135 -0.3652
vn 0.9310 -0.1512 -0.3323
vn 0.8978 0.1611 0.4099
vn 0.9018 -0.0916 0.4224
vn 0.3636 -0.2369 0.9009
vn 0.3520 0.0942 0.9313
vn -0.3636 -0.2369 0.9009
vn -0.3166 0.6854 -0.6557
vn -0.2210 0.7939 -0.5665
vn -0.3681 -0.9295 0.0224
vn -0.4126 -0.7960 0.4429
vn 0.4126 -0.7960 0.4429
vn 0.3681 -0.9295 0.0224
vn 0.2210 0.7939 -0.5665
vn 0.3166 0.6854 -0.6557
vn -0.3655 -0.4458 -0.8171
vn -0.3649 -0.0950 -0.9262
vn 0.3499 0.8963 0.2725
vn 0.8957 0.4310 0.1093
vn 0.8953 0.4455 -0.0029
vn 0.3499 0.9353 -0.0531
vn -0.3672 -0.8947 -0.2544
vn 0.9300 -0.3489 -0.1154
vn 0.9308 -0.3647 0.0264
vn -0.3499 0.8963 0.2725
vn -0.3499 0.9353 -0.0531
vn 0.4085 -0.6773 -0.6118
vn -0.4085 -0.6773 -0.6118
vn -0.3513 0.2690 -0.8968
vn 0.3529 0.3830 0.8537
vn 0.3615 0.6999 0.6161
vn -0.3615 0.6999 0.6161
vn 0.3672 -0.8947 -0.2544
vn 0.9437 0.1341 -0.3024
vn -0.9018 -0.0916 0.4224
vn -0.9437 0.1341 -0.3024
vn -0.9467 -0.2396 -0.2154
vn -0.8996 0.3278 0.2884
vn -0.9023 -0.0439 -0.4288
vn -0.9466 0.0510 0.3185
vn -0.9066 -0.2184 -0.3610
vn 0.8996 0.3278 0.2884
vn -0.4052 0.3151 -0.8582
vn -0.3000 -0.9314 -0.2062
vn -0.2996 -0.9315 -0.2063
vn -0.7184 -0.6801 0.1462
vn -0.7169 -0.6824 0.1430
vn 0.7184 -0.6801 0.1462
vn 0.2996 -0.9315 -0.2063
vn 0.3000 -0.9314 -0.2062
vn 0.7169 -0.6824 0.1430
vn 0.4052 0.3151 -0.8582
vn 0.3697 -0.2579 0.8926
vn 0.4109 0.1553 0.8984
vn 0.9466 0.0510 0.3185
vn -0.4109 0.1553 0.8984
vn 0.9483 -0.2776 0.1536
vn 0.8988 0.3852 -0.2092
vn -0.8988 0.3852 -0.2092
vn -0.9483 -0.2776 0.1536
vn 0.9467 -0.2396 -0.2154
vn -0.9343 0.1886 0.3024
vn -0.9207 -0.2427 -0.3056
vn -0.9076 0.2840 0.3091
vn 0.3695 -0.5112 0.7759
vn 0.3855 0.5304 0.7550
vn 0.9343 0.1886 0.3024
vn 0.9076 0.2840 0.3091
vn 0.9207 -0.2427 -0.3056
vn -0.3855 0.5304 0.7550
vn 0.3678 -0.5738 -0.7318
vn 0.7144 -0.3270 0.6187
vn 0.7082 -0.3180 0.6303
vn -0.2891 -0.0613 0.9553
vn 0.2891 -0.0613 0.9553
vn 0.2979 -0.0636 0.9525
vn -0.2979 -0.0636 0.9525
vn -0.3678 -0.5738 -0.7318
vn 0.3533 0.6413 0.6811
vn -0.3533 0.6413 0.6811
vn -0.7144 -0.3270 0.6187
vn -0.7082 -0.3180 0.6303
vt 0.317809 0.203560
vt 0.319225 0.229634
vt 0.319845 0.227285
vt 0.317751 0.200823
vt 0.319276 0.229811
vt 0.316460 0.201048
vt 0.318648 0.202672
vt 0.320318 0.225607
vt 0.318664 0.201554
vt 0.319931 0.227330
vt 0.316953 0.228407
vt 0.316971 0.228380
vt 0.317200 0.230631
vt 0.316655 0.203739
vt 0.320363 0.225588
vt 0.317505 0.233850
vt 0.317716 0.236231
vt 0.317477 0.234106
vt 0.317707 0.236366
vt 0.317161 0.230775
vt 0.320190 0.238590
vt 0.319516 0.270089
vt 0.319088 0.264074
vt 0.319569 0.240868
vt 0.318815 0.277342
vt 0.316967 0.279486
vt 0.317272 0.272797
vt 0.318394 0.271400
vt 0.316582 0.265224
vt 0.316383 0.259893
vt 0.315806 0.258832
vt 0.316294 0.271609
vt 0.319121 0.242206
vt 0.318777 0.259345
vt 0.318767 0.258660
vt 0.319104 0.241878
vt 0.316371 0.280826
vt 0.316059 0.276842
vt 0.316012 0.277891
vt 0.316331 0.281961
vt 0.320597 0.236772
vt 0.319796 0.273615
vt 0.316737 0.261942
vt 0.316492 0.267257
vt 0.316283 0.261646
vt 0.316735 0.261895
vt 0.315355 0.258528
vt 0.316189 0.273971
vt 0.315676 0.260522
vt 0.315441 0.247816
vt 0.315287 0.252988
vt 0.315744 0.253357
vt 0.315905 0.248277
vt 0.320093 0.237970
vt 0.319504 0.240134
vt 0.319048 0.262167
vt 0.319455 0.267872
vt 0.320076 0.232227
vt 0.320538 0.230694
vt 0.320549 0.236555
vt 0.320587 0.230786
vt 0.318810 0.231499
vt 0.315654 0.202058
vt 0.317498 0.267394
vt 0.317051 0.266092
vt 0.317077 0.265277
vt 0.317515 0.266550
vt 0.315770 0.203133
vt 0.318799 0.231389
vt 0.315381 0.248260
vt 0.315225 0.253539
vt 0.319086 0.279573
vt 0.318789 0.274769
vt 0.317034 0.276837
vt 0.316806 0.282137
vt 0.318103 0.266589
vt 0.318390 0.269132
vt 0.317323 0.270476
vt 0.319103 0.280702
vt 0.316775 0.283302
vt 0.318520 0.263390
vt 0.318525 0.264173
vt 0.315293 0.259194
vt 0.319764 0.272628
vt 0.319508 0.277291
vt 0.319534 0.278376
vt 0.318107 0.265759
vt 0.319476 0.234462
vt 0.320173 0.232541
vt 0.319540 0.234896
vt 0.318827 0.268972
vt 0.319252 0.274953
vt 0.315610 0.254761
vt 0.316229 0.255884
vt 0.315779 0.249418
vt 0.319203 0.272494
vt 0.319083 0.236396
vt 0.316531 0.230006
vt 0.316849 0.233308
vt 0.316568 0.229933
vt 0.316922 0.232966
vt 0.319067 0.236186
vt 0.316767 0.261167
vt 0.316726 0.255639
vt 0.316332 0.254419
vt 0.316693 0.256250
vt 0.316890 0.269207
vt 0.316602 0.275556
vt 0.316513 0.278129
vt 0.316816 0.271454
vt 0.318801 0.266821
vt 0.316420 0.250563
vt 0.317340 0.237910
vt 0.316769 0.261214
vt 0.316926 0.250594
vt 0.316514 0.249361
vt 0.317389 0.237335
vt 0.316897 0.251101
vt 0.317711 0.240652
vt 0.317698 0.240952
s 1
usemtl Graveyard
f 8/1/1 21/2/2 9/3/3
f 6/4/4 28/5/5 2/6/6
f 7/7/7 9/3/3 13/8/8
f 5/9/9 15/10/10 6/4/4
f 112/11/11 107/12/11 106/13/11
f 8/1/1 4/14/12 21/2/2
f 6/4/4 15/10/10 28/5/5
f 7/7/7 8/1/1 9/3/3
f 5/9/9 18/15/13 15/10/10
f 114/16/11 115/17/11 117/18/11
f 115/17/11 120/19/11 117/18/11
f 110/20/11 112/11/11 106/13/11
f 16/21/14 39/22/15 52/23/16 27/24/17
f 40/25/18 63/26/19 76/27/20 51/28/21
f 70/29/22 93/30/23 81/31/24 58/32/25
f 31/33/26 54/34/27 49/35/28 24/36/29
f 62/37/30 60/38/31 67/39/32 68/40/33
f 19/41/34 42/42/35 39/22/15 16/21/14
f 79/43/36 75/44/37 100/45/38 102/46/39
f 58/32/25 81/31/24 85/47/40 60/38/31
f 75/44/37 64/48/41 87/49/42 100/45/38
f 84/50/43 86/51/44 83/52/45 82/53/46
f 10/54/47 22/55/48 45/56/49 33/57/50
f 11/58/51 14/59/52 13/8/8 9/3/3
f 14/59/52 12/60/53 19/41/34 20/61/54
f 2/6/6 28/5/5 30/62/55 1/63/56
f 78/64/57 80/65/58 74/66/59 73/67/60
f 4/14/12 3/68/61 25/69/62 21/2/2
f 86/51/44 84/50/43 91/70/63 92/71/64
f 36/72/65 34/73/66 57/74/67 61/75/68
f 51/28/21 76/27/20 78/64/57 55/76/69
f 34/73/66 46/77/70 69/78/71 57/74/67
f 43/79/72 66/80/73 63/26/19 40/25/18
f 50/81/74 49/35/28 54/34/27 56/82/75
f 64/48/41 67/39/32 90/83/76 87/49/42
f 42/42/35 37/84/77 38/85/78 44/86/79
f 46/77/70 48/87/80 73/67/60 69/78/71
f 27/24/17 52/23/16 54/34/27 31/33/26
f 12/60/53 10/54/47 33/57/50 37/84/77
f 36/72/65 61/75/68 66/80/73 43/79/72
f 23/88/81 11/58/51 9/3/3 21/2/2
f 15/10/10 17/89/82 29/90/83 28/5/5
f 53/91/84 41/92/85 40/25/18 51/28/21
f 39/22/15 41/92/85 53/91/84 52/23/16
f 29/90/83 17/89/82 16/21/14 27/24/17
f 87/49/42 89/93/86 101/94/87 100/45/38
f 89/93/86 92/71/64 91/70/63 88/95/88
f 35/96/89 38/85/78 37/84/77 33/57/50
f 51/28/21 55/76/69 56/82/75 53/91/84
f 27/24/17 31/33/26 32/97/90 29/90/83
f 111/98/91 112/11/92 110/20/93 109/99/94
f 106/13/95 107/12/96 108/100/97 105/101/98
f 7/7/7 13/8/8 18/15/13 5/9/9
f 26/102/99 25/69/62 30/62/55 32/97/90
f 25/69/62 3/68/61 1/63/56 30/62/55
f 18/15/13 20/61/54 17/89/82 15/10/10
f 32/97/90 30/62/55 28/5/5 29/90/83
f 12/60/53 14/59/52 11/58/51 10/54/47
f 93/30/23 97/103/100 98/104/101 95/105/102
f 104/106/103 102/46/39 100/45/38 101/94/87
f 71/107/104 59/108/105 57/74/67 69/78/71
f 63/26/19 65/109/106 77/110/107 76/27/20
f 36/72/65 38/85/78 35/96/89 34/73/66
f 60/38/31 62/37/30 59/108/105 58/32/25
f 69/78/71 73/67/60 74/66/59 71/107/104
f 45/56/49 49/35/28 50/81/74 47/111/108
f 47/111/108 35/96/89 33/57/50 45/56/49
f 77/110/107 65/109/106 64/48/41 75/44/37
f 13/8/8 14/59/52 20/61/54 18/15/13
f 24/36/29 26/102/99 32/97/90 31/33/26
f 42/42/35 19/41/34 12/60/53 37/84/77
f 61/75/68 62/37/30 68/40/33 66/80/73
f 56/82/75 54/34/27 52/23/16 53/91/84
f 41/92/85 44/86/79 43/79/72 40/25/18
f 80/65/58 78/64/57 76/27/20 77/110/107
f 42/42/35 44/86/79 41/92/85 39/22/15
f 58/32/25 59/108/105 71/107/104 70/29/22
f 99/112/109 88/95/88 109/99/110 118/113/111
f 74/66/59 72/114/112 70/29/22 71/107/104
f 66/80/73 68/40/33 65/109/106 63/26/19
f 90/83/76 92/71/64 89/93/86 87/49/42
f 98/104/101 96/115/113 94/116/114 95/105/102
f 22/55/48 24/36/29 49/35/28 45/56/49
f 94/116/114 113/117/115 105/101/116 82/53/46
f 85/47/40 86/51/44 92/71/64 90/83/76
f 60/38/31 85/47/40 90/83/76 67/39/32
f 80/65/58 79/43/36 72/114/112 74/66/59
f 104/106/103 103/118/117 96/115/113 98/104/101
f 99/112/109 103/118/117 104/106/103 101/94/87
f 65/109/106 68/40/33 67/39/32 64/48/41
f 83/52/45 86/51/44 85/47/40 81/31/24
f 82/53/46 105/101/116 108/100/118 84/50/43
f 106/13/95 105/101/98 113/117/119 114/16/120
f 120/19/121 115/17/122 116/119/123 119/120/124
f 75/44/37 79/43/36 80/65/58 77/110/107
f 21/2/2 25/69/62 26/102/99 23/88/81
f 26/102/99 24/36/29 22/55/48 23/88/81
f 59/108/105 62/37/30 61/75/68 57/74/67
f 116/119/123 115/17/122 114/16/120 113/117/119
f 82/53/46 83/52/45 95/105/102 94/116/114
f 84/50/43 108/100/118 111/98/125 91/70/63
f 106/13/11 114/16/11 117/18/11 110/20/11
f 116/119/126 96/115/113 103/118/117 119/120/127
f 73/67/60 48/87/80 55/76/69 78/64/57
f 108/100/97 107/12/96 112/11/92 111/98/91
f 17/89/82 20/61/54 19/41/34 16/21/14
f 50/81/74 48/87/80 46/77/70 47/111/108
f 88/95/88 91/70/63 111/98/125 109/99/110
f 72/114/112 97/103/100 93/30/23 70/29/22
f 101/94/87 89/93/86 88/95/88 99/112/109
f 118/113/128 109/99/94 110/20/93 117/18/129
f 95/105/102 83/52/45 81/31/24 93/30/23
f 117/18/129 120/19/121 119/120/124 118/113/128
f 10/54/47 11/58/51 23/88/81 22/55/48
f 34/73/66 35/96/89 47/111/108 46/77/70
f 96/115/113 116/119/126 113/117/115 94/116/114
f 103/118/117 99/112/109 118/113/111 119/120/127
f 44/86/79 38/85/78 36/72/65 43/79/72
f 48/87/80 50/81/74 56/82/75 55/76/69
f 102/46/39 104/106/103 98/104/101 97/103/100
f 97/103/100 72/114/112 79/43/36 102/46/39
